<?xml version="1.0" encoding="UTF-8"?>
<svg version="1.1" xmlns="http://www.w3.org/2000/svg" width="512" height="512">
<path d="M0 0 C0.92222351 -0.00241196 1.84444702 -0.00482391 2.7946167 -0.00730896 C4.74121406 -0.00633223 6.6878398 0.00701984 8.63427734 0.03198242 C11.58659313 0.06614265 14.53588664 0.05266892 17.48828125 0.03320312 C19.38803339 0.04010691 21.28777787 0.04978409 23.1875 0.0625 C24.49270599 0.0550602 24.49270599 0.0550602 25.82427979 0.04747009 C34.87545014 0.21795335 42.90417495 3.18139465 49.53515625 9.44921875 C54.150586 14.96401489 57.21409334 21.17088089 57.92993164 28.33251953 C58.01255753 29.13843536 58.09518341 29.9443512 58.18031311 30.77468872 C58.26894875 31.6925264 58.26894875 31.6925264 58.359375 32.62890625 C59.55070431 32.62337549 59.55070431 32.62337549 60.76610088 32.617733 C80.08695626 32.52941398 99.40777138 32.46321224 118.72878551 32.42165756 C128.07227513 32.40102813 137.41563004 32.37290027 146.7590332 32.32714844 C154.90229787 32.28729231 163.04546498 32.26147621 171.18882447 32.25255227 C175.50112471 32.24733543 179.81314585 32.23506618 184.12535667 32.20598602 C188.1842127 32.17883616 192.24267465 32.17046031 196.30161285 32.17647552 C197.79114994 32.17537509 199.2807002 32.16741835 200.77015877 32.15208435 C202.8045765 32.13216734 204.83920567 32.13935544 206.873703 32.14788818 C208.01211734 32.14420101 209.15053167 32.14051384 210.32344341 32.13671494 C214.05869421 32.74228128 215.70358909 33.97635013 218.359375 36.62890625 C220.08092805 41.14518827 220.80750075 45.84913945 221.65185547 50.59399414 C226.56337178 77.80652019 241.06501041 102.61266509 263.85595703 118.73901367 C282.37650812 131.21041674 302.97698921 137.84415781 325.359375 137.75390625 C326.79796875 137.75970703 326.79796875 137.75970703 328.265625 137.765625 C333.40420127 137.75856652 338.27554439 137.45930751 343.359375 136.62890625 C348.21984998 136.19921208 352.02783229 135.87991348 356.359375 138.31640625 C358.5780296 140.88172563 359.62200705 142.31075048 360.359375 145.62890625 C359.69554407 154.4224334 357.92267582 163.08090418 356.33984375 171.74609375 C356.19129755 172.56258518 356.04275135 173.37907661 355.88970375 174.22031021 C355.10398028 178.53894709 354.31466911 182.85690934 353.5222168 187.17431641 C352.71006337 191.60273043 351.90974438 196.03319565 351.11220837 200.46426201 C350.49151132 203.9006735 349.86214453 207.33545752 349.23049355 210.76987076 C348.93193185 212.40135188 348.63651318 214.03341177 348.34447289 215.66607285 C344.05371741 239.60295363 344.05371741 239.60295363 337.296875 247.00390625 C336.62527344 247.77476562 335.95367187 248.545625 335.26171875 249.33984375 C324.55386886 257.78506587 313.65071046 257.34901425 300.6496582 257.28833008 C298.5593826 257.29679241 296.46911488 257.30744069 294.37886047 257.32009888 C288.73082088 257.34815493 283.08316226 257.34578949 277.43507409 257.33780503 C271.52267414 257.33467259 265.61039394 257.35973596 259.69804382 257.38175964 C248.51402594 257.41916136 237.33012965 257.43134536 226.1460554 257.43438405 C213.40837839 257.43907906 200.67082286 257.47201666 187.93319952 257.5072819 C161.74193939 257.57916432 135.55072584 257.61572488 109.359375 257.62890625 C109.54113281 258.42586914 109.72289062 259.22283203 109.91015625 260.04394531 C110.7310003 263.65460675 111.54525841 267.26672226 112.359375 270.87890625 C112.64554688 272.13316406 112.93171875 273.38742187 113.2265625 274.6796875 C113.49726563 275.88496094 113.76796875 277.09023438 114.046875 278.33203125 C114.42392578 279.99733887 114.42392578 279.99733887 114.80859375 281.69628906 C115.359375 284.62890625 115.359375 284.62890625 115.359375 288.62890625 C116.42452174 288.62429729 117.48966848 288.61968832 118.5870924 288.61493969 C144.53683103 288.50380848 170.4865387 288.42171424 196.43646526 288.36984539 C208.98580586 288.34409354 221.534989 288.30900056 234.08422852 288.25170898 C245.0255991 288.20178181 255.9668556 288.16959331 266.90833694 288.15846378 C272.69868046 288.15196086 278.48869771 288.13673978 284.27893639 288.10025597 C289.73643612 288.06614949 295.19347726 288.05588288 300.65107346 288.06336784 C302.64682195 288.06199984 304.64258685 288.05215532 306.63824272 288.03287888 C320.49140615 287.90570737 331.73222647 288.58315767 342.796875 297.94140625 C352.76118199 307.74421718 357.70772158 316.98239985 357.859375 331.12890625 C357.6892081 344.59172589 353.19234953 354.91016259 343.484375 364.4765625 C334.22143159 372.02200182 322.20573817 375.64172509 310.359375 374.62890625 C297.16321653 372.2643772 287.24164424 367.21535644 278.71875 356.58203125 C272.66369492 347.4629724 270.3326527 336.45001887 271.359375 325.62890625 C272.60171514 320.51837066 273.99949591 315.34866442 276.359375 310.62890625 C233.129375 310.62890625 189.899375 310.62890625 145.359375 310.62890625 C147.339375 316.07390625 147.339375 316.07390625 149.359375 321.62890625 C149.72391678 324.95266958 149.93853773 327.83642502 149.859375 331.12890625 C149.84729004 331.94987793 149.83520508 332.77084961 149.82275391 333.61669922 C149.45547199 344.89114109 145.25960844 354.32176016 137.546875 362.56640625 C127.91746805 371.57456114 116.78830772 375.18219469 103.80078125 374.94140625 C94.195666 374.06920509 85.82442691 370.68601124 78.359375 364.62890625 C77.73417969 364.12746094 77.10898438 363.62601562 76.46484375 363.109375 C68.46717801 355.94806646 64.01274484 345.26516627 63.109375 334.70703125 C62.600548 321.41392577 66.40846638 310.51121453 75.359375 300.62890625 C80.28612538 296.07728915 86.37370636 290.62890625 93.359375 290.62890625 C93.13285028 289.82335297 92.90632555 289.01779968 92.67293644 288.18783569 C89.36339914 276.12719804 86.68348018 263.94221346 83.99584961 251.73046875 C83.46841143 249.34548988 82.94066754 246.96057859 82.41264343 244.57572937 C81.28252701 239.46897451 80.15427064 234.36181253 79.02757072 229.25430298 C77.39673456 221.8620584 75.76095915 214.47091298 74.12376625 207.08007395 C71.464262 195.0741604 68.8066083 183.06783827 66.15112305 171.06103516 C65.99267879 170.34463446 65.83423453 169.62823377 65.67098892 168.89012396 C63.41836473 158.70448797 61.16787918 148.51838069 58.91830874 138.33206987 C58.75956129 137.61324365 58.60081384 136.89441743 58.43725586 136.15380859 C58.2787052 135.43586734 58.12015454 134.71792609 57.95679932 133.97822905 C55.31178782 122.00186809 52.6614593 110.02669132 50.00673872 98.05247879 C48.37245723 90.67999893 46.74262501 83.30656355 45.11855663 75.93182701 C43.87508793 70.28723091 42.62447019 64.64423772 41.37120247 59.00181007 C40.85884963 56.68964223 40.34886647 54.37694783 39.84143066 52.06369591 C39.14840347 48.90600523 38.44689822 45.75031358 37.74327087 42.5949707 C37.54462667 41.68009195 37.34598246 40.7652132 37.14131874 39.82261086 C35.29288207 30.48914549 35.29288207 30.48914549 29.359375 23.62890625 C26.53121237 23.43546755 23.79333884 23.35192998 20.96484375 23.35546875 C19.27017575 23.33517432 17.57551434 23.31432343 15.88085938 23.29296875 C13.21470583 23.27040125 10.54881292 23.25391051 7.88256836 23.24804688 C5.30534959 23.23849366 2.72929921 23.20467828 0.15234375 23.16796875 C-1.03389336 23.17553696 -1.03389336 23.17553696 -2.24409485 23.18325806 C-7.4860827 23.09063759 -10.46388795 22.06992005 -14.640625 18.62890625 C-16.62840062 15.77712589 -16.92627489 13.62515599 -16.640625 10.19140625 C-16.599375 9.45019531 -16.558125 8.70898438 -16.515625 7.9453125 C-13.62730428 0.29899915 -7.09871432 -0.1071653 0 0 Z M95.91796875 320.0625 C92.11464054 324.40761285 90.99336697 327.79617166 91.078125 333.5703125 C91.70784245 338.17949437 94.63057775 340.98687057 97.984375 343.94140625 C102.39739078 347.07697009 106.03688614 347.27514436 111.359375 346.62890625 C115.70668725 344.41423775 118.84370337 341.8216923 121.359375 337.62890625 C122.77485119 332.86194773 122.83563557 328.88868938 120.796875 324.31640625 C118.59825261 320.56229591 116.35163008 318.51204544 112.359375 316.62890625 C105.94405531 314.97036759 100.87231912 315.13500248 95.91796875 320.0625 Z M303.84765625 320.0625 C300.1126067 324.35406124 298.98149965 327.8224873 299.0859375 333.50390625 C299.64696538 337.86389431 301.58198073 341.10349699 304.90234375 343.953125 C309.41830635 346.898318 313.04833643 347.21902165 318.359375 346.62890625 C323.22916339 344.91015741 326.8591002 342.19289993 329.359375 337.62890625 C330.87532817 332.8695184 330.82646806 328.8957822 328.796875 324.31640625 C326.28719909 320.01655197 323.30065879 317.49152308 318.44140625 316.06640625 C312.85199623 315.02852741 308.11698098 316.0138122 303.84765625 320.0625 Z " fill="#F0F0F0" transform="translate(58.640625,95.37109375)"/>
<path d="M0 0 C1.14275391 0.99966797 1.14275391 0.99966797 2.30859375 2.01953125 C17.94237843 16.62370793 26.92544521 38.18718784 28.203125 59.3671875 C28.52351211 83.34282299 21.31009825 105.97322188 4.55761719 123.51635742 C-12.45084386 140.74021643 -33.46422358 149.67413102 -57.75 150.3125 C-82.85055206 149.83890468 -104.56849035 139.99843653 -122 122 C-137.83254516 105.12619133 -144.62682477 82.76308467 -144.25 59.89453125 C-142.70289388 35.79351873 -132.09298348 14.04154855 -114 -2 C-80.59502025 -29.31490221 -32.36184341 -28.46789802 0 0 Z M-65 19 C-67.45854957 21.48141811 -67.97662423 22.77351481 -68.34057617 26.29980469 C-68.32486572 27.57758789 -68.30915527 28.85537109 -68.29296875 30.171875 C-68.28660149 31.1955014 -68.28660149 31.1955014 -68.28010559 32.23980713 C-68.26336972 34.41028004 -68.22572959 36.57980979 -68.1875 38.75 C-68.17244646 40.22524697 -68.15875922 41.70050855 -68.14648438 43.17578125 C-68.11348377 46.78415844 -68.06173767 50.3919871 -68 54 C-69.36934692 53.9685791 -69.36934692 53.9685791 -70.76635742 53.93652344 C-74.16766535 53.86817283 -77.56823899 53.81811671 -80.9699707 53.78027344 C-82.43948921 53.76021175 -83.90892841 53.73295522 -85.37817383 53.69824219 C-87.49580487 53.64947859 -89.61237687 53.62697839 -91.73046875 53.609375 C-93.00301514 53.58842773 -94.27556152 53.56748047 -95.58666992 53.54589844 C-99.60625067 54.08065419 -101.18967486 55.12777908 -104 58 C-105.81042834 62.07346377 -106.34516794 64.00284818 -104.875 68.25 C-102.98466196 71.02249579 -101.87661949 72.33844192 -99 74 C-95.61105897 74.41363324 -95.61105897 74.41363324 -91.828125 74.29296875 C-91.1457074 74.28872391 -90.46328979 74.28447906 -89.76019287 74.28010559 C-87.58971996 74.26336972 -85.42019021 74.22572959 -83.25 74.1875 C-81.77475303 74.17244646 -80.29949145 74.15875922 -78.82421875 74.14648438 C-75.21584156 74.11348377 -71.6080129 74.06173767 -68 74 C-68.02094727 74.91289795 -68.04189453 75.8257959 -68.06347656 76.76635742 C-68.13182717 80.16766535 -68.18188329 83.56823899 -68.21972656 86.9699707 C-68.23978825 88.43948921 -68.26704478 89.90892841 -68.30175781 91.37817383 C-68.35052141 93.49580487 -68.37302161 95.61237687 -68.390625 97.73046875 C-68.41157227 99.00301514 -68.43251953 100.27556152 -68.45410156 101.58666992 C-67.91934581 105.60625067 -66.87222092 107.18967486 -64 110 C-59.92653623 111.81042834 -57.99715182 112.34516794 -53.75 110.875 C-50.97750421 108.98466196 -49.66155808 107.87661949 -48 105 C-47.58636676 101.61105897 -47.58636676 101.61105897 -47.70703125 97.828125 C-47.71339851 96.8044986 -47.71339851 96.8044986 -47.71989441 95.76019287 C-47.73663028 93.58971996 -47.77427041 91.42019021 -47.8125 89.25 C-47.82755354 87.77475303 -47.84124078 86.29949145 -47.85351562 84.82421875 C-47.88651623 81.21584156 -47.93826233 77.6080129 -48 74 C-47.12263184 74.02094727 -46.24526367 74.04189453 -45.34130859 74.06347656 C-42.06483317 74.131926 -38.78912488 74.18193051 -35.51220703 74.21972656 C-34.09802205 74.23975843 -32.68391903 74.26699248 -31.27001953 74.30175781 C-29.22928581 74.35065489 -27.1896531 74.37305123 -25.1484375 74.390625 C-23.92302246 74.41157227 -22.69760742 74.43251953 -21.43505859 74.45410156 C-17.33799271 73.91248518 -15.19715838 72.56751453 -12 70 C-10.39152818 66.78305636 -10.38690851 63.47862778 -11 60 C-13.17574416 57.30894802 -14.91065856 55.54467072 -18 54 C-20.25120742 53.91426606 -22.50499303 53.89287812 -24.7578125 53.90234375 C-25.42086395 53.9037587 -26.08391541 53.90517365 -26.76705933 53.90663147 C-28.88641863 53.91223246 -31.00567259 53.924785 -33.125 53.9375 C-34.56119639 53.94251488 -35.99739444 53.94707781 -37.43359375 53.95117188 C-40.95576345 53.96220218 -44.47787145 53.97946741 -48 54 C-47.97905273 53.08710205 -47.95810547 52.1742041 -47.93652344 51.23364258 C-47.86817283 47.83233465 -47.81811671 44.43176101 -47.78027344 41.0300293 C-47.76021175 39.56051079 -47.73295522 38.09107159 -47.69824219 36.62182617 C-47.64947859 34.50419513 -47.62697839 32.38762313 -47.609375 30.26953125 C-47.58842773 28.99698486 -47.56748047 27.72443848 -47.54589844 26.41333008 C-48.08065419 22.39374933 -49.12777908 20.81032514 -52 18 C-57.37249727 15.61222344 -60.13305055 15.68162538 -65 19 Z " fill="#F0F0F0" transform="translate(442,64)"/>
</svg>
