<?xml version="1.0" standalone="no"?>
<!DOCTYPE svg PUBLIC "-//W3C//DTD SVG 20010904//EN"
 "http://www.w3.org/TR/2001/REC-SVG-20010904/DTD/svg10.dtd">
<svg version="1.0" xmlns="http://www.w3.org/2000/svg"
 width="512.000000pt" height="512.000000pt" viewBox="0 0 512.000000 512.000000"
 preserveAspectRatio="xMidYMid meet">

<g transform="translate(0.000000,512.000000) scale(0.100000,-0.100000)"
fill="#000000" stroke="none">
<path d="M3663 4675 c-169 -39 -303 -114 -428 -239 -163 -164 -245 -364 -245
-596 0 -470 377 -850 845 -850 239 0 438 82 606 249 167 168 249 367 249 604
0 119 -16 201 -59 312 -43 112 -101 196 -201 295 -100 99 -191 154 -330 201
-86 29 -108 32 -235 35 -95 2 -160 -1 -202 -11z m227 -368 c48 -24 60 -68 60
-219 l0 -138 135 0 c95 0 146 -4 170 -14 35 -15 65 -59 65 -96 0 -37 -30 -81
-65 -96 -24 -10 -75 -14 -169 -14 l-135 0 -3 -149 c-3 -134 -5 -153 -24 -178
-41 -55 -127 -55 -168 0 -19 25 -21 44 -24 177 l-3 149 -149 3 c-133 3 -152 5
-177 24 -55 41 -55 127 0 168 25 19 44 21 178 24 l149 3 0 137 c0 110 3 144
18 172 18 38 53 60 92 60 14 0 36 -6 50 -13z"/>
<path d="M494 4150 c-66 -27 -85 -120 -35 -171 l29 -29 182 0 c207 0 240 -8
265 -62 12 -27 585 -2589 585 -2617 0 -5 -26 -21 -57 -37 -79 -38 -157 -118
-196 -201 -26 -57 -32 -83 -35 -159 -5 -100 10 -163 55 -240 34 -60 124 -141
190 -172 52 -24 69 -27 173 -27 108 0 119 2 180 31 122 59 203 156 236 284 19
76 15 172 -10 240 -10 25 -20 53 -23 63 -5 16 31 17 661 17 366 0 666 -2 666
-4 0 -2 -10 -26 -22 -53 -18 -40 -22 -67 -22 -158 -1 -109 0 -113 37 -187 45
-91 112 -157 207 -202 60 -29 73 -31 170 -31 85 1 116 5 160 23 111 44 203
140 246 256 14 37 19 77 19 147 0 90 -2 99 -37 170 -46 93 -122 168 -215 212
l-68 32 -1047 3 c-982 2 -1047 4 -1052 20 -6 20 -66 289 -66 297 0 2 478 6
1063 7 l1062 3 57 28 c70 35 141 111 162 175 18 55 166 852 166 893 0 17 -11
42 -29 61 -33 37 -53 39 -205 19 -310 -40 -647 84 -876 325 -152 160 -251 357
-280 559 -14 94 -35 145 -70 162 -19 10 -195 13 -787 13 l-763 0 -6 28 c-33
150 -108 242 -227 277 -56 17 -405 21 -443 5z m1232 -3156 c47 -22 76 -67 82
-125 8 -84 -36 -147 -118 -169 -110 -30 -220 79 -191 187 29 105 131 153 227
107z m2080 0 c47 -22 76 -67 82 -125 8 -84 -36 -147 -118 -169 -110 -30 -220
79 -191 187 29 105 131 153 227 107z"/>
</g>
</svg>
