<?xml version="1.0" encoding="UTF-8"?>
<svg version="1.1" xmlns="http://www.w3.org/2000/svg" width="512" height="512">
<path d="M0 0 C4.28567529 3.0566362 6.37383007 6.00446006 8.47265625 10.87109375 C8.85792542 14.1227417 8.85792542 14.1227417 8.87329102 17.67089844 C8.88027008 18.32205124 8.88724915 18.97320404 8.8944397 19.64408875 C8.91429231 21.77718342 8.91391576 23.90979031 8.9140625 26.04296875 C8.92584176 27.5317718 8.93920733 29.02056308 8.9540863 30.50933838 C8.99017019 34.4146028 9.01044839 38.31976265 9.02563477 42.22515869 C9.05053074 48.48984664 9.09001076 54.75430389 9.14753532 61.01877594 C9.1638869 63.20696902 9.16764297 65.39494422 9.17054749 67.58319092 C9.18031917 68.91842023 9.19058169 70.25364607 9.20141602 71.58886719 C9.20569107 72.75657654 9.20996613 73.92428589 9.21437073 75.12738037 C9.19205833 78.01564401 9.19205833 78.01564401 11.47265625 79.87109375 C14.33731438 80.17599229 14.33731438 80.17599229 17.73901367 80.12646484 C19.71698189 80.13690323 19.71698189 80.13690323 21.73490906 80.14755249 C22.44222357 80.14687145 23.14953808 80.14619041 23.87828636 80.14548874 C26.0942798 80.14452422 28.30978711 80.15745848 30.52571106 80.17446899 C36.82675333 80.22074909 43.12774879 80.24532504 49.42895508 80.25195312 C53.28292715 80.25698473 57.13639664 80.28132379 60.99019814 80.31727982 C62.45528449 80.32704612 63.9204403 80.32942709 65.38554955 80.32410812 C74.24933463 80.29345623 80.17093286 80.60641076 87.25 86.30078125 C91.18818556 91.20693835 91.25160918 96.35242947 91.0234375 102.48046875 C90.21950877 107.42947682 88.35074827 110.70318731 84.47265625 113.87109375 C79.50921127 116.87030966 75.64165657 117.33525741 70.01171875 117.3828125 C69.22115082 117.4007637 68.43058289 117.4187149 67.61605835 117.43721008 C65.10997734 117.49106081 62.60408398 117.52512656 60.09765625 117.55859375 C58.39059903 117.59178923 56.68356649 117.62628094 54.9765625 117.66210938 C50.80872972 117.74677227 46.64095015 117.81370282 42.47265625 117.87109375 C43.36017578 119.33869141 43.36017578 119.33869141 44.265625 120.8359375 C66.56460619 157.79163685 82.44603244 198.92451481 82.67578125 242.6640625 C82.68284088 243.56451294 82.68990051 244.46496338 82.69717407 245.3927002 C82.92649865 283.22677481 82.92649865 283.22677481 79.47265625 299.87109375 C79.16666504 301.36165283 79.16666504 301.36165283 78.85449219 302.88232422 C64.77813397 369.4428041 26.36020329 426.70108444 -30.49755859 464.16943359 C-34.75781806 466.88581183 -39.11841265 469.40526564 -43.52734375 471.87109375 C-44.22875488 472.26893066 -44.93016602 472.66676758 -45.65283203 473.07666016 C-78.0554403 491.32493197 -115.95760566 502.87796529 -153.3203125 503.07421875 C-154.67098816 503.0848082 -154.67098816 503.0848082 -156.0489502 503.09561157 C-193.88302481 503.32493615 -193.88302481 503.32493615 -210.52734375 499.87109375 C-212.01790283 499.56510254 -212.01790283 499.56510254 -213.53857422 499.25292969 C-280.03248422 485.19064981 -337.48999462 446.7704878 -374.84179688 389.86865234 C-377.54297384 385.6137496 -380.0567812 381.26282422 -382.52734375 376.87109375 C-382.88747559 376.24509277 -383.24760742 375.6190918 -383.61865234 374.97412109 C-402.12374001 342.65342368 -413.43148389 304.34698494 -413.765625 267 C-413.77541885 266.08819977 -413.78521271 265.17639954 -413.79530334 264.23696899 C-413.96698011 244.10901693 -413.80370369 224.63217257 -409.52734375 204.87109375 C-409.31303711 203.85402344 -409.09873047 202.83695313 -408.87792969 201.7890625 C-400.69716934 163.92178754 -383.77960167 129.05114298 -359.52734375 98.87109375 C-359.05506348 98.28312012 -358.5827832 97.69514648 -358.09619141 97.08935547 C-347.01592541 83.44889088 -334.60019705 70.43482472 -320.52734375 59.87109375 C-319.87540039 59.38044434 -319.22345703 58.88979492 -318.55175781 58.38427734 C-308.56145434 50.90614232 -298.40353008 43.98947893 -287.52734375 37.87109375 C-286.90134277 37.51096191 -286.2753418 37.15083008 -285.63037109 36.77978516 C-253.38989938 18.32063039 -215.01371928 6.86378434 -177.734375 6.66796875 C-176.83392456 6.66090912 -175.93347412 6.65384949 -175.0057373 6.64657593 C-137.17166269 6.41725135 -137.17166269 6.41725135 -120.52734375 9.87109375 C-119.03678467 10.17708496 -119.03678467 10.17708496 -117.51611328 10.48925781 C-85.48575314 17.26310956 -56.0329658 29.12613221 -28.52734375 46.87109375 C-28.5133252 45.29026001 -28.5133252 45.29026001 -28.49902344 43.67749023 C-28.45895286 39.74282585 -28.39314823 35.80892941 -28.31982422 31.87475586 C-28.29171304 30.17661453 -28.27044973 28.47834474 -28.25634766 26.7800293 C-28.23478023 24.32925118 -28.18806369 21.88000139 -28.13671875 19.4296875 C-28.13549011 18.67836044 -28.13426147 17.92703339 -28.13299561 17.15293884 C-27.98260248 11.65986457 -26.62918312 8.4221473 -23.52734375 3.87109375 C-17.27541824 -1.9233738 -7.96485598 -3.55771774 0 0 Z " fill="#FE9900" transform="translate(421.52734375,1.12890625)"/>
<path d="M0 0 C0.85163727 -0.01283524 1.70327454 -0.02567047 2.58071899 -0.03889465 C3.49944794 -0.04628159 4.41817688 -0.05366852 5.36474609 -0.0612793 C6.31578217 -0.06935104 7.26681824 -0.07742279 8.24667358 -0.08573914 C10.26241233 -0.09957383 12.27817444 -0.11029874 14.29394531 -0.11816406 C17.35576768 -0.13531645 20.41649301 -0.17920107 23.47802734 -0.22338867 C25.44025902 -0.23352145 27.40249985 -0.24203572 29.36474609 -0.2487793 C30.72462143 -0.27504143 30.72462143 -0.27504143 32.11196899 -0.30183411 C41.61407298 -0.26990137 49.82191597 3.490641 56.73193359 10.04418945 C66.9700746 20.7789567 70.4512473 35.59773939 75.07568359 49.36450195 C78.38599609 59.17168945 78.38599609 59.17168945 81.76318359 69.17700195 C100.57318359 69.50700195 119.38318359 69.83700195 138.76318359 70.17700195 C138.76318359 74.13700195 138.76318359 78.09700195 138.76318359 82.17700195 C134.80318359 82.17700195 130.84318359 82.17700195 126.76318359 82.17700195 C126.52857422 83.81926758 126.29396484 85.4615332 126.05224609 87.15356445 C124.37968469 98.00617393 122.22574355 108.77314068 120.13818359 119.55200195 C119.91764313 120.6911908 119.69710266 121.83037964 119.46987915 123.00408936 C118.34071577 128.83015857 117.20710406 134.65534159 116.06933594 140.47973633 C115.23813864 144.73511256 114.41244316 148.99146846 113.59375 153.24926758 C112.72283882 157.77572899 111.83763959 162.29913798 110.94000244 166.82037354 C110.61792914 168.4537998 110.3006986 170.08818964 109.9887085 171.72357178 C105.41002616 195.65965985 105.41002616 195.65965985 95.91162109 202.51293945 C90.44643404 206.05405317 85.77113701 208.41939301 79.14204407 208.45115662 C77.46216652 208.46611931 77.46216652 208.46611931 75.74835205 208.48138428 C74.52903992 208.48204895 73.30972778 208.48271362 72.0534668 208.48339844 C70.76182114 208.49172195 69.47017548 208.50004547 68.13938904 208.50862122 C64.60192767 208.53052873 61.06455272 208.53936048 57.52703118 208.54444766 C55.31327501 208.54809684 53.09954128 208.55433992 50.88579369 208.56144905 C43.15196112 208.58593426 35.4181955 208.59899263 27.68432617 208.60253906 C20.49345126 208.60616968 13.30300438 208.63603306 6.11226016 208.67794365 C-0.07479699 208.71273042 -6.26171293 208.72808898 -12.44886714 208.7287851 C-16.13812012 208.72957532 -19.82693719 208.73819465 -23.51608849 208.76678276 C-27.63773739 208.79800837 -31.75837855 208.78886396 -35.88012695 208.77636719 C-37.69391342 208.79861862 -37.69391342 208.79861862 -39.54434204 208.82131958 C-47.28753088 208.75465243 -52.66106931 207.27334224 -59.23681641 203.17700195 C-60.14431641 202.62012695 -61.05181641 202.06325195 -61.98681641 201.48950195 C-68.63709042 194.65449811 -71.80840268 186.20489862 -73.46337891 176.9621582 C-73.68646729 175.73843506 -73.90955566 174.51471191 -74.1394043 173.25390625 C-74.25655792 172.6022348 -74.37371155 171.95056335 -74.49441528 171.27914429 C-76.8985678 157.93239342 -79.54234806 144.6423879 -82.29931641 131.36450195 C-84.70921324 119.73587266 -87.06899148 108.10353187 -89.23681641 96.42700195 C-89.54824585 94.7586731 -89.54824585 94.7586731 -89.8659668 93.05664062 C-91.23681641 85.56462083 -91.23681641 85.56462083 -91.23681641 82.17700195 C-95.19681641 82.17700195 -99.15681641 82.17700195 -103.23681641 82.17700195 C-103.23681641 78.21700195 -103.23681641 74.25700195 -103.23681641 70.17700195 C-75.02181641 69.68200195 -75.02181641 69.68200195 -46.23681641 69.17700195 C-41.55911659 55.19582554 -41.55911659 55.19582554 -36.90429688 41.20703125 C-26.70311574 10.79024222 -26.70311574 10.79024222 -11.92431641 3.23950195 C-7.89597077 1.37394157 -4.46454731 0.05876857 0 0 Z " fill="#FEFEFD" transform="translate(238.23681640625,151.822998046875)"/>
<path d="M0 0 C4.28567529 3.0566362 6.37383007 6.00446006 8.47265625 10.87109375 C8.85792542 14.1227417 8.85792542 14.1227417 8.87329102 17.67089844 C8.88375961 18.64762764 8.88375961 18.64762764 8.8944397 19.64408875 C8.91429231 21.77718342 8.91391576 23.90979031 8.9140625 26.04296875 C8.92584176 27.5317718 8.93920733 29.02056308 8.9540863 30.50933838 C8.99017019 34.4146028 9.01044839 38.31976265 9.02563477 42.22515869 C9.05053074 48.48984664 9.09001076 54.75430389 9.14753532 61.01877594 C9.1638869 63.20696902 9.16764297 65.39494422 9.17054749 67.58319092 C9.18031917 68.91842023 9.19058169 70.25364607 9.20141602 71.58886719 C9.2078286 73.34043121 9.2078286 73.34043121 9.21437073 75.12738037 C9.19205833 78.01564401 9.19205833 78.01564401 11.47265625 79.87109375 C14.33731438 80.17599229 14.33731438 80.17599229 17.73901367 80.12646484 C19.71698189 80.13690323 19.71698189 80.13690323 21.73490906 80.14755249 C22.44222357 80.14687145 23.14953808 80.14619041 23.87828636 80.14548874 C26.0942798 80.14452422 28.30978711 80.15745848 30.52571106 80.17446899 C36.82675333 80.22074909 43.12774879 80.24532504 49.42895508 80.25195312 C53.28292715 80.25698473 57.13639664 80.28132379 60.99019814 80.31727982 C62.45528449 80.32704612 63.9204403 80.32942709 65.38554955 80.32410812 C74.24933463 80.29345623 80.17093286 80.60641076 87.25 86.30078125 C91.18818556 91.20693835 91.25160918 96.35242947 91.0234375 102.48046875 C90.21950877 107.42947682 88.35074827 110.70318731 84.47265625 113.87109375 C79.91684413 116.55510687 76.63093195 117.24018189 71.36572266 117.21166992 C70.34028351 117.21232704 70.34028351 117.21232704 69.29412842 117.21299744 C67.0538592 117.21092174 64.81435582 117.18764999 62.57421875 117.1640625 C61.01338103 117.15846217 59.45253801 117.15419414 57.89169312 117.15119934 C53.79808812 117.13978488 49.70480614 117.11034741 45.61132812 117.0770874 C41.42842986 117.04631287 37.24547902 117.03267828 33.0625 117.01757812 C24.86573774 116.98547406 16.66923726 116.93431936 8.47265625 116.87109375 C8.48375931 117.71776611 8.49486237 118.56443848 8.50630188 119.43676758 C8.60674183 127.43976891 8.6827415 135.4425567 8.73171711 143.44604492 C8.75774325 147.56017072 8.79301151 151.67377306 8.84985352 155.78759766 C8.90442555 159.76228942 8.93412925 163.73647966 8.94704247 167.71151733 C8.95623751 169.22333667 8.97419337 170.73513046 9.00130653 172.24673462 C9.26995706 187.85384734 9.26995706 187.85384734 3.47265625 193.87109375 C-1.66275298 198.38426632 -6.13609918 199.63357273 -12.9765625 199.29296875 C-17.90119391 198.47848147 -20.53758804 195.97082231 -23.77734375 192.37109375 C-27.03525946 187.71692845 -27.77543649 184.84850344 -27.75439453 179.08300781 C-27.75468658 178.40942734 -27.75497864 177.73584686 -27.75527954 177.04185486 C-27.75389016 174.82334349 -27.73834776 172.60517119 -27.72265625 170.38671875 C-27.71892472 168.84544051 -27.71607841 167.30415988 -27.71408081 165.76287842 C-27.70645536 161.71207089 -27.68681628 157.66140745 -27.66467285 153.61065674 C-27.64419095 149.47483265 -27.63507408 145.33898522 -27.625 141.203125 C-27.6035693 133.0923819 -27.56944656 124.98175576 -27.52734375 116.87109375 C-28.37401611 116.88219681 -29.22068848 116.89329987 -30.09301758 116.90473938 C-38.09601891 117.00517933 -46.0988067 117.081179 -54.10229492 117.13015461 C-58.21642072 117.15618075 -62.33002306 117.19144901 -66.44384766 117.24829102 C-70.41853942 117.30286305 -74.39272966 117.33256675 -78.36776733 117.34547997 C-79.87958667 117.35467501 -81.39138046 117.37263087 -82.90298462 117.39974403 C-98.51009734 117.66839456 -98.51009734 117.66839456 -104.52734375 111.87109375 C-109.04051632 106.73568452 -110.28982273 102.26233832 -109.94921875 95.421875 C-109.13473147 90.49724359 -106.62707231 87.86084946 -103.02734375 84.62109375 C-98.37317845 81.36317804 -95.50475344 80.62300101 -89.73925781 80.64404297 C-89.06567734 80.64375092 -88.39209686 80.64345886 -87.69810486 80.64315796 C-85.47959349 80.64454734 -83.26142119 80.66008974 -81.04296875 80.67578125 C-79.50169051 80.67951278 -77.96040988 80.68235909 -76.41912842 80.68435669 C-72.36832089 80.69198214 -68.31765745 80.71162122 -64.26690674 80.73376465 C-60.13108265 80.75424655 -55.99523522 80.76336342 -51.859375 80.7734375 C-43.7486319 80.7948682 -35.63800576 80.82899094 -27.52734375 80.87109375 C-27.5362262 80.0096727 -27.54510864 79.14825165 -27.55426025 78.26072693 C-27.63455682 70.12493491 -27.69538455 61.98927684 -27.73459244 53.85317898 C-27.75542767 49.67074556 -27.78367019 45.48864079 -27.82910156 41.30639648 C-27.87270555 37.26688998 -27.89651141 33.2276987 -27.90685272 29.18797493 C-27.91421812 27.65023909 -27.92860109 26.11251963 -27.95026398 24.57491875 C-28.15266747 9.60727768 -28.15266747 9.60727768 -23.52734375 3.87109375 C-17.27541824 -1.9233738 -7.96485598 -3.55771774 0 0 Z " fill="#FEFDFC" transform="translate(421.52734375,1.12890625)"/>
<path d="M0 0 C2.49341442 0.03441044 4.98329158 0.0205921 7.47680664 0.0012207 C17.62132345 0.01085595 24.57435891 1.09392616 33.18188477 6.72192383 C41.30412202 15.21335368 44.08775324 28.25437392 47.74438477 39.15942383 C48.34727745 40.93632802 48.95078814 42.71302265 49.55493164 44.48950195 C53.93188477 57.40661939 53.93188477 57.40661939 53.93188477 58.59692383 C20.27188477 58.59692383 -13.38811523 58.59692383 -48.06811523 58.59692383 C-31.32896105 8.37946128 -31.32896105 8.37946128 -22.01733398 2.93286133 C-14.96781955 -0.47311992 -7.66509134 -0.1171339 0 0 Z " fill="#FE9901" transform="translate(253.068115234375,163.403076171875)"/>
<path d="M0 0 C3.96 0 7.92 0 12 0 C12 22.77 12 45.54 12 69 C8.04 69 4.08 69 0 69 C0 46.23 0 23.46 0 0 Z " fill="#FE9902" transform="translate(250,257)"/>
<path d="M0 0 C4.29 0 8.58 0 13 0 C13 19.47 13 38.94 13 59 C8.71 59 4.42 59 0 59 C0 39.53 0 20.06 0 0 Z " fill="#FE9E0E" transform="translate(293,262)"/>
<path d="M0 0 C3.96 0 7.92 0 12 0 C12 19.47 12 38.94 12 59 C8.04 59 4.08 59 0 59 C0 39.53 0 20.06 0 0 Z " fill="#FE9901" transform="translate(206,262)"/>
</svg>
