<?xml version="1.0" encoding="UTF-8"?>
<svg version="1.1" xmlns="http://www.w3.org/2000/svg" width="512" height="512">
<path d="M0 0 C0.90045044 -0.00705963 1.80090088 -0.01411926 2.7286377 -0.02139282 C40.56271231 -0.2507174 40.56271231 -0.2507174 57.20703125 3.203125 C58.69759033 3.50911621 58.69759033 3.50911621 60.21826172 3.82128906 C116.92522511 15.81380371 171.93488599 46.2140709 207.20703125 93.203125 C207.94300537 94.18104004 207.94300537 94.18104004 208.69384766 95.17871094 C216.17006772 105.16645615 223.11651041 115.31319857 229.20703125 126.203125 C229.60486816 126.90453613 230.00270508 127.60594727 230.41259766 128.32861328 C248.66086947 160.73122155 260.21390279 198.63338691 260.41015625 235.99609375 C260.41721588 236.89654419 260.42427551 237.79699463 260.43154907 238.72473145 C260.66087365 276.55880606 260.66087365 276.55880606 257.20703125 293.203125 C256.90104004 294.69368408 256.90104004 294.69368408 256.58886719 296.21435547 C242.51250897 362.77483535 204.09457829 420.03311569 147.23681641 457.50146484 C142.97655694 460.21784308 138.61596235 462.73729689 134.20703125 465.203125 C133.50562012 465.60096191 132.80420898 465.99879883 132.08154297 466.40869141 C99.6789347 484.65696322 61.77676934 496.20999654 24.4140625 496.40625 C23.06338684 496.41683945 23.06338684 496.41683945 21.6854248 496.42764282 C-16.14864981 496.6569674 -16.14864981 496.6569674 -32.79296875 493.203125 C-34.28352783 492.89713379 -34.28352783 492.89713379 -35.80419922 492.58496094 C-102.29810922 478.52268106 -159.75561962 440.10251905 -197.10742188 383.20068359 C-199.80859884 378.94578085 -202.3224062 374.59485547 -204.79296875 370.203125 C-205.15310059 369.57712402 -205.51323242 368.95112305 -205.88427734 368.30615234 C-224.38936501 335.98545493 -235.69710889 297.67901619 -236.03125 260.33203125 C-236.04104385 259.42023102 -236.05083771 258.50843079 -236.06092834 257.56900024 C-236.23260511 237.44104818 -236.06932869 217.96420382 -231.79296875 198.203125 C-231.57866211 197.18605469 -231.36435547 196.16898438 -231.14355469 195.12109375 C-222.96279434 157.25381879 -206.04522667 122.38317423 -181.79296875 92.203125 C-181.32068848 91.61515137 -180.8484082 91.02717773 -180.36181641 90.42138672 C-169.28155041 76.78092213 -156.86582205 63.76685597 -142.79296875 53.203125 C-142.14102539 52.71247559 -141.48908203 52.22182617 -140.81738281 51.71630859 C-130.82707934 44.23817357 -120.66915508 37.32151018 -109.79296875 31.203125 C-109.16696777 30.84299316 -108.5409668 30.48286133 -107.89599609 30.11181641 C-75.65552438 11.65266164 -37.27934428 0.19581559 0 0 Z " fill="#2A8CFF" transform="translate(243.79296875,7.796875)"/>
<path d="M0 0 C1.57673241 -0.00430527 1.57673241 -0.00430527 3.18531799 -0.00869751 C5.39641868 -0.01072842 7.60753774 -0.00526709 9.81860352 0.00732422 C13.17831148 0.02337494 16.53681362 0.00744988 19.89648438 -0.01171875 C22.05599221 -0.00973583 24.21549929 -0.00589115 26.375 0 C27.86295326 -0.00910904 27.86295326 -0.00910904 29.38096619 -0.0184021 C41.74980036 0.10456273 51.7858318 4.12837396 61.015625 12.43359375 C71.38449632 23.31597107 75.32652571 38.13876758 79.98754883 52.0546875 C81.07196213 55.29001335 82.17068832 58.52021597 83.27148438 61.75 C83.9708918 63.81742445 84.66948866 65.88512333 85.3671875 67.953125 C85.69318436 68.91258026 86.01918121 69.87203552 86.35505676 70.86056519 C86.65594711 71.76235504 86.95683746 72.6641449 87.2668457 73.59326172 C87.53076614 74.37869354 87.79468658 75.16412537 88.06660461 75.97335815 C88.84757864 78.72895176 89.28304687 81.57328123 89.75390625 84.3984375 C112.85390625 84.3984375 135.95390625 84.3984375 159.75390625 84.3984375 C159.75390625 89.3484375 159.75390625 94.2984375 159.75390625 99.3984375 C154.80390625 99.3984375 149.85390625 99.3984375 144.75390625 99.3984375 C144.34410522 101.88491821 144.34410522 101.88491821 143.92602539 104.42163086 C140.61426034 124.21662232 136.72486765 143.86907121 132.69030762 163.52752686 C131.85500921 167.60172702 131.02429107 171.67686052 130.19335938 175.75195312 C129.23310839 180.46092072 128.27240272 185.16978985 127.30787659 189.87788391 C126.00848781 196.22333667 124.71322315 202.56925415 123.46264648 208.92456055 C123.2787587 209.85811874 123.09487091 210.79167694 122.90541077 211.75352478 C122.58604414 213.38302208 122.26942417 215.01306202 121.95652771 216.64381409 C119.85031426 227.40354122 115.98542616 236.5894295 107.1015625 243.4453125 C99.97958902 248.1737558 93.66849309 250.64039584 85.01908875 250.66586304 C83.70289551 250.67439301 82.38670227 250.68292297 81.03062439 250.69171143 C79.58901965 250.69101253 78.14741501 250.69008954 76.70581055 250.68896484 C75.17422154 250.69495502 73.64263554 250.70176169 72.11105347 250.70932007 C67.96421832 250.72693759 63.81746579 250.73167365 59.67059684 250.73295164 C57.07591446 250.73437621 54.48125289 250.73865161 51.8865757 250.74394608 C42.82354023 250.76243234 33.76056347 250.77061845 24.69750977 250.76904297 C16.26721513 250.76784197 7.83717667 250.78893973 -0.59305316 250.8205303 C-7.84595668 250.84673454 -15.09877673 250.85740853 -22.35172719 250.85613215 C-26.67690658 250.85562373 -31.00185815 250.86124006 -35.32699013 250.88248825 C-39.39748384 250.90194079 -43.46753405 250.90194764 -47.53804398 250.88745499 C-49.02547165 250.88537444 -50.51292761 250.8900225 -52.00030708 250.9021759 C-64.90621577 251.00073701 -74.77974111 248.57407682 -84.24609375 239.3984375 C-91.88871001 230.39410787 -94.58526305 219.16454844 -96.6484375 207.79296875 C-96.85287979 206.711259 -97.05732208 205.62954926 -97.26795959 204.51506042 C-97.91522067 201.0819188 -98.54999579 197.64662427 -99.18359375 194.2109375 C-100.02234864 189.71675222 -100.86615917 185.22352526 -101.7109375 180.73046875 C-101.91978073 179.61540955 -102.12862396 178.50035034 -102.34379578 177.35150146 C-103.93090039 168.92807666 -105.65015782 160.53741213 -107.41970825 152.15068054 C-109.40722451 142.70623094 -111.24561186 133.23601448 -113.04125977 123.75341797 C-113.57332361 120.94570777 -114.10975155 118.1388523 -114.64648438 115.33203125 C-114.98853253 113.53390195 -115.33033957 111.73572676 -115.671875 109.9375 C-115.83117996 109.10441315 -115.99048492 108.27132629 -116.15461731 107.41299438 C-117.24609375 101.62885231 -117.24609375 101.62885231 -117.24609375 99.3984375 C-122.19609375 99.3984375 -127.14609375 99.3984375 -132.24609375 99.3984375 C-132.24609375 94.4484375 -132.24609375 89.4984375 -132.24609375 84.3984375 C-109.14609375 84.3984375 -86.04609375 84.3984375 -62.24609375 84.3984375 C-61.91609375 82.4184375 -61.58609375 80.4384375 -61.24609375 78.3984375 C-60.78890805 76.78530065 -60.2930843 75.18260708 -59.7590332 73.59326172 C-59.45814285 72.69147186 -59.1572525 71.78968201 -58.84724426 70.86056519 C-58.52124741 69.90110992 -58.19525055 68.94165466 -57.859375 67.953125 C-57.51988327 66.94686066 -57.18039154 65.94059631 -56.83061218 64.90383911 C-56.11094846 62.77653772 -55.38878963 60.65007901 -54.66430664 58.52441406 C-53.57052863 55.30852799 -52.49093294 52.08811604 -51.41210938 48.8671875 C-45.03183504 29.98521144 -39.194386 12.90954388 -20.24609375 3.3984375 C-13.45703905 0.52716537 -7.31884214 -0.04471367 0 0 Z " fill="#3184FF" transform="translate(242.24609375,130.6015625)"/>
<path d="M0 0 C1.57673241 -0.00430527 1.57673241 -0.00430527 3.18531799 -0.00869751 C5.39641868 -0.01072842 7.60753774 -0.00526709 9.81860352 0.00732422 C13.17831148 0.02337494 16.53681362 0.00744988 19.89648438 -0.01171875 C22.05599221 -0.00973583 24.21549929 -0.00589115 26.375 0 C27.86295326 -0.00910904 27.86295326 -0.00910904 29.38096619 -0.0184021 C41.74980036 0.10456273 51.7858318 4.12837396 61.015625 12.43359375 C71.38449632 23.31597107 75.32652571 38.13876758 79.98754883 52.0546875 C81.07196213 55.29001335 82.17068832 58.52021597 83.27148438 61.75 C83.9708918 63.81742445 84.66948866 65.88512333 85.3671875 67.953125 C85.69318436 68.91258026 86.01918121 69.87203552 86.35505676 70.86056519 C86.65594711 71.76235504 86.95683746 72.6641449 87.2668457 73.59326172 C87.53076614 74.37869354 87.79468658 75.16412537 88.06660461 75.97335815 C88.84757864 78.72895176 89.28304687 81.57328123 89.75390625 84.3984375 C112.85390625 84.3984375 135.95390625 84.3984375 159.75390625 84.3984375 C159.75390625 89.3484375 159.75390625 94.2984375 159.75390625 99.3984375 C154.80390625 99.3984375 149.85390625 99.3984375 144.75390625 99.3984375 C144.34410522 101.88491821 144.34410522 101.88491821 143.92602539 104.42163086 C140.61426034 124.21662232 136.72486765 143.86907121 132.69030762 163.52752686 C131.85500921 167.60172702 131.02429107 171.67686052 130.19335938 175.75195312 C129.23310839 180.46092072 128.27240272 185.16978985 127.30787659 189.87788391 C126.00848781 196.22333667 124.71322315 202.56925415 123.46264648 208.92456055 C123.2787587 209.85811874 123.09487091 210.79167694 122.90541077 211.75352478 C122.58604414 213.38302208 122.26942417 215.01306202 121.95652771 216.64381409 C119.85031426 227.40354122 115.98542616 236.5894295 107.1015625 243.4453125 C99.97958902 248.1737558 93.66849309 250.64039584 85.01908875 250.66586304 C83.70289551 250.67439301 82.38670227 250.68292297 81.03062439 250.69171143 C79.58901965 250.69101253 78.14741501 250.69008954 76.70581055 250.68896484 C75.17422154 250.69495502 73.64263554 250.70176169 72.11105347 250.70932007 C67.96421832 250.72693759 63.81746579 250.73167365 59.67059684 250.73295164 C57.07591446 250.73437621 54.48125289 250.73865161 51.8865757 250.74394608 C42.82354023 250.76243234 33.76056347 250.77061845 24.69750977 250.76904297 C16.26721513 250.76784197 7.83717667 250.78893973 -0.59305316 250.8205303 C-7.84595668 250.84673454 -15.09877673 250.85740853 -22.35172719 250.85613215 C-26.67690658 250.85562373 -31.00185815 250.86124006 -35.32699013 250.88248825 C-39.39748384 250.90194079 -43.46753405 250.90194764 -47.53804398 250.88745499 C-49.02547165 250.88537444 -50.51292761 250.8900225 -52.00030708 250.9021759 C-64.90621577 251.00073701 -74.77974111 248.57407682 -84.24609375 239.3984375 C-91.88871001 230.39410787 -94.58526305 219.16454844 -96.6484375 207.79296875 C-96.85287979 206.711259 -97.05732208 205.62954926 -97.26795959 204.51506042 C-97.91522067 201.0819188 -98.54999579 197.64662427 -99.18359375 194.2109375 C-100.02234864 189.71675222 -100.86615917 185.22352526 -101.7109375 180.73046875 C-101.91978073 179.61540955 -102.12862396 178.50035034 -102.34379578 177.35150146 C-103.93090039 168.92807666 -105.65015782 160.53741213 -107.41970825 152.15068054 C-109.40722451 142.70623094 -111.24561186 133.23601448 -113.04125977 123.75341797 C-113.57332361 120.94570777 -114.10975155 118.1388523 -114.64648438 115.33203125 C-114.98853253 113.53390195 -115.33033957 111.73572676 -115.671875 109.9375 C-115.83117996 109.10441315 -115.99048492 108.27132629 -116.15461731 107.41299438 C-117.24609375 101.62885231 -117.24609375 101.62885231 -117.24609375 99.3984375 C-122.19609375 99.3984375 -127.14609375 99.3984375 -132.24609375 99.3984375 C-132.24609375 94.4484375 -132.24609375 89.4984375 -132.24609375 84.3984375 C-109.14609375 84.3984375 -86.04609375 84.3984375 -62.24609375 84.3984375 C-61.91609375 82.4184375 -61.58609375 80.4384375 -61.24609375 78.3984375 C-60.78890805 76.78530065 -60.2930843 75.18260708 -59.7590332 73.59326172 C-59.45814285 72.69147186 -59.1572525 71.78968201 -58.84724426 70.86056519 C-58.52124741 69.90110992 -58.19525055 68.94165466 -57.859375 67.953125 C-57.51988327 66.94686066 -57.18039154 65.94059631 -56.83061218 64.90383911 C-56.11094846 62.77653772 -55.38878963 60.65007901 -54.66430664 58.52441406 C-53.57052863 55.30852799 -52.49093294 52.08811604 -51.41210938 48.8671875 C-45.03183504 29.98521144 -39.194386 12.90954388 -20.24609375 3.3984375 C-13.45703905 0.52716537 -7.31884214 -0.04471367 0 0 Z M-102.24609375 99.3984375 C-100.97388835 107.6677726 -99.6381829 115.79838951 -97.92578125 123.96875 C-97.47198877 126.16664647 -97.01829825 128.364564 -96.56469727 130.5625 C-96.3290506 131.69848633 -96.09340393 132.83447266 -95.85061646 134.00488281 C-91.60175504 154.49752978 -87.53076373 175.00873898 -83.88427734 195.61767578 C-80.88526788 216.84144446 -80.88526788 216.84144446 -68.62109375 233.3359375 C-64.35389926 235.24494556 -60.71254743 235.5263408 -56.04167175 235.53887939 C-54.7673378 235.54458954 -53.49300385 235.55029968 -52.18005371 235.55618286 C-50.77001963 235.55742814 -49.35998544 235.55855325 -47.94995117 235.55957031 C-46.46319964 235.56420026 -44.97644929 235.56922516 -43.48970032 235.57461548 C-39.45240629 235.58772408 -35.41512889 235.59418138 -31.37781692 235.59862614 C-28.85437214 235.60155923 -26.33093189 235.60566448 -23.8074894 235.61013031 C-15.90897397 235.62380093 -8.0104689 235.63346983 -0.11194247 235.6373322 C8.9998244 235.6418126 18.11144122 235.65936142 27.22316247 235.6883328 C34.27043108 235.70996089 41.3176575 235.72003708 48.36495894 235.72137332 C52.57212354 235.7224205 56.77914702 235.72830986 60.98627663 235.74619293 C64.9450282 235.76269326 68.90353285 235.76481969 72.86230659 235.75605392 C74.31229057 235.75528461 75.76228793 235.75961239 77.21223831 235.76951218 C87.04585036 235.8326961 94.38877808 235.56450816 101.75390625 228.3984375 C104.7961219 223.63155589 106.43349481 219.65113589 107.578125 214.0546875 C107.72547089 213.3494696 107.87281677 212.64425171 108.02462769 211.91766357 C108.50919723 209.58026116 108.97553455 207.23963245 109.44140625 204.8984375 C109.7836846 203.22478355 110.12672104 201.55128448 110.47045898 199.87792969 C113.60769293 184.50507857 116.53088151 169.08875727 119.44775391 153.67285156 C122.06261379 139.8709303 124.81519126 126.10356675 127.72290039 112.36035156 C127.99223389 111.07870117 128.26156738 109.79705078 128.5390625 108.4765625 C128.7750415 107.36700195 129.01102051 106.25744141 129.25415039 105.11425781 C129.8443952 102.36693045 129.8443952 102.36693045 129.75390625 99.3984375 C53.19390625 99.3984375 -23.36609375 99.3984375 -102.24609375 99.3984375 Z " fill="#FAFCFF" transform="translate(242.24609375,130.6015625)"/>
<path d="M0 0 C0.94300461 -0.0066568 1.88600922 -0.0133136 2.85758972 -0.02017212 C4.84522565 -0.03025794 6.83289515 -0.03499041 8.82055664 -0.03466797 C11.83602665 -0.03903435 14.85002339 -0.07537883 17.86523438 -0.11328125 C19.80598464 -0.1191519 21.74674177 -0.12311963 23.6875 -0.125 C24.57637405 -0.13937103 25.46524811 -0.15374207 26.38105774 -0.16854858 C34.80401792 -0.10811151 43.17351344 2.40369647 49.41455078 8.30273438 C57.13392435 17.94095672 60.69888734 31.16657561 64.55249023 42.68945312 C65.4919603 45.49525798 66.44896354 48.29464947 67.40820312 51.09375 C68.01534673 52.88506998 68.62150405 54.67672463 69.2265625 56.46875 C69.51083603 57.30101105 69.79510956 58.13327209 70.08799744 58.99075317 C70.34569412 59.7661142 70.60339081 60.54147522 70.86889648 61.34033203 C71.21028908 62.35620895 71.21028908 62.35620895 71.55857849 63.39260864 C72.04296875 65.3359375 72.04296875 65.3359375 72.04296875 69.3359375 C32.44296875 69.3359375 -7.15703125 69.3359375 -47.95703125 69.3359375 C-46.83151012 61.45728962 -46.83151012 61.45728962 -45.56176758 57.75268555 C-45.28089798 56.92459885 -45.00002838 56.09651215 -44.71064758 55.24333191 C-44.40652451 54.37025894 -44.10240143 53.49718597 -43.7890625 52.59765625 C-43.31311897 51.21644341 -43.31311897 51.21644341 -42.82756042 49.80732727 C-42.15586198 47.8655967 -41.48077088 45.9250368 -40.80249023 43.9855957 C-39.77789741 41.04742866 -38.77224328 38.10323409 -37.76757812 35.15820312 C-29.48809156 11.18442213 -29.48809156 11.18442213 -21.51953125 5.3359375 C-20.81957031 4.7996875 -20.11960938 4.2634375 -19.3984375 3.7109375 C-13.16478916 0.20014676 -6.98670375 0.01737526 0 0 Z " fill="#209AFF" transform="translate(243.95703125,145.6640625)"/>
<path d="M0 0 C4.95 0 9.9 0 15 0 C15 27.39 15 54.78 15 83 C10.05 83 5.1 83 0 83 C0 55.61 0 28.22 0 0 Z " fill="#F9FBFF" transform="translate(248,257)"/>
<path d="M0 0 C4.95 0 9.9 0 15 0 C15 23.43 15 46.86 15 71 C10.05 71 5.1 71 0 71 C0 47.57 0 24.14 0 0 Z " fill="#F9FBFF" transform="translate(301,263)"/>
<path d="M0 0 C4.95 0 9.9 0 15 0 C15 23.43 15 46.86 15 71 C10.05 71 5.1 71 0 71 C0 47.57 0 24.14 0 0 Z " fill="#F7FAFF" transform="translate(196,263)"/>
</svg>
