<?xml version="1.0" encoding="UTF-8"?>
<svg version="1.1" xmlns="http://www.w3.org/2000/svg" width="512" height="512">
<path d="M0 0 C1.18450745 0.45477974 1.18450745 0.45477974 2.39294434 0.91874695 C5.00677417 1.92636487 7.61258323 2.95321019 10.21875 3.98046875 C12.08033302 4.70284462 13.94232161 5.42417611 15.8046875 6.14453125 C21.78459425 8.46408042 27.75294056 10.81243238 33.71875 13.16796875 C34.70891113 13.55885681 35.69907227 13.94974487 36.71923828 14.35247803 C45.75907784 17.92339193 54.79482045 21.50459759 63.82617188 25.09692383 C76.74922465 30.23250275 89.71160351 35.24958425 102.71875 40.16796875 C118.23059222 46.03487778 133.67764414 52.05385763 149.09375 58.16796875 C150.08632813 58.56161621 151.07890625 58.95526367 152.1015625 59.36083984 C155.90817016 60.87142865 159.71472505 62.38204705 163.51727295 63.90283203 C168.14555649 65.75377477 172.78059613 67.5817093 177.43457031 69.3671875 C178.35106354 69.72280762 179.26755676 70.07842773 180.21182251 70.44482422 C181.94061363 71.11514237 183.67253264 71.77747155 185.40805054 72.43017578 C186.18041046 72.73165527 186.95277039 73.03313477 187.74853516 73.34375 C188.75794662 73.7291394 188.75794662 73.7291394 189.78775024 74.12231445 C192.31560128 75.49116926 193.86597373 76.96218585 195.71875 79.16796875 C196.21094131 81.69041824 196.21094131 81.69041824 196.19976807 84.58428955 C196.20801605 86.23329758 196.20801605 86.23329758 196.21643066 87.9156189 C196.19485901 89.71744125 196.19485901 89.71744125 196.17285156 91.55566406 C196.17343567 92.82421234 196.17401978 94.09276062 196.17462158 95.39974976 C196.17576904 98.87483564 196.15225542 102.34936902 196.12432575 105.82432652 C196.09931698 109.45713562 196.09697053 113.08995745 196.09222412 116.72283936 C196.07979274 123.60060913 196.04696915 130.47812451 196.00682616 137.35578227 C195.96211333 145.1864035 195.94012268 153.01703689 195.92004442 160.847754 C195.87823648 176.95464116 195.80788152 193.06127249 195.71875 209.16796875 C196.54108627 209.23254272 197.36342255 209.2971167 198.2106781 209.36364746 C199.29027298 209.45053833 200.36986786 209.5374292 201.48217773 209.62695312 C202.55201401 209.7121521 203.62185028 209.79735107 204.72410583 209.88513184 C221.84310059 211.50197958 239.68970557 220.16655682 252.71875 231.16796875 C253.68941406 231.9775 254.66007812 232.78703125 255.66015625 233.62109375 C276.04682736 251.16440369 289.0010746 275.25421564 291.71875 302.16796875 C293.79871263 332.77657819 284.98988312 360.42757128 264.90112305 383.69116211 C250.70683068 399.6410843 232.36009842 409.9920415 211.71875 415.16796875 C210.99228271 415.35198242 210.26581543 415.53599609 209.51733398 415.72558594 C192.30289494 419.66774342 172.46244237 418.74308647 155.71875 413.16796875 C154.61402344 412.81734375 153.50929688 412.46671875 152.37109375 412.10546875 C126.52027209 403.05925169 106.90705057 384.93496999 93.71875 361.16796875 C93.71875 360.50796875 93.71875 359.84796875 93.71875 359.16796875 C92.24063843 359.74575073 92.24063843 359.74575073 90.73266602 360.33520508 C69.3221151 368.70305404 47.90198557 377.04588373 26.46875 385.35546875 C25.42494171 385.76020416 24.38113342 386.16493958 23.30569458 386.5819397 C22.28386078 386.97811493 21.26202698 387.37429016 20.20922852 387.7824707 C19.21443985 388.16841904 18.21965118 388.55436737 17.19471741 388.95201111 C15.26974348 389.69721762 13.34377469 390.43986028 11.41673279 391.17970276 C7.49673195 392.68649112 3.59057768 394.20226216 -0.26757812 395.86181641 C-1.38068359 396.33022949 -2.49378906 396.79864258 -3.640625 397.28125 C-4.53749023 397.67739502 -5.43435547 398.07354004 -6.35839844 398.48168945 C-13.36981243 400.12795447 -19.92914136 397.89044033 -26.40625 395.23828125 C-27.16957642 394.9365097 -27.93290283 394.63473816 -28.71936035 394.32382202 C-31.24404058 393.32340848 -33.76242046 392.30801241 -36.28125 391.29296875 C-38.08738495 390.57489867 -39.89403886 389.85813271 -41.70117188 389.14257812 C-44.56713875 388.00751768 -47.43271885 386.87155826 -50.29675293 385.73162842 C-60.39829811 381.71184642 -70.53615253 377.78743353 -80.67700195 373.86810303 C-85.87966752 371.85669892 -91.08051562 369.84060994 -96.28125 367.82421875 C-97.29916626 367.42959442 -98.31708252 367.03497009 -99.36584473 366.62838745 C-109.17688269 362.82334574 -118.9798765 358.99782223 -128.78125 355.16796875 C-147.28702 347.93697259 -165.80857271 340.74690439 -184.33670044 333.57339478 C-186.25597174 332.82922041 -188.17450795 332.08314704 -190.09225464 331.33505249 C-194.57271758 329.58938125 -199.05944017 327.87409148 -203.57861328 326.23095703 C-204.40688126 325.92444717 -205.23514923 325.61793732 -206.08851624 325.30213928 C-207.62249502 324.73576871 -209.16087025 324.18109539 -210.70433044 323.64109802 C-215.30232044 321.92698185 -217.73794795 320.36722264 -220.28125 316.16796875 C-220.8602214 312.97569886 -220.8211069 309.83339099 -220.78918457 306.59617615 C-220.79854451 305.14229849 -220.79854451 305.14229849 -220.80809355 303.65904957 C-220.82405942 300.40843923 -220.81140492 297.158575 -220.79882812 293.90795898 C-220.80424759 291.57876141 -220.81136926 289.24956727 -220.82006836 286.92037964 C-220.83832432 280.59201129 -220.83122489 274.2639034 -220.81855202 267.93553042 C-220.80946219 261.98935788 -220.81639443 256.04321774 -220.8222608 250.09704436 C-220.83366571 237.60368948 -220.82055386 225.11045202 -220.79905933 212.6171164 C-220.7811842 201.89548302 -220.78429596 191.17402284 -220.80273438 180.45239258 C-220.82413551 168.00215985 -220.83257149 155.55202998 -220.82028532 143.10178143 C-220.81404145 136.51097742 -220.81323949 129.92029277 -220.82643127 123.32949638 C-220.8379637 117.13490131 -220.83001145 110.94063422 -220.80685425 104.74607468 C-220.80155347 102.46921268 -220.80310417 100.19232319 -220.81190491 97.91547203 C-220.8227895 94.81419798 -220.80918206 91.71398371 -220.78918457 88.61277771 C-220.8025689 87.25213854 -220.8025689 87.25213854 -220.81622362 85.8640117 C-220.73977912 79.77801301 -220.73977912 79.77801301 -218.39113617 76.65329075 C-216.12893168 75.06073939 -214.02973062 73.963861 -211.4609375 72.93359375 C-210.47391846 72.53333984 -209.48689941 72.13308594 -208.4699707 71.72070312 C-207.37644287 71.29080078 -206.28291504 70.86089844 -205.15625 70.41796875 C-203.97957764 69.94681641 -202.80290527 69.47566406 -201.59057617 68.99023438 C-190.09273232 64.40506239 -178.50736892 60.04187388 -166.93093872 55.6600647 C-152.26457319 50.10835777 -137.66568346 44.40024256 -123.09375 38.60546875 C-107.05426718 32.22951932 -90.99497856 25.91524589 -74.86816406 19.76318359 C-73.30137992 19.16517625 -71.73464848 18.56703083 -70.16796875 17.96875 C-68.99646774 17.52139496 -68.99646774 17.52139496 -67.80130005 17.06500244 C-62.3284944 14.9686403 -56.87341105 12.82986198 -51.42440796 10.67242432 C-47.38485017 9.07370872 -43.34148232 7.48474881 -39.29797363 5.89605713 C-37.34821662 5.12678087 -35.40032961 4.35274585 -33.45446777 3.57366943 C-30.74646629 2.48991612 -28.03233633 1.4230722 -25.31640625 0.359375 C-24.51918655 0.03519089 -23.72196686 -0.28899323 -22.90058899 -0.6230011 C-14.57462227 -3.8448415 -8.22991833 -3.28802273 0 0 Z M-17.24804688 15.65820312 C-18.07502075 15.98759888 -18.90199463 16.31699463 -19.75402832 16.65637207 C-20.66019897 17.02113647 -21.56636963 17.38590088 -22.5 17.76171875 C-24.46223094 18.54429251 -26.42447093 19.32684357 -28.38671875 20.109375 C-29.42747559 20.52590332 -30.46823242 20.94243164 -31.54052734 21.37158203 C-48.39994027 28.11585525 -65.29465447 34.75086526 -82.28125 41.16796875 C-99.49403891 47.67624384 -116.6137535 54.40461098 -133.71484375 61.20043945 C-135.7030987 61.99046333 -137.69137973 62.78042156 -139.6796875 63.5703125 C-141.13758698 64.14949181 -141.13758698 64.14949181 -142.62493896 64.7403717 C-152.49315193 68.65638576 -162.38361619 72.51451673 -172.28125 76.35546875 C-173.0610321 76.65809631 -173.84081421 76.96072388 -174.64422607 77.27252197 C-178.85575221 78.90644659 -183.06808302 80.53827887 -187.28125 82.16796875 C-183.65032817 85.29304927 -179.62877577 86.82895596 -175.2265625 88.55859375 C-174.05781082 89.02190094 -174.05781082 89.02190094 -172.865448 89.49456787 C-171.22103064 90.14330053 -169.57525354 90.78859572 -167.92822266 91.43066406 C-165.41601789 92.4141448 -162.91326797 93.41942114 -160.41015625 94.42578125 C-158.80782495 95.0547457 -157.20497638 95.68239426 -155.6015625 96.30859375 C-154.48565231 96.7615683 -154.48565231 96.7615683 -153.34719849 97.22369385 C-145.19612265 100.34273567 -139.42363471 97.62447516 -131.671875 94.4765625 C-130.72979187 94.10000015 -129.78770874 93.72343781 -128.81707764 93.33546448 C-126.78380966 92.52239571 -124.75155528 91.70678857 -122.72021484 90.88891602 C-117.27202221 88.69620826 -111.8157516 86.52380885 -106.359375 84.3515625 C-104.69690735 83.68923111 -104.69690735 83.68923111 -103.00085449 83.01351929 C-92.80067839 78.95861714 -82.5500511 75.04504236 -72.28125 71.16796875 C-54.94812054 64.61590309 -37.70894172 57.84082417 -20.49169922 50.99047852 C-11.48518558 47.40830904 -2.47644322 43.83659905 6.57421875 40.3671875 C7.31655258 40.08229462 8.05888641 39.79740173 8.82371521 39.50387573 C12.20076651 38.20925026 15.58014961 36.92129931 18.96362305 35.64355469 C20.10742432 35.20688477 21.25122559 34.77021484 22.4296875 34.3203125 C23.41243652 33.94898193 24.39518555 33.57765137 25.40771484 33.19506836 C27.85148182 32.27456241 27.85148182 32.27456241 29.71875 30.16796875 C23.91819181 27.88459335 18.11559227 25.60646809 12.31152344 23.33203125 C10.33611073 22.55720665 8.36117358 21.78116852 6.38671875 21.00390625 C3.55331733 19.88875228 0.71825041 18.7779327 -2.1171875 17.66796875 C-3.00368988 17.31798828 -3.89019226 16.96800781 -4.80355835 16.60742188 C-5.62425812 16.28708984 -6.44495789 15.96675781 -7.29052734 15.63671875 C-8.01444672 15.35248047 -8.73836609 15.06824219 -9.48422241 14.77539062 C-12.56700589 13.73336426 -14.31853235 14.48381336 -17.24804688 15.65820312 Z M48.25537109 41.75 C47.34525772 42.09939636 46.43514435 42.44879272 45.49745178 42.80877686 C44.00984596 43.38876434 44.00984596 43.38876434 42.4921875 43.98046875 C41.45384262 44.38082336 40.41549774 44.78117798 39.34568787 45.19366455 C35.92645678 46.51352831 32.51009191 47.84064644 29.09375 49.16796875 C26.71718311 50.08728149 24.34047283 51.00622362 21.96362305 51.92480469 C14.87905396 54.66496309 7.79834489 57.41498815 0.71875 60.16796875 C-0.27135071 60.55283447 -1.26145142 60.9377002 -2.28155518 61.33422852 C-14.12408464 65.9383289 -25.95886795 70.56212597 -37.79083252 75.19329834 C-44.63730095 77.87278892 -51.48472992 80.5498178 -58.33291626 83.22491455 C-60.03584301 83.89034909 -61.73862443 84.55615565 -63.44125366 85.22235107 C-73.10843929 89.00476079 -82.78785071 92.75135534 -92.4921875 96.4375 C-94.31952098 97.13332366 -96.14683251 97.82920494 -97.97412109 98.52514648 C-101.45069171 99.84895573 -104.93060798 101.16342161 -108.41259766 102.47290039 C-109.97310966 103.06623276 -111.53350075 103.65988327 -113.09375 104.25390625 C-113.81138519 104.52084793 -114.52902039 104.78778961 -115.2684021 105.06282043 C-118.96737423 106.27142675 -118.96737423 106.27142675 -121.28125 109.16796875 C-115.57859824 111.48585026 -109.86786299 113.78204619 -104.14868164 116.05883789 C-102.20557259 116.83585483 -100.26477465 117.61867801 -98.32641602 118.4074707 C-95.5347336 119.54233006 -92.73532021 120.65583344 -89.93359375 121.765625 C-89.0728978 122.12076675 -88.21220184 122.47590851 -87.32542419 122.84181213 C-78.36666249 126.34099246 -72.13842487 123.974791 -63.57421875 120.4765625 C-62.63355057 120.10000015 -61.69288239 119.72343781 -60.72370911 119.33546448 C-58.69610301 118.52317305 -56.66983212 117.70754236 -54.64477539 116.88891602 C-49.21123121 114.69319446 -43.76741013 112.52323364 -38.32421875 110.3515625 C-37.21899872 109.91000824 -36.11377869 109.46845398 -34.97506714 109.01351929 C-24.78615511 104.95128312 -14.5432703 101.04093701 -4.28125 97.16796875 C13.05145069 90.61677287 30.29043615 83.8428863 47.50610352 76.99047852 C56.52318553 73.40295427 65.54304383 69.8287199 74.609375 66.3671875 C75.35407547 66.08229462 76.09877594 65.79740173 76.86604309 65.50387573 C80.25769065 64.20754186 83.65195452 62.9189944 87.05151367 61.64355469 C88.1985376 61.20688477 89.34556152 60.77021484 90.52734375 60.3203125 C91.51532959 59.94898193 92.50331543 59.57765137 93.52124023 59.19506836 C95.87557012 58.37176828 95.87557012 58.37176828 96.71875 56.16796875 C90.93718424 53.88284296 85.15306317 51.60435819 79.36645508 49.33203125 C77.39763594 48.5578185 75.42953186 47.78178481 73.4621582 47.00390625 C70.63678304 45.88714591 67.8089145 44.77692515 64.98046875 43.66796875 C64.09912766 43.31798828 63.21778656 42.96800781 62.30973816 42.60742188 C61.0788018 42.12692383 61.0788018 42.12692383 59.82299805 41.63671875 C59.10129929 41.35248047 58.37960052 41.06824219 57.6360321 40.77539062 C54.04955696 39.63914497 51.62950044 40.44432196 48.25537109 41.75 Z M112.828125 68.90234375 C112.03279358 69.20694519 111.23746216 69.51154663 110.41802979 69.82537842 C107.76395077 70.84541363 105.11646167 71.88152898 102.46875 72.91796875 C100.5888363 73.64464288 98.70862169 74.370539 96.828125 75.09570312 C80.71938777 81.32427969 64.67127032 87.70917759 48.62329102 94.09228516 C34.74867598 99.60566755 20.82478351 104.97381885 6.86065674 110.25585938 C-13.60845371 118.00234066 -33.94903437 126.070185 -54.28125 134.16796875 C-52.30392745 136.1452913 -51.15868321 136.77933949 -48.6328125 137.81958008 C-47.88443115 138.12942337 -47.1360498 138.43926666 -46.36499023 138.75849915 C-42.92005647 140.1476881 -39.4725855 141.52959892 -36.01708984 142.89233398 C-34.20244502 143.61407876 -32.39273372 144.34836121 -30.58837891 145.09545898 C-27.97598395 146.1764913 -25.35037333 147.21680302 -22.71875 148.25 C-21.52596436 148.75597466 -21.52596436 148.75597466 -20.30908203 149.27217102 C-13.8066106 151.74407687 -9.62063641 150.7089658 -3.28125 148.16796875 C-2.23576492 147.786726 -2.23576492 147.786726 -1.16915894 147.39778137 C0.881622 146.64490844 2.91138024 145.85003037 4.94140625 145.04296875 C5.70295517 144.74416306 6.46450409 144.44535736 7.24913025 144.13749695 C8.89633981 143.49072099 10.54285095 142.84216394 12.1887207 142.19198608 C15.79485182 140.76760844 19.40454676 139.35236141 23.01400757 137.93644714 C24.94160703 137.18021799 26.86903323 136.42354707 28.79629517 135.66645813 C39.75725373 131.36209402 50.73774325 127.1083636 61.71875 122.85546875 C63.77166483 122.06002289 65.82456188 121.26453112 67.87744141 120.46899414 C70.99235594 119.26190809 74.1072862 118.05486279 77.22229004 116.8480072 C84.75187161 113.93071493 92.28043181 111.01079723 99.80859375 108.08984375 C100.88219147 107.67337585 101.95578918 107.25690796 103.06192017 106.82781982 C108.3262059 104.78570821 113.59018569 102.74281609 118.85351562 100.69824219 C127.40351128 97.37863126 135.95501137 94.06523479 144.53515625 90.82421875 C145.79240599 90.34775583 147.04964918 89.87127566 148.30688477 89.39477539 C150.49641846 88.5673745 152.68814243 87.74573357 154.88256836 86.93139648 C155.7978833 86.58536377 156.71319824 86.23933105 157.65625 85.8828125 C158.42839844 85.595271 159.20054687 85.30772949 159.99609375 85.01147461 C161.9104914 84.29000919 161.9104914 84.29000919 162.71875 82.16796875 C157.38147861 80.04683331 152.04291324 77.92900048 146.703125 75.81420898 C144.88701059 75.0944115 143.07125222 74.373715 141.25585938 73.65209961 C138.64546442 72.61465326 136.0338035 71.58045332 133.421875 70.546875 C132.20603729 70.06245689 132.20603729 70.06245689 130.96563721 69.56825256 C130.20515076 69.26801682 129.44466431 68.96778107 128.66113281 68.65844727 C127.6618576 68.2620681 127.6618576 68.2620681 126.64239502 67.85768127 C121.19974614 65.90624894 118.16031077 66.7941028 112.828125 68.90234375 Z M-203.28125 95.16796875 C-203.28125 165.12796875 -203.28125 235.08796875 -203.28125 307.16796875 C-196.73278444 310.144544 -190.34608914 313.02085273 -183.63671875 315.5234375 C-182.84614075 315.82214752 -182.05556274 316.12085754 -181.24102783 316.42861938 C-179.54020601 317.07117268 -177.83882596 317.71225005 -176.13693237 318.35195923 C-171.45749762 320.11190539 -166.78333806 321.885739 -162.109375 323.66015625 C-161.13516098 324.02992081 -160.16094696 324.39968536 -159.1572113 324.78065491 C-148.64986136 328.7761977 -138.18238087 332.87206996 -127.71875 336.98046875 C-123.86991384 338.49119692 -120.02097884 340.00167268 -116.171875 341.51171875 C-115.20636719 341.89051178 -114.24085937 342.26930481 -113.24609375 342.65957642 C-100.79925298 347.53861341 -88.32962987 352.35897226 -75.86126709 357.18267822 C-65.538884 361.17667342 -55.22016111 365.17827321 -44.9296875 369.25390625 C-44.14135025 369.56593491 -43.353013 369.87796356 -42.54078674 370.19944763 C-38.92376148 371.63204577 -35.30854539 373.06896994 -31.69604492 374.51293945 C-30.45494378 375.00609366 -29.21381606 375.49918098 -27.97265625 375.9921875 C-26.91248291 376.41588623 -25.85230957 376.83958496 -24.76000977 377.27612305 C-22.40665362 378.28081835 -22.40665362 378.28081835 -20.28125 378.16796875 C-20.28125 308.20796875 -20.28125 238.24796875 -20.28125 166.16796875 C-32.82125 161.21796875 -45.36125 156.26796875 -58.28125 151.16796875 C-61.58125 149.84796875 -64.88125 148.52796875 -68.28125 147.16796875 C-68.94125 147.16796875 -69.60125 147.16796875 -70.28125 147.16796875 C-70.28489563 147.76043396 -70.28854126 148.35289917 -70.29229736 148.96331787 C-70.33409707 155.12796298 -70.40342458 161.29186181 -70.48876953 167.45605469 C-70.51700104 169.75676002 -70.53820466 172.05756274 -70.55224609 174.35839844 C-70.57364486 177.66522154 -70.62028108 180.97087101 -70.671875 184.27734375 C-70.67310364 185.30664001 -70.67433228 186.33593628 -70.67559814 187.39642334 C-70.82221794 194.53975796 -70.82221794 194.53975796 -73.19433594 197.78613281 C-77.07034071 200.35260299 -79.60181433 200.48521863 -84.28125 200.16796875 C-88.67207355 197.95777306 -92.17039732 194.81563517 -95.84375 191.60546875 C-96.46451416 191.08621826 -97.08527832 190.56696777 -97.72485352 190.03198242 C-100.75449363 187.48150228 -103.53347789 184.97016527 -106.0546875 181.91015625 C-109.09916209 178.56212701 -111.0047963 176.72841941 -115.28125 175.16796875 C-121.42242446 175.79193222 -127.0805549 178.06109851 -132.79296875 180.28515625 C-137.92629813 182.22932739 -141.81449896 182.6776266 -147.28125 182.16796875 C-150.78015004 180.05404998 -151.98703686 179.05060816 -153.28125 175.16796875 C-153.39816241 173.19017691 -153.45797996 171.2088212 -153.48657227 169.2277832 C-153.5164901 167.39622429 -153.5164901 167.39622429 -153.54701233 165.52766418 C-153.56372482 164.2088475 -153.58043732 162.89003082 -153.59765625 161.53125 C-153.6182326 160.16789631 -153.63922925 158.8045489 -153.66062927 157.44120789 C-153.7157797 153.85575453 -153.76521987 150.27024427 -153.81347656 146.68469238 C-153.86374299 143.02476955 -153.91940219 139.36492918 -153.97460938 135.70507812 C-154.08210494 128.52611154 -154.1835689 121.3470763 -154.28125 114.16796875 C-157.90384628 112.68575136 -161.52707806 111.20509859 -165.15084839 109.72575378 C-166.97352554 108.9813229 -168.79572953 108.23573385 -170.61791992 107.4901123 C-186.52988686 99.51114898 -186.52988686 99.51114898 -203.28125 95.16796875 Z M170.375 98 C169.600354 98.30318649 168.82570801 98.60637299 168.02758789 98.91874695 C166.32662883 99.58461371 164.62595942 100.25122076 162.92553711 100.91845703 C158.25387681 102.7513895 153.57997535 104.57859096 148.90625 106.40625 C147.91733765 106.79309967 146.92842529 107.17994934 145.9095459 107.57852173 C134.68864389 111.96583003 123.45369335 116.31677583 112.21875 120.66796875 C96.39667459 126.79723426 80.58128974 132.94310876 64.77856445 139.12210083 C54.29809834 143.2200134 43.80963637 147.29652334 33.3125 151.3515625 C31.03059355 152.23370998 28.74869249 153.11587137 26.46679688 153.99804688 C22.0265096 155.71450612 17.5848924 157.42746661 13.14257812 159.13867188 C11.1262528 159.91784122 9.10997433 160.69713183 7.09375 161.4765625 C6.15736694 161.83616562 5.22098389 162.19576874 4.25622559 162.56626892 C3.40596802 162.89558914 2.55571045 163.22490936 1.6796875 163.56420898 C0.93509277 163.85126205 0.19049805 164.13831512 -0.57666016 164.43406677 C-2.27902369 165.04246127 -2.27902369 165.04246127 -3.28125 166.16796875 C-3.37911525 168.89912182 -3.41118454 171.60497956 -3.40150452 174.33656311 C-3.40235894 175.20313064 -3.40321337 176.06969816 -3.40409368 176.96252531 C-3.40575115 179.88918126 -3.40022278 182.8157809 -3.39477539 185.74243164 C-3.39449355 187.83122252 -3.39465119 189.9200135 -3.3952179 192.00880432 C-3.39550599 197.69865489 -3.3896073 203.38848458 -3.38264394 209.07833028 C-3.37641243 215.017424 -3.37580676 220.95651814 -3.37461853 226.89561462 C-3.37150461 238.15078037 -3.36329042 249.40593646 -3.35326904 260.66109794 C-3.34210977 273.47103332 -3.33659792 286.28096915 -3.33157361 299.09090817 C-3.32110785 325.44993373 -3.30350725 351.8089507 -3.28125 378.16796875 C0.95676597 376.60576389 5.19379138 375.04088859 9.43066406 373.47558594 C10.61278473 373.03987274 11.7949054 372.60415955 13.0128479 372.15524292 C24.90492834 367.75896174 36.69190248 363.11238266 48.46875 358.41796875 C50.53113833 357.59867717 52.59363836 356.77966671 54.65625 355.9609375 C65.35058369 351.71373361 76.03754239 347.44807216 86.71875 343.16796875 C86.50303345 341.90243164 86.50303345 341.90243164 86.28295898 340.61132812 C81.15594704 310.53285805 83.08730142 280.11210147 101.04248047 254.26220703 C120.91623498 227.07792436 145.95391165 214.94999905 178.71875 209.16796875 C178.71875 171.54796875 178.71875 133.92796875 178.71875 95.16796875 C176.0042634 95.16796875 172.91399705 97.0008866 170.375 98 Z M-137.28125 121.16796875 C-137.28125 135.35796875 -137.28125 149.54796875 -137.28125 164.16796875 C-128.81397622 162.09234127 -128.81397622 162.09234127 -120.53125 159.41796875 C-116.22581916 158.00597261 -112.52930287 157.27055635 -108.28125 159.16796875 C-105.35488251 161.45949277 -102.70962499 163.92316542 -100.04296875 166.51171875 C-94.32519705 172.63753973 -94.32519705 172.63753973 -87.28125 176.16796875 C-87.28125 164.28796875 -87.28125 152.40796875 -87.28125 140.16796875 C-99.91648139 135.0995991 -112.55362036 130.03625464 -125.21875 125.04296875 C-126.20045166 124.65310791 -127.18215332 124.26324707 -128.19360352 123.86157227 C-129.09780029 123.50635498 -130.00199707 123.1511377 -130.93359375 122.78515625 C-131.72757568 122.47175293 -132.52155762 122.15834961 -133.33959961 121.83544922 C-135.25428077 121.05960329 -135.25428077 121.05960329 -137.28125 121.16796875 Z M124.71875 252.16796875 C123.90535156 252.97105469 123.09195312 253.77414062 122.25390625 254.6015625 C106.68205994 270.81225379 99.15713597 293.22147352 99.36523438 315.46435547 C100.12578816 340.80709415 111.83136018 362.09028694 129.6796875 379.49609375 C138.95537583 387.91528434 149.94617621 393.19711143 161.71875 397.16796875 C162.69457031 397.50828125 163.67039062 397.84859375 164.67578125 398.19921875 C186.15106875 404.40894044 210.20821369 400.2627474 229.71875 390.16796875 C252.04901482 377.12878338 265.98067863 357.2197964 272.921875 332.52734375 C278.19942558 310.27884622 273.59249392 287.46827217 262.3671875 267.78125 C248.74612546 246.18767061 229.09406051 233.09518277 204.56640625 226.95703125 C174.8778386 220.86861433 145.73975042 230.90775353 124.71875 252.16796875 Z " fill="#000000" transform="translate(220.28125,48.83203125)"/>
<path d="M0 0 C6.03160842 2.6742832 10.1069121 7.29059435 12.97265625 13.15234375 C14.40073324 20.4355364 14.37026499 26.76820272 10.59765625 33.33984375 C6.31734475 38.64066261 1.56618431 43.5264428 -3.23632812 48.35083008 C-3.87959549 49.00066864 -4.52286285 49.6505072 -5.18562317 50.32003784 C-7.28626118 52.44016988 -9.39070867 54.55645749 -11.49609375 56.671875 C-12.58213142 57.76402596 -12.58213142 57.76402596 -13.69010925 58.87824059 C-17.51425008 62.72312813 -21.34157697 66.56481225 -25.17138672 70.40405273 C-29.11728058 74.36105949 -33.05134754 78.32961537 -36.98296356 82.30080128 C-40.02011732 85.3640992 -43.06612294 88.41847828 -46.11457825 91.47052574 C-47.56915824 92.92996784 -49.02036627 94.39277898 -50.46806335 95.85904884 C-52.49217127 97.90752683 -54.5285682 99.94298463 -56.56835938 101.97583008 C-57.15869461 102.57897537 -57.74902985 103.18212067 -58.35725403 103.80354309 C-63.61406826 108.99555121 -68.74121161 111.76714424 -76.33984375 111.77734375 C-84.9922175 111.51841985 -89.69157204 108.32054691 -95.59790039 102.30004883 C-98.45756457 99.193535 -100.95812836 95.85804153 -103.46484375 92.46484375 C-108.70445935 85.47275252 -114.15123351 78.69813185 -119.82055664 72.04931641 C-125.82269667 64.90942481 -128.59092157 58.78220477 -128.40234375 49.33984375 C-127.30480842 42.74295585 -123.26384117 37.74557579 -118.40234375 33.33984375 C-112.68062985 29.81878904 -106.94491336 29.44397322 -100.40234375 30.33984375 C-88.76230189 33.39736627 -81.61597572 44.75929027 -75.40234375 54.33984375 C-69.26089242 49.27798333 -63.72695643 43.72836128 -58.15625 38.05078125 C-57.17703297 37.0595098 -56.19728132 36.06876621 -55.21702576 35.07852173 C-51.08646533 30.90558922 -46.95879916 26.72992088 -42.84741211 22.53808594 C-40.31936739 19.96126031 -37.78143962 17.39452799 -35.23698235 14.8339119 C-33.81409598 13.39646339 -32.40197037 11.94838838 -30.99012756 10.50009155 C-21.93652995 1.41008488 -13.17695773 -3.62098513 0 0 Z M-17.18310547 21.63232422 C-17.73829865 22.19481873 -18.29349182 22.75731323 -18.86550903 23.33685303 C-20.06874271 24.55910351 -21.26616523 25.7870958 -22.45840073 27.02007675 C-24.34766348 28.97319181 -26.25214521 30.91022427 -28.16140747 32.84378052 C-32.90108713 37.65030902 -37.61336512 42.48342061 -42.32653809 47.31591797 C-46.30836174 51.39651961 -50.30033895 55.466659 -54.30633926 59.52353287 C-56.17959803 61.42912452 -58.03711519 63.34918534 -59.89450073 65.27023315 C-61.04984769 66.44375281 -62.20590811 67.61657063 -63.36279297 68.78857422 C-63.87211365 69.3237265 -64.38143433 69.85887878 -64.90618896 70.4102478 C-68.44964856 73.95625419 -71.47610408 75.4632111 -76.40234375 76.33984375 C-81.54045135 74.70179201 -84.1865178 71.60856103 -87.21484375 67.33984375 C-88.07398942 66.17595134 -88.93469931 65.01321215 -89.796875 63.8515625 C-90.22693848 63.26681152 -90.65700195 62.68206055 -91.10009766 62.07958984 C-93.12599114 59.37308122 -95.25805728 56.76623241 -97.40234375 54.15234375 C-98.12421875 53.27191406 -98.84609375 52.39148438 -99.58984375 51.484375 C-102.12267091 48.23467199 -102.12267091 48.23467199 -105.83984375 46.96484375 C-108.48864588 47.12349816 -108.48864588 47.12349816 -110.33984375 48.96484375 C-111.69041342 51.34852632 -111.69041342 51.34852632 -110.78125 54.109375 C-109.20492179 57.80235921 -107.05922284 60.46070125 -104.40234375 63.40234375 C-103.40247784 64.54471777 -102.40514197 65.68931043 -101.41015625 66.8359375 C-100.90645508 67.41585449 -100.40275391 67.99577148 -99.88378906 68.59326172 C-97.58102677 71.30815319 -95.42766449 74.12876571 -93.27734375 76.96484375 C-92.86895264 77.49553467 -92.46056152 78.02622559 -92.03979492 78.57299805 C-89.99308678 81.23286364 -87.98472106 83.91374809 -86.0234375 86.63671875 C-85.26160156 87.6525 -84.49976563 88.66828125 -83.71484375 89.71484375 C-83.05097656 90.63007813 -82.38710938 91.5453125 -81.703125 92.48828125 C-79.47840976 94.67366368 -79.47840976 94.67366368 -76.19735718 94.34684753 C-71.22819571 93.0282845 -68.91058603 90.68805802 -65.38134766 87.0793457 C-64.71868896 86.42559464 -64.05603027 85.77184357 -63.37329102 85.09828186 C-61.19331685 82.93956695 -59.03585357 80.75982996 -56.87890625 78.578125 C-55.36767901 77.06840038 -53.85548803 75.5596399 -52.34237671 74.05180359 C-49.17737034 70.89112708 -46.02319778 67.72012683 -42.87646484 64.54125977 C-38.84312191 60.46812081 -34.78569706 56.4200193 -30.72008705 52.37911701 C-27.5950168 49.26823059 -24.48219413 46.1453197 -21.3730278 43.01854515 C-19.88142932 41.52109851 -18.38624623 40.02721363 -16.88743973 38.53698158 C-14.79482947 36.45236433 -12.719041 34.35232483 -10.64697266 32.24731445 C-9.71508621 31.32825317 -9.71508621 31.32825317 -8.76437378 30.390625 C-5.34757804 26.87956293 -3.47774569 24.47941136 -3.40234375 19.33984375 C-4.40234375 17.33984375 -4.40234375 17.33984375 -6.40234375 16.33984375 C-11.56990118 15.42106279 -13.85187576 18.13347437 -17.18310547 21.63232422 Z " fill="#000000" transform="translate(462.40234375,306.66015625)"/>
</svg>
