<?xml version="1.0" encoding="UTF-8"?>
<svg version="1.1" xmlns="http://www.w3.org/2000/svg" width="512" height="512">
<path d="M0 0 C0.80297819 -0.00384115 1.60595638 -0.00768229 2.43326724 -0.01163983 C3.74793555 -0.01034011 3.74793555 -0.01034011 5.08916283 -0.00901413 C6.49253145 -0.01347081 6.49253145 -0.01347081 7.92425096 -0.01801753 C11.06698897 -0.02670616 14.2096889 -0.02821293 17.35243797 -0.02970505 C19.60278467 -0.03433316 21.85313058 -0.03935782 24.10347557 -0.04475021 C30.22354938 -0.05787827 36.34361222 -0.06432016 42.46369791 -0.06876087 C46.28771074 -0.07169141 50.11172057 -0.07579622 53.93573189 -0.08026505 C64.53014628 -0.09237486 75.12455805 -0.10275616 85.71897888 -0.10614014 C86.39687336 -0.1063597 87.07476785 -0.10657927 87.77320459 -0.10680549 C88.45269563 -0.10702377 89.13218668 -0.10724204 89.83226836 -0.10746694 C91.20910875 -0.1079104 92.58594914 -0.10835696 93.96278954 -0.10880661 C94.64574582 -0.10902804 95.32870211 -0.10924947 96.03235404 -0.10947761 C107.08960136 -0.11342252 118.14678265 -0.13086718 129.20400448 -0.15416613 C140.56532908 -0.17791188 151.92660945 -0.1900858 163.28796327 -0.19150805 C169.66322917 -0.19255565 176.03840197 -0.1984538 182.41364479 -0.21632767 C188.41364973 -0.2328218 194.41349173 -0.23495721 200.41351128 -0.22618866 C202.61207198 -0.22541897 204.81064149 -0.22975203 207.00918007 -0.23964691 C210.01845557 -0.25239295 213.02715634 -0.24647493 216.03642845 -0.23606491 C216.89948967 -0.24412132 217.76255088 -0.25217772 218.65176547 -0.26047826 C228.56511995 -0.18067678 237.36243654 2.66129305 244.94374657 9.13142776 C252.20683763 16.74709606 255.1258444 24.76613944 256.18984032 35.05330276 C256.2858654 35.8996579 256.38189049 36.74601303 256.48082542 37.61801529 C256.79083736 40.37148951 257.08624783 43.12630827 257.38124657 45.88142776 C257.5934854 47.79583394 257.80663063 49.71013984 258.02065086 51.62434769 C258.45648104 55.53612779 258.88646885 59.44848508 259.31191063 63.36140823 C259.90789359 68.82985554 260.52812076 74.29531862 261.15468407 79.76033401 C261.43382245 82.20962028 261.71241489 84.65896768 261.99065208 87.10835648 C262.16648357 88.65457446 262.34296759 90.20071839 262.52013206 91.74678421 C262.76498437 93.89156052 263.00538418 96.03678968 263.24452782 98.18220901 C263.38028221 99.38530716 263.51603661 100.5884053 263.65590477 101.82796097 C263.92522739 104.91888919 263.94374657 108.02878826 263.94374657 111.13142776 C305.85374657 111.13142776 347.76374657 111.13142776 390.94374657 111.13142776 C390.94374657 104.86142776 390.94374657 98.59142776 390.94374657 92.13142776 C393.94374657 87.13142776 393.94374657 87.13142776 395.94374657 86.13142776 C397.96718407 85.85799026 397.96718407 85.85799026 400.31874657 85.75642776 C401.08960594 85.70744339 401.86046532 85.65845901 402.65468407 85.60799026 C404.94374657 86.13142776 404.94374657 86.13142776 407.21718407 87.91658401 C409.85296051 92.82437589 409.36758356 97.47140558 409.19374657 102.94392776 C409.17569969 104.01836136 409.15765282 105.09279495 409.13905907 106.19978714 C409.09204048 108.84458241 409.02633816 111.48754366 408.94374657 114.13142776 C409.86607079 114.53554886 409.86607079 114.53554886 410.80702782 114.94783401 C414.73430231 117.12327126 416.56251733 120.98774005 417.94374657 125.13142776 C418.02481342 126.68564506 418.05131555 128.24309803 418.04140282 129.79939651 C418.03818016 130.6920723 418.0349575 131.58474808 418.03163719 132.50447464 C418.02325829 133.43324417 418.01487938 134.3620137 418.00624657 135.31892776 C418.00173485 136.25929886 417.99722313 137.19966995 417.99257469 138.16853714 C417.98079283 140.48956489 417.96434215 142.81046421 417.94374657 145.13142776 C418.84093407 145.15720901 419.73812157 145.18299026 420.66249657 145.20955276 C440.50993701 146.11170915 460.56389671 151.95887117 475.94374657 165.13142776 C477.6778612 168.59965702 477.4017526 172.33940726 476.94374657 176.13142776 C475.50624657 178.69392776 475.50624657 178.69392776 472.94374657 180.13142776 C468.60837356 181.22876284 465.25726209 180.82601943 461.29921532 178.73299026 C459.43937448 177.5143821 457.59468952 176.27239818 455.76405907 175.01033401 C444.30069866 167.37338616 431.34781387 165.00511459 417.94374657 163.13142776 C417.94374657 168.41142776 417.94374657 173.69142776 417.94374657 179.13142776 C421.25405907 179.47174026 421.25405907 179.47174026 424.63124657 179.81892776 C436.62898356 181.30978635 446.44591099 185.65689871 455.94374657 193.13142776 C457.18124657 194.05761917 457.18124657 194.05761917 458.44374657 195.00252151 C466.52349185 201.88292961 471.59724399 211.19943819 474.94374657 221.13142776 C475.4909536 222.69570511 475.4909536 222.69570511 476.04921532 224.29158401 C480.09926871 241.67674769 476.81355282 258.43774833 467.72499657 273.47517776 C465.92902939 276.15337443 463.99667436 278.64630464 461.94374657 281.13142776 C462.60761375 281.15720901 463.27148094 281.18299026 463.95546532 281.20955276 C468.08482732 281.47479646 471.30919201 281.82684158 475.06874657 283.63142776 C477.48729278 286.85615605 477.59219011 289.04798317 477.37734032 293.00642776 C476.75710751 296.04612731 475.44058014 297.36895701 472.94374657 299.13142776 C470.66893257 300.26883477 469.42717083 300.25858726 466.90097904 300.26285553 C466.05013192 300.26669667 465.1992848 300.27053782 464.32265443 300.27449536 C462.91242177 300.27319564 462.91242177 300.27319564 461.47369957 300.27186966 C460.47913177 300.27484078 459.48456398 300.2778119 458.45985776 300.28087306 C455.1057648 300.28958924 451.7517074 300.29107077 448.39760399 300.29256058 C446.00151047 300.29718668 443.6054177 300.30221106 441.20932579 300.30760574 C434.68452405 300.32075161 428.15972973 300.32721537 421.63491797 300.3316164 C417.56203566 300.33437731 413.48915573 300.3386144 409.41627502 300.34312057 C398.14338359 300.35531478 386.87049406 300.36561363 375.59759617 300.36899567 C374.87582708 300.36921523 374.15405798 300.3694348 373.4104171 300.36966102 C372.32514638 300.36998843 372.32514638 300.36998843 371.217951 300.37032247 C369.75179366 300.37076593 368.28563632 300.3712125 366.81947899 300.37166214 C366.09221154 300.37188357 365.36494409 300.372105 364.61563823 300.37233314 C352.83063691 300.37628135 341.04569742 300.39373538 329.26071998 300.41702166 C317.16610732 300.44072717 305.0715257 300.45319716 292.97688943 300.45436358 C286.18424922 300.45528083 279.39168955 300.46104538 272.5990715 300.4791832 C266.21089962 300.49618069 259.82283993 300.49784277 253.43465042 300.48904419 C251.08724878 300.48827124 248.73983906 300.49265032 246.39245796 300.50250244 C243.1930358 300.51514525 239.99416226 300.5093867 236.79474449 300.49892044 C235.39455009 300.51100505 235.39455009 300.51100505 233.96606892 300.52333379 C229.15560274 300.48641599 225.82082057 300.32187115 221.94374657 297.13142776 C220.80011545 294.84416553 220.67872725 293.30290349 220.56874657 290.75642776 C220.51976219 289.98556839 220.47077782 289.21470901 220.42030907 288.42049026 C221.20731331 284.978815 223.05309398 284.04529155 225.94374657 282.13142776 C228.85473919 281.62361908 228.85473919 281.62361908 232.12570763 281.61244583 C233.99133858 281.59157661 233.99133858 281.59157661 235.89465904 281.5702858 C237.26494539 281.5749984 238.63523048 281.58009231 240.00551414 281.58552933 C241.45452038 281.57679135 242.90351696 281.56630478 244.35249901 281.55420303 C248.27984046 281.52634939 252.20686696 281.52293819 256.13429284 281.52392292 C260.2409897 281.52079325 264.34754484 281.49517394 268.45416832 281.4719429 C276.22780475 281.43138344 284.0013573 281.41104234 291.77508324 281.39796901 C300.62637568 281.38209876 309.47752536 281.34368305 318.32873499 281.30337572 C336.53369372 281.22097754 354.73863895 281.16688494 372.94374657 281.13142776 C372.39887596 280.47118607 371.85400536 279.81094437 371.29262352 279.13069534 C370.57550194 278.25050735 369.85838036 277.37031937 369.11952782 276.46345901 C368.40965721 275.59696732 367.69978661 274.73047562 366.96840477 273.83772659 C359.72546186 264.15630586 356.83536514 252.05514674 356.94374657 240.13142776 C352.0357315 240.15105059 347.12945932 240.20337103 342.22206688 240.28401566 C340.55810137 240.30699239 338.89399462 240.32154289 337.22987938 240.32698441 C326.67220507 240.36827495 318.52698993 241.23971868 308.94374657 246.13142776 C299.23610643 249.42215324 289.36527486 249.28033412 279.22914696 249.27669144 C277.86475089 249.27968916 276.50035567 249.28309309 275.13596153 249.28686905 C271.4541177 249.29564885 267.77229715 249.29804455 264.09044385 249.29868484 C261.78487869 249.29939853 259.47931935 249.30153884 257.17375565 249.30418205 C249.11571823 249.31341412 241.0576973 249.31751945 232.99965477 249.3167305 C225.51120105 249.31612963 218.02281934 249.3266887 210.53438383 249.34247416 C204.08398988 249.35558266 197.63361938 249.36091304 191.18321222 249.36027509 C187.33991197 249.36002116 183.49667585 249.36281413 179.65338898 249.37345314 C176.03768094 249.3831906 172.42209768 249.38317496 168.80638504 249.37593651 C166.86176887 249.37440595 164.91715256 249.38269692 162.97255516 249.3913765 C153.75164881 249.35856384 145.29357736 248.96460459 137.27187157 244.06111526 C130.17210426 240.32020648 123.59356924 240.24054872 115.69374657 240.25642776 C114.35126011 240.23824657 113.00880671 240.21742718 111.66640282 240.19392776 C108.4248802 240.14728715 105.1855325 240.12694485 101.94374657 240.13142776 C101.97726219 241.30060745 102.01077782 242.46978714 102.04530907 243.67439651 C102.02898398 256.04608926 96.86087606 268.51558628 88.83388329 277.79158401 C88.2928698 278.41814896 87.75185631 279.0447139 87.19444847 279.69026566 C86.78171684 280.16584915 86.36898521 280.64143265 85.94374657 281.13142776 C86.52150935 281.13197253 87.09927214 281.1325173 87.69454288 281.13307858 C101.75812262 281.14805121 115.82139511 281.19051724 129.8847971 281.26351833 C136.68581472 281.29815964 143.48662985 281.32352269 150.28774071 281.32698441 C156.84961846 281.33035048 163.41104849 281.35965065 169.97279358 281.40485954 C172.4778179 281.4178621 174.98290307 281.42213254 177.487957 281.41758156 C180.9935569 281.41269553 184.49765702 281.43868243 188.00307274 281.47200394 C189.56105835 281.45906548 189.56105835 281.45906548 191.15051842 281.44586563 C198.19602795 281.55833417 198.19602795 281.55833417 202.08823204 284.54153824 C204.95261659 288.53958807 204.63321864 290.30512327 203.94374657 295.13142776 C202.07359562 297.56262399 200.66236312 298.77211949 197.94374657 300.13142776 C194.99455775 300.2340429 192.06872834 300.2747939 189.11908531 300.27186966 C187.7313642 300.27632634 187.7313642 300.27632634 186.31560832 300.28087306 C183.19644683 300.28958741 180.07732359 300.29107061 176.95815086 300.29256058 C174.72954284 300.29718681 172.50093562 300.30221121 170.27232933 300.30760574 C164.20412405 300.32075042 158.13592984 300.32717872 152.06771255 300.3316164 C148.27959655 300.33454378 144.49148361 300.33864794 140.70336914 300.34312057 C130.2179712 300.35523244 119.73257507 300.3656135 109.24717045 300.36899567 C108.57585075 300.36921523 107.90453104 300.3694348 107.21286832 300.36966102 C106.20345878 300.36998843 106.20345878 300.36998843 105.17365712 300.37032247 C103.80999227 300.37076593 102.44632743 300.3712125 101.08266258 300.37166214 C100.40623558 300.37188357 99.72980859 300.372105 99.0328838 300.37233314 C88.07236245 300.37628113 77.11190758 300.39373454 66.15141191 300.41702166 C54.90204991 300.44072984 43.65272012 300.45293924 32.40332919 300.45436358 C26.08576077 300.45541343 19.76828608 300.4613594 13.45074081 300.4791832 C7.50905249 300.49561988 1.56752879 300.49784079 -4.37417412 300.48904419 C-6.55709523 300.48827145 -8.74002504 300.49264751 -10.92292404 300.50250244 C-13.89902772 300.51515219 -16.87454221 300.50938302 -19.85064125 300.49892044 C-20.71795807 300.50697685 -21.58527488 300.51503325 -22.47887403 300.52333379 C-27.15336291 300.48480223 -30.26741893 300.18597087 -34.05625343 297.13142776 C-35.19988455 294.84416553 -35.32127275 293.30290349 -35.43125343 290.75642776 C-35.48023781 289.98556839 -35.52922218 289.21470901 -35.57969093 288.42049026 C-34.7916553 284.9743046 -32.95377136 284.04665677 -30.05625343 282.13142776 C-27.01011086 281.58552933 -27.01011086 281.58552933 -23.66172218 281.52205276 C-22.4596714 281.4898262 -21.25762062 281.45759964 -20.01914406 281.42439651 C-18.77326515 281.41021683 -17.52738625 281.39603714 -16.24375343 281.38142776 C-14.97853859 281.35177933 -13.71332375 281.32213089 -12.40976906 281.29158401 C-9.29186667 281.22099 -6.17470769 281.16823866 -3.05625343 281.13142776 C-3.64793312 280.34381058 -4.23961281 279.55619339 -4.84922218 278.74470901 C-16.24210349 263.18793201 -19.45678396 248.18433038 -18.05625343 229.13142776 C-17.15335601 223.30432508 -15.56373345 217.54846904 -12.43125343 212.52595901 C-10.3285265 207.33485189 -10.74152881 202.29559222 -10.86875343 196.75642776 C-10.88228859 195.63881058 -10.89582375 194.52119339 -10.90976906 193.36970901 C-10.94498179 190.62311565 -10.99423248 187.87752488 -11.05625343 185.13142776 C-11.74590187 185.99767776 -12.43555031 186.86392776 -13.14609718 187.75642776 C-20.44375398 196.54859664 -20.44375398 196.54859664 -24.65000343 198.06892776 C-28.262016 198.1652481 -30.47500119 197.4574961 -33.61875343 195.69392776 C-35.87005315 191.68074131 -36.27719384 188.59911473 -35.05625343 184.13142776 C-29.02442744 174.31381872 -19.64549954 166.33460144 -10.05625343 160.13142776 C-10.22753761 159.59888382 -10.39882179 159.06633987 -10.5752964 158.51765823 C-11.37212183 156.01742341 -12.15163672 153.51207961 -12.93125343 151.00642776 C-13.2006675 150.1698262 -13.47008156 149.33322464 -13.74765968 148.47127151 C-18.65827622 132.54171056 -18.38225068 116.57756617 -18.39219093 100.07283401 C-18.39862757 97.55370383 -18.40535656 95.03457437 -18.41236305 92.51544571 C-18.42427947 87.26152689 -18.42804912 82.00767358 -18.4268589 76.75374222 C-18.42565256 70.6958927 -18.44687854 64.63839655 -18.47834623 58.58063656 C-18.50769287 52.72012575 -18.5148343 46.85975481 -18.51363945 40.99917793 C-18.51599621 38.51809039 -18.52482386 36.03700007 -18.54030418 33.5559597 C-18.55990862 30.09326595 -18.55414972 26.63148993 -18.54209328 23.16878128 C-18.55333229 22.14995865 -18.5645713 21.13113602 -18.57615089 20.08143997 C-18.52137088 13.88705653 -17.73312975 10.17442086 -14.05625343 5.13142776 C-9.45511352 1.48885866 -5.79084529 0.01043487 0 0 Z M11.19374657 210.25642776 C1.90876666 219.95297593 -0.65530559 230.70565148 -0.39219093 243.66267776 C0.1644338 254.46395772 5.38070226 263.60933858 12.94374657 271.13142776 C22.24078089 278.9013319 33.83859502 283.11885705 45.94374657 282.13142776 C58.03384477 280.20874368 68.34004144 274.88897211 75.94374657 265.13142776 C82.50963341 254.3050099 85.83211333 243.51672366 83.29140282 230.88924026 C79.93550036 218.64667765 73.2612235 209.67641238 62.74062157 202.66267776 C45.19123259 192.66766152 25.45990888 197.15339682 11.19374657 210.25642776 Z M386.28749657 210.72127151 C378.24020692 219.44601157 374.37024169 230.37380197 374.63124657 242.13533401 C375.97645545 255.03252415 381.71864942 265.08528889 391.52187157 273.34236526 C400.44907211 279.9369747 410.83726144 283.29669834 421.94374657 282.13142776 C433.83252356 279.92597348 444.93028553 274.38515584 451.92812157 264.26033401 C458.90370668 252.71602891 461.20705312 240.64944016 458.06874657 227.45174026 C453.99754378 216.06844299 447.49202719 208.06869098 436.94374657 202.13142776 C419.01394594 193.70442147 400.53859479 197.04156166 386.28749657 210.72127151 Z " fill="#D05527" transform="translate(35.05625343322754,105.86857223510742)"/>
<path d="M0 0 C0.80297819 -0.00384115 1.60595638 -0.00768229 2.43326724 -0.01163983 C3.74793555 -0.01034011 3.74793555 -0.01034011 5.08916283 -0.00901413 C6.49253145 -0.01347081 6.49253145 -0.01347081 7.92425096 -0.01801753 C11.06698897 -0.02670616 14.2096889 -0.02821293 17.35243797 -0.02970505 C19.60278467 -0.03433316 21.85313058 -0.03935782 24.10347557 -0.04475021 C30.22354938 -0.05787827 36.34361222 -0.06432016 42.46369791 -0.06876087 C46.28771074 -0.07169141 50.11172057 -0.07579622 53.93573189 -0.08026505 C64.53014628 -0.09237486 75.12455805 -0.10275616 85.71897888 -0.10614014 C86.39687336 -0.1063597 87.07476785 -0.10657927 87.77320459 -0.10680549 C88.45269563 -0.10702377 89.13218668 -0.10724204 89.83226836 -0.10746694 C91.20910875 -0.1079104 92.58594914 -0.10835696 93.96278954 -0.10880661 C94.64574582 -0.10902804 95.32870211 -0.10924947 96.03235404 -0.10947761 C107.08960136 -0.11342252 118.14678265 -0.13086718 129.20400448 -0.15416613 C140.56532908 -0.17791188 151.92660945 -0.1900858 163.28796327 -0.19150805 C169.66322917 -0.19255565 176.03840197 -0.1984538 182.41364479 -0.21632767 C188.41364973 -0.2328218 194.41349173 -0.23495721 200.41351128 -0.22618866 C202.61207198 -0.22541897 204.81064149 -0.22975203 207.00918007 -0.23964691 C210.01845557 -0.25239295 213.02715634 -0.24647493 216.03642845 -0.23606491 C216.89948967 -0.24412132 217.76255088 -0.25217772 218.65176547 -0.26047826 C228.56511995 -0.18067678 237.36243654 2.66129305 244.94374657 9.13142776 C252.20684084 16.74709942 255.12583741 24.76613784 256.18984032 35.05330276 C256.2858654 35.89961258 256.38189049 36.74592239 256.48082542 37.61787796 C256.79085469 40.37139645 257.08627133 43.12625955 257.38124657 45.88142776 C257.59349165 47.79656564 257.80663685 49.71160395 258.02065086 51.62654495 C258.45641961 55.53906391 258.88637057 59.45215853 259.31191063 63.36580276 C259.90670991 68.82121671 260.52735029 74.27342369 261.15468407 79.72517776 C261.43386854 82.16786689 261.71245214 84.6106234 261.99065208 87.05342484 C262.16627802 88.59283068 262.3427571 90.13213946 262.52013206 91.67134476 C262.76549833 93.80866112 263.00570378 95.9464968 263.24452782 98.08455276 C263.38028221 99.28241409 263.51603661 100.48027542 263.65590477 101.71443558 C263.94988488 105.20429621 263.96290822 108.63097209 263.94374657 112.13142776 C232.92875402 112.15435827 201.91376377 112.17199771 170.89876474 112.18249309 C167.21730684 112.18374344 163.53584897 112.1850378 159.8543911 112.18635941 C158.75526023 112.18675287 158.75526023 112.18675287 157.63392471 112.18715429 C145.84901398 112.19147739 134.06410824 112.19934598 122.27920045 112.20858056 C110.14044337 112.21801139 98.00168886 112.22350307 85.86292827 112.22551626 C79.06433325 112.22675207 72.26574864 112.22968925 65.46715736 112.23715782 C37.61034965 112.266212 9.78138685 112.26948671 -18.05625343 111.13142776 C-18.148992 98.3443883 -18.22003832 85.55742903 -18.26350212 72.77012157 C-18.28436409 66.83224916 -18.31265692 60.89460708 -18.35801125 54.95686722 C-18.40151772 49.2250842 -18.425401 43.49352255 -18.43576241 37.76158714 C-18.44314508 35.57633416 -18.45756174 33.3910931 -18.47917366 31.20593452 C-18.50827083 28.14169009 -18.51220671 25.0783568 -18.510355 22.01399612 C-18.5247361 21.11343994 -18.5391172 20.21288376 -18.5539341 19.28503799 C-18.51546333 13.38970947 -17.49586707 9.95964868 -14.05625343 5.13142776 C-9.45511352 1.48885866 -5.79084529 0.01043487 0 0 Z " fill="#383E4A" transform="translate(35.05625343322754,105.86857223510742)"/>
<path d="M0 0 C59.4 0 118.8 0 180 0 C188 70 188 70 188 77 C120.35 77 52.7 77 -17 77 C-14.42013279 64.10066397 -11.79759357 51.22644545 -9 38.375 C-8.66653193 36.83596669 -8.3331987 35.29690415 -8 33.7578125 C-7.17546952 29.95325358 -6.34579126 26.14984484 -5.51318359 22.3470459 C-5.15829941 20.72398259 -4.80453055 19.10067517 -4.45166016 17.47717285 C-3.90787261 14.97639355 -3.36056914 12.47640649 -2.8125 9.9765625 C-2.56209961 8.82043961 -2.56209961 8.82043961 -2.30664062 7.64096069 C-1.11406482 2.22812963 -1.11406482 2.22812963 0 0 Z " fill="#3B95D1" transform="translate(111,141)"/>
<path d="M0 0 C1.49843507 1.2904583 2.97953707 2.60148564 4.4375 3.9375 C5.06914062 4.50082031 5.70078125 5.06414062 6.3515625 5.64453125 C16.24396681 14.94862077 22.32373476 27.01795995 26.9375 39.625 C30.08913383 48.06976243 34.68189434 54.03077321 40.4375 60.9375 C31.1975 60.9375 21.9575 60.9375 12.4375 60.9375 C12.4375 63.5775 12.4375 66.2175 12.4375 68.9375 C10.44188961 79.98379046 6.73531118 90.03734314 -0.67236328 98.59765625 C-1.21337677 99.22422119 -1.75439026 99.85078613 -2.3117981 100.49633789 C-2.72452972 100.97192139 -3.13726135 101.44750488 -3.5625 101.9375 C-2.69585582 101.93831715 -2.69585582 101.93831715 -1.81170368 101.93915081 C12.25187606 101.95412345 26.31514854 101.99658948 40.37855053 102.06959057 C47.17956815 102.10423188 53.98038328 102.12959492 60.78149414 102.13305664 C67.3433719 102.13642272 73.90480192 102.16572289 80.46654701 102.21093178 C82.97157133 102.22393433 85.4766565 102.22820478 87.98171043 102.22365379 C91.48731033 102.21876777 94.99141045 102.24475467 98.49682617 102.27807617 C100.05481178 102.26513771 100.05481178 102.26513771 101.64427185 102.25193787 C108.68978138 102.36440641 108.68978138 102.36440641 112.58198547 105.34761047 C115.44637002 109.34566031 115.12697207 111.11119551 114.4375 115.9375 C112.56734906 118.36869623 111.15611655 119.57819173 108.4375 120.9375 C105.48831118 121.04011513 102.56248177 121.08086614 99.61283875 121.07794189 C98.22511764 121.08239858 98.22511764 121.08239858 96.80936176 121.0869453 C93.69020026 121.09565964 90.57107702 121.09714285 87.4519043 121.09863281 C85.22329628 121.10325905 82.99468906 121.10828344 80.76608276 121.11367798 C74.69787748 121.12682266 68.62968328 121.13325095 62.56146598 121.13768864 C58.77334998 121.14061601 54.98523704 121.14472017 51.19712257 121.14919281 C40.71172464 121.16130468 30.2263285 121.17168573 19.74092388 121.1750679 C19.06960418 121.17528747 18.39828448 121.17550703 17.70662175 121.17573325 C16.69721221 121.17606067 16.69721221 121.17606067 15.66741055 121.1763947 C14.30374571 121.17683817 12.94008086 121.17728473 11.57641602 121.17773438 C10.89998902 121.1779558 10.22356202 121.17817723 9.52663723 121.17840537 C-1.43388412 121.18235337 -12.39433898 121.19980677 -23.35483465 121.2230939 C-34.60419666 121.24680207 -45.85352645 121.25901148 -57.10291737 121.26043582 C-63.42048579 121.26148567 -69.73796048 121.26743164 -76.05550575 121.28525543 C-81.99719408 121.30169211 -87.93871778 121.30391303 -93.88042068 121.29511642 C-96.0633418 121.29434369 -98.2462716 121.29871974 -100.42917061 121.30857468 C-103.40527429 121.32122442 -106.38078877 121.31545525 -109.35688782 121.30499268 C-110.22420463 121.31304908 -111.09152145 121.32110548 -111.98512059 121.32940602 C-116.65960947 121.29087447 -119.7736655 120.9920431 -123.5625 117.9375 C-124.70613112 115.65023777 -124.82751932 114.10897573 -124.9375 111.5625 C-124.98648438 110.79164063 -125.03546875 110.02078125 -125.0859375 109.2265625 C-124.29790187 105.78037683 -122.46001793 104.852729 -119.5625 102.9375 C-116.51635742 102.39160156 -116.51635742 102.39160156 -113.16796875 102.328125 C-111.96591797 102.29589844 -110.76386719 102.26367188 -109.52539062 102.23046875 C-107.65657227 102.20919922 -107.65657227 102.20919922 -105.75 102.1875 C-104.48478516 102.15785156 -103.21957031 102.12820313 -101.91601562 102.09765625 C-98.79811324 102.02706223 -95.68095425 101.9743109 -92.5625 101.9375 C-93.15417969 101.14988281 -93.74585937 100.36226563 -94.35546875 99.55078125 C-105.74835005 83.99400424 -108.96303053 68.99040261 -107.5625 49.9375 C-106.66182984 44.12477158 -105.09226533 38.35504281 -101.93359375 33.36328125 C-99.44732646 27.15115472 -100.32450375 20.20167719 -100.5625 13.58984375 C-100.54338545 5.28457375 -100.54338545 5.28457375 -97.77783203 1.48657227 C-93.2900934 -2.65051669 -88.19816309 -5.78948699 -82.6875 -8.375 C-81.99986572 -8.70765869 -81.31223145 -9.04031738 -80.60375977 -9.38305664 C-54.43671036 -21.69247153 -22.70669469 -17.63793027 0 0 Z M-78.3125 31.0625 C-87.5974799 40.75904816 -90.16155215 51.51172372 -89.8984375 64.46875 C-89.34181277 75.27002996 -84.1255443 84.41541081 -76.5625 91.9375 C-67.26546568 99.70740414 -55.66765155 103.92492928 -43.5625 102.9375 C-31.4724018 101.01481592 -21.16620513 95.69504435 -13.5625 85.9375 C-6.99661316 75.11108214 -3.67413324 64.32279589 -6.21484375 51.6953125 C-9.57074621 39.45274989 -16.24502307 30.48248462 -26.765625 23.46875 C-44.31501398 13.47373376 -64.04633769 17.95946906 -78.3125 31.0625 Z " fill="#383E49" transform="translate(124.5625,285.0625)"/>
<path d="M0 0 C0 5.28 0 10.56 0 16 C2.206875 16.226875 4.41375 16.45375 6.6875 16.6875 C18.68523699 18.17835859 28.50216442 22.52547094 38 30 C38.825 30.61746094 39.65 31.23492187 40.5 31.87109375 C48.57974528 38.75150184 53.65349742 48.06801043 57 58 C57.54720703 59.56427734 57.54720703 59.56427734 58.10546875 61.16015625 C62.15552214 78.54531993 58.86980625 95.30632056 49.78125 110.34375 C47.98528283 113.02194666 46.05292779 115.51487688 44 118 C44.66386719 118.02578125 45.32773437 118.0515625 46.01171875 118.078125 C50.14108076 118.34336869 53.36544544 118.69541381 57.125 120.5 C59.54354622 123.72472829 59.64844354 125.9165554 59.43359375 129.875 C58.81336094 132.91469955 57.49683357 134.23752924 55 136 C52.725186 137.137407 51.48342426 137.12715949 48.95723248 137.13142776 C48.10638535 137.13526891 47.25553823 137.13911005 46.37890786 137.1430676 C45.43875276 137.14220112 44.49859765 137.14133463 43.529953 137.14044189 C42.53538521 137.14341302 41.54081741 137.14638414 40.5161112 137.1494453 C37.16201823 137.15816147 33.80796084 137.159643 30.45385742 137.16113281 C28.05776391 137.16575892 25.66167113 137.17078329 23.26557922 137.17617798 C16.74077748 137.18932384 10.21598316 137.19578761 3.69117141 137.20018864 C-0.3817109 137.20294954 -4.45459084 137.20718663 -8.52747154 137.21169281 C-19.80036298 137.22388702 -31.07325251 137.23418586 -42.3461504 137.2375679 C-43.06791949 137.23778747 -43.78968858 137.23800703 -44.53332947 137.23823325 C-45.61860019 137.23856067 -45.61860019 137.23856067 -46.72579557 137.2388947 C-48.19195291 137.23933817 -49.65811024 137.23978473 -51.12426758 137.24023438 C-51.85153503 137.2404558 -52.57880248 137.24067723 -53.32810833 137.24090537 C-65.11310966 137.24485359 -76.89804915 137.26230762 -88.68302659 137.2855939 C-100.77763924 137.3092994 -112.87222087 137.3217694 -124.96685714 137.32293582 C-131.75949734 137.32385306 -138.55205702 137.32961762 -145.34467506 137.34775543 C-151.73284694 137.36475293 -158.12090664 137.36641501 -164.50909615 137.35761642 C-166.85649779 137.35684347 -169.20390751 137.36122256 -171.5512886 137.37107468 C-174.75071076 137.38371749 -177.94958431 137.37795893 -181.14900208 137.36749268 C-182.54919648 137.37957728 -182.54919648 137.37957728 -183.97767764 137.39190602 C-188.78814383 137.35498822 -192.122926 137.19044339 -196 134 C-197.14363112 131.71273777 -197.26501932 130.17147573 -197.375 127.625 C-197.42398438 126.85414063 -197.47296875 126.08328125 -197.5234375 125.2890625 C-196.73643326 121.84738724 -194.89065259 120.91386379 -192 119 C-189.08900738 118.49219131 -189.08900738 118.49219131 -185.81803894 118.48101807 C-184.57428497 118.46710526 -183.33053101 118.45319244 -182.04908752 118.43885803 C-180.67880117 118.44357064 -179.30851609 118.44866455 -177.93823242 118.45410156 C-176.48922619 118.44536359 -175.0402296 118.43487702 -173.59124756 118.42277527 C-169.66390611 118.39492163 -165.73687961 118.39151043 -161.80945373 118.39249516 C-157.70275686 118.38936549 -153.59620173 118.36374618 -149.48957825 118.34051514 C-141.71594182 118.29995567 -133.94238927 118.27961458 -126.16866332 118.26654124 C-117.31737089 118.250671 -108.4662212 118.21225529 -99.61501157 118.17194796 C-81.41005285 118.08954978 -63.20510762 118.03545718 -45 118 C-45.54487061 117.3397583 -46.08974121 116.6795166 -46.65112305 115.99926758 C-47.36824463 115.11907959 -48.08536621 114.2388916 -48.82421875 113.33203125 C-49.53408936 112.46553955 -50.24395996 111.59904785 -50.9753418 110.70629883 C-58.26028829 100.96873319 -61 88.96632574 -61 77 C-72.88 77 -84.76 77 -97 77 C-92 73 -92 73 -90.078125 71.53515625 C-81.27476993 64.44356467 -75.76993331 54.90711254 -70.9375 44.875 C-61.14461677 24.5642808 -45.88609011 11.27420136 -25 3 C-16.54786134 0.10647505 -8.90195331 -0.29028109 0 0 Z M-31.65625 47.58984375 C-39.70353965 56.3145838 -43.57350487 67.2423742 -43.3125 79.00390625 C-41.96729112 91.90109638 -36.22509715 101.95386113 -26.421875 110.2109375 C-17.49467446 116.80554693 -7.10648512 120.16527057 4 119 C15.88877699 116.79454572 26.98653896 111.25372808 33.984375 101.12890625 C40.95996011 89.58460114 43.26330656 77.5180124 40.125 64.3203125 C36.05379721 52.93701522 29.54828062 44.93726321 19 39 C1.07019938 30.57299371 -17.40515177 33.9101339 -31.65625 47.58984375 Z " fill="#383E49" transform="translate(453,269)"/>
<path d="M0 0 C1.73411463 3.46822926 1.45800603 7.2079795 1 11 C-0.4375 13.5625 -0.4375 13.5625 -3 15 C-7.33537301 16.09733508 -10.68648447 15.69459167 -14.64453125 13.6015625 C-16.50437209 12.38295434 -18.34905705 11.14097042 -20.1796875 9.87890625 C-35.97758135 -0.6457294 -56.39419096 -3.16165974 -74.90625 -0.421875 C-90.6262438 3.27299534 -103.99204483 11.30717964 -115 23 C-115.73605469 23.77859375 -116.47210938 24.5571875 -117.23046875 25.359375 C-121.91905352 30.76439729 -124.98947228 36.63205824 -128.0690918 43.02807617 C-133.90521128 55.14064167 -141.24936181 66.8685782 -153 74 C-153.66 74 -154.32 74 -155 74 C-155 74.66 -155 75.32 -155 76 C-169.28683557 82.14638903 -181.24658417 84.15082251 -196.71459961 84.14526367 C-198.07899568 84.1482614 -199.4433909 84.15166533 -200.80778503 84.15544128 C-204.48962887 84.16422108 -208.17144942 84.16661679 -211.85330272 84.16725707 C-214.15886787 84.16797077 -216.46442722 84.17011107 -218.76999092 84.17275429 C-226.82802833 84.18198636 -234.88604927 84.18609168 -242.9440918 84.18530273 C-250.43254552 84.18470187 -257.92092723 84.19526094 -265.40936273 84.2110464 C-271.85975669 84.2241549 -278.31012719 84.22948528 -284.76053435 84.22884732 C-288.6038346 84.2285934 -292.44707071 84.23138637 -296.29035759 84.24202538 C-299.90606562 84.25176283 -303.52164889 84.25174719 -307.13736153 84.24450874 C-309.08197769 84.24297819 -311.02659401 84.25126916 -312.97119141 84.25994873 C-326.59655691 84.21146279 -339.0957193 81.94077226 -349.375 72.25 C-355.67000281 65.31900722 -359.19567298 57.73834018 -362.4375 49.0625 C-369.88802014 29.24318233 -383.32398925 14.72036148 -402.1875 5.1875 C-422.03109058 -3.10706326 -444.2026048 -3.5677101 -464.25 4.25 C-476.76936355 9.90553018 -486.19619085 17.75841456 -494.5625 28.625 C-496.45915355 30.84525321 -497.46012611 31.85075159 -500.2890625 32.6328125 C-503.97383344 32.81285017 -506.33511816 32.3729825 -509.5625 30.5625 C-511.81379972 26.54931354 -512.22094041 23.46768696 -511 19 C-499.03232919 -0.47899581 -476.73644023 -12.16289236 -455.1015625 -17.34375 C-454.07804687 -17.5603125 -453.05453125 -17.776875 -452 -18 C-451.22446777 -18.1743457 -450.44893555 -18.34869141 -449.64990234 -18.52832031 C-436.84839577 -20.80697433 -421.27327749 -20.20707708 -409 -16 C-408.37867188 -15.79600586 -407.75734375 -15.59201172 -407.1171875 -15.38183594 C-382.738723 -7.29882189 -361.81290057 8.70068869 -350.04589844 31.87939453 C-347.74341014 36.77899618 -345.81263857 41.81621854 -343.92578125 46.88671875 C-340.7750025 55.21822461 -337.16990239 60.06093992 -329 64 C-325.29698601 64.94242506 -321.82598077 65.1295528 -318.01268005 65.14044189 C-316.81151047 65.14615204 -315.61034088 65.15186218 -314.37277222 65.15774536 C-312.40825607 65.15942215 -312.40825607 65.15942215 -310.40405273 65.16113281 C-309.00408295 65.16576475 -307.60411442 65.17078991 -306.20414734 65.17617798 C-302.40623862 65.18927175 -298.60834755 65.19574155 -294.8104198 65.20018864 C-292.4331665 65.20312553 -290.05591796 65.20723159 -287.67866707 65.21169281 C-280.22811705 65.22536261 -272.77757798 65.2350306 -265.32701629 65.2388947 C-256.75073007 65.24336796 -248.17460381 65.26088387 -239.5983662 65.2898953 C-232.95439281 65.31158316 -226.31046418 65.32160283 -219.66645581 65.32293582 C-215.70562362 65.32397919 -211.74494191 65.32978605 -207.78414726 65.34775543 C-204.05189669 65.3643585 -200.3199077 65.36633305 -196.58763313 65.35761642 C-194.58371181 65.35649135 -192.57979869 65.37011562 -190.57592773 65.3843689 C-180.74932288 65.339545 -170.41179481 64.71665577 -162.4375 58.375 C-159.82614104 56.34251372 -158.16124512 55.05374837 -155 54 C-153.92588447 52.14403425 -153.92588447 52.14403425 -153 50 C-152.13976977 48.73979011 -151.26327222 47.49060367 -150.375 46.25 C-147.52981881 42.06834144 -145.36184478 37.73531715 -143.1875 33.1875 C-131.86715742 9.9308153 -112.76602052 -5.65152248 -89 -15 C-84.70046726 -16.36402547 -80.44979047 -17.27608642 -76 -18 C-75.35305176 -18.10683105 -74.70610352 -18.21366211 -74.03955078 -18.32373047 C-48.16849988 -22.43694031 -20.40695695 -17.47818072 0 0 Z " fill="#E37D24" transform="translate(511,271)"/>
<path d="M0 0 C59.4 0 118.8 0 180 0 C187 61 187 61 187 72 C184.93765501 69.25020668 183.04202405 66.56380039 181.1875 63.6875 C159.66795624 31.61711196 115.21445541 20.0501148 79.6875 12.1875 C78.43864014 11.9095459 77.18978027 11.6315918 75.90307617 11.34521484 C57.50821474 7.42705093 38.90089796 5.4645759 20.1875 3.8125 C18.21154358 3.63396049 16.23563182 3.45492588 14.25976562 3.27539062 C9.50700258 2.84458871 4.75369747 2.42036006 0 2 C0 1.34 0 0.68 0 0 Z " fill="#2980B9" transform="translate(111,141)"/>
<path d="M0 0 C22.04667125 -0.161305 44.08220747 0.11697715 66.125 0.5 C66.81336441 0.51195782 67.50172882 0.52391563 68.21095276 0.53623581 C76.80739337 0.68601315 85.40369703 0.84237296 94 1 C94 14.2 94 27.4 94 41 C85 39 85 39 82.15625 38.1484375 C61.19362993 32.04461577 37.36051819 35.48432027 18 45 C16.63657608 45.77561504 15.28083469 46.56508927 13.9375 47.375 C12.968125 47.91125 11.99875 48.4475 11 49 C10.01 48.67 9.02 48.34 8 48 C4.48619439 40.46888616 2.62240594 32.15392405 1.1875 24 C1.06375 23.32654541 0.94 22.65309082 0.8125 21.95922852 C-0.3468818 14.68155025 -0.10344777 7.34660658 0 0 Z " fill="#BE3A2B" transform="translate(17,217)"/>
<path d="M0 0 C1.25743515 -0.01561478 2.5148703 -0.03122955 3.81040955 -0.0473175 C5.19633582 -0.04432489 6.58226121 -0.04089219 7.96818542 -0.0370636 C9.43376876 -0.04739999 10.89934123 -0.05938984 12.36489868 -0.07290649 C16.34030492 -0.10393748 20.31534855 -0.10923107 24.29086137 -0.10797477 C27.61327624 -0.10880587 30.93561269 -0.12105344 34.25800341 -0.13292438 C42.09959855 -0.16029517 49.94100574 -0.16562836 57.78263855 -0.15815735 C65.86213149 -0.15091982 73.94075112 -0.1843132 82.02005464 -0.23721474 C88.9646452 -0.28103909 95.90895409 -0.2977075 102.85368079 -0.29317886 C106.99792608 -0.29085987 111.141466 -0.29911161 115.28557777 -0.3342495 C119.18564884 -0.36628304 123.08427811 -0.36433748 126.98436928 -0.33680534 C128.41136582 -0.3323621 129.83845848 -0.33974181 131.26531601 -0.36014938 C143.36397025 -0.52139397 143.36397025 -0.52139397 148.44503784 3.94992065 C149.01398112 4.56739261 149.5829244 5.18486456 150.16910839 5.82104778 C157.01587144 13.1771675 170.27847378 15.84962584 179.75798035 17.52812195 C179.75798035 17.85812195 179.75798035 18.18812195 179.75798035 18.52812195 C155.7233513 18.59817112 131.68873752 18.65109007 107.65402699 18.68355846 C96.49455162 18.69903411 85.33513964 18.720137 74.17570496 18.75444031 C64.45030939 18.78432126 54.72495972 18.80369187 44.99951953 18.81038743 C39.84891401 18.81430189 34.69843983 18.82351598 29.54787636 18.84531212 C24.70113052 18.86565662 19.85457028 18.87195985 15.0077858 18.86744499 C13.22799992 18.8682711 11.44820792 18.87424886 9.66845894 18.88573837 C7.23960011 18.90065074 4.81144322 18.89708035 2.38256836 18.8888855 C1.32467652 18.90199328 1.32467652 18.90199328 0.24541312 18.91536587 C-4.07789901 18.87590312 -6.79971576 18.17252507 -10.24201965 15.52812195 C-11.38565077 13.24085971 -11.50703897 11.69959768 -11.61701965 9.15312195 C-11.66600403 8.38226257 -11.7149884 7.6114032 -11.76545715 6.81718445 C-10.44562756 1.04539235 -5.20124187 0.02576214 0 0 Z " fill="#2C2F38" transform="translate(267.2420196533203,387.4718780517578)"/>
<path d="M0 0 C1.49843507 1.2904583 2.97953707 2.60148564 4.4375 3.9375 C5.06914062 4.50082031 5.70078125 5.06414062 6.3515625 5.64453125 C16.24396681 14.94862077 22.32373476 27.01795995 26.9375 39.625 C30.08913383 48.06976243 34.68189434 54.03077321 40.4375 60.9375 C30.8675 60.9375 21.2975 60.9375 11.4375 60.9375 C11.1075 56.6475 10.7775 52.3575 10.4375 47.9375 C9.21935568 43.3835143 7.40218782 39.21851011 5.4375 34.9375 C5.06625 34.12410156 4.695 33.31070313 4.3125 32.47265625 C-3.67821391 16.68544716 -17.63867388 8.2964236 -33.86328125 2.82421875 C-47.96293771 -0.55552995 -64.38680849 1.55889719 -76.9375 8.75 C-78.49617135 9.78739384 -80.03856249 10.84972391 -81.5625 11.9375 C-82.33078125 12.45054687 -83.0990625 12.96359375 -83.890625 13.4921875 C-89.48982629 17.47257209 -93.18570897 22.10822274 -97.03125 27.77734375 C-97.78921875 28.84662109 -97.78921875 28.84662109 -98.5625 29.9375 C-98.8925 29.9375 -99.2225 29.9375 -99.5625 29.9375 C-99.82576588 25.77204875 -99.98432084 21.6087488 -100.125 17.4375 C-100.20041016 16.26445312 -100.27582031 15.09140625 -100.35351562 13.8828125 C-100.56925146 5.34926162 -100.56925146 5.34926162 -97.79589844 1.46020508 C-93.31451695 -2.66791436 -88.18860554 -5.79397124 -82.6875 -8.375 C-81.65604858 -8.87398804 -81.65604858 -8.87398804 -80.60375977 -9.38305664 C-54.43671036 -21.69247153 -22.70669469 -17.63793027 0 0 Z " fill="#603E26" transform="translate(124.5625,285.0625)"/>
<path d="M0 0 C5.94 0 11.88 0 18 0 C18.0093457 1.88750977 18.01869141 3.77501953 18.02832031 5.71972656 C18.0638517 11.95845477 18.11765181 18.19681649 18.18390274 24.43529129 C18.22340006 28.21745785 18.25557711 31.99939083 18.27099609 35.78173828 C18.2861484 39.43247635 18.32056696 43.08257234 18.36830902 46.7330246 C18.38313784 48.12520515 18.39104188 49.51747737 18.39188385 50.90973663 C18.39425034 52.86083165 18.42359555 54.81183736 18.45410156 56.76269531 C18.46298401 57.8730011 18.47186646 58.98330688 18.48101807 60.1272583 C19.11706885 63.64801595 20.20304951 64.83530141 23 67 C25.52975411 67.60932307 25.52975411 67.60932307 28.28125 67.53125 C29.28800781 67.53640625 30.29476563 67.5415625 31.33203125 67.546875 C32.90017578 67.52367187 32.90017578 67.52367187 34.5 67.5 C35.54542969 67.51546875 36.59085937 67.5309375 37.66796875 67.546875 C38.67472656 67.54171875 39.68148437 67.5365625 40.71875 67.53125 C42.09450195 67.52448242 42.09450195 67.52448242 43.49804688 67.51757812 C46.73540273 66.84786751 47.92038915 65.51100701 50 63 C51.46262554 60.07474892 51.12807005 57.46245942 51.140625 54.19921875 C51.15895677 52.81573879 51.17852743 51.4322748 51.19921875 50.04882812 C51.22815415 47.86959983 51.24999913 45.6913956 51.25048828 43.51196289 C51.25383399 41.40679279 51.28844361 39.30397801 51.328125 37.19921875 C51.3374707 35.93940186 51.34681641 34.67958496 51.35644531 33.3815918 C52.16501553 29.13291725 53.64670207 27.64804082 57 25 C60 24.375 60 24.375 63 25 C65.8125 27.4375 65.8125 27.4375 68 30 C68.33 30.33 68.66 30.66 69 31 C69.13824874 33.3431731 69.21311656 35.65472625 69.23828125 38 C69.246353 38.70970947 69.25442474 39.41941895 69.26274109 40.15063477 C69.27660566 41.6604568 69.28731715 43.17031049 69.29516602 44.68017578 C69.31222501 46.96319797 69.35606528 49.24471254 69.40039062 51.52734375 C69.51525432 62.2356258 68.12907334 70.36496664 60.71484375 78.49609375 C53.01313915 85.25043605 44.17733911 85.26584235 34.4375 85.375 C32.5802832 85.43107422 32.5802832 85.43107422 30.68554688 85.48828125 C21.65537603 85.5743284 14.66362032 84.27272501 7.85913086 78.03857422 C-0.39975571 69.52941836 -0.42421576 60.50506253 -0.29296875 49.21875 C-0.28736409 47.79529266 -0.28309811 46.37182948 -0.28010559 44.94836426 C-0.2687251 41.22631473 -0.23931791 37.50462395 -0.20599365 33.78271484 C-0.17514493 29.97498424 -0.16156883 26.16719491 -0.14648438 22.359375 C-0.11444037 14.90606856 -0.06172955 7.45313053 0 0 Z " fill="#BF3A2A" transform="translate(230,218)"/>
<path d="M0 0 C1.22763565 0.00212242 1.22763565 0.00212242 2.48007202 0.00428772 C5.09873075 0.00989335 7.71730454 0.02244677 10.3359375 0.03515625 C12.10937377 0.04017053 13.88281137 0.04473356 15.65625 0.04882812 C20.00784532 0.05986461 24.359377 0.077133 28.7109375 0.09765625 C28.10792988 9.83474656 25.77346688 19.0766638 23.5234375 28.53515625 C22.91074614 31.14208107 22.30039947 33.74954737 21.69026184 36.35707092 C21.28273303 38.09839133 20.87452156 39.83955212 20.46562195 41.58055115 C17.77208618 53.06242945 15.24865615 64.58031775 12.7109375 76.09765625 C4.1309375 76.09765625 -4.4490625 76.09765625 -13.2890625 76.09765625 C-13.35687932 67.05715241 -13.41190218 58.01681793 -13.44449902 48.97611713 C-13.46014503 44.77800853 -13.4813637 40.58008321 -13.51538086 36.38208008 C-13.54801252 32.32962941 -13.56592352 28.27735487 -13.57369423 24.22478294 C-13.57923093 22.67983414 -13.59004284 21.13489482 -13.60625267 19.59002113 C-13.62807816 17.42349148 -13.63102738 15.25768662 -13.62963867 13.09106445 C-13.63630051 11.85862503 -13.64296234 10.62618561 -13.64982605 9.35639954 C-13.25672786 5.80558051 -12.42649591 3.93040985 -10.2890625 1.09765625 C-7.06302705 -0.51536148 -3.54196212 -0.02287974 0 0 Z " fill="#3A95D1" transform="translate(64.2890625,140.90234375)"/>
<path d="M0 0 C1.4573481 -0.01496269 1.4573481 -0.01496269 2.94413757 -0.03022766 C4.01377747 -0.03089233 5.08341736 -0.03155701 6.18547058 -0.03224182 C7.87098274 -0.0447271 7.87098274 -0.0447271 9.59054565 -0.0574646 C13.32168498 -0.08164759 17.05264975 -0.09034723 20.78385925 -0.09693909 C23.36977188 -0.10589959 25.95568395 -0.11502132 28.54159546 -0.1242981 C33.96977855 -0.14081359 39.39789102 -0.14852599 44.82609558 -0.15138245 C51.0973821 -0.15501585 57.36817863 -0.18489286 63.63931543 -0.22678703 C69.67282288 -0.26567941 75.70605899 -0.27697537 81.73970604 -0.2781086 C84.30619144 -0.28232135 86.87267686 -0.29479752 89.43908119 -0.31562614 C93.02815681 -0.34243322 96.61587776 -0.33774535 100.20500183 -0.32521057 C101.26856903 -0.34004486 102.33213623 -0.35487915 103.42793274 -0.37016296 C110.63760861 -0.29833551 110.63760861 -0.29833551 114.54904175 2.68051147 C117.39094071 6.68579699 117.07811495 8.45264607 116.389328 13.27415466 C114.51917706 15.70535089 113.10794455 16.91484639 110.389328 18.27415466 C108.33680457 18.36830842 106.28113684 18.3960582 104.22645569 18.39440918 C102.25341965 18.39647118 102.25341965 18.39647118 100.24052429 18.39857483 C98.77433754 18.39503543 97.30815102 18.39140062 95.84196472 18.38768005 C94.30474347 18.38739811 92.76752208 18.38755605 91.2303009 18.38812256 C87.04872279 18.38841027 82.86717318 18.3825178 78.68560171 18.3755486 C74.31870765 18.36931067 69.95181299 18.36871091 65.58491516 18.36752319 C57.31180548 18.36441118 49.03870897 18.35619953 40.76560509 18.3461737 C31.34856919 18.33500855 21.93153267 18.3295011 12.5144918 18.32447827 C-6.86057027 18.31401682 -26.23562008 18.29641987 -45.610672 18.27415466 C-45.610672 17.94415466 -45.610672 17.61415466 -45.610672 17.27415466 C-44.67867981 17.18778748 -43.74668762 17.10142029 -42.78645325 17.01243591 C-27.44278564 15.32137447 -12.50546333 0.06865505 0 0 Z " fill="#2C2F38" transform="translate(122.61067199707031,387.72584533691406)"/>
<path d="M0 0 C0 5.61 0 11.22 0 17 C-2.206875 17.226875 -4.41375 17.45375 -6.6875 17.6875 C-22.0639588 19.59632496 -37.23883524 26.66380405 -47 39 C-55.1530751 51.11741437 -58.66411497 62.30526465 -60 77 C-72.21 77 -84.42 77 -97 77 C-92 73 -92 73 -90.078125 71.53515625 C-81.27476993 64.44356467 -75.76993331 54.90711254 -70.9375 44.875 C-61.14461677 24.5642808 -45.88609011 11.27420136 -25 3 C-16.54786134 0.10647505 -8.90195331 -0.29028109 0 0 Z " fill="#603E26" transform="translate(453,269)"/>
<path d="M0 0 C76.56 0 153.12 0 232 0 C232 0.33 232 0.66 232 1 C172.6 1 113.2 1 52 1 C51.01 6.61 50.02 12.22 49 18 C48.40371345 20.92601522 47.78790389 23.84830529 47.1328125 26.76171875 C46.89285805 27.83630592 46.89285805 27.83630592 46.64805603 28.93260193 C46.14411192 31.18509446 45.63479413 33.43632507 45.125 35.6875 C44.77112149 37.26214379 44.41752759 38.83685157 44.06420898 40.41162109 C43.36815275 43.51076999 42.66977315 46.60938001 41.96923828 49.70751953 C41.10718542 53.52103634 40.25356475 57.33639299 39.40234375 61.15234375 C38.95602333 63.14329513 38.50943468 65.13418642 38.0625 67.125 C37.76400146 68.46437622 37.76400146 68.46437622 37.45947266 69.83081055 C36.11540919 75.76918162 36.11540919 75.76918162 35 78 C20.81 78 6.62 78 -8 78 C-8 77.67 -8 77.34 -8 77 C0.58 77 9.16 77 18 77 C18.99 71.06 18.99 71.06 20 65 C20.64064872 61.7972382 21.29617787 58.60525114 21.98828125 55.4140625 C22.26378815 54.12855499 22.26378815 54.12855499 22.54486084 52.81707764 C23.1311915 50.08575553 23.72165137 47.35534798 24.3125 44.625 C24.71745935 42.74432337 25.1223255 40.86362667 25.52709961 38.98291016 C28.26185983 26.30058099 31.07577818 13.64018462 34 1 C22.78 1 11.56 1 0 1 C0 0.67 0 0.34 0 0 Z " fill="#445263" transform="translate(59,140)"/>
<path d="M0 0 C3.08771984 2.2564941 3.91148687 3.43990492 4.5146637 7.25669861 C4.52086227 8.54733719 4.52706085 9.83797577 4.53344727 11.16772461 C4.54206284 11.88204147 4.55067841 12.59635834 4.55955505 13.33232117 C4.58222442 15.68936589 4.5754748 18.04522247 4.56640625 20.40234375 C4.57164177 22.04375054 4.57791799 23.68515431 4.58518982 25.32655334 C4.59559599 28.76561648 4.59103021 32.20426591 4.57641602 35.64331055 C4.55923478 40.04648621 4.58271283 44.44835614 4.61790562 48.85138607 C4.63988764 52.24097816 4.63843619 55.63025825 4.6301403 59.01989937 C4.62932107 60.64298496 4.63617919 62.26609353 4.65091133 63.88911247 C4.66837204 66.16117971 4.65380616 68.43090694 4.63110352 70.70288086 C4.62966087 72.64003212 4.62966087 72.64003212 4.62818909 74.61631775 C3.67628567 79.74365724 0.63057454 81.75133744 -3.3515625 84.80078125 C-4.47691406 85.54908203 -4.47691406 85.54908203 -5.625 86.3125 C-6.38039063 86.82425781 -7.13578125 87.33601563 -7.9140625 87.86328125 C-10 89 -10 89 -13 89 C-13.092691 78.13418722 -13.16376054 67.26846854 -13.20724869 56.40234089 C-13.22812116 51.35670822 -13.25643274 46.3113461 -13.30175781 41.26586914 C-13.34522748 36.39644398 -13.36913967 31.52727901 -13.37950897 26.65767479 C-13.38689832 24.8001108 -13.40132803 22.942561 -13.42292023 21.0851078 C-13.45196935 18.48261396 -13.45595541 15.88119441 -13.45410156 13.27856445 C-13.46848267 12.5110788 -13.48286377 11.74359314 -13.49768066 10.95285034 C-13.46915475 7.25051564 -13.12163568 5.18883368 -11.09661865 2.04508972 C-7.32360881 -1.63519026 -5.06195536 -1.1345762 0 0 Z " fill="#BF3A2A" transform="translate(354,244)"/>
<path d="M0 0 C4.60511542 3.34096609 7.61110019 6.79510066 9.1875 12.3125 C9.69466858 17.78992068 8.89103029 21.51591401 6.1875 26.3125 C1.76479307 30.96522951 -1.96606461 33.42080876 -8.5 33.6875 C-14.07707256 33.61422459 -17.69266706 32.04313213 -21.8125 28.3125 C-25.2462021 24.57810647 -26.10491432 20.88197298 -26.375 15.875 C-26.1369771 10.28530092 -24.72863786 6.35220531 -20.8125 2.3125 C-14.66458 -2.40536034 -6.97941583 -3.65375401 0 0 Z " fill="#94A3A3" transform="translate(460.8125,329.6875)"/>
<path d="M0 0 C4.84848954 5.09713003 5.35314764 9.40371716 5.28125 16.20703125 C4.7410006 21.57200789 2.38869356 24.71291816 -1.5625 28.375 C-6.44554163 31.63036109 -11.32021863 31.47923155 -17 31 C-22.96923165 28.97271378 -26.35661264 25.0520051 -29.3125 19.5625 C-30.9084009 13.61414209 -30.17364476 9.15975905 -27.2734375 3.86328125 C-24.90111926 0.39212849 -22.02721354 -2.1215408 -18.125 -3.8125 C-10.90009058 -4.44999201 -6.0923763 -4.18766442 0 0 Z " fill="#94A4A4" transform="translate(89,332)"/>
<path d="M0 0 C6.48537215 1.8233778 11.41810964 8.94073849 15.83276367 13.71044922 C17.4101584 15.39133403 18.98982392 17.07004272 20.57080078 18.74755859 C21.63827001 19.89426232 22.69373341 21.05226119 23.73681641 22.22119141 C31.10133453 30.51187411 31.10133453 30.51187411 41.35826111 33.775177 C44.29135989 33.88321899 47.18390678 33.80810758 50.11010742 33.59326172 C50.11010742 33.92326172 50.11010742 34.25326172 50.11010742 34.59326172 C-17.53989258 34.59326172 -85.18989258 34.59326172 -154.88989258 34.59326172 C-154.88989258 34.26326172 -154.88989258 33.93326172 -154.88989258 33.59326172 C-100.43989258 33.26326172 -45.98989258 32.93326172 10.11010742 32.59326172 C3.84010742 26.32326172 -2.42989258 20.05326172 -8.88989258 13.59326172 C-10.31651476 10.74001735 -10.20023126 8.75871623 -9.88989258 5.59326172 C-7.54805679 1.10474313 -5.16992567 -0.37867567 0 0 Z " fill="#9E9999" transform="translate(248.889892578125,183.40673828125)"/>
<path d="M0 0 C3.94310054 0.82147928 5.42613957 2.60990635 8 5.625 C8.33 5.955 8.66 6.285 9 6.625 C9.13824874 8.9681731 9.21311656 11.27972625 9.23828125 13.625 C9.246353 14.33470947 9.25442474 15.04441895 9.26274109 15.77563477 C9.27660566 17.2854568 9.28731715 18.79531049 9.29516602 20.30517578 C9.31222501 22.58819797 9.35606528 24.86971254 9.40039062 27.15234375 C9.50537375 36.90806939 8.74041471 45.07829995 1.9375 52.625 C1.45152344 53.181875 0.96554688 53.73875 0.46484375 54.3125 C-1 55.625 -1 55.625 -4 56.625 C-6.97 52.335 -9.94 48.045 -13 43.625 C-12.34902344 42.79226563 -11.69804687 41.95953125 -11.02734375 41.1015625 C-7.29983649 34.58457445 -8.50878196 26.16873816 -8.5847168 18.86230469 C-8.59927056 16.79042198 -8.58397684 14.72025947 -8.56640625 12.6484375 C-8.57615479 11.42044434 -8.58590332 10.19245117 -8.59594727 8.92724609 C-7.68192564 3.86249535 -5.05135844 1.05236634 0 0 Z " fill="#BF3A2A" transform="translate(162,242.375)"/>
<path d="M0 0 C10.74229629 7.28632965 22.05703181 11.1073815 35 12 C35 12.33 35 12.66 35 13 C25.95952597 13.06955626 16.91914427 13.12283974 7.87846088 13.15543652 C3.68035228 13.17108253 -0.51757304 13.1923012 -4.71557617 13.22631836 C-8.76802684 13.25895002 -12.82030138 13.27686102 -16.87287331 13.28463173 C-18.41782211 13.29016843 -19.96276143 13.30098034 -21.50763512 13.31719017 C-23.67416477 13.33901566 -25.83996963 13.34196488 -28.0065918 13.34057617 C-29.23903122 13.34723801 -30.47147064 13.35389984 -31.74125671 13.36076355 C-35.29207574 12.96766536 -37.1672464 12.13743341 -40 10 C-41.14363112 7.71273777 -41.26501932 6.17147573 -41.375 3.625 C-41.42398438 2.85414063 -41.47296875 2.08328125 -41.5234375 1.2890625 C-40.73667236 -2.15156715 -38.88595881 -3.07651965 -36 -5 C-31.44612447 -5.96963246 -26.834218 -5.9725705 -22.1875 -6.125 C-20.94162109 -6.20492188 -19.69574219 -6.28484375 -18.41210938 -6.3671875 C-10.15294824 -6.68265678 -5.9491049 -5.68642178 0 0 Z " fill="#2C2F38" transform="translate(41,393)"/>
<path d="M0 0 C4.67718057 2.8611091 4.67718057 2.8611091 5.62890625 6.21875 C5.44893112 12.40142518 5.44893112 12.40142518 3.125 15.5 C-0.21232883 17.85576153 -2.03829001 18.12313201 -6.09228516 18.11352539 C-7.68370834 18.11341209 -7.68370834 18.11341209 -9.30728149 18.11329651 C-11.03076309 18.10555458 -11.03076309 18.10555458 -12.7890625 18.09765625 C-13.96262299 18.0962413 -15.13618347 18.09482635 -16.3453064 18.09336853 C-20.10522985 18.08775689 -23.86509445 18.07520238 -27.625 18.0625 C-30.16926998 18.0574865 -32.71354088 18.05292333 -35.2578125 18.04882812 C-41.50522853 18.03778368 -47.75261006 18.02103418 -54 18 C-54 17.67 -54 17.34 -54 17 C-52.80117188 16.85304688 -52.80117188 16.85304688 -51.578125 16.703125 C-38.75773002 14.95762521 -25.4410242 11.81786066 -16.1875 2.125 C-11.23163979 -1.1789068 -5.78338808 -1.04955103 0 0 Z " fill="#2C2F38" transform="translate(507,388)"/>
<path d="M0 0 C0.77085937 -0.04898438 1.54171875 -0.09796875 2.3359375 -0.1484375 C4.625 0.375 4.625 0.375 6.8984375 2.16015625 C9.53421394 7.06794813 9.04883699 11.71497781 8.875 17.1875 C8.85695313 18.26193359 8.83890625 19.33636719 8.8203125 20.44335938 C8.77329392 23.08815465 8.7075916 25.73111589 8.625 28.375 C7.74183105 28.13728882 7.74183105 28.13728882 6.84082031 27.89477539 C3.70253774 27.15861369 0.58894748 27.02081141 -2.625 26.8125 C-3.88828125 26.72871094 -5.1515625 26.64492187 -6.453125 26.55859375 C-7.89945312 26.46771484 -7.89945312 26.46771484 -9.375 26.375 C-9.4625127 23.14600574 -9.51556146 19.91731884 -9.5625 16.6875 C-9.58763672 15.77548828 -9.61277344 14.86347656 -9.63867188 13.92382812 C-9.73202951 5.36604477 -9.73202951 5.36604477 -6.375 1.375 C-4.08773777 0.23136888 -2.54647573 0.10998068 0 0 Z " fill="#BCC0C4" transform="translate(435.375,191.625)"/>
</svg>
