<?xml version="1.0" encoding="UTF-8"?>
<svg version="1.1" xmlns="http://www.w3.org/2000/svg" width="512" height="512">
<path d="M0 0 C4.82876234 1.11369045 8.09278309 4.41319322 11.6875 7.625 C12.93640039 8.71870483 14.18640516 9.81114984 15.4375 10.90234375 C16.0459375 11.43456543 16.654375 11.96678711 17.28125 12.51513672 C20.30676156 15.12893804 23.44275864 17.59852154 26.578125 20.078125 C31.09661741 23.66376736 35.54068708 27.34123694 40 31 C41.83310162 32.50028317 43.66643427 34.00028408 45.5 35.5 C52.83333333 41.5 60.16666667 47.5 67.5 53.5 C68.41394531 54.24765625 69.32789063 54.9953125 70.26953125 55.765625 C72.03822795 57.21297051 73.80648543 58.66085301 75.57421875 60.109375 C81.03906421 64.58581045 86.51600645 69.047064 92 73.5 C98.34521382 78.65223637 104.6778466 83.81947976 111 89 C112.83321648 90.50014281 114.66655146 92.00014082 116.5 93.5 C123.83333333 99.5 131.16666667 105.5 138.5 111.5 C139.39847656 112.23476562 140.29695313 112.96953125 141.22265625 113.7265625 C143.1485149 115.30300376 145.0728929 116.88125492 146.99609375 118.4609375 C147.96675781 119.25757813 148.93742187 120.05421875 149.9375 120.875 C150.81277344 121.59429687 151.68804687 122.31359375 152.58984375 123.0546875 C154.85666225 125.00829879 154.85666225 125.00829879 157.12057114 126.13397694 C159.50124197 128.49766665 159.47850167 130.2463106 159.51632524 133.51717442 C159.50467387 134.27106176 159.4930225 135.02494911 159.48101807 135.80168152 C159.48443577 136.60462106 159.48785347 137.40756059 159.49137473 138.23483163 C159.49798124 140.93450162 159.47593245 143.63318478 159.45410156 146.33276367 C159.45297368 148.26421587 159.45360578 150.19566978 159.45587158 152.12712097 C159.45702197 157.37899132 159.43346006 162.63049824 159.40557575 167.88228393 C159.3806162 173.36757436 159.3782244 178.8528726 159.37347412 184.33821106 C159.36102831 194.72923655 159.32818496 205.12009424 159.28807616 215.51104575 C159.23506064 229.54966013 159.21342596 243.5883202 159.19006729 257.62700939 C159.15242473 279.75146535 159.0727445 301.87556716 159 324 C126 324 93 324 59 324 C59 278.46 59 232.92 59 186 C20.72 186 -17.56 186 -57 186 C-57 231.54 -57 277.08 -57 324 C-90 324 -123 324 -157 324 C-157.68515158 275.41245319 -157.68515158 275.41245319 -157.83007812 255.01171875 C-157.93085584 240.938867 -158.04915495 226.86774871 -158.2824707 212.79638672 C-158.45233629 202.54681027 -158.56168592 192.29864311 -158.59950441 182.04769814 C-158.62160202 176.62289693 -158.67321437 171.20212579 -158.79741096 165.77862167 C-158.91358335 160.66365864 -158.9482562 155.55434751 -158.92283058 150.43819046 C-158.92747462 148.56996563 -158.96086436 146.70153491 -159.02649307 144.8344574 C-159.48346233 131.15286981 -159.48346233 131.15286981 -155.33361506 125.88444757 C-151.28480296 121.84553191 -146.78562069 118.55142391 -142.0372771 115.38578629 C-139.2426987 113.48487235 -136.70495739 111.3692183 -134.125 109.1875 C-132.41668197 107.79164794 -130.70834916 106.39581396 -129 105 C-127.73736328 103.96552734 -127.73736328 103.96552734 -126.44921875 102.91015625 C-120.28415435 97.85937016 -114.1015957 92.83044577 -107.91455078 87.80664062 C-102.2650574 83.2181923 -96.62950595 78.61294873 -91 74 C-89.16678352 72.49985719 -87.33344854 70.99985918 -85.5 69.5 C-84.5925 68.7575 -83.685 68.015 -82.75 67.25 C-19.5 15.5 -19.5 15.5 -16.78125 13.27734375 C-14.84145315 11.68899886 -12.90414382 10.09761327 -10.96875 8.50390625 C-9.9890625 7.69824219 -9.009375 6.89257812 -8 6.0625 C-6.6696875 4.96615234 -6.6696875 4.96615234 -5.3125 3.84765625 C-3 2 -3 2 0 0 Z " fill="#EBB939" transform="translate(255,94)"/>
<path d="M0 0 C3.60685342 2.75028216 6.98307782 5.75995032 10.359375 8.78515625 C13.78898326 11.85254652 17.35497185 14.69463742 21 17.5 C26.49117054 21.7508809 31.7850494 26.18918549 37.03564453 30.73266602 C41.03425589 34.18805495 45.10032329 37.53413127 49.24609375 40.8125 C52.83180421 43.66072391 56.38484843 46.54820832 59.9375 49.4375 C60.97596069 50.28187622 60.97596069 50.28187622 62.03540039 51.14331055 C67.69933102 55.75115202 73.35236813 60.37219847 79 65 C80.83321648 66.50014281 82.66655146 68.00014082 84.5 69.5 C110.16666667 90.5 135.83333333 111.5 161.5 132.5 C162.87091797 133.62148438 162.87091797 133.62148438 164.26953125 134.765625 C166.03822795 136.21297051 167.80648543 137.66085301 169.57421875 139.109375 C174.39378166 143.05723819 179.22337238 146.99190887 184.06860352 150.90820312 C186.80144473 153.12243741 189.52347784 155.34976596 192.24560547 157.57714844 C193.70301868 158.75914178 195.17930723 159.9178162 196.66015625 161.0703125 C202.5515685 165.80546627 205.41516375 170.56081436 206.41015625 178.11328125 C206.75998878 185.74680654 205.63965965 191.81751377 201 198 C195.38048715 203.55027861 189.61169497 206.00747741 181.75 206.4375 C170.60235827 206.16634115 163.07927128 198.93480228 155 192 C153.17071956 190.49506007 151.33740232 188.99501298 149.5 187.5 C123.83333333 166.5 98.16666667 145.5 72.5 124.5 C71.58605469 123.75234375 70.67210937 123.0046875 69.73046875 122.234375 C67.96177205 120.78702949 66.19351457 119.33914699 64.42578125 117.890625 C58.96093579 113.41418955 53.48399355 108.952936 48 104.5 C41.65478618 99.34776363 35.3221534 94.18052024 29 89 C27.16678352 87.49985719 25.33344854 85.99985918 23.5 84.5 C16.16666667 78.5 8.83333333 72.5 1.5 66.5 C0.60152344 65.76910156 -0.29695312 65.03820312 -1.22265625 64.28515625 C-3.16380135 62.68801155 -5.08698903 61.06890248 -6.99609375 59.43359375 C-7.96675781 58.60988281 -8.93742188 57.78617188 -9.9375 56.9375 C-10.81277344 56.18339844 -11.68804687 55.42929688 -12.58984375 54.65234375 C-15.06282608 52.62303305 -15.06282608 52.62303305 -19 53 C-21.33885481 54.76739658 -23.46433994 56.53584334 -25.625 58.5 C-26.88300115 59.61193804 -28.1421205 60.72261227 -29.40234375 61.83203125 C-30.01706543 62.37682129 -30.63178711 62.92161133 -31.26513672 63.48291016 C-34.28392989 66.12276109 -37.43357718 68.59126039 -40.578125 71.078125 C-45.09661741 74.66376736 -49.54068708 78.34123694 -54 82 C-55.83310162 83.50028317 -57.66643427 85.00028408 -59.5 86.5 C-60.4075 87.2425 -61.315 87.985 -62.25 88.75 C-81.5 104.5 -81.5 104.5 -84.26953125 106.765625 C-86.03822795 108.21297051 -87.80648543 109.66085301 -89.57421875 111.109375 C-95.73179688 116.15325065 -101.90629891 121.17596456 -108.08544922 126.19335938 C-113.7349426 130.7818077 -119.37049405 135.38705127 -125 140 C-126.83321648 141.50014281 -128.66655146 143.00014082 -130.5 144.5 C-131.4075 145.2425 -132.315 145.985 -133.25 146.75 C-174.5 180.5 -174.5 180.5 -177.25390625 182.75 C-179.07840999 184.24489923 -180.89876557 185.74487621 -182.71484375 187.25 C-206.25151424 206.70067747 -206.25151424 206.70067747 -218.21875 206.35546875 C-224.49105276 205.55381208 -230.64892323 202.59280326 -235 198 C-240.06036316 190.75288712 -241.29559525 183.70511519 -240 175 C-237.60400021 166.87194328 -232.51115575 162.09036887 -226 157 C-224.93223595 156.16022708 -223.86453092 155.32037913 -222.796875 154.48046875 C-221.03924176 153.101168 -219.27973331 151.72456276 -217.51489258 150.35449219 C-212.54235436 146.47978709 -207.75683035 142.41596996 -202.99194336 138.2902832 C-190.07238106 127.12171713 -190.07238106 127.12171713 -185.90176392 124.86428833 C-183.54625514 122.5551965 -183.51523461 120.93576666 -183.46107483 117.71327209 C-183.46924728 116.99948898 -183.47741974 116.28570587 -183.48583984 115.55029297 C-183.47871475 114.79377945 -183.47158966 114.03726593 -183.46424866 113.25782776 C-183.44492466 110.75235073 -183.45325865 108.2477147 -183.4609375 105.7421875 C-183.4510302 103.99682381 -183.43908882 102.25147059 -183.42520142 100.50613403 C-183.39277852 95.90311261 -183.38244399 91.30032896 -183.37835693 86.69720459 C-183.36961903 79.35117008 -183.33386523 72.005332 -183.2861824 64.65945816 C-183.27366934 62.10206935 -183.27434999 59.54493132 -183.27645874 56.98751831 C-183.24778855 45.38141797 -183.08380234 35.10923181 -175 26 C-166.5072862 18.97916034 -158.90882362 17.97508893 -148 19 C-139.53904698 21.51572337 -134.51147441 26.66987171 -130.1875 34.125 C-128.04174837 39.31997763 -127.81318955 44.35886286 -127.68359375 49.92578125 C-127.66281265 50.67337204 -127.64203156 51.42096283 -127.62062073 52.19120789 C-127.55555811 54.56488396 -127.4964429 56.93866487 -127.4375 59.3125 C-127.39427354 60.92774495 -127.35065796 62.54297953 -127.30664062 64.15820312 C-127.19992149 68.10536299 -127.09853381 72.05262767 -127 76 C-119.50803616 70.1774795 -112.1020622 64.29908858 -104.89550781 58.12548828 C-101.03038042 54.83068295 -97.07550043 51.67486178 -93.0625 48.5625 C-87.55796744 44.28997076 -82.2432477 39.83664895 -76.97558594 35.27636719 C-72.86693644 31.72450814 -68.68225808 28.29119757 -64.421875 24.921875 C-61.78144843 22.82656876 -59.17001977 20.69860376 -56.5625 18.5625 C-55.19351563 17.44101562 -55.19351563 17.44101562 -53.796875 16.296875 C-51.90963037 14.74701488 -50.02425456 13.19487671 -48.140625 11.640625 C-45.43679338 9.41481886 -42.72210187 7.20340868 -40 5 C-39.278125 4.40832031 -38.55625 3.81664062 -37.8125 3.20703125 C-26.97716355 -5.36388918 -12.17946132 -7.67597787 0 0 Z " fill="#EBB939" transform="translate(273,26)"/>
<path d="M0 0 C0.6547851 -0.00205263 1.30957019 -0.00410527 1.98419726 -0.0062201 C4.18160339 -0.01188133 6.37894666 -0.01043394 8.5763588 -0.00901413 C10.16643351 -0.01159826 11.75650758 -0.01461156 13.34658074 -0.01801753 C17.71891923 -0.02608502 22.09124129 -0.02787696 26.46358633 -0.028615 C31.1781022 -0.03046597 35.89260956 -0.0380135 40.60712051 -0.04475021 C50.91701611 -0.05833195 61.22690782 -0.06435791 71.53681087 -0.06876087 C77.97380468 -0.07152338 84.41079698 -0.07576073 90.84778976 -0.08026505 C108.66865698 -0.09245715 126.48952299 -0.10275681 144.31039429 -0.10614014 C145.45095257 -0.1063597 146.59151085 -0.10657927 147.7666315 -0.10680549 C148.90992179 -0.10702377 150.05321208 -0.10724204 151.23114753 -0.10746694 C153.54789845 -0.1079104 155.86464938 -0.10835697 158.1814003 -0.10880661 C159.3305893 -0.10902804 160.4797783 -0.10924947 161.66379121 -0.10947761 C180.28747404 -0.11342618 198.91111776 -0.13088227 217.53478548 -0.15416613 C236.6536686 -0.17787629 255.77253208 -0.19034182 274.89143014 -0.19150805 C285.62671683 -0.19242497 296.36195254 -0.1981814 307.09722519 -0.21632767 C316.23789841 -0.23172406 325.37850489 -0.2368518 334.51918861 -0.22858956 C339.18255224 -0.22468154 343.84578146 -0.22562018 348.50912857 -0.23964691 C352.78025473 -0.2523764 357.05114535 -0.25119669 361.32227114 -0.2390562 C362.86534249 -0.23709756 364.40843047 -0.24018535 365.95147845 -0.24890056 C376.63011896 -0.30538352 385.75217431 0.22789072 394.38159561 7.13142776 C400.83035005 13.61179375 404.26066432 20.12628279 404.63159561 29.31892776 C404.42600048 38.87119406 401.42104127 45.11398994 394.79956436 51.99470901 C388.9321731 57.17962504 382.70548508 59.25387586 374.9468174 59.26564884 C374.2875865 59.26800107 373.62835559 59.2703533 372.949148 59.27277681 C370.72457762 59.27947108 368.5000656 59.27900846 366.27548599 59.27859879 C364.67063801 59.28189715 363.06579086 59.28562266 361.46094477 59.28974026 C357.0384833 59.29977159 352.61603541 59.30347888 348.19356418 59.30612957 C343.4285682 59.31002929 338.66358301 59.31960789 333.8985939 59.32834244 C322.38468607 59.34811667 310.87077734 59.35817445 299.35685676 59.36707023 C293.93671323 59.37145172 288.51657068 59.3768189 283.09642792 59.3820591 C265.08177201 59.39907264 247.06711671 59.4135671 229.05245399 59.42080784 C224.37619781 59.42271778 219.69994162 59.42463811 215.02368546 59.42659378 C213.28026176 59.42731939 213.28026176 59.42731939 211.50161739 59.42805966 C192.67086622 59.43636102 173.84017856 59.46169917 155.00945513 59.49417446 C135.68271333 59.52723381 116.35600381 59.5452556 97.02923357 59.54845208 C86.17540909 59.55061826 75.3216772 59.55938268 64.46788025 59.58491325 C55.22467261 59.60660491 45.98158005 59.61467823 36.73834984 59.60494647 C32.0223035 59.60039728 27.30649467 59.60232398 22.5904808 59.62170792 C18.27110677 59.63930821 13.95214406 59.63836739 9.63276584 59.62281062 C8.07213545 59.62042978 6.51147681 59.62478284 4.95088963 59.63663927 C-6.82487751 59.72054604 -15.11637831 58.17282981 -23.89574814 49.98689651 C-29.70960214 43.72480887 -32.08837671 35.9188446 -31.87231064 27.46345901 C-30.87543726 18.30756042 -26.47442943 11.21369607 -19.41527939 5.45174026 C-13.22504564 0.90326417 -7.50597866 0.00802555 0 0 Z " fill="#EBB839" transform="translate(69.61840438842773,430.8685722351074)"/>
</svg>
