<?xml version="1.0" encoding="UTF-8"?>
<svg version="1.1" xmlns="http://www.w3.org/2000/svg" width="512" height="512">
<path d="M0 0 C1.21562261 -0.00525911 1.21562261 -0.00525911 2.45580325 -0.01062447 C5.18266079 -0.01995904 7.90930574 -0.01500985 10.63617229 -0.01015663 C12.60644238 -0.01389185 14.57671098 -0.01849286 16.54697722 -0.02388728 C21.97020477 -0.0361485 27.39337077 -0.03585314 32.81660903 -0.03349853 C38.66200093 -0.03309115 44.50737289 -0.04412193 50.35275555 -0.05361366 C61.80830026 -0.07024166 73.2638244 -0.07572402 84.71938018 -0.07683842 C94.02888347 -0.07778802 103.33837996 -0.08189393 112.64788151 -0.08823967 C115.32686652 -0.09003474 118.00585154 -0.09181436 120.68483657 -0.09358943 C121.35082624 -0.09403152 122.01681592 -0.09447362 122.7029871 -0.09492911 C141.43817291 -0.10723892 160.17335641 -0.1151301 178.90854645 -0.11424255 C179.61502182 -0.1142114 180.3214972 -0.11418024 181.04938092 -0.11414814 C184.63015365 -0.11398192 188.21092637 -0.11378384 191.79169909 -0.11357872 C192.50286297 -0.11353883 193.21402685 -0.11349894 193.94674116 -0.11345784 C195.38488813 -0.11337697 196.8230351 -0.11329337 198.26118208 -0.11320706 C220.63731869 -0.1119815 243.0133947 -0.12699505 265.38951397 -0.15435219 C290.52464772 -0.18506979 315.65974164 -0.20228488 340.79489535 -0.20042574 C354.10506989 -0.19968441 367.41518031 -0.20528478 380.72533894 -0.22678185 C392.05716278 -0.24496611 403.38888728 -0.24936363 414.72071937 -0.235763 C420.50395073 -0.22921951 426.28699136 -0.22916605 432.07020473 -0.2464695 C437.36336733 -0.26214404 442.65618708 -0.25939406 447.94934102 -0.24190123 C449.8652043 -0.23881894 451.7810928 -0.24250973 453.69692633 -0.25362138 C456.30052816 -0.26772306 458.9029242 -0.25717185 461.50648499 -0.24050903 C462.25091676 -0.25044539 462.99534853 -0.26038175 463.76233885 -0.27061921 C470.20254594 -0.18343445 475.33607725 1.97367787 480.1841917 6.22211266 C480.72301983 6.87308922 481.26184795 7.52406578 481.8170042 8.19476891 C482.37130108 8.84316734 482.92559795 9.49156578 483.4966917 10.15961266 C486.12434241 13.97325706 487.19071937 17.45059924 487.20485973 22.06126499 C487.21254202 23.00557005 487.22022431 23.94987511 487.2281394 24.92279547 C487.22640644 25.95196611 487.22467347 26.98113675 487.22288799 28.04149437 C487.23180136 29.69115777 487.23180136 29.69115777 487.24089479 31.37414771 C487.25826524 35.06658274 487.26128496 38.75888804 487.26426983 42.4513607 C487.27352645 45.09594395 487.28353477 47.74051542 487.29436016 50.38509178 C487.32149946 57.5753137 487.33357205 64.76551327 487.34238148 71.95577788 C487.34791117 76.44766063 487.35638678 80.9395348 487.36538982 85.43141174 C487.38977199 97.8744989 487.41037098 110.3175792 487.41714001 122.76068974 C487.41757914 123.55675355 487.41801827 124.35281736 487.41847071 125.17300432 C487.41890727 125.97094518 487.41934382 126.76888604 487.41979361 127.59100693 C487.42068053 129.20786965 487.42157366 130.82473237 487.42247295 132.44159508 C487.42291581 133.24361045 487.42335867 134.04562583 487.42381495 134.8719447 C487.43170823 147.86269311 487.46660929 160.85321696 487.513192 173.84387865 C487.56066035 187.18954062 487.58554559 200.53509 487.58787584 213.88083774 C487.58970711 221.3706481 487.60115452 228.86016588 487.63751507 236.34989548 C487.66837329 242.72859274 487.6785255 249.106907 487.66203886 255.48566475 C487.65424479 258.73782196 487.65927679 261.98905036 487.68415356 265.24114418 C487.70959055 268.7741308 487.69784362 272.30515138 487.67698956 275.83812523 C487.70115877 277.36515077 487.70115877 277.36515077 487.72581625 278.92302531 C487.62477421 286.26249876 485.59681558 291.53312841 480.9420042 297.25726891 C475.15048486 301.90579093 470.40039224 303.39799321 462.9420042 303.25726891 C462.8595042 304.49476891 462.7770042 305.73226891 462.6920042 307.00726891 C460.65112223 324.47721859 451.25449831 339.24594372 438.9420042 351.25726891 C437.8301878 352.38262047 437.8301878 352.38262047 436.69591045 353.53070641 C430.81065941 359.16758905 424.19703479 362.6690003 416.9420042 366.25726891 C417.00315411 367.13910851 417.00315411 367.13910851 417.06553936 368.03876305 C418.83549443 394.80998613 415.33058217 418.96916634 397.21153545 439.83539391 C382.51551956 455.51788936 362.71089191 465.64498847 341.0904417 466.47211266 C316.92807013 467.06898533 295.97885732 460.67763097 278.17369366 443.95575523 C264.33352083 430.41317347 257.02672172 414.1714579 253.9420042 395.25726891 C253.9420042 394.59726891 253.9420042 393.93726891 253.9420042 393.25726891 C253.38255108 393.13351891 252.82309795 393.00976891 252.2466917 392.88226891 C234.30027841 388.26582819 217.34882414 375.11938785 207.79600811 359.36762047 C199.693358 345.00624938 195.74756521 330.8644938 195.8795042 314.38226891 C195.88401592 313.31234703 195.88852764 312.24242516 195.89317608 311.14008141 C195.90490671 308.51241905 195.92132192 305.88487352 195.9420042 303.25726891 C194.89801716 303.26095608 193.85403011 303.26464325 192.7784071 303.26844215 C167.37284224 303.35725069 141.96729753 303.42297684 116.56161022 303.46451759 C104.27559167 303.48514048 91.98967568 303.51325602 79.70372295 303.55902672 C68.99495961 303.59890265 58.28627054 303.62470371 47.57743502 303.63362288 C41.90746745 303.6388363 36.23771237 303.65108437 30.56781292 303.68018913 C25.22938295 303.70736998 19.89125272 303.7157084 14.55276012 303.70969963 C12.59523419 303.71079866 10.63769807 303.71873651 8.68023205 303.73409081 C6.00267878 303.7540605 3.32624978 303.74918277 0.64866924 303.73828697 C-0.12178148 303.74993834 -0.8922322 303.7615897 -1.68602991 303.77359414 C-8.53863792 303.69847726 -13.5397809 301.31762655 -18.8079958 297.00726891 C-24.52052189 290.02529257 -25.64396499 284.03882157 -25.56593037 275.13678551 C-25.57217033 274.03711905 -25.57841029 272.93745259 -25.58483934 271.80446291 C-25.60075721 268.13030848 -25.58816911 264.45681855 -25.57557392 260.78265953 C-25.58099557 258.14422745 -25.58797408 255.5058407 -25.59681416 252.8674221 C-25.61457263 246.45152295 -25.6107714 240.03581129 -25.59916359 233.61990488 C-25.59011898 228.40418741 -25.58890971 223.18852237 -25.59325886 217.9727993 C-25.59387179 217.22962083 -25.59448472 216.48644236 -25.59511623 215.72074333 C-25.59639517 214.21084844 -25.59769202 212.70095356 -25.59900659 211.1910587 C-25.61040456 197.04275593 -25.59731102 182.89455694 -25.57580513 168.74627119 C-25.55793483 156.61430571 -25.56103916 144.48249334 -25.57948017 132.35053062 C-25.60090076 118.25182116 -25.609306 104.15320259 -25.59703112 90.05447912 C-25.59575696 88.55023227 -25.59449948 87.04598539 -25.59325886 85.54173851 C-25.59264176 84.80167845 -25.59202465 84.06161838 -25.59138885 83.29913226 C-25.58793951 78.09149609 -25.59375531 72.88391772 -25.60317707 67.67629051 C-25.61441167 61.32728708 -25.61132648 54.97848138 -25.59005409 48.62950051 C-25.57956305 45.39194842 -25.5775522 42.15479263 -25.5886507 38.91723251 C-25.59958448 35.40374418 -25.58586702 31.89118168 -25.56593037 28.3777523 C-25.57485325 27.3598469 -25.58377614 26.3419415 -25.59296942 25.29319048 C-25.51227288 17.95902563 -23.97415142 12.58504888 -19.09315205 7.01508141 C-18.44217548 6.47625328 -17.79119892 5.93742516 -17.1204958 5.38226891 C-16.47209736 4.82797203 -15.82369892 4.27367516 -15.15565205 3.70258141 C-10.27781394 0.34168737 -5.79544112 -0.03170243 0 0 Z " fill="#3AB449" transform="translate(25.057995796203613,22.74273109436035)"/>
<path d="M0 0 C18.70995468 13.51535671 31.43835146 31.86955705 35.453125 54.8828125 C38.37786972 77.23384462 33.56758819 98.18129873 20.921875 116.93359375 C18.12102277 120.4855125 15.11638502 123.73382094 11.921875 126.93359375 C11.14972656 127.71734375 10.37757813 128.50109375 9.58203125 129.30859375 C3.31064612 135.32587089 -3.32011841 139.15186954 -11.078125 142.93359375 C-11.0169751 143.81543335 -11.0169751 143.81543335 -10.95458984 144.71508789 C-9.18463477 171.48631097 -12.68954703 195.64549118 -30.80859375 216.51171875 C-45.50460965 232.1942142 -65.30923729 242.32131331 -86.9296875 243.1484375 C-111.09205908 243.74531018 -132.04127188 237.35395581 -149.84643555 220.63208008 C-163.68660838 207.08949832 -170.99340748 190.84778274 -174.078125 171.93359375 C-174.078125 171.27359375 -174.078125 170.61359375 -174.078125 169.93359375 C-174.63757813 169.80984375 -175.19703125 169.68609375 -175.7734375 169.55859375 C-193.71985079 164.94215303 -210.67130506 151.7957127 -220.22412109 136.04394531 C-231.59630799 115.88755278 -236.00415078 92.61912452 -230.078125 69.93359375 C-226.41768242 57.07838806 -220.02641452 45.8722078 -211.078125 35.93359375 C-210.48773438 35.25039063 -209.89734375 34.5671875 -209.2890625 33.86328125 C-196.09773391 19.5492864 -175.85304457 10.70153243 -156.60546875 9.51171875 C-143.03411246 9.02854045 -129.00718094 10.21896707 -116.80078125 16.6640625 C-114.24885499 18.10786694 -114.24885499 18.10786694 -111.8984375 17.84375 C-109.60661335 16.69783793 -108.52656193 15.39126026 -106.953125 13.37109375 C-81.0360753 -17.36773263 -32.77419773 -22.00196777 0 0 Z " fill="#FECA5A" transform="translate(453.078125,246.06640625)"/>
<path d="M0 0 C1.21562261 -0.00525911 1.21562261 -0.00525911 2.45580325 -0.01062447 C5.18266079 -0.01995904 7.90930574 -0.01500985 10.63617229 -0.01015663 C12.60644238 -0.01389185 14.57671098 -0.01849286 16.54697722 -0.02388728 C21.97020477 -0.0361485 27.39337077 -0.03585314 32.81660903 -0.03349853 C38.66200093 -0.03309115 44.50737289 -0.04412193 50.35275555 -0.05361366 C61.80830026 -0.07024166 73.2638244 -0.07572402 84.71938018 -0.07683842 C94.02888347 -0.07778802 103.33837996 -0.08189393 112.64788151 -0.08823967 C115.32686652 -0.09003474 118.00585154 -0.09181436 120.68483657 -0.09358943 C121.35082624 -0.09403152 122.01681592 -0.09447362 122.7029871 -0.09492911 C141.43817291 -0.10723892 160.17335641 -0.1151301 178.90854645 -0.11424255 C179.61502182 -0.1142114 180.3214972 -0.11418024 181.04938092 -0.11414814 C184.63015365 -0.11398192 188.21092637 -0.11378384 191.79169909 -0.11357872 C192.50286297 -0.11353883 193.21402685 -0.11349894 193.94674116 -0.11345784 C195.38488813 -0.11337697 196.8230351 -0.11329337 198.26118208 -0.11320706 C220.63731869 -0.1119815 243.0133947 -0.12699505 265.38951397 -0.15435219 C290.52464772 -0.18506979 315.65974164 -0.20228488 340.79489535 -0.20042574 C354.10506989 -0.19968441 367.41518031 -0.20528478 380.72533894 -0.22678185 C392.05716278 -0.24496611 403.38888728 -0.24936363 414.72071937 -0.235763 C420.50395073 -0.22921951 426.28699136 -0.22916605 432.07020473 -0.2464695 C437.36336733 -0.26214404 442.65618708 -0.25939406 447.94934102 -0.24190123 C449.8652043 -0.23881894 451.7810928 -0.24250973 453.69692633 -0.25362138 C456.30052816 -0.26772306 458.9029242 -0.25717185 461.50648499 -0.24050903 C462.25091676 -0.25044539 462.99534853 -0.26038175 463.76233885 -0.27061921 C470.20254594 -0.18343445 475.33607725 1.97367787 480.1841917 6.22211266 C480.72301983 6.87308922 481.26184795 7.52406578 481.8170042 8.19476891 C482.37130108 8.84316734 482.92559795 9.49156578 483.4966917 10.15961266 C486.12434241 13.97325706 487.19071937 17.45059924 487.20485973 22.06126499 C487.21254202 23.00557005 487.22022431 23.94987511 487.2281394 24.92279547 C487.22640644 25.95196611 487.22467347 26.98113675 487.22288799 28.04149437 C487.23180136 29.69115777 487.23180136 29.69115777 487.24089479 31.37414771 C487.25826524 35.06658274 487.26128496 38.75888804 487.26426983 42.4513607 C487.27352645 45.09594395 487.28353477 47.74051542 487.29436016 50.38509178 C487.32149946 57.5753137 487.33357205 64.76551327 487.34238148 71.95577788 C487.34791117 76.44766063 487.35638678 80.9395348 487.36538982 85.43141174 C487.38977199 97.8744989 487.41037098 110.3175792 487.41714001 122.76068974 C487.41757914 123.55675355 487.41801827 124.35281736 487.41847071 125.17300432 C487.41890727 125.97094518 487.41934382 126.76888604 487.41979361 127.59100693 C487.42068053 129.20786965 487.42157366 130.82473237 487.42247295 132.44159508 C487.42291581 133.24361045 487.42335867 134.04562583 487.42381495 134.8719447 C487.43170823 147.86269311 487.46660929 160.85321696 487.513192 173.84387865 C487.56066035 187.18954062 487.58554559 200.53509 487.58787584 213.88083774 C487.58970711 221.3706481 487.60115452 228.86016588 487.63751507 236.34989548 C487.66837329 242.72859274 487.6785255 249.106907 487.66203886 255.48566475 C487.65424479 258.73782196 487.65927679 261.98905036 487.68415356 265.24114418 C487.70959055 268.7741308 487.69784362 272.30515138 487.67698956 275.83812523 C487.70115877 277.36515077 487.70115877 277.36515077 487.72581625 278.92302531 C487.62477421 286.26249876 485.59681558 291.53312841 480.9420042 297.25726891 C475.15048486 301.90579093 470.40039224 303.39799321 462.9420042 303.25726891 C462.95771465 302.69966881 462.9734251 302.14206871 462.98961163 301.56757164 C463.62936266 275.28919069 458.08451455 253.21077627 439.8170042 233.56976891 C430.23382351 224.50414675 419.38268893 218.47852193 406.9420042 214.25726891 C404.58690083 213.29965662 402.26756951 212.28484427 399.9420042 211.25726891 C399.9420042 210.92726891 399.9420042 210.59726891 399.9420042 210.25726891 C408.50209459 210.05182674 416.6420598 209.92098826 424.9420042 212.25726891 C426.63389874 212.71746422 426.63389874 212.71746422 428.35997295 213.18695641 C442.14102259 217.32841174 452.57182438 224.41379571 463.9420042 233.25726891 C463.9420042 179.46726891 463.9420042 125.67726891 463.9420042 70.25726891 C458.0020042 69.76226891 458.0020042 69.76226891 451.9420042 69.25726891 C440.17715619 66.14932153 430.31149523 58.57263959 423.9420042 48.25726891 C419.41713111 40.18141925 417.81684831 33.88055412 416.9420042 24.25726891 C294.1820042 24.25726891 171.4220042 24.25726891 44.9420042 24.25726891 C44.6120042 27.88726891 44.2820042 31.51726891 43.9420042 35.25726891 C40.12292825 47.47831196 32.75021745 57.30913182 21.9420042 64.25726891 C14.51697374 68.13170069 6.31510767 70.25726891 -2.0579958 70.25726891 C-2.0579958 124.04726891 -2.0579958 177.83726891 -2.0579958 233.25726891 C1.5720042 233.58726891 5.2020042 233.91726891 8.9420042 234.25726891 C22.52266549 237.29234094 32.13076995 246.12975697 39.40684795 257.55805016 C43.62928848 265.03605352 43.61584846 269.97417873 44.9420042 279.25726891 C123.1520042 279.75226891 123.1520042 279.75226891 202.9420042 280.25726891 C201.9520042 283.55726891 200.9620042 286.85726891 199.9420042 290.25726891 C199.35346663 292.62595098 198.78664978 295.00028395 198.2545042 297.38226891 C198.00313702 298.49859703 197.75176983 299.61492516 197.49278545 300.76508141 C197.31102764 301.58750328 197.12926983 302.40992516 196.9420042 303.25726891 C170.35152458 303.3507203 143.76106958 303.42125216 117.17045879 303.46451759 C104.82390636 303.48514066 92.47745598 303.51325654 80.13096905 303.55902672 C69.36946799 303.5989021 58.60804085 303.62470358 47.84646797 303.63362288 C42.14855519 303.63883639 36.45085385 303.65108505 30.75300884 303.68018913 C25.38831444 303.70736911 20.02391829 303.71570857 14.65916157 303.70969963 C12.69196037 303.7107987 10.72474905 303.71873706 8.75760746 303.73409081 C6.06691875 303.75405912 3.37734894 303.74918324 0.68663311 303.73828697 C-0.08770856 303.74993834 -0.86205023 303.7615897 -1.6598568 303.77359414 C-8.52622494 303.69868558 -13.52843235 301.32691173 -18.8079958 297.00726891 C-24.52052189 290.02529257 -25.64396499 284.03882157 -25.56593037 275.13678551 C-25.57217033 274.03711905 -25.57841029 272.93745259 -25.58483934 271.80446291 C-25.60075721 268.13030848 -25.58816911 264.45681855 -25.57557392 260.78265953 C-25.58099557 258.14422745 -25.58797408 255.5058407 -25.59681416 252.8674221 C-25.61457263 246.45152295 -25.6107714 240.03581129 -25.59916359 233.61990488 C-25.59011898 228.40418741 -25.58890971 223.18852237 -25.59325886 217.9727993 C-25.59387179 217.22962083 -25.59448472 216.48644236 -25.59511623 215.72074333 C-25.59639517 214.21084844 -25.59769202 212.70095356 -25.59900659 211.1910587 C-25.61040456 197.04275593 -25.59731102 182.89455694 -25.57580513 168.74627119 C-25.55793483 156.61430571 -25.56103916 144.48249334 -25.57948017 132.35053062 C-25.60090076 118.25182116 -25.609306 104.15320259 -25.59703112 90.05447912 C-25.59575696 88.55023227 -25.59449948 87.04598539 -25.59325886 85.54173851 C-25.59264176 84.80167845 -25.59202465 84.06161838 -25.59138885 83.29913226 C-25.58793951 78.09149609 -25.59375531 72.88391772 -25.60317707 67.67629051 C-25.61441167 61.32728708 -25.61132648 54.97848138 -25.59005409 48.62950051 C-25.57956305 45.39194842 -25.5775522 42.15479263 -25.5886507 38.91723251 C-25.59958448 35.40374418 -25.58586702 31.89118168 -25.56593037 28.3777523 C-25.57485325 27.3598469 -25.58377614 26.3419415 -25.59296942 25.29319048 C-25.51227288 17.95902563 -23.97415142 12.58504888 -19.09315205 7.01508141 C-18.44217548 6.47625328 -17.79119892 5.93742516 -17.1204958 5.38226891 C-16.47209736 4.82797203 -15.82369892 4.27367516 -15.15565205 3.70258141 C-10.27781394 0.34168737 -5.79544112 -0.03170243 0 0 Z " fill="#0E9246" transform="translate(25.057995796203613,22.74273109436035)"/>
<path d="M0 0 C23.96884092 17.79626316 37.86241821 42.5005941 43.1875 71.640625 C43.78739828 77.01828455 43.80927197 82.34304684 43.8125 87.75 C43.82474609 88.81025391 43.83699219 89.87050781 43.84960938 90.96289062 C43.86313402 98.36087241 43.03638076 105.30815266 41.625 112.5625 C41.34269531 114.23699219 41.34269531 114.23699219 41.0546875 115.9453125 C38.15812934 130.26491693 31.46432141 144.10638168 22.84228516 155.8671875 C22.01100506 157.02491093 21.21214232 158.20642838 20.44287109 159.40625 C17.00154063 164.72832369 13.46784284 169.70234332 6.99853516 171.15039062 C0.83056937 171.79062816 -5.33390182 171.6061255 -11.52539062 171.51953125 C-27.70452625 171.76349354 -46.94856679 181.13606679 -58.375 192.5625 C-75.51686213 194.33579608 -92.6519168 183.38046086 -105.44140625 173.02734375 C-122.59516539 158.61453147 -134.01121797 139.10248895 -139.5625 117.5 C-139.81338379 116.5265564 -139.81338379 116.5265564 -140.06933594 115.53344727 C-144.2510143 98.37347746 -144.2961789 78.49902479 -139.375 61.5625 C-139.10816406 60.44488281 -138.84132812 59.32726562 -138.56640625 58.17578125 C-136.14934713 48.58274218 -132.13341874 40.17275061 -127.375 31.5625 C-126.82972656 30.5725 -126.28445312 29.5825 -125.72265625 28.5625 C-113.01004993 7.17796907 -92.07113453 -7.37994976 -68.36206055 -13.99951172 C-44.23468323 -20.05092462 -20.18850299 -13.56415045 0 0 Z " fill="#0E9347" transform="translate(305.375,85.4375)"/>
<path d="M0 0 C12.2122782 8.8984831 19.79307329 20.66402191 23.5859375 35.25390625 C26.19765568 52.5750183 23.08422545 68.98290812 13.265625 83.578125 C9.9304794 88.03482399 6.43681641 91.64533394 2 95 C3.16730489 98.95087809 4.44837454 101.78425284 7 105 C22.09383291 92.17160675 29.5046183 78.3641408 34.73828125 59.3125 C36.1739743 54.43595601 37.40486323 51.68983616 42 49 C43.32 48.67 44.64 48.34 46 48 C46.33 45.03 46.66 42.06 47 39 C47.33 39 47.66 39 48 39 C48.68170255 62.45561741 44.69348512 83.92317483 28.6875 102.1875 C21.08419148 110.20249359 13.39652891 117.76499222 3 122 C1.68 122 0.36 122 -1 122 C-1.1952124 121.46221924 -1.3904248 120.92443848 -1.59155273 120.37036133 C-10.31132331 96.67351889 -23.20529313 79.08647484 -46.06640625 67.4375 C-63.73261549 59.53357682 -85.92737187 57.68958677 -104.48828125 63.61328125 C-126.71427741 72.38995382 -144.62526031 86.10369649 -154.5390625 108.47265625 C-156.66821195 113.89513921 -158.55606582 119.35553003 -160 125 C-172.27153525 122.81839373 -181.10816952 112.72110826 -188 103 C-196.1424397 89.73847374 -199.03484151 75.48478342 -196.30859375 60.09765625 C-192.30824877 43.61087883 -183.38352337 30.26516909 -169 21 C-155.29258648 13.41233671 -140.22220477 10.74090797 -124.8125 14.125 C-108.87989911 18.73819275 -95.51358455 28.68889018 -86.84375 42.89453125 C-85.73815304 44.99823658 -85 46.6000865 -85 49 C-84.06607422 48.75443359 -84.06607422 48.75443359 -83.11328125 48.50390625 C-78.79307618 47.80465098 -74.55543955 47.89515607 -70.1875 47.9375 C-68.86202148 47.94426758 -68.86202148 47.94426758 -67.50976562 47.95117188 C-65.33981441 47.96290134 -63.16989828 47.98083505 -61 48 C-64.71515803 36.70154882 -69.61111047 27.23169757 -77.265625 18.09375 C-79 16 -79 16 -81 13 C-79.9484372 11.55447996 -78.883199 10.11890356 -77.8125 8.6875 C-77.22082031 7.88699219 -76.62914062 7.08648437 -76.01953125 6.26171875 C-73.83753789 3.81805501 -71.86722443 2.55966754 -69 1 C-67.61554688 0.14921875 -67.61554688 0.14921875 -66.203125 -0.71875 C-45.13753735 -13.42497747 -20.98949945 -13.5754762 0 0 Z " fill="#F5B444" transform="translate(441,266)"/>
<path d="M0 0 C2.52370654 2.21153419 4.93200376 4.49116805 7.30859375 6.859375 C7.88480469 7.41238281 8.46101563 7.96539062 9.0546875 8.53515625 C18.73076477 18.66362154 22.29378005 33.87338013 22.68359375 47.484375 C22.19828537 63.53837623 15.5030536 77.985614 4.18359375 89.234375 C-9.3338476 101.57638667 -24.39015611 105.00680652 -42.20703125 104.34375 C-49.34009585 103.85973808 -55.2699929 102.07864356 -61.69140625 98.859375 C-62.57570313 98.4365625 -63.46 98.01375 -64.37109375 97.578125 C-77.01375662 90.80386328 -86.84463542 78.87783454 -91.55883789 65.37475586 C-93.57620352 58.67112458 -94.2029182 52.4019063 -94.12890625 45.421875 C-94.12133301 44.41487549 -94.11375977 43.40787598 -94.10595703 42.37036133 C-93.94147743 34.94776915 -93.06897651 28.56190539 -89.69140625 21.859375 C-89.26730469 21.00730469 -88.84320313 20.15523438 -88.40625 19.27734375 C-80.17233967 4.34621388 -67.45895435 -5.2181497 -51.59375 -10.890625 C-34.04509279 -15.7596166 -14.08732606 -11.2044335 0 0 Z " fill="#F6B444" transform="translate(396.69140625,361.140625)"/>
<path d="M0 0 C3.58272463 0.75890226 5.22137006 2.65039064 7.37890625 5.50390625 C7.87390625 5.99890625 7.87390625 5.99890625 8.37890625 6.50390625 C8.41954457 8.1700774 8.42162725 9.8377872 8.37890625 11.50390625 C9.39210938 11.46910156 10.4053125 11.43429688 11.44921875 11.3984375 C12.80076455 11.3702803 14.15232844 11.34298222 15.50390625 11.31640625 C16.1690625 11.29126953 16.83421875 11.26613281 17.51953125 11.24023438 C22.2532767 11.17062047 25.36376837 12.01834471 29.37890625 14.50390625 C32.38364128 18.00943045 32.86232238 21.10519937 32.66015625 25.578125 C32.22733542 28.54174543 31.32418516 30.23441419 29.37890625 32.50390625 C24.10642111 35.90482898 19.58617622 35.91659389 13.52734375 35.875 C11.60546687 35.89237165 9.68359191 35.90995613 7.76171875 35.92773438 C4.7486634 35.93783043 1.73572787 35.941396 -1.27734375 35.93969727 C-4.19697596 35.94326127 -7.11568758 35.97056841 -10.03515625 36 C-10.93626129 35.99181747 -11.83736633 35.98363495 -12.76577759 35.97520447 C-17.80823768 36.00025678 -17.80823768 36.00025678 -22.15771484 38.34790039 C-24.89142068 42.37548735 -25.46394888 46.75242621 -24.62109375 51.50390625 C-22.08655718 54.7234527 -20.5081207 56.2082306 -16.62109375 57.50390625 C-14.25920093 57.59748966 -11.8949795 57.63567667 -9.53125 57.64453125 C-8.09178139 57.66288598 -6.6523279 57.68245868 -5.21289062 57.703125 C-2.96190285 57.73184341 -0.71187497 57.75390004 1.53930664 57.75439453 C14.19603367 57.77405001 25.12438735 59.46021354 34.6953125 68.61328125 C42.52706872 77.40810726 44.10587321 86.50606825 43.83203125 97.9296875 C43.27974767 106.36948937 38.87805717 113.28925242 33.37890625 119.50390625 C25.84189901 125.01363266 18.56661466 127.55345366 9.37890625 128.50390625 C9.15203125 129.57640625 8.92515625 130.64890625 8.69140625 131.75390625 C7.18062896 136.0704128 6.4177482 137.40034273 2.37890625 139.50390625 C-2.45696781 140.27541905 -6.29147728 140.182282 -10.68359375 137.94140625 C-13.15681846 134.82993001 -13.39517002 132.41991759 -13.62109375 128.50390625 C-14.55050781 128.53871094 -15.47992188 128.57351562 -16.4375 128.609375 C-29.36306064 128.89241647 -29.36306064 128.89241647 -34.62109375 125.50390625 C-36.9638825 123.08790535 -37.56974472 121.47793317 -37.74609375 118.1328125 C-37.53073012 113.60344626 -37.08637358 111.12008765 -34.30859375 107.44140625 C-30.66912733 104.81760488 -27.80732938 104.38076278 -23.39086914 104.37792969 C-22.56643814 104.37412292 -21.74200714 104.37031616 -20.89259338 104.36639404 C-20.01022507 104.36536682 -19.12785675 104.3643396 -18.21875 104.36328125 C-16.3404826 104.34495941 -14.46222704 104.32538968 -12.58398438 104.3046875 C-9.63008528 104.27568674 -6.67695129 104.25390515 -3.72290039 104.25341797 C-0.86666376 104.25008375 1.98781817 104.21554665 4.84375 104.17578125 C6.16426613 104.1863858 6.16426613 104.1863858 7.51145935 104.19720459 C11.96556889 104.10885575 13.81512078 103.94426366 17.43334961 101.11816406 C20.12473044 97.50173717 20.09249862 95.2523027 19.87109375 90.8828125 C19.10973192 87.20289698 17.39013488 85.62545369 14.37890625 83.50390625 C10.69033884 82.19252057 6.96626741 82.36144181 3.0859375 82.328125 C1.63605342 82.30491253 0.1861836 82.28079463 -1.26367188 82.25585938 C-3.53012465 82.22090815 -5.79605593 82.19148094 -8.06274414 82.17797852 C-24.28996646 82.06261491 -24.28996646 82.06261491 -31.62109375 77.50390625 C-32.33789307 77.05885742 -33.05469238 76.61380859 -33.79321289 76.15527344 C-41.57966344 71.06619187 -46.58341709 63.51157969 -48.62109375 54.50390625 C-49.99738741 43.70229035 -48.93567462 34.66154486 -42.62109375 25.50390625 C-40.05859375 22.50390625 -40.05859375 22.50390625 -37.62109375 20.50390625 C-36.50734375 19.48296875 -36.50734375 19.48296875 -35.37109375 18.44140625 C-28.79923668 13.81123423 -22.58977741 12.00985442 -14.62109375 11.50390625 C-14.39421875 10.61703125 -14.16734375 9.73015625 -13.93359375 8.81640625 C-11.096551 1.65625073 -7.43927329 -0.34369221 0 0 Z " fill="#87C662" transform="translate(258.62109375,104.49609375)"/>
<path d="M0 0 C0.88816406 0.4640625 1.77632813 0.928125 2.69140625 1.40625 C10.62504048 6.88327668 14.25557092 18.28976279 16.5859375 27.25390625 C19.19765568 44.5750183 16.08422545 60.98290812 6.265625 75.578125 C2.9304794 80.03482399 -0.56318359 83.64533394 -5 87 C-3.83269511 90.95087809 -2.55162546 93.78425284 0 97 C15.09383291 84.17160675 22.5046183 70.3641408 27.73828125 51.3125 C29.1739743 46.43595601 30.40486323 43.68983616 35 41 C36.32 40.67 37.64 40.34 39 40 C39.33 37.03 39.66 34.06 40 31 C40.33 31 40.66 31 41 31 C41.68170255 54.45561741 37.69348512 75.92317483 21.6875 94.1875 C14.08419148 102.20249359 6.39652891 109.76499222 -4 114 C-5.32 114 -6.64 114 -8 114 C-8.3556604 113.10692139 -8.3556604 113.10692139 -8.71850586 112.19580078 C-9.79060549 109.50517486 -10.8640362 106.81508194 -11.9375 104.125 C-12.31068359 103.18785156 -12.68386719 102.25070312 -13.06835938 101.28515625 C-13.42607422 100.38925781 -13.78378906 99.49335938 -14.15234375 98.5703125 C-14.48226318 97.74289551 -14.81218262 96.91547852 -15.15209961 96.06298828 C-15.97542634 93.98779494 -15.97542634 93.98779494 -17 92 C-14.03 90.35 -11.06 88.7 -8 87 C-12.32289995 78.05606908 -18.75657248 70.08016829 -26.63012695 63.95336914 C-30.03313932 59.71248724 -29.69455904 56.23876627 -29.63671875 50.94921875 C-29.65228569 49.49005791 -29.65228569 49.49005791 -29.66816711 48.00141907 C-29.69782593 44.89641968 -29.69448212 41.79261519 -29.6875 38.6875 C-29.69642218 35.59343255 -29.71250917 32.49968366 -29.7389679 29.40571594 C-29.75375929 27.48355914 -29.75776035 25.56127848 -29.74919128 23.63908386 C-29.77254857 18.10409981 -30.19130264 13.25889207 -32 8 C-34.98163318 7.00612227 -37.24993246 6.73630378 -40.375 6.625 C-41.31085938 6.57601563 -42.24671875 6.52703125 -43.2109375 6.4765625 C-47.19182955 7.22367669 -48.48966396 8.86175668 -51 12 C-51.50722152 14.83732319 -51.72254511 17.09373781 -51.70703125 19.92578125 C-51.72215256 20.67337204 -51.73727386 21.42096283 -51.75285339 22.19120789 C-51.79564081 24.56528087 -51.8045588 26.93808031 -51.8125 29.3125 C-51.83565158 30.92776802 -51.86101831 32.54300591 -51.88867188 34.15820312 C-51.95143457 38.10558086 -51.98383984 42.05216754 -52 46 C-52.66 46 -53.32 46 -54 46 C-54.13535156 45.319375 -54.27070313 44.63875 -54.41015625 43.9375 C-57.54097646 29.83943535 -63.51834996 17.6319772 -72 6 C-51.52647515 -15.14420929 -24.16842347 -13.12852633 0 0 Z " fill="#F5B545" transform="translate(448,274)"/>
<path d="M0 0 C3.20728854 2.48250209 6.15952948 5.10692818 9 8 C8.67 8.66 8.34 9.32 8 10 C7.35933594 9.60167969 6.71867187 9.20335937 6.05859375 8.79296875 C-8.58099936 -0.17405475 -23.15228897 -3.59758513 -40.1875 0.0625 C-49.28971769 2.68622668 -57.52559315 7.0605805 -64 14 C-63.41992188 14.84820312 -62.83984375 15.69640625 -62.2421875 16.5703125 C-55.0897499 27.23224554 -46.19397088 40.70051946 -47 54 C-46.34 54 -45.68 54 -45 54 C-45.02094727 52.99622314 -45.04189453 51.99244629 -45.06347656 50.95825195 C-45.13606694 47.22174434 -45.18186811 43.48529863 -45.21972656 39.74829102 C-45.23979892 38.13327542 -45.2670633 36.51833211 -45.30175781 34.90356445 C-45.35047215 32.57745499 -45.37301154 30.25230907 -45.390625 27.92578125 C-45.41127014 27.20787918 -45.43191528 26.48997711 -45.45318604 25.75032043 C-45.45480378 22.10746257 -45.10047711 20.15514543 -43.10058594 17.06713867 C-39.96548151 13.98195397 -37.99988672 13.77672132 -33.6875 13.625 C-29.58334263 13.66265282 -28.33544654 13.76518742 -24.875 16.1875 C-21.19486778 21.70769833 -21.97313846 27.48892751 -22.140625 33.875 C-22.17205258 36.87970307 -22.19194801 39.88435779 -22.21142578 42.88916016 C-22.23696907 44.9491129 -22.28388226 47.0089207 -22.35302734 49.06787109 C-23.11207521 61.81366298 -23.11207521 61.81366298 -18.19067383 73.09643555 C-15.54147269 75.89522762 -12.62958784 78.24666996 -9.58833313 80.60148621 C-5.45934559 84.23702457 -2.79022377 89.32152813 0 94 C-2.25740623 96.33524782 -4.2805761 98.18705073 -7 100 C-8.9609375 99.93359375 -8.9609375 99.93359375 -11 99 C-12.7890625 96.84765625 -12.7890625 96.84765625 -14.625 94.0625 C-22.41372581 82.99506425 -33.40109863 71.70260883 -46.83203125 67.7734375 C-50.79438029 66.55361486 -53.68699454 65.51239933 -57 63 C-59.25995091 58.65649578 -59.9487088 53.8020011 -60.87890625 49.0390625 C-63.28247973 37.0189038 -70.52867841 26.47582251 -78 17 C-79.00289539 15.66884313 -80.00392732 14.33626981 -81 13 C-79.9484372 11.55447996 -78.883199 10.11890356 -77.8125 8.6875 C-77.22082031 7.88699219 -76.62914062 7.08648437 -76.01953125 6.26171875 C-73.83753789 3.81805501 -71.86722443 2.55966754 -69 1 C-68.07703125 0.4328125 -67.1540625 -0.134375 -66.203125 -0.71875 C-44.6504196 -13.71879453 -21.53322806 -12.97613268 0 0 Z " fill="#F19920" transform="translate(441,266)"/>
<path d="M0 0 C5.87286687 3.49398409 10.407946 8.94620531 12.46875 15.46875 C13.3767277 22.53197188 12.85257126 28.71351941 8.46875 34.46875 C2.446723 41.01392606 -2.45571318 43.88631135 -11.34375 44.90625 C-17.4311534 44.71712679 -22.96694951 41.78506258 -27.4296875 37.75390625 C-33.2070336 31.31427901 -34.04423542 25.46718734 -33.91015625 16.921875 C-33.219546 10.62806609 -30.21759913 6.82522501 -25.65625 2.65625 C-17.01564053 -3.39217663 -9.5220171 -4.11445183 0 0 Z " fill="#0E9347" transform="translate(406.53125,153.53125)"/>
<path d="M0 0 C6.09286975 2.7512377 11.08363517 8.1129187 13.515625 14.34765625 C14.34898907 22.21616348 14.5743975 29.90785387 9.515625 36.34765625 C4.91721647 41.67790699 -0.50903735 44.44344581 -7.484375 45.34765625 C-14.3091576 45.37438516 -19.29739437 44.03755789 -24.546875 39.59765625 C-30.30948152 33.83504973 -32.1437073 28.50380216 -32.796875 20.53515625 C-32.67795835 14.78391451 -30.53482672 10.48634462 -26.578125 6.359375 C-18.60333897 -0.82685943 -10.75883165 -2.82503913 0 0 Z " fill="#0E9347" transform="translate(125.484375,152.65234375)"/>
<path d="M0 0 C3.125 2.4375 3.125 2.4375 5 5 C5.33 5.33 5.66 5.66 6 6 C6.1303018 7.74699212 6.19126066 9.49920512 6.22460938 11.25073242 C6.24712769 12.3724736 6.269646 13.49421478 6.29284668 14.64994812 C6.36358693 19.79950323 6.42157892 24.94898456 6.45996094 30.09887695 C6.48220445 32.81631937 6.52391304 35.53238124 6.58300781 38.24926758 C6.66789597 42.15959386 6.69526073 46.06926926 6.71875 49.98046875 C6.75174194 51.1931694 6.78473389 52.40587006 6.81872559 53.65531921 C6.79918947 61.8889548 6.79918947 61.8889548 4.47988892 65.11328125 C1.39031306 67.84764941 -1.35245366 69.82697492 -5.625 69.625 C-9.8219262 69.31755907 -12.14412168 68.20204539 -15 65 C-16.65816561 61.53066296 -17.25169462 58.76786623 -17.25878906 54.93774414 C-17.26509338 53.95645035 -17.27139771 52.97515656 -17.27789307 51.96412659 C-17.2738446 50.91506638 -17.26979614 49.86600616 -17.265625 48.78515625 C-17.26753845 47.69665878 -17.2694519 46.60816132 -17.27142334 45.48667908 C-17.27278255 43.18781299 -17.26910457 40.88893917 -17.26074219 38.59008789 C-17.25004952 35.07876253 -17.26064136 31.56794999 -17.2734375 28.05664062 C-17.27211566 25.82031137 -17.26955275 23.58398244 -17.265625 21.34765625 C-17.26967346 20.30062027 -17.27372192 19.25358429 -17.27789307 18.17481995 C-17.23829084 11.99076767 -16.83683345 7.03476831 -13.5625 1.625 C-9.32707622 -1.06087849 -4.85474144 -0.86306514 0 0 Z " fill="#F19920" transform="translate(366,373)"/>
<path d="M0 0 C6.78442847 5.98682569 6.78442847 5.98682569 8.1328125 8.68359375 C5.69335863 7.55769196 3.59998587 6.31424802 1.3828125 4.77734375 C-12.17415807 -3.95647383 -29.16800098 -4.35000718 -44.6875 -1.65234375 C-60.87660915 3.20861592 -72.29545393 14.52281575 -80.12109375 29.00390625 C-85.88403342 40.87003295 -87.23008842 57.41425406 -83.6796875 70.18359375 C-81.85054436 75.21809249 -79.37771212 79.96082467 -76.8671875 84.68359375 C-76.19688779 86.01510437 -75.5289702 87.34782959 -74.8671875 88.68359375 C-85.33985314 80.77566255 -91.10778488 69.39004733 -93.8671875 56.68359375 C-94.74473758 44.90868724 -95.28702708 32.43885174 -89.8671875 21.68359375 C-89.44308594 20.83152344 -89.01898438 19.97945313 -88.58203125 19.1015625 C-80.34812092 4.17043263 -67.6347356 -5.39393095 -51.76953125 -11.06640625 C-34.15101666 -15.95478024 -14.06362171 -11.3620268 0 0 Z " fill="#F19A21" transform="translate(396.8671875,361.31640625)"/>
<path d="M0 0 C4.35172536 3.26890168 4.35172536 3.26890168 6.24609375 5.125 C6.24609375 5.785 6.24609375 6.445 6.24609375 7.125 C2.52374484 5.72911916 -0.91621663 4.02574316 -4.3984375 2.125 C-11.70126681 -0.97537198 -18.73609698 -1.24018143 -26.56640625 -1.25 C-28.09104492 -1.28673828 -28.09104492 -1.28673828 -29.64648438 -1.32421875 C-37.08090402 -1.35264865 -42.95887781 0.16972853 -49.75390625 3.125 C-50.48778564 3.43590576 -51.22166504 3.74681152 -51.9777832 4.06713867 C-65.35867122 9.94648516 -73.94662653 21.28555643 -79.74609375 34.32421875 C-82.39944418 41.69806471 -83.09318982 48.21133727 -83.06640625 56 C-83.08251953 56.92941406 -83.09863281 57.85882813 -83.11523438 58.81640625 C-83.1214666 67.75341236 -81.11859233 75.36393461 -76.62890625 83.125 C-76.11070312 84.0325 -75.5925 84.94 -75.05859375 85.875 C-74.62804687 86.6175 -74.1975 87.36 -73.75390625 88.125 C-73.25890625 89.115 -73.25890625 89.115 -72.75390625 90.125 C-79.72002693 87.42385117 -84.27280731 79.2260509 -87.37890625 72.72265625 C-88.62271166 69.5502121 -89.72838753 66.37391225 -90.75390625 63.125 C-90.99882812 62.44179688 -91.24375 61.75859375 -91.49609375 61.0546875 C-95.78750845 47.47500537 -92.30184994 31.66180492 -86.06640625 19.3125 C-77.33777981 4.55278745 -64.33285951 -4.97511751 -48.00390625 -9.6875 C-30.80263907 -13.58675098 -14.44390354 -9.83414709 0 0 Z " fill="#F19A22" transform="translate(336.75390625,289.875)"/>
<path d="M0 0 C0.85464844 -0.00515625 1.70929688 -0.0103125 2.58984375 -0.015625 C5.35425791 0.28134208 6.80857722 0.61249451 9.0625 2.25 C13.28390031 7.9107336 12.62186767 14.86693494 12.75 21.625 C12.80124023 23.44451172 12.80124023 23.44451172 12.85351562 25.30078125 C12.93572375 28.28376181 13.00496526 31.26645842 13.0625 34.25 C13.56894043 33.79254395 14.07538086 33.33508789 14.59716797 32.86376953 C25.97970901 22.71956355 38.8011956 15.43676307 54.0625 13.25 C57.0625 19.875 57.0625 19.875 57.0625 23.25 C56.08152344 23.33636719 55.10054688 23.42273438 54.08984375 23.51171875 C31.17699967 25.78525014 10.9517557 35.27294389 -4.05078125 53.07421875 C-6.23217998 55.58982764 -8.57474777 57.90516759 -10.9375 60.25 C-11.01358273 52.79360492 -11.06611377 45.33731 -11.10229492 37.88061523 C-11.11737863 35.34411885 -11.13784831 32.80764852 -11.16381836 30.27124023 C-11.20021881 26.62477178 -11.21723082 22.97864827 -11.23046875 19.33203125 C-11.24595261 18.19852737 -11.26143646 17.0650235 -11.27738953 15.89717102 C-11.27761612 14.83644882 -11.27784271 13.77572662 -11.27807617 12.68286133 C-11.28473801 11.75242508 -11.29139984 10.82198883 -11.29826355 9.86335754 C-10.85861593 6.67856677 -9.82310915 4.8363774 -7.9375 2.25 C-4.71002945 0.09835297 -3.73244361 -0.02245079 0 0 Z " fill="#F19920" transform="translate(301.9375,302.75)"/>
<path d="M0 0 C0.33 0 0.66 0 1 0 C0.41387526 23.94319581 -6.71530805 45.07590058 -23.375 62.75 C-30.38789181 69.38123784 -37.92318175 73.85607413 -47 77 C-48.08796875 77.4228125 -49.1759375 77.845625 -50.296875 78.28125 C-60.42388804 82.01911747 -70.26559629 83.2258288 -81 84 C-81.50177182 80.48759725 -81.18138609 79.24890405 -79.05859375 76.3359375 C-75.17082271 73.36673306 -71.77928606 72.61538895 -67.0625 71.625 C-52.29504844 68.08035972 -41.56552448 61.82480116 -31 51 C-30.40703125 50.42765625 -29.8140625 49.8553125 -29.203125 49.265625 C-20.83102046 40.53342995 -16.41139262 28.60930909 -13.63452148 17.07885742 C-12.62593342 12.92209692 -11.59626968 9.49875133 -9 6 C-5.74828878 4.03542447 -3.81307353 3 0 3 C0 2.01 0 1.02 0 0 Z " fill="#F6B646" transform="translate(442,404)"/>
<path d="M0 0 C0.3125 2.1875 0.3125 2.1875 0 5 C-3.70735482 9.67697069 -7.13907347 10.86099955 -12.8125 11.8125 C-28.0007321 14.93179119 -39.32673795 21.9227028 -50 33 C-50.59039062 33.55945313 -51.18078125 34.11890625 -51.7890625 34.6953125 C-60.28473205 43.3727076 -64.63993722 56.37342855 -67.18969727 67.97192383 C-68.36943804 72.98426761 -69.94275853 75.57199146 -74 79 C-74.495 79.495 -74.495 79.495 -75 80 C-76.99958364 80.04080783 -79.00045254 80.04254356 -81 80 C-82.82580122 61.94485461 -74.84674224 43.58441826 -64 29.5625 C-62.68583189 28.02507553 -61.35331067 26.50308418 -60 25 C-59.40960938 24.31679688 -58.81921875 23.63359375 -58.2109375 22.9296875 C-49.81224598 13.81621373 -38.39974722 7.57147224 -27 3 C-26.030625 2.5875 -25.06125 2.175 -24.0625 1.75 C-16.23338424 -0.16733447 -8.02081181 -0.1336802 0 0 Z " fill="#FDE077" transform="translate(302,257)"/>
<path d="M0 0 C-1.21842328 4.46755201 -2.34935243 7.10792855 -6 10 C-8.61975662 10.72706902 -11.08787959 11.27756736 -13.75 11.75 C-31.49413925 15.47927024 -45.62945075 24.8433596 -56.40625 39.4765625 C-61.63511248 47.75559477 -66.13274686 56.74843916 -67.875 66.4375 C-69.09367072 72.11823279 -71.02410239 76.68273493 -76 80 C-78.6875 80.125 -78.6875 80.125 -81 80 C-82.22218561 60.17343347 -75.42343339 41.37197697 -62.3359375 26.453125 C-44.83206405 8.07113081 -25.17374156 -0.50124707 0 0 Z " fill="#FEE078" transform="translate(361,327)"/>
<path d="M0 0 C-0.28775972 3.35719668 -0.91928554 4.90070598 -3.0703125 7.546875 C-6.46373692 10.38830238 -9.45898758 11.23428103 -13.6875 12.0625 C-15.12091434 12.38436327 -16.5532237 12.7111878 -17.984375 13.04296875 C-19.01981445 13.28152588 -19.01981445 13.28152588 -20.07617188 13.52490234 C-29.13592669 15.76224789 -36.80403815 20.36349973 -43.8125 26.4375 C-46 28 -46 28 -47.9375 28 C-50.82117451 26.60185478 -53.38396876 24.84311292 -56 23 C-51.36177364 12.76089654 -37.4058274 6.57610181 -27.4375 2.5625 C-18.63207188 -0.38128819 -9.19061511 -0.15577314 0 0 Z " fill="#FDE077" transform="translate(407,234)"/>
<path d="M0 0 C1.051875 0.01160156 1.051875 0.01160156 2.125 0.0234375 C2.82625 0.01570313 3.5275 0.00796875 4.25 0 C6.125 0.3984375 6.125 0.3984375 8.125 3.3984375 C8.2671913 16.75020046 4.74225679 29.39827743 -3.875 39.81640625 C-7.27110107 42.50277526 -9.66087096 41.87422626 -13.875 41.3984375 C-15.875 38.3984375 -15.875 38.3984375 -15.875 35.7109375 C-14.91102259 32.51776233 -14.09957421 31.22762665 -12.0625 28.7109375 C-6.64091116 21.86878813 -4.51284739 14.12589868 -4.1484375 5.4921875 C-3.77016584 2.59570736 -3.02423323 0.64264956 0 0 Z " fill="#FECA5A" transform="translate(452.875,308.6015625)"/>
<path d="M0 0 C3.5 0.25 3.5 0.25 5.5 2.25 C7.08186584 14.57383854 3.30933063 26.04641587 -3.5 36.25 C-5.875 39.3125 -5.875 39.3125 -8.5 41.25 C-12.1875 41.6875 -12.1875 41.6875 -15.5 41.25 C-17.5 39.25 -17.5 39.25 -17.83203125 36.4296875 C-17.44457287 32.71920375 -16.48093681 31.27147299 -14.1875 28.375 C-8.59839925 20.7914016 -7.16395901 14.33888252 -6.02734375 5.0078125 C-5.21758333 0.77306542 -4.28519809 0.30608558 0 0 Z " fill="#FECA5A" transform="translate(408.5,401.75)"/>
<path d="M0 0 C6.16914926 1.66733764 11.53975079 4.76100601 17 8 C17.68578125 8.40347656 18.3715625 8.80695313 19.078125 9.22265625 C20.75 10.375 20.75 10.375 23 13 C23.45024196 17.39851761 22.42932285 20.35601573 20 24 C16.0602335 22.18849932 12.49707987 19.80118717 8.875 17.4375 C4.53696991 14.54893564 4.53696991 14.54893564 0 12 C0 8.04 0 4.08 0 0 Z " fill="#E78825" transform="translate(396,322)"/>
<path d="M0 0 C3.66297759 3.20112389 5.35370605 6.4215824 7.25 10.875 C7.77078125 12.06867188 8.2915625 13.26234375 8.828125 14.4921875 C9.97415656 17.92264198 10.240964 20.41839866 10 24 C6.27034861 26.03435531 4.33094958 27 0 27 C-0.23710693 26.40461426 -0.47421387 25.80922852 -0.71850586 25.19580078 C-1.79060549 22.50517486 -2.8640362 19.81508194 -3.9375 17.125 C-4.31068359 16.18785156 -4.68386719 15.25070312 -5.06835938 14.28515625 C-5.42607422 13.38925781 -5.78378906 12.49335938 -6.15234375 11.5703125 C-6.48226318 10.74289551 -6.81218262 9.91547852 -7.15209961 9.06298828 C-7.97542634 6.98779494 -7.97542634 6.98779494 -9 5 C-6.03 3.35 -3.06 1.7 0 0 Z " fill="#F6B444" transform="translate(440,361)"/>
<path d="M0 0 C3.35915158 1.43963639 5.71624938 3.12416589 8 6 C8.13713358 10.11400728 4.56269327 13.10875631 2 16 C-1.43595166 14.47291037 -4.11912454 12.40072955 -7 10 C-5.33248852 6.05860922 -2.77289351 3.2107188 0 0 Z " fill="#F5B342" transform="translate(359,263)"/>
<path d="M0 0 C2.01430083 3.71055417 2.19402245 6.82851735 2 11 C-1.72965139 13.03435531 -3.66905042 14 -8 14 C-8.99 10.7 -9.98 7.4 -11 4 C-3.375 -1.125 -3.375 -1.125 0 0 Z " fill="#F19C24" transform="translate(448,374)"/>
<path d="M0 0 C4.59037956 1.14759489 5.33669182 2.29039218 8 6 C6.4722133 9.43752007 4.49818944 12.18953688 2 15 C1.34 15 0.68 15 0 15 C-1.5078125 13.25 -1.5078125 13.25 -3.125 11 C-3.66382813 10.2575 -4.20265625 9.515 -4.7578125 8.75 C-5.16773438 8.1725 -5.57765625 7.595 -6 7 C-4.02 4.69 -2.04 2.38 0 0 Z " fill="#E78925" transform="translate(366,272)"/>
<path d="M0 0 C8.46204771 -0.30221599 16.63745983 0.85079203 25 2 C25 6 25 6 23.8125 7.8125 C22 9 22 9 19.69140625 8.6953125 C17.03944476 8.01019037 14.64541158 7.12944739 12.125 6.0625 C8.12130969 4.4142742 4.18691835 3.09223957 0 2 C0 1.34 0 0.68 0 0 Z " fill="#149447" transform="translate(320,256)"/>
</svg>
