<?xml version="1.0" encoding="UTF-8"?>
<svg version="1.1" xmlns="http://www.w3.org/2000/svg" width="512" height="512">
<path d="M0 0 C0.9175708 0.00757324 1.8351416 0.01514648 2.78051758 0.02294922 C26.99632951 0.60935067 42.04190438 18.69390416 58.01171875 34.62109375 C59.0936296 35.69876353 59.0936296 35.69876353 60.19739723 36.79820442 C64.00774102 40.59365798 67.81527843 44.3918994 71.62036133 48.19262695 C75.5270513 52.09381885 79.44294856 55.9856303 83.36105633 59.87535 C86.39717993 62.89277255 89.42649969 65.9169576 92.45405006 68.94297981 C93.89431526 70.38023949 95.33705574 71.81502354 96.78241539 73.24715996 C115.62777206 91.93222001 115.62777206 91.93222001 119 102.25 C119.29648438 103.12269531 119.59296875 103.99539062 119.8984375 104.89453125 C123.77660951 118.46813328 122.17752456 132.4443095 115.375 144.75 C108.70902378 155.42391182 100.26153886 161.18147274 88.7199707 165.89013672 C76.20400367 171.02721117 67.20605523 178.58307572 61.41015625 191.05078125 C55.19580882 205.97848416 57.8914755 219.65370485 63.78027344 234.31347656 C69.1878248 246.80678488 75.53895092 258.49018415 83.625 269.4375 C84.03073242 269.9958252 84.43646484 270.55415039 84.85449219 271.12939453 C90.17261924 278.41493338 95.93729574 285.16176719 102.109375 291.734375 C104.16541491 293.94366012 106.12600272 296.18748383 108.0625 298.5 C128.24372329 321.64623714 165.12045168 350.48679792 196.75 352.8125 C211.44801269 353.44486788 224.62579984 349.635635 235.6875 339.55859375 C241.43460252 333.42752533 244.63210352 326.18003474 247.5 318.375 C251.97879407 306.94511753 261.19787553 298.7638685 272.03515625 293.48046875 C283.03576838 289.05035798 296.78659526 288.51389658 308.1875 292 C322.10336878 297.94133245 331.56349806 307.78444652 342.078125 318.359375 C343.74899036 320.02754074 345.42044868 321.69511274 347.09246826 323.36212158 C350.58185251 326.84563304 354.06396262 330.33621264 357.54101562 333.83203125 C361.97782044 338.29162334 366.43234492 342.7330129 370.89250565 347.16923141 C374.34348285 350.60569091 377.78479824 354.05169948 381.22335052 357.50058746 C382.86132801 359.14121572 384.50223339 360.77892662 386.14621735 362.41353607 C399.86270251 376.06891469 411.59645097 388.59628365 411.875 409 C411.63122594 432.37793225 398.21970232 445.97324776 382.6328125 461.66796875 C382.12523281 462.17962397 381.61765312 462.69127918 381.09469223 463.2184391 C378.41352246 465.92025316 375.72924246 468.61893306 373.04248047 471.31518555 C370.29871664 474.07004413 367.56685524 476.83640405 364.83740425 479.60543346 C362.70606466 481.76311387 360.56569872 483.91167389 358.4229393 486.05800819 C357.41262719 487.0731312 356.40563709 488.09157364 355.40234756 489.11363792 C347.36340618 497.29375071 338.94267289 504.23554247 328.0625 508.25 C326.57556641 508.81654297 326.57556641 508.81654297 325.05859375 509.39453125 C315.64552535 512.25379093 306.69800055 512.82580292 296.875 512.8125 C295.85471207 512.81168427 295.85471207 512.81168427 294.81381226 512.81085205 C252.27695834 512.65531515 209.6291289 493.89037179 173.625 472.4375 C172.15595215 471.56351562 172.15595215 471.56351562 170.65722656 470.671875 C132.87827309 448.06652978 97.70372896 421.30456278 65.55444336 391.22338867 C64.05880599 389.8390299 62.55222072 388.46649435 61.04125977 387.09887695 C53.68554658 380.42707655 46.57762774 373.54598263 39.56860352 366.51147461 C37.80012781 364.73758997 36.02629956 362.96918223 34.25195312 361.20117188 C29.02099791 355.97327704 23.85485573 350.74518085 19.05493164 345.11254883 C16.86261208 342.54442444 14.55141647 340.0957399 12.25 337.625 C7.1344058 332.08092013 2.35159256 326.3172901 -2.375 320.4375 C-3.38285316 319.20859981 -4.39205155 317.98080207 -5.40234375 316.75390625 C-27.50724571 289.85922054 -47.07486058 261.29025664 -64.01708984 230.87451172 C-64.86659968 229.34991495 -65.72040305 227.82769365 -66.58056641 226.30908203 C-89.13219525 186.41606195 -109.26439036 133.75856485 -97.375 87.4375 C-96.0054443 83.25112761 -94.4190335 79.3379014 -92.375 75.4375 C-92.0359816 74.76982101 -91.6969632 74.10214203 -91.34767151 73.41423035 C-86.81032369 65.15004932 -80.51958051 58.99908453 -73.890625 52.421875 C-72.66704002 51.19558862 -71.44404876 49.96870959 -70.22161865 48.74127197 C-67.66948547 46.18327427 -65.1103439 43.6325665 -62.54589844 41.08691406 C-59.28001666 37.8438194 -56.03242821 34.58309147 -52.78992081 31.31664658 C-50.27138919 28.78357439 -47.74330076 26.26021227 -45.21233368 23.73957062 C-44.01187365 22.54175509 -42.81431141 21.34102728 -41.61988068 20.1371994 C-29.3570371 7.79908611 -17.92370476 -0.20901312 0 0 Z " fill="#EBB939" transform="translate(100.375,-0.4375)"/>
</svg>
