<?xml version="1.0" encoding="UTF-8"?>
<svg version="1.1" xmlns="http://www.w3.org/2000/svg" width="512" height="512">
<path d="M0 0 C6.73391889 5.58927445 10.09768766 12.95357711 11.37890625 21.5390625 C11.80529189 30.20431906 9.02639467 38.02620239 3.4375 44.625 C-0.40976688 48.64262556 -4.67063405 52.03944446 -9.01171875 55.50390625 C-19.3459003 64.13598731 -28.10120958 74.12985909 -36 85 C-36.41846191 85.57411621 -36.83692383 86.14823242 -37.26806641 86.73974609 C-56.05050021 112.86513685 -67.49661974 143.22701609 -72 175 C-72.09571289 175.65967773 -72.19142578 176.31935547 -72.29003906 176.99902344 C-78.6363694 226.24563696 -63.95221227 277.46594271 -34 316.75 C-30.1810197 321.68651258 -26.09724264 326.34166985 -21.8125 330.87890625 C-20 333 -20 333 -19 335.15234375 C-17.71280332 337.53064075 -16.41770485 337.87926953 -14 339 C-12.81245097 340.12417634 -11.66971065 341.29661738 -10.5625 342.5 C21.72659916 375.3804746 71.22608521 392.56536522 116.60253906 393.23266602 C166.72209697 393.48837805 212.37197512 376.01076371 250 343 C251.29051446 341.93610083 252.58195049 340.87331667 253.875 339.8125 C257.65367593 336.5499359 260.78698029 332.80802336 264 329 C264.83660156 328.05125 265.67320312 327.1025 266.53515625 326.125 C273.46585483 318.21868659 279.49414859 309.95569285 285 301 C285.41636719 300.32372559 285.83273437 299.64745117 286.26171875 298.95068359 C312.54562525 255.57212867 319.70587728 202.44331079 308.05053711 153.31005859 C298.05138406 113.54498483 275.47984731 75.86242987 243.125 50.25 C234.74517434 43.52440505 230.18829702 36.71417815 228.71875 25.9375 C228.3002116 17.28770639 231.42147725 9.6192273 236.8984375 3.046875 C243.37515927 -3.26130754 250.21869063 -6.10862063 259.125 -6.3125 C271.19071815 -6.15090556 278.22836054 -0.84641174 287 7 C287.98226563 7.87269531 288.96453125 8.74539062 289.9765625 9.64453125 C300.46747712 19.06615672 310.2912459 28.88568096 319 40 C319.77859375 40.96164063 320.5571875 41.92328125 321.359375 42.9140625 C354.52948716 84.64079595 373.68660661 137.72191178 375 191 C375.03996094 192.27488281 375.07992188 193.54976562 375.12109375 194.86328125 C376.52048487 260.38022893 352.13393465 321.50066791 309.36035156 370.43994141 C308.14644342 371.83205788 306.94354117 373.23375382 305.7421875 374.63671875 C302.12170054 378.81802624 298.38632137 382.58541585 294.15625 386.1484375 C292.6427705 387.44805576 291.16604132 388.79111834 289.71875 390.1640625 C276.94173614 402.27067749 262.39358483 412.50105613 247 421 C246.18644043 421.45584473 245.37288086 421.91168945 244.53466797 422.38134766 C210.35145296 441.39987333 171.60991352 453.99639573 132.20703125 454.203125 C131.30644485 454.21013931 130.40585846 454.21715363 129.47798157 454.22438049 C126.58943619 454.24177809 123.70109584 454.24823227 120.8125 454.25 C119.82546082 454.25067474 118.83842163 454.25134949 117.82147217 454.25204468 C103.35274449 454.23631492 89.2265878 453.88011084 75 451 C74.0821875 450.81775879 73.164375 450.63551758 72.21875 450.44775391 C65.76701418 449.13614932 59.37849758 447.62841942 53 446 C52.26652344 445.81743652 51.53304687 445.63487305 50.77734375 445.44677734 C23.52721853 438.55147697 -3.25152119 425.42498388 -26 409 C-26.63953613 408.54689453 -27.27907227 408.09378906 -27.93798828 407.62695312 C-40.33815016 398.81416442 -51.27515116 388.76018607 -62 378 C-62.77859375 377.24460937 -63.5571875 376.48921875 -64.359375 375.7109375 C-70.38786746 369.82035173 -75.87784094 363.69072297 -81 357 C-81.48339844 356.37125977 -81.96679688 355.74251953 -82.46484375 355.09472656 C-114.58412585 312.94317492 -133.69028892 261.12871485 -135 208 C-135.05994141 206.08767578 -135.05994141 206.08767578 -135.12109375 204.13671875 C-136.56195435 136.67005855 -110.27121598 71.8774584 -64.14208984 23.03271484 C-25.20830054 -17.49223826 -25.20830054 -17.49223826 0 0 Z " fill="#FFFFFF" transform="translate(136,58)"/>
<path d="M0 0 C0.86625 0.66 1.7325 1.32 2.625 2 C3.429375 2.59425781 4.23375 3.18851563 5.0625 3.80078125 C7.72738515 6.08787018 9.37903949 8.22728166 11.25 11.1875 C12.10464844 12.50814453 12.10464844 12.50814453 12.9765625 13.85546875 C16.61742371 20.80071348 18.07229627 27.20940338 18.01268005 35.01191711 C18.01806559 35.8727697 18.02345113 36.73362228 18.02899987 37.6205613 C18.04321008 40.48066974 18.03619292 43.3403108 18.02905273 46.20043945 C18.03475999 48.26109181 18.04172563 50.32174101 18.04985046 52.38238525 C18.06775933 57.96310434 18.06661751 63.54366598 18.06090808 69.12440515 C18.05781239 73.79118354 18.06391304 78.45793186 18.06994683 83.12470597 C18.08398353 94.1393966 18.08243836 105.15400965 18.07104492 116.16870117 C18.05956945 127.513011 18.07363185 138.85708426 18.1004414 150.20136291 C18.12263124 159.95793133 18.12922822 169.71442568 18.12336498 179.47101754 C18.12000149 185.29073164 18.12236994 191.11029419 18.13961601 196.92998695 C18.15513493 202.40566005 18.15107464 207.88098412 18.13231087 213.35664368 C18.12863842 215.35924401 18.13169394 217.36187048 18.14219666 219.36444664 C18.21681923 234.77698791 17.08135076 247.44555431 5.7421875 258.90234375 C-3.15943813 267.15816517 -13.05135621 270.56842102 -25.15625 270.30859375 C-35.14578791 269.35085893 -43.14645505 265.91733558 -50.375 259 C-51.02339844 258.37996094 -51.67179688 257.75992187 -52.33984375 257.12109375 C-60.06963671 249.03177554 -62.52468121 239.50003493 -62.52217102 228.58262634 C-62.52584771 227.72534032 -62.5295244 226.8680543 -62.5333125 225.98478991 C-62.5443413 223.10696001 -62.54819185 220.22916623 -62.55200195 217.35131836 C-62.55826729 215.28978358 -62.56491416 213.22824994 -62.57191467 211.16671753 C-62.59295193 204.39110093 -62.60331786 197.61548412 -62.61328125 190.83984375 C-62.61732916 188.50603282 -62.62144609 186.17222202 -62.62563133 183.83841133 C-62.64468354 172.87189353 -62.6589136 161.90538246 -62.6672433 150.9388513 C-62.67701134 138.28799897 -62.70331956 125.63732182 -62.74374419 112.9865312 C-62.77392921 103.20376785 -62.78871452 93.42105465 -62.79202431 83.63824564 C-62.79437238 77.7977878 -62.80330118 71.9575171 -62.82848549 66.1171093 C-62.8518123 60.61855371 -62.85598078 55.12030784 -62.84572411 49.62171555 C-62.84522973 47.60901292 -62.85152094 45.5962948 -62.86528015 43.58363914 C-62.96655319 27.885034 -61.28709206 16.15475023 -50.375 4 C-36.04064418 -8.65413829 -16.11771603 -9.55123913 0 0 Z " fill="#FFFFFF" transform="translate(278.375,7)"/>
</svg>
