<?xml version="1.0" encoding="UTF-8"?>
<svg version="1.1" xmlns="http://www.w3.org/2000/svg" width="512" height="512">
<path d="M0 0 C6.1327677 3.82361655 10.93449345 4.37756623 18.06982422 4.30834961 C44.01597617 4.78417797 66.45798946 14.6078207 84.70605469 33.25708008 C102.68930393 52.88863287 108.62814122 77.54887406 107.9377594 103.41424561 C107.51082663 113.021779 105.55410575 117.82720146 98.80908203 124.75073242 C95.27443344 128.80535739 92.47248012 133.43307 89.54394531 137.93505859 C87.78622179 140.6309895 86.00029877 143.3081407 84.21826172 145.98803711 C83.16845651 147.57375881 82.11884613 149.15960962 81.06982422 150.74584961 C82.70674347 154.24639438 84.42532118 156.16191167 87.38232422 158.68334961 C115.45139112 183.48575786 135.46555701 214.741062 146.06982422 250.74584961 C146.44751953 251.98334961 146.82521484 253.22084961 147.21435547 254.49584961 C148.28784291 258.22692207 149.21188642 261.95948412 150.06982422 265.74584961 C150.22080566 266.38925293 150.37178711 267.03265625 150.52734375 267.69555664 C156.29322072 293.46473495 155.31493897 324.223577 149.06982422 349.74584961 C148.85551758 350.64207031 148.64121094 351.53829102 148.42041016 352.46166992 C140.20458246 385.88705335 123.23129761 416.419609 99.48193359 441.26635742 C98.54547862 442.24749801 97.61440191 443.23380208 96.68896484 444.2253418 C74.00962909 468.48807264 43.75915249 485.41258792 12.06982422 494.74584961 C10.21357422 495.31239258 10.21357422 495.31239258 8.31982422 495.89038086 C4.58875176 496.9638683 0.85618971 497.88791181 -2.93017578 498.74584961 C-3.5735791 498.89683105 -4.21698242 499.0478125 -4.87988281 499.20336914 C-30.64906112 504.96924611 -61.40790318 503.99096436 -86.93017578 497.74584961 C-88.27450684 497.42438965 -88.27450684 497.42438965 -89.64599609 497.09643555 C-123.07137952 488.88060785 -153.60393517 471.907323 -178.45068359 448.15795898 C-179.43182418 447.22150401 -180.41812825 446.2904273 -181.40966797 445.36499023 C-205.67239881 422.68565448 -222.5969141 392.43517788 -231.93017578 360.74584961 C-232.49671875 358.88959961 -232.49671875 358.88959961 -233.07470703 356.99584961 C-234.14819447 353.26477715 -235.07223798 349.5322151 -235.93017578 345.74584961 C-236.08115723 345.10244629 -236.23213867 344.45904297 -236.38769531 343.79614258 C-242.15357228 318.02696427 -241.17529053 287.26812222 -234.93017578 261.74584961 C-234.71586914 260.84962891 -234.5015625 259.9534082 -234.28076172 259.0300293 C-224.99330309 221.24480825 -204.70445947 189.60966901 -177.55517578 162.24584961 C-177.06742676 161.75334717 -176.57967773 161.26084473 -176.07714844 160.75341797 C-173.17746453 157.86719083 -170.16976079 155.24327514 -166.93017578 152.74584961 C-168.48172933 148.23900699 -170.93481489 144.5153816 -173.61376953 140.61694336 C-174.06994156 139.9454274 -174.52611359 139.27391144 -174.99610901 138.58204651 C-176.44886292 136.44608742 -177.90827153 134.3147687 -179.36767578 132.18334961 C-180.34530509 130.7467835 -181.32252295 129.30993731 -182.29931641 127.87280273 C-186.73958835 121.09942785 -186.73958835 121.09942785 -191.7019043 114.72875977 C-193.49925296 111.82713666 -193.3533607 109.41300772 -193.39892578 106.02319336 C-193.4087146 105.36980484 -193.41850342 104.71641632 -193.42858887 104.04322815 C-193.45029554 101.9227343 -193.44401373 99.80389526 -193.43017578 97.68334961 C-193.42808105 96.96099121 -193.42598633 96.23863281 -193.42382812 95.49438477 C-193.27132393 70.07137118 -184.98017894 48.49954824 -167.34033203 30.03491211 C-149.60197411 13.10402717 -128.57653532 4.93249796 -104.18017578 4.43334961 C-96.79818637 4.25353041 -91.47180265 4.06278612 -85.44189453 -0.56274414 C-81.97175464 -2.89955685 -78.30646155 -4.14672293 -74.36767578 -5.50415039 C-73.6704541 -5.7499585 -72.97323242 -5.9957666 -72.25488281 -6.24902344 C-49.55449874 -13.98379137 -20.59372728 -13.38097357 0 0 Z M-12.93017578 28.74584961 C-12.93017578 36.00584961 -12.93017578 43.26584961 -12.93017578 50.74584961 C-7.1274512 52.03534396 -1.7129027 53.13361378 4.13232422 53.87084961 C4.80714844 53.9572168 5.48197266 54.04358398 6.17724609 54.13256836 C7.80763641 54.34070329 9.43866425 54.54383507 11.06982422 54.74584961 C5.87962118 43.94814077 -2.00901172 35.43377717 -11.93017578 28.74584961 C-12.26017578 28.74584961 -12.59017578 28.74584961 -12.93017578 28.74584961 Z M-86.55517578 38.99584961 C-90.80702726 43.34727607 -93.83423239 48.54202987 -96.93017578 53.74584961 C-93.83099487 54.77890991 -92.67780141 54.72977206 -89.55126953 54.22241211 C-88.71273437 54.08834961 -87.87419922 53.95428711 -87.01025391 53.81616211 C-86.13820312 53.66920898 -85.26615234 53.52225586 -84.36767578 53.37084961 C-83.49175781 53.23163086 -82.61583984 53.09241211 -81.71337891 52.94897461 C-77.18302642 52.30005906 -77.18302642 52.30005906 -72.93017578 50.74584961 C-72.93017578 43.48584961 -72.93017578 36.22584961 -72.93017578 28.74584961 C-77.14369783 28.74584961 -83.53816978 36.16397807 -86.55517578 38.99584961 Z M39.06982422 39.74584961 C39.84336812 44.19589991 41.14732054 48.44776218 42.50732422 52.74584961 C42.72453125 53.44452148 42.94173828 54.14319336 43.16552734 54.86303711 C43.7838058 56.8311307 44.4014794 58.79413667 45.06982422 60.74584961 C45.32006348 61.59501953 45.57030273 62.44418945 45.828125 63.3190918 C47.45457223 66.49779519 48.92281739 67.03446819 52.19091797 68.38647461 C53.20863281 68.81702148 54.22634766 69.24756836 55.27490234 69.69116211 C56.34160156 70.12170898 57.40830078 70.55225586 58.50732422 70.99584961 C60.10157227 71.66487305 60.10157227 71.66487305 61.72802734 72.34741211 C65.48233989 73.91467731 69.20953113 75.45908525 73.06982422 76.74584961 C71.54105045 64.25779397 62.41786599 54.51537774 53.06982422 46.74584961 C48.65565054 43.57561543 44.43687119 40.85585251 39.06982422 39.74584961 Z M-125.93017578 39.74584961 C-133.92324803 43.13015041 -139.80706009 47.63305958 -145.93017578 53.74584961 C-146.58115234 54.38522461 -147.23212891 55.02459961 -147.90283203 55.68334961 C-152.83723806 60.88887685 -156.45494602 67.00883311 -158.93017578 73.74584961 C-158.60017578 74.73584961 -158.27017578 75.72584961 -157.93017578 76.74584961 C-154.72089796 75.31045172 -151.51292785 73.87215356 -148.30517578 72.43334961 C-147.40154297 72.02922852 -146.49791016 71.62510742 -145.56689453 71.20874023 C-143.80308316 70.4169563 -142.04379757 69.61500101 -140.28955078 68.80224609 C-137.93017578 67.74584961 -137.93017578 67.74584961 -134.45361328 66.51147461 C-130.55731376 63.78527123 -130.16728795 60.30006503 -129.18017578 55.80834961 C-128.79299424 54.19423848 -128.40247664 52.5809232 -128.00830078 50.96850586 C-127.84749023 50.2544458 -127.68667969 49.54038574 -127.52099609 48.8046875 C-126.93017578 46.74584961 -126.93017578 46.74584961 -125.80029297 44.66943359 C-124.60168847 42.59946078 -124.60168847 42.59946078 -125.93017578 39.74584961 Z " fill="#FEFEFD" transform="translate(298.93017578125,10.254150390625)"/>
<path d="M0 0 C6.1327677 3.82361655 10.93449345 4.37756623 18.06982422 4.30834961 C44.01597617 4.78417797 66.45798946 14.6078207 84.70605469 33.25708008 C102.68930393 52.88863287 108.62814122 77.54887406 107.9377594 103.41424561 C107.51082663 113.021779 105.55410575 117.82720146 98.80908203 124.75073242 C95.27443344 128.80535739 92.47248012 133.43307 89.54394531 137.93505859 C87.78622179 140.6309895 86.00029877 143.3081407 84.21826172 145.98803711 C83.16845651 147.57375881 82.11884613 149.15960962 81.06982422 150.74584961 C82.70674347 154.24639438 84.42532118 156.16191167 87.38232422 158.68334961 C115.45139112 183.48575786 135.46555701 214.741062 146.06982422 250.74584961 C146.44751953 251.98334961 146.82521484 253.22084961 147.21435547 254.49584961 C148.28784291 258.22692207 149.21188642 261.95948412 150.06982422 265.74584961 C150.22080566 266.38925293 150.37178711 267.03265625 150.52734375 267.69555664 C156.29322072 293.46473495 155.31493897 324.223577 149.06982422 349.74584961 C148.85551758 350.64207031 148.64121094 351.53829102 148.42041016 352.46166992 C140.20458246 385.88705335 123.23129761 416.419609 99.48193359 441.26635742 C98.54547862 442.24749801 97.61440191 443.23380208 96.68896484 444.2253418 C74.00962909 468.48807264 43.75915249 485.41258792 12.06982422 494.74584961 C10.21357422 495.31239258 10.21357422 495.31239258 8.31982422 495.89038086 C4.58875176 496.9638683 0.85618971 497.88791181 -2.93017578 498.74584961 C-3.5735791 498.89683105 -4.21698242 499.0478125 -4.87988281 499.20336914 C-30.64906112 504.96924611 -61.40790318 503.99096436 -86.93017578 497.74584961 C-88.27450684 497.42438965 -88.27450684 497.42438965 -89.64599609 497.09643555 C-123.07137952 488.88060785 -153.60393517 471.907323 -178.45068359 448.15795898 C-179.43182418 447.22150401 -180.41812825 446.2904273 -181.40966797 445.36499023 C-205.67239881 422.68565448 -222.5969141 392.43517788 -231.93017578 360.74584961 C-232.49671875 358.88959961 -232.49671875 358.88959961 -233.07470703 356.99584961 C-234.14819447 353.26477715 -235.07223798 349.5322151 -235.93017578 345.74584961 C-236.08115723 345.10244629 -236.23213867 344.45904297 -236.38769531 343.79614258 C-242.15357228 318.02696427 -241.17529053 287.26812222 -234.93017578 261.74584961 C-234.71586914 260.84962891 -234.5015625 259.9534082 -234.28076172 259.0300293 C-224.99330309 221.24480825 -204.70445947 189.60966901 -177.55517578 162.24584961 C-177.06742676 161.75334717 -176.57967773 161.26084473 -176.07714844 160.75341797 C-173.17746453 157.86719083 -170.16976079 155.24327514 -166.93017578 152.74584961 C-168.48172933 148.23900699 -170.93481489 144.5153816 -173.61376953 140.61694336 C-174.06994156 139.9454274 -174.52611359 139.27391144 -174.99610901 138.58204651 C-176.44886292 136.44608742 -177.90827153 134.3147687 -179.36767578 132.18334961 C-180.34530509 130.7467835 -181.32252295 129.30993731 -182.29931641 127.87280273 C-186.73958835 121.09942785 -186.73958835 121.09942785 -191.7019043 114.72875977 C-193.49925296 111.82713666 -193.3533607 109.41300772 -193.39892578 106.02319336 C-193.4087146 105.36980484 -193.41850342 104.71641632 -193.42858887 104.04322815 C-193.45029554 101.9227343 -193.44401373 99.80389526 -193.43017578 97.68334961 C-193.42808105 96.96099121 -193.42598633 96.23863281 -193.42382812 95.49438477 C-193.27132393 70.07137118 -184.98017894 48.49954824 -167.34033203 30.03491211 C-149.60197411 13.10402717 -128.57653532 4.93249796 -104.18017578 4.43334961 C-96.79818637 4.25353041 -91.47180265 4.06278612 -85.44189453 -0.56274414 C-81.97175464 -2.89955685 -78.30646155 -4.14672293 -74.36767578 -5.50415039 C-73.6704541 -5.7499585 -72.97323242 -5.9957666 -72.25488281 -6.24902344 C-49.55449874 -13.98379137 -20.59372728 -13.38097357 0 0 Z M-12.93017578 28.74584961 C-12.93017578 36.00584961 -12.93017578 43.26584961 -12.93017578 50.74584961 C-7.1274512 52.03534396 -1.7129027 53.13361378 4.13232422 53.87084961 C4.80714844 53.9572168 5.48197266 54.04358398 6.17724609 54.13256836 C7.80763641 54.34070329 9.43866425 54.54383507 11.06982422 54.74584961 C5.87962118 43.94814077 -2.00901172 35.43377717 -11.93017578 28.74584961 C-12.26017578 28.74584961 -12.59017578 28.74584961 -12.93017578 28.74584961 Z M-86.55517578 38.99584961 C-90.80702726 43.34727607 -93.83423239 48.54202987 -96.93017578 53.74584961 C-93.83099487 54.77890991 -92.67780141 54.72977206 -89.55126953 54.22241211 C-88.71273437 54.08834961 -87.87419922 53.95428711 -87.01025391 53.81616211 C-86.13820312 53.66920898 -85.26615234 53.52225586 -84.36767578 53.37084961 C-83.49175781 53.23163086 -82.61583984 53.09241211 -81.71337891 52.94897461 C-77.18302642 52.30005906 -77.18302642 52.30005906 -72.93017578 50.74584961 C-72.93017578 43.48584961 -72.93017578 36.22584961 -72.93017578 28.74584961 C-77.14369783 28.74584961 -83.53816978 36.16397807 -86.55517578 38.99584961 Z M39.06982422 39.74584961 C39.84336812 44.19589991 41.14732054 48.44776218 42.50732422 52.74584961 C42.72453125 53.44452148 42.94173828 54.14319336 43.16552734 54.86303711 C43.7838058 56.8311307 44.4014794 58.79413667 45.06982422 60.74584961 C45.32006348 61.59501953 45.57030273 62.44418945 45.828125 63.3190918 C47.45457223 66.49779519 48.92281739 67.03446819 52.19091797 68.38647461 C53.20863281 68.81702148 54.22634766 69.24756836 55.27490234 69.69116211 C56.34160156 70.12170898 57.40830078 70.55225586 58.50732422 70.99584961 C60.10157227 71.66487305 60.10157227 71.66487305 61.72802734 72.34741211 C65.48233989 73.91467731 69.20953113 75.45908525 73.06982422 76.74584961 C71.54105045 64.25779397 62.41786599 54.51537774 53.06982422 46.74584961 C48.65565054 43.57561543 44.43687119 40.85585251 39.06982422 39.74584961 Z M-125.93017578 39.74584961 C-133.92324803 43.13015041 -139.80706009 47.63305958 -145.93017578 53.74584961 C-146.58115234 54.38522461 -147.23212891 55.02459961 -147.90283203 55.68334961 C-152.83723806 60.88887685 -156.45494602 67.00883311 -158.93017578 73.74584961 C-158.60017578 74.73584961 -158.27017578 75.72584961 -157.93017578 76.74584961 C-154.72089796 75.31045172 -151.51292785 73.87215356 -148.30517578 72.43334961 C-147.40154297 72.02922852 -146.49791016 71.62510742 -145.56689453 71.20874023 C-143.80308316 70.4169563 -142.04379757 69.61500101 -140.28955078 68.80224609 C-137.93017578 67.74584961 -137.93017578 67.74584961 -134.45361328 66.51147461 C-130.55731376 63.78527123 -130.16728795 60.30006503 -129.18017578 55.80834961 C-128.79299424 54.19423848 -128.40247664 52.5809232 -128.00830078 50.96850586 C-127.84749023 50.2544458 -127.68667969 49.54038574 -127.52099609 48.8046875 C-126.93017578 46.74584961 -126.93017578 46.74584961 -125.80029297 44.66943359 C-124.60168847 42.59946078 -124.60168847 42.59946078 -125.93017578 39.74584961 Z M-167.49267578 195.43334961 C-199.04587886 229.99728959 -210.03004775 274.35078454 -208.84423828 320.05834961 C-206.54438732 359.48436609 -186.31511819 397.20756595 -158.93017578 424.74584961 C-158.45644531 425.2236084 -157.98271484 425.70136719 -157.49462891 426.19360352 C-126.40515279 457.10183098 -83.19215838 472.01145374 -39.94555664 471.99487305 C6.20240511 471.32124321 46.85519297 451.16774548 78.94482422 418.87866211 C108.84332238 387.53620239 124.22033019 344.2856051 123.23388672 301.27319336 C121.67004314 254.1500334 101.39426881 213.58007296 67.38232422 181.18334961 C1.25439419 120.81557884 -99.76405013 129.27145787 -167.49267578 195.43334961 Z " fill="#FEAF37" transform="translate(298.93017578125,10.254150390625)"/>
<path d="M0 0 C5.46999035 4.53798297 10.44099112 9.39315765 15.3828125 14.49609375 C16.97711219 16.12248269 18.57218692 17.74811217 20.16796875 19.37304688 C22.66164389 21.91633879 25.1503781 24.46374253 27.62646484 27.02416992 C30.03162755 29.5077361 32.45520897 31.97198492 34.8828125 34.43359375 C35.62250275 35.20738876 36.36219299 35.98118378 37.1242981 36.77842712 C37.82207367 37.47988358 38.51984924 38.18134003 39.23876953 38.90405273 C40.14974899 39.83954201 40.14974899 39.83954201 41.07913208 40.79393005 C42.99067689 42.26517934 42.99067689 42.26517934 45.58981323 41.7613678 C48.1512704 40.95221432 50.33022913 39.91078411 52.6875 38.625 C69.4417049 30.0754278 90.3626302 28.43790298 108.32885742 34.02539062 C113.42175788 35.72495703 118.18695084 37.43033436 122.76953125 40.26171875 C125.67728051 42.2024363 125.67728051 42.2024363 127.94799805 41.84622192 C130.60952784 40.74863775 132.05847056 39.26594185 134.0625 37.19873047 C134.85011719 36.39474823 135.63773438 35.59076599 136.44921875 34.76242065 C137.29097656 33.88949371 138.13273438 33.01656677 139 32.1171875 C140.79141261 30.29271926 142.58308724 28.46850826 144.375 26.64453125 C147.19880751 23.75542272 150.01558103 20.85954393 152.828125 17.95947266 C155.53908083 15.16587211 158.26969752 12.39188386 161 9.6171875 C161.84175781 8.7402121 162.68351563 7.86323669 163.55078125 6.95968628 C164.33839844 6.16200836 165.12601563 5.36433044 165.9375 4.54248047 C166.62714844 3.83268036 167.31679688 3.12288025 168.02734375 2.39157104 C170 1 170 1 172.09887695 1.14627075 C190.15206497 9.25333918 205.92123651 38.62689524 212.94335938 56.38574219 C216.33824585 65.66734683 219.82831087 75.47125729 220.5625 85.375 C220.79707936 88.81924956 220.79707936 88.81924956 222 92 C225.07649514 131.75688472 213.24260792 167.51040392 187.6484375 197.78125 C175.44366056 211.70560032 158.15171998 225.79112925 140.28442383 231.60571289 C139.48023514 231.86888809 138.67604645 232.13206329 137.8474884 232.4032135 C137.23781723 232.60015305 136.62814606 232.79709259 136 233 C135.42387466 232.39056549 134.84774933 231.78113098 134.25416565 231.15322876 C128.77966479 225.37638176 123.26841961 219.63766993 117.71438694 213.93720436 C114.86105287 211.00604754 112.02314174 208.06286227 109.2175293 205.0859375 C106.50189709 202.20558452 103.74966958 199.36505947 100.96983147 196.54667282 C99.92354137 195.47296804 98.89038445 194.38627887 97.87201118 193.28606033 C90.65955214 185.5186791 84.64611462 182.6731881 74.04649353 182.26742554 C56.54201465 181.57056408 39.92915583 169.5142059 28.3125 157.25 C18.85196502 146.32116329 9.34197679 129.56660764 10.12768555 114.56152344 C10.28477437 108.90203674 9.11360777 105.54131116 5.27182007 101.29653931 C2.61035045 98.57246908 -0.14792427 95.96676441 -2.9375 93.375 C-4.07449825 92.27965657 -5.20928743 91.18201517 -6.34179688 90.08203125 C-11.26315593 84.9801659 -11.26315593 84.9801659 -17 81 C-17.144375 81.99 -17.28875 82.98 -17.4375 84 C-17.51871094 84.556875 -17.59992188 85.11375 -17.68359375 85.6875 C-17.78800781 86.450625 -17.89242187 87.21375 -18 88 C-18.17015625 89.18980469 -18.3403125 90.37960937 -18.515625 91.60546875 C-21.9150405 119.30606805 -15.32116632 147.31490593 1.1484375 169.953125 C4.23171072 173.87312292 7.43340913 177.51231601 11 181 C9.71001845 183.84194866 8.36362413 185.87811943 6.13671875 188.05859375 C5.57919922 188.60966797 5.02167969 189.16074219 4.44726562 189.72851562 C3.86654297 190.29248047 3.28582031 190.85644531 2.6875 191.4375 C2.11837891 191.99759766 1.54925781 192.55769531 0.96289062 193.13476562 C-0.15647409 194.23613825 -1.27768353 195.33563968 -2.40087891 196.43310547 C-4.6176732 198.60522543 -6.80955667 200.80133737 -9 203 C-24.69732355 196.6857957 -35.20742498 170.02027445 -41.53735352 155.24853516 C-44.67970315 147.65345136 -46.56727057 140.07220728 -48 132 C-48.16846436 131.21125488 -48.33692871 130.42250977 -48.51049805 129.60986328 C-50.03300514 122.16483751 -50.34834803 114.96231246 -50.3125 107.375 C-50.30758545 106.14168945 -50.3026709 104.90837891 -50.29760742 103.63769531 C-49.76262522 61.79385667 -28.79714177 28.58414516 0 0 Z " fill="#FEB039" transform="translate(170,209)"/>
<path d="M0 0 C0 29.7 0 59.4 0 90 C-17.325 91.485 -17.325 91.485 -35 93 C-45.06396467 94.79448087 -45.06396467 94.79448087 -55 97 C-54.63648438 98.11242065 -54.63648438 98.11242065 -54.265625 99.24731445 C-53.17254457 102.60091674 -52.08619781 105.95666252 -51 109.3125 C-50.6184375 110.47974609 -50.236875 111.64699219 -49.84375 112.84960938 C-49.30234375 114.52700195 -49.30234375 114.52700195 -48.75 116.23828125 C-48.41484375 117.26993408 -48.0796875 118.30158691 -47.734375 119.36450195 C-47 122 -47 122 -47 125 C-46.37544922 124.88406494 -45.75089844 124.76812988 -45.10742188 124.64868164 C-42.23871727 124.11756784 -39.36936915 123.59001125 -36.5 123.0625 C-35.51773438 122.88009766 -34.53546875 122.69769531 -33.5234375 122.50976562 C-24.95437089 120.93877008 -16.72481735 119.84000155 -8 119.9375 C-5.36 119.958125 -2.72 119.97875 0 120 C0 129.9 0 139.8 0 150 C-5.32125 150.433125 -5.32125 150.433125 -10.75 150.875 C-56.01219063 154.78713112 -96.18917973 174.74067713 -126.5 208.9375 C-155.67588342 244.67795718 -167.41577233 287.42604585 -164.75 333.125 C-160.45379431 375.49036167 -138.63349996 414.55667938 -107.02734375 442.53515625 C-75.51580787 468.19164547 -39.95082437 478.74818871 0 482 C0 491.9 0 501.8 0 512 C-48.71310973 513.43273852 -96.93351138 494.48394121 -132.55273438 461.23388672 C-133.54447047 460.29590767 -134.53373089 459.3553042 -135.52050781 458.41210938 C-136.5016484 457.4756544 -137.48795247 456.54457769 -138.47949219 455.61914062 C-162.74222303 432.93980487 -179.66673832 402.68932828 -189 371 C-189.56654297 369.14375 -189.56654297 369.14375 -190.14453125 367.25 C-191.21801869 363.51892754 -192.1420622 359.78636549 -193 356 C-193.15098145 355.35659668 -193.30196289 354.71319336 -193.45751953 354.05029297 C-199.2233965 328.28111466 -198.24511475 297.52227261 -192 272 C-191.78569336 271.1037793 -191.57138672 270.20755859 -191.35058594 269.28417969 C-182.06312731 231.49895864 -161.77428369 199.8638194 -134.625 172.5 C-134.13725098 172.00749756 -133.64950195 171.51499512 -133.14697266 171.00756836 C-130.24728875 168.12134122 -127.23958501 165.49742553 -124 163 C-125.55155355 158.49315738 -128.0046391 154.76953199 -130.68359375 150.87109375 C-131.13976578 150.19957779 -131.59593781 149.52806183 -132.06593323 148.8361969 C-133.51868714 146.70023781 -134.97809574 144.56891909 -136.4375 142.4375 C-137.41512931 141.00093389 -138.39234717 139.5640877 -139.36914062 138.12695312 C-143.80941256 131.35357824 -143.80941256 131.35357824 -148.77172852 124.98291016 C-150.56907718 122.08128705 -150.42318492 119.66715811 -150.46875 116.27734375 C-150.47853882 115.62395523 -150.48832764 114.97056671 -150.49841309 114.29737854 C-150.52011976 112.17688469 -150.51383794 110.05804565 -150.5 107.9375 C-150.49790527 107.2151416 -150.49581055 106.4927832 -150.49365234 105.74853516 C-150.34114815 80.32552157 -142.05000316 58.75369863 -124.41015625 40.2890625 C-106.67179833 23.35817756 -85.64635954 15.18664836 -61.25 14.6875 C-53.86801059 14.5076808 -48.54162687 14.31693651 -42.51171875 9.69140625 C-36.74367989 5.80717479 -29.59268704 4.06687789 -23 2 C-22.14148438 1.72929687 -21.28296875 1.45859375 -20.3984375 1.1796875 C-13.47785943 -0.66061603 -7.49687037 0 0 0 Z M-43.625 49.25 C-47.87685148 53.60142646 -50.90405661 58.79618026 -54 64 C-50.90081909 65.0330603 -49.74762563 64.98392245 -46.62109375 64.4765625 C-45.78255859 64.3425 -44.94402344 64.2084375 -44.08007812 64.0703125 C-43.20802734 63.92335938 -42.33597656 63.77640625 -41.4375 63.625 C-40.56158203 63.48578125 -39.68566406 63.3465625 -38.78320312 63.203125 C-34.25285064 62.55420945 -34.25285064 62.55420945 -30 61 C-30 53.74 -30 46.48 -30 39 C-34.21352204 39 -40.607994 46.41812846 -43.625 49.25 Z M-83 50 C-90.99307225 53.3843008 -96.87688431 57.88720997 -103 64 C-103.65097656 64.639375 -104.30195313 65.27875 -104.97265625 65.9375 C-109.90706228 71.14302724 -113.52477024 77.2629835 -116 84 C-115.67 84.99 -115.34 85.98 -115 87 C-111.79072218 85.56460211 -108.58275207 84.12630395 -105.375 82.6875 C-104.47136719 82.28337891 -103.56773437 81.87925781 -102.63671875 81.46289062 C-100.87290738 80.67110669 -99.11362179 79.8691514 -97.359375 79.05639648 C-95 78 -95 78 -91.5234375 76.765625 C-87.62713798 74.03942162 -87.23711216 70.55421542 -86.25 66.0625 C-85.86281846 64.44838887 -85.47230086 62.83507359 -85.078125 61.22265625 C-84.91731445 60.50859619 -84.75650391 59.79453613 -84.59082031 59.05883789 C-84 57 -84 57 -82.87011719 54.92358398 C-81.67151269 52.85361117 -81.67151269 52.85361117 -83 50 Z " fill="#FFD137" transform="translate(256,0)"/>
<path d="M0 0 C46.71480826 0 87.59204401 18.9489526 120.4609375 51.44433594 C151.35948002 82.53492741 166.26560168 125.74441442 166.24902344 168.98461914 C165.5753936 215.1325809 145.42189587 255.78536876 113.1328125 287.875 C82.82642799 316.78515542 41.56992676 332 0 332 C0 302.3 0 272.6 0 242 C4.10338418 245.51718644 7.96284248 248.83810314 11.74194336 252.62841797 C13.03248878 253.91907669 13.03248878 253.91907669 14.34910583 255.23580933 C15.25354935 256.14541412 16.15799286 257.05501892 17.08984375 257.9921875 C18.04368954 258.94790248 18.99775941 259.90339388 19.95204163 260.8586731 C22.44153194 263.35194916 24.92800224 265.84821525 27.41381836 268.34515381 C29.95957994 270.90121509 32.50823777 273.45438505 35.05664062 276.0078125 C40.04057069 281.00241019 45.02131048 286.00017799 50 291 C51.41942367 290.54329025 52.83744608 290.08222434 54.25488281 289.61938477 C55.04469543 289.36310806 55.83450806 289.10683136 56.64825439 288.8427887 C60.2243746 287.5612242 63.4617543 285.8241029 66.75 283.9375 C67.43465332 283.54755859 68.11930664 283.15761719 68.82470703 282.75585938 C75.69796176 278.74446784 81.89199836 274.08462933 88 269 C89.34191406 267.88818359 89.34191406 267.88818359 90.7109375 266.75390625 C115.34061386 245.49660096 132.03664535 212.36268415 135 180 C136.68600605 164.0412831 136.68600605 164.0412831 134 149 C133.72815035 146.96112763 133.48276799 144.91870297 133.25 142.875 C128.72117201 110.13325097 109.80003717 83.80003717 87 61 C83.25198294 61.27512362 81.4836272 63.17977367 78.95336914 65.80126953 C78.16897964 66.60525177 77.38459015 67.40923401 76.57643127 68.23757935 C75.73781052 69.11050629 74.89918976 69.98343323 74.03515625 70.8828125 C72.24846007 72.70743595 70.46133765 74.5316421 68.67382812 76.35546875 C65.85906051 79.24484703 63.04862722 82.13811182 60.24731445 85.04052734 C57.54659131 87.8369066 54.82211898 90.60955441 52.09765625 93.3828125 C51.26105972 94.2597879 50.4244632 95.13676331 49.56251526 96.04031372 C48.7749736 96.83799164 47.98743195 97.63566956 47.17602539 98.45751953 C46.14488365 99.5222197 46.14488365 99.5222197 45.09291077 100.60842896 C43 102 43 102 40.37767029 101.78707886 C37.90124999 100.96731084 35.78181529 99.9495314 33.5 98.6875 C24.52587151 94.09391791 15.52571668 91.64798939 5.4609375 91.17578125 C3 91 3 91 0 90 C0 60.3 0 30.6 0 0 Z " fill="#EEF5F7" transform="translate(256,150)"/>
<path d="M0 0 C5.46999035 4.53798297 10.44099112 9.39315765 15.3828125 14.49609375 C16.97711219 16.12248269 18.57218692 17.74811217 20.16796875 19.37304688 C22.66164389 21.91633879 25.1503781 24.46374253 27.62646484 27.02416992 C30.03162755 29.5077361 32.45520897 31.97198492 34.8828125 34.43359375 C35.62250275 35.20738876 36.36219299 35.98118378 37.1242981 36.77842712 C37.82207367 37.47988358 38.51984924 38.18134003 39.23876953 38.90405273 C40.14974899 39.83954201 40.14974899 39.83954201 41.07913208 40.79393005 C42.99067689 42.26517934 42.99067689 42.26517934 45.58981323 41.7613678 C48.1512704 40.95221432 50.33022913 39.91078411 52.6875 38.625 C63.5252471 33.11885323 74.01316737 32.16290167 86 31 C86 40.9 86 50.8 86 61 C89.63 61.33 93.26 61.66 97 62 C101.6875 63.5625 101.6875 63.5625 105 65 C103.61403133 68.13405668 102.00928844 70.21834182 99.55859375 72.6015625 C98.55989258 73.58382812 98.55989258 73.58382812 97.54101562 74.5859375 C96.84685547 75.25882812 96.15269531 75.93171875 95.4375 76.625 C94.05901463 77.96911869 92.68260599 79.31537153 91.30859375 80.6640625 C90.69814209 81.25654785 90.08769043 81.8490332 89.45874023 82.45947266 C86.03382341 86.0764141 86.77210434 90.46908092 86.68359375 95.1640625 C86.6524221 96.52487442 86.6524221 96.52487442 86.62062073 97.91317749 C86.55512865 100.8170398 86.49624186 103.72099405 86.4375 106.625 C86.39431445 108.59115542 86.35070015 110.55730147 86.30664062 112.5234375 C86.19944761 117.34886362 86.09817919 122.1743824 86 127 C82.82561707 125.59832763 80.70601641 123.94624673 78.27294922 121.48413086 C77.55895966 120.76676254 76.84497009 120.04939423 76.10934448 119.31028748 C75.34880768 118.53629105 74.58827087 117.76229462 73.8046875 116.96484375 C73.01603302 116.1709877 72.22737854 115.37713165 71.41482544 114.55921936 C68.89676055 112.0233426 66.38548213 109.48088208 63.875 106.9375 C61.35651636 104.39142771 58.83660341 101.84681279 56.31375122 99.30506897 C54.74399988 97.72303024 53.17692895 96.13832669 51.61276245 94.55076599 C50.90507721 93.83654984 50.19739197 93.12233368 49.46826172 92.38647461 C48.84523163 91.7551915 48.22220154 91.12390839 47.58029175 90.47349548 C46.04952185 88.90689521 46.04952185 88.90689521 44 88 C39.40236529 100.91716419 39.42081803 113.21837833 44.4921875 125.92578125 C46.22853393 129.46594871 48.19779125 132.46444293 50.765625 135.44921875 C52 137 52 137 53 140 C54.81623152 141.03113783 54.81623152 141.03113783 57 142 C58.60416667 143.14583333 60.20833333 144.29166667 61.8125 145.4375 C72.17984592 152.10817834 84.93679932 153.42630142 96.8125 150.875 C103.35209809 149.13221371 110.94725926 146.42763873 115.55859375 141.25 C116.03425781 140.8375 116.50992188 140.425 117 140 C122.74984514 140.56463417 126.47074829 145.95880811 130.3125 149.8125 C131.16134766 150.63298828 132.01019531 151.45347656 132.88476562 152.29882812 C133.68205078 153.09353516 134.47933594 153.88824219 135.30078125 154.70703125 C136.03466064 155.4338208 136.76854004 156.16061035 137.5246582 156.90942383 C139 159 139 159 138.84326172 161.14990234 C134.71530817 170.20654161 120.67010816 175.47541339 111.92041016 178.78710938 C92.64452591 185.59602558 72.60852783 184.82159922 53.86328125 176.4296875 C32.78782983 165.90633795 19.42090591 149.11372657 12 127 C10.81074299 122.86802331 9.88971951 118.90306012 10.13989258 114.5859375 C10.2870189 108.91916662 9.11925024 105.54678537 5.27154541 101.29598999 C2.6099897 98.5722925 -0.14807286 95.96662636 -2.9375 93.375 C-4.07449825 92.27965657 -5.20928743 91.18201517 -6.34179688 90.08203125 C-11.26315593 84.9801659 -11.26315593 84.9801659 -17 81 C-17.144375 81.99 -17.28875 82.98 -17.4375 84 C-17.51871094 84.556875 -17.59992188 85.11375 -17.68359375 85.6875 C-17.78800781 86.450625 -17.89242187 87.21375 -18 88 C-18.17015625 89.18980469 -18.3403125 90.37960937 -18.515625 91.60546875 C-21.9150405 119.30606805 -15.32116632 147.31490593 1.1484375 169.953125 C4.23171072 173.87312292 7.43340913 177.51231601 11 181 C9.71001845 183.84194866 8.36362413 185.87811943 6.13671875 188.05859375 C5.57919922 188.60966797 5.02167969 189.16074219 4.44726562 189.72851562 C3.86654297 190.29248047 3.28582031 190.85644531 2.6875 191.4375 C2.11837891 191.99759766 1.54925781 192.55769531 0.96289062 193.13476562 C-0.15647409 194.23613825 -1.27768353 195.33563968 -2.40087891 196.43310547 C-4.6176732 198.60522543 -6.80955667 200.80133737 -9 203 C-24.69732355 196.6857957 -35.20742498 170.02027445 -41.53735352 155.24853516 C-44.67970315 147.65345136 -46.56727057 140.07220728 -48 132 C-48.16846436 131.21125488 -48.33692871 130.42250977 -48.51049805 129.60986328 C-50.03300514 122.16483751 -50.34834803 114.96231246 -50.3125 107.375 C-50.30758545 106.14168945 -50.3026709 104.90837891 -50.29760742 103.63769531 C-49.76262522 61.79385667 -28.79714177 28.58414516 0 0 Z " fill="#FED238" transform="translate(170,209)"/>
<path d="M0 0 C3.22745524 1.41901662 5.37258107 3.12855765 7.85058594 5.62353516 C8.59105164 6.36415192 9.33151733 7.10476868 10.09442139 7.86782837 C10.88310608 8.66683563 11.67179077 9.4658429 12.484375 10.2890625 C13.29996887 11.10748627 14.11556274 11.92591003 14.95587158 12.76913452 C17.55864562 15.38309973 20.15437762 18.00393505 22.75 20.625 C24.5138634 22.39889454 26.2781809 24.17233766 28.04296875 25.9453125 C32.36726136 30.29165142 36.6857933 34.64365081 41 39 C44.42482707 37.38223883 46.65690522 35.57656756 49.328125 32.8671875 C50.52695312 31.65869141 50.52695312 31.65869141 51.75 30.42578125 C52.575 29.58402344 53.4 28.74226563 54.25 27.875 C55.09046875 27.02550781 55.9309375 26.17601562 56.796875 25.30078125 C58.86915683 23.20495077 60.93662393 21.10459287 63 19 C67.53520306 22.79698509 71.86013997 26.71711354 76.02709961 30.91357422 C76.58407532 31.4704039 77.14105103 32.02723358 77.71490479 32.60093689 C79.52976899 34.41649 81.34107911 36.23554394 83.15234375 38.0546875 C84.42007374 39.32428531 85.68802673 40.59366048 86.95619202 41.86282349 C90.27424776 45.18467574 93.58928789 48.50952133 96.90368652 51.83502197 C100.29398355 55.23559509 103.68715506 58.63329737 107.08007812 62.03125 C113.72285162 68.68471019 120.36243946 75.34133959 127 82 C124.31072073 86.14884537 121.60133581 89.5987384 118 93 C119.41838759 96.22584678 121.13175184 98.37805172 123.625 100.85546875 C124.33140625 101.55994141 125.0378125 102.26441406 125.765625 102.99023438 C126.50296875 103.71533203 127.2403125 104.44042969 128 105.1875 C128.73734375 105.92419922 129.4746875 106.66089844 130.234375 107.41992188 C133.78710639 111.15260044 133.78710639 111.15260044 138 114 C134.2202517 125.33924491 114.50325434 134.4993259 104.44921875 140.30859375 C101.69914369 141.65715831 99.17765669 142.66416335 96.28442383 143.60571289 C95.48023514 143.86888809 94.67604645 144.13206329 93.8474884 144.4032135 C93.23781723 144.60015305 92.62814606 144.79709259 92 145 C85.60826963 138.63139084 79.21920707 132.26012102 72.83358002 125.88539219 C69.86872568 122.92576717 66.90294388 119.96708389 63.93505859 117.01049805 C61.07350384 114.15977045 58.21436463 111.3066411 55.35691833 108.45179558 C54.26369271 107.36042452 53.16958417 106.26993717 52.07460022 105.18033028 C50.54676915 103.65970736 49.02204459 102.13603562 47.49804688 100.61157227 C46.62756714 99.74331314 45.7570874 98.87505402 44.86022949 97.98048401 C43 96 43 96 43 95 C44.20269531 94.88785156 44.20269531 94.88785156 45.4296875 94.7734375 C63.62045983 92.66974274 80.33721729 86.49168705 94 74 C93.12102533 68.3378786 88.57718698 65.06440247 84.6875 61.1875 C83.52831055 59.98577148 83.52831055 59.98577148 82.34570312 58.75976562 C81.59611328 58.00759766 80.84652344 57.25542969 80.07421875 56.48046875 C79.38932373 55.78848389 78.70442871 55.09649902 77.9987793 54.38354492 C76.10992213 52.75847059 76.10992213 52.75847059 73.86865234 53.203125 C71.63996435 54.15353493 69.88690035 55.37322311 67.9375 56.8125 C56.71930849 64.52616556 44.85872519 66.11710376 31.6875 63.9375 C22.15386335 62.08149863 14.38213471 57.32068393 8 50 C7.175 49.113125 6.35 48.22625 5.5 47.3125 C-2.64596494 37.34204449 -4.91647543 25.55610005 -4.22167969 12.97851562 C-3.70453616 8.36295266 -1.97643664 4.16463436 0 0 Z " fill="#025E82" transform="translate(214,297)"/>
<path d="M0 0 C1.52680936 2.18028377 2.90363415 4.33559231 4.25 6.625 C4.65114014 7.30433594 5.05228027 7.98367188 5.46557617 8.68359375 C19.54707764 33.02491839 24.16867678 61.14564592 17.2578125 88.5703125 C13.75878509 101.28547866 8.86097181 117.85427114 -2 126 C-22.46 105.54 -42.92 85.08 -64 64 C-61.94462269 59.88924537 -59.50117133 57.21882644 -56.296875 54.03808594 C-55.42343445 53.15938843 -55.42343445 53.15938843 -54.53234863 52.26293945 C-52.6098942 50.33169543 -50.68023189 48.40784337 -48.75 46.484375 C-47.41214187 45.14516979 -46.07458076 43.80566779 -44.73730469 42.46588135 C-41.93618463 39.66181409 -39.13148185 36.86139336 -36.32421875 34.06347656 C-32.71912923 30.46980329 -29.12312101 26.86719749 -25.52972412 23.26183701 C-22.77105754 20.49595976 -20.00766543 17.73484361 -17.24279785 14.97516632 C-15.91439817 13.64810419 -14.58749189 12.31954547 -13.26208496 10.98949432 C-11.41388198 9.1362368 -9.55943234 7.28947076 -7.703125 5.44433594 C-7.15241333 4.88957581 -6.60170166 4.33481567 -6.03430176 3.76324463 C-2.22853116 0 -2.22853116 0 0 0 Z " fill="#EFF5F8" transform="translate(342,253)"/>
<path d="M0 0 C0.70761475 0.144375 1.41522949 0.28875 2.14428711 0.4375 C4.03515625 1 4.03515625 1 7.03515625 3 C4.06515625 11.91 1.09515625 20.82 -1.96484375 30 C-13.61955237 28.94048103 -13.61955237 28.94048103 -18.95751953 27.84399414 C-41.62464652 23.39238215 -66.18432788 24.95650486 -88.6418457 29.6328125 C-91.11791057 30.02419469 -93.46214686 30.06214434 -95.96484375 30 C-97.30799879 26.08663207 -98.63765047 22.16880718 -99.96484375 18.25 C-100.34640625 17.13882813 -100.72796875 16.02765625 -101.12109375 14.8828125 C-101.48203125 13.81289062 -101.84296875 12.74296875 -102.21484375 11.640625 C-102.55 10.65610352 -102.88515625 9.67158203 -103.23046875 8.65722656 C-103.96484375 6 -103.96484375 6 -103.96484375 2 C-70.58816302 -8.69139204 -33.93516461 -6.96632337 0 0 Z " fill="#FF0121" transform="translate(304.96484375,95)"/>
<path d="M0 0 C7.99344377 3.6128524 14.26751563 11.04230609 20.53710938 17.01293945 C22.32913693 18.69707766 24.14483049 20.35642238 25.984375 21.98852539 C42.06729299 36.29203817 42.06729299 36.29203817 43.16992188 46.85498047 C43.35597848 52.96411542 42.91198915 58.96005952 42 65 C32.65414336 64.09176395 25.06600995 63.15368069 17 58 C16.28199219 57.54496094 15.56398437 57.08992188 14.82421875 56.62109375 C4.81302512 49.70186952 -1.19512167 38.67871906 -4 27 C-4.86949882 17.17264126 -4.27610844 9.01037135 0 0 Z " fill="#027CA8" transform="translate(214,297)"/>
<path d="M0 0 C0 9.9 0 19.8 0 30 C-3.774375 30.268125 -7.54875 30.53625 -11.4375 30.8125 C-19.98602983 31.45686155 -28.37574523 32.34126934 -36.78295898 34.03442383 C-40.26489442 34.7342312 -43.45495609 35.05664216 -47 35 C-48.34315504 31.08663207 -49.67280672 27.16880718 -51 23.25 C-51.3815625 22.13882813 -51.763125 21.02765625 -52.15625 19.8828125 C-52.5171875 18.81289062 -52.878125 17.74296875 -53.25 16.640625 C-53.58515625 15.65610352 -53.9203125 14.67158203 -54.265625 13.65722656 C-55 11 -55 11 -55 7 C-45.93283722 4.09555924 -36.94433191 2.40498016 -27.5 1.25 C-26.49332275 1.12262451 -25.48664551 0.99524902 -24.44946289 0.86401367 C-16.15681985 -0.08533263 -8.48829033 0 0 0 Z " fill="#FF4C37" transform="translate(256,90)"/>
<path d="M0 0 C5.74948038 0.56344753 9.47124255 5.95930391 13.3125 9.8125 C14.16134766 10.63298828 15.01019531 11.45347656 15.88476562 12.29882812 C16.68205078 13.09353516 17.47933594 13.88824219 18.30078125 14.70703125 C19.03466064 15.4338208 19.76854004 16.16061035 20.5246582 16.90942383 C22 19 22 19 21.84326172 21.14990234 C18.01947242 29.53921193 5.07203091 34.82578108 -3 38 C-6.05659868 39.08148312 -9.13508304 40.03874106 -12.25 40.9375 C-13.32991211 41.25497192 -13.32991211 41.25497192 -14.43164062 41.57885742 C-20.34827436 43.15963229 -24.50045837 43 -31 43 C-31 33.1 -31 23.2 -31 13 C-28.421875 12.46375 -25.84375 11.9275 -23.1875 11.375 C-15.46903323 9.64705127 -6.88282803 7.40513738 -1.4609375 1.25390625 C-0.73777344 0.63322266 -0.73777344 0.63322266 0 0 Z " fill="#FAAE38" transform="translate(287,349)"/>
<path d="M0 0 C5.42470341 2.36386722 9.1600869 6.71170975 13.3125 10.8125 C14.16134766 11.62009766 15.01019531 12.42769531 15.88476562 13.25976562 C16.68205078 14.04673828 17.47933594 14.83371094 18.30078125 15.64453125 C19.40160034 16.71731323 19.40160034 16.71731323 20.5246582 17.81176758 C22 20 22 20 21.81274414 22.59960938 C20.84018181 25.47201335 19.55925001 28.01522821 18.125 30.6875 C12.91633268 40.93038166 11.28125322 50.69482449 10 62 C4.13551362 57.07574378 -1.4820384 51.93426411 -7 46.625 C-7.88300781 45.81289063 -8.76601562 45.00078125 -9.67578125 44.1640625 C-15.72938346 38.28933811 -15.72938346 38.28933811 -16.44360352 34.88647461 C-16.24047116 32.73672254 -15.76363873 31.01756531 -15 29 C-14.78714355 28.36868164 -14.57428711 27.73736328 -14.35498047 27.08691406 C-13.63047244 25.1162925 -12.80872294 23.22255304 -11.9375 21.3125 C-11.63384521 20.63058594 -11.33019043 19.94867188 -11.01733398 19.24609375 C-7.91226045 12.46737881 -4.10037009 6.21978216 0 0 Z " fill="#027CA9" transform="translate(170,253)"/>
<path d="M0 0 C1.18847656 2.37670898 1.18847656 2.37670898 2.140625 5.49609375 C2.48867187 6.61177734 2.83671875 7.72746094 3.1953125 8.87695312 C3.54335937 10.05193359 3.89140625 11.22691406 4.25 12.4375 C4.61351562 13.60861328 4.97703125 14.77972656 5.3515625 15.98632812 C8 24.61366306 8 24.61366306 8 27 C4.73408178 28.67643038 1.46150893 30.33943344 -1.8125 32 C-3.2056543 32.71542969 -3.2056543 32.71542969 -4.62695312 33.4453125 C-5.51962891 33.89648438 -6.41230469 34.34765625 -7.33203125 34.8125 C-8.15421143 35.23144531 -8.9763916 35.65039062 -9.82348633 36.08203125 C-12 37 -12 37 -15 37 C-16.7633487 34.67775942 -18.32994073 32.39892325 -19.875 29.9375 C-20.72537908 28.61252098 -21.57693896 27.28829905 -22.4296875 25.96484375 C-23.05568848 24.97653564 -23.05568848 24.97653564 -23.69433594 23.96826172 C-25.00784177 21.9881787 -26.43037831 20.1334384 -27.8828125 18.25390625 C-30 15 -30 15 -29.83740234 12.92163086 C-28.35325821 9.51588786 -24.71529515 8.48406552 -21.5 7 C-20.77329102 6.65332275 -20.04658203 6.30664551 -19.29785156 5.94946289 C-17.85591903 5.26468971 -16.41097502 4.58621686 -14.96289062 3.91455078 C-13.32427454 3.15108612 -11.69933257 2.35836059 -10.078125 1.55859375 C-9.30984375 1.18863281 -8.5415625 0.81867188 -7.75 0.4375 C-7.10546875 0.12683594 -6.4609375 -0.18382813 -5.796875 -0.50390625 C-3.39443996 -1.16718723 -2.2941641 -0.99247534 0 0 Z " fill="#FF4D37" transform="translate(173,108)"/>
<path d="M0 0 C6.04863501 0.78967551 11.29936582 3.7276287 16.75 6.3125 C18.34908203 7.04243164 18.34908203 7.04243164 19.98046875 7.78710938 C20.99238281 8.26599609 22.00429688 8.74488281 23.046875 9.23828125 C23.97338867 9.67180908 24.89990234 10.10533691 25.85449219 10.55200195 C28 12 28 12 28.95874023 13.92895508 C29.01323405 16.66428676 28.23065441 17.70935304 26.61328125 19.8984375 C25.8234082 20.98898438 25.8234082 20.98898438 25.01757812 22.1015625 C24.45490234 22.85179687 23.89222656 23.60203125 23.3125 24.375 C22.22468176 25.86155589 21.13743144 27.34852756 20.05078125 28.8359375 C19.5295166 29.54202148 19.00825195 30.24810547 18.47119141 30.97558594 C16.56409625 33.59981977 14.77230563 36.28332714 13 39 C9.89399665 37.54555549 6.79052979 36.08577648 3.6875 34.625 C2.36588867 34.00625 2.36588867 34.00625 1.01757812 33.375 C0.17001953 32.97539062 -0.67753906 32.57578125 -1.55078125 32.1640625 C-2.33106689 31.79748535 -3.11135254 31.4309082 -3.9152832 31.05322266 C-6 30 -6 30 -9 28 C-7.28246085 21.40911806 -5.39001296 14.88021736 -3.375 8.375 C-3.15690674 7.66408203 -2.93881348 6.95316406 -2.71411133 6.22070312 C-1.11975531 1.11975531 -1.11975531 1.11975531 0 0 Z " fill="#FF0221" transform="translate(340,107)"/>
<path d="M0 0 C-1.4264578 3.2586636 -3.16704162 5.4024854 -5.6953125 7.890625 C-6.41074219 8.59960938 -7.12617188 9.30859375 -7.86328125 10.0390625 C-8.60964844 10.76867187 -9.35601562 11.49828125 -10.125 12.25 C-11.25615234 13.36761719 -11.25615234 13.36761719 -12.41015625 14.5078125 C-14.26900772 16.3431342 -16.13237005 18.1736191 -18 20 C-21.13405668 18.61403133 -23.21834182 17.00928844 -25.6015625 14.55859375 C-26.25640625 13.89279297 -26.91125 13.22699219 -27.5859375 12.54101562 C-28.25882813 11.84685547 -28.93171875 11.15269531 -29.625 10.4375 C-30.96911869 9.05901463 -32.31537153 7.68260599 -33.6640625 6.30859375 C-34.25654785 5.69814209 -34.8490332 5.08769043 -35.45947266 4.45874023 C-36.95434048 2.90189218 -36.95434048 2.90189218 -39 2 C-39 1.34 -39 0.68 -39 0 C-25.27633453 -5.63022173 -13.81516448 -5.14052632 0 0 Z " fill="#FFFDFA" transform="translate(275,274)"/>
<path d="M0 0 C12.375 1.125 12.375 1.125 19 4 C17.576445 7.24276727 15.84528935 9.40093304 13.33984375 11.890625 C12.62892578 12.59960938 11.91800781 13.30859375 11.18554688 14.0390625 C10.44369141 14.76867187 9.70183594 15.49828125 8.9375 16.25 C8.19177734 16.99507813 7.44605469 17.74015625 6.67773438 18.5078125 C1.14028159 24 1.14028159 24 0 24 C0 16.08 0 8.16 0 0 Z " fill="#EFF5F7" transform="translate(256,270)"/>
</svg>
