<?xml version="1.0" encoding="UTF-8"?>
<svg version="1.1" xmlns="http://www.w3.org/2000/svg" width="512" height="512">
<path d="M0 0 C26.07 0 52.14 0 79 0 C79.99 7.59 80.98 15.18 82 23 C88.93 23 95.86 23 103 23 C103.25523437 25.22943359 103.25523437 25.22943359 103.515625 27.50390625 C106.24399876 50.40611752 111.93911887 70.3056498 124 90 C124.57621094 91.06347656 124.57621094 91.06347656 125.1640625 92.1484375 C128.89126926 98.43632065 135.77763963 101.59134658 142 105 C143.13308594 105.62261719 144.26617187 106.24523437 145.43359375 106.88671875 C163.54226646 116.36242604 181.84227969 120.03087883 202 121 C202 128.26 202 135.52 202 143 C203.753125 143.144375 205.50625 143.28875 207.3125 143.4375 C213.21218315 143.92335626 219.10386992 144.46398817 225 145 C225 171.07 225 197.14 225 224 C201.62027491 224 201.62027491 224 192.75 222.4375 C191.71262695 222.26114014 190.67525391 222.08478027 189.60644531 221.90307617 C161.14496151 216.77028969 133.96306115 205.88252004 110.22070312 189.328125 C109.62082581 188.91127441 109.02094849 188.49442383 108.40289307 188.06494141 C106.93452308 187.04435664 105.46715895 186.02232494 104 185 C104.00276538 185.93923656 104.00553076 186.87847311 104.00837994 187.84617138 C104.07522049 210.78612949 104.12439143 233.72607484 104.15543652 256.66611004 C104.17085186 267.76010809 104.19183838 278.85404151 104.22631836 289.94799805 C104.25638508 299.62666983 104.27561367 309.30529475 104.28226548 318.98401195 C104.28614872 324.1004761 104.29516125 329.21680629 104.31719017 334.33322716 C104.33782946 339.16689048 104.34377953 344.000367 104.33932304 348.83407021 C104.34013617 350.59101 104.34593607 352.34795725 104.35761642 354.1048584 C104.45950504 370.2472354 103.3013731 386.87330665 98.25 402.3125 C97.99395996 403.12605957 97.73791992 403.93961914 97.47412109 404.77783203 C84.63739461 444.3867548 56.74264618 475.78594093 19.99658203 494.99951172 C9.22601417 500.39664881 -2.34052889 504.07112805 -14 507 C-14.97718994 507.24991699 -14.97718994 507.24991699 -15.97412109 507.50488281 C-36.77536724 512.55235927 -62.27717376 512.16287894 -83 507 C-83.79132324 506.81727539 -84.58264648 506.63455078 -85.39794922 506.44628906 C-115.907015 499.29049432 -143.32247423 482.78428815 -164.02416992 459.29589844 C-167.79561325 455.06876513 -171.96839256 451.62983049 -176.390625 448.11328125 C-204.92804258 425.00139066 -221.35958044 387.31389167 -225.43334961 351.52783203 C-228.05648048 325.50707559 -223.88088858 298.8035591 -213 275 C-212.71817871 274.36819824 -212.43635742 273.73639648 -212.14599609 273.08544922 C-204.57440308 256.26572603 -193.84834368 242.13093188 -181 229 C-180.38898438 228.33871094 -179.77796875 227.67742187 -179.1484375 226.99609375 C-153.06087388 199.30215305 -113.19295177 186.68894562 -76.23828125 184.80859375 C-67.34058502 184.65640966 -58.7952357 185.76558095 -50 187 C-50 193.93 -50 200.86 -50 208 C-43.59834046 208.28852866 -43.59834046 208.28852866 -37.19628906 208.56811523 C-36.39416992 208.60622314 -35.59205078 208.64433105 -34.765625 208.68359375 C-33.54020996 208.73858032 -33.54020996 208.73858032 -32.29003906 208.79467773 C-30 209 -30 209 -26 210 C-26 236.73 -26 263.46 -26 291 C-34 290 -34 290 -36.9765625 289.45703125 C-55.60474379 286.64114338 -74.2324364 290.70417121 -90 301 C-94.38046268 304.28957993 -98.20860792 308.05910508 -102 312 C-102.59039062 312.57105469 -103.18078125 313.14210938 -103.7890625 313.73046875 C-116.0234891 326.45558091 -120.6630004 344.84356345 -120.47314453 361.98754883 C-120.038962 373.50042669 -116.68346078 383.59790981 -111.171875 393.70703125 C-110 396 -110 396 -110 398 C-108.824375 398.37125 -108.824375 398.37125 -107.625 398.75 C-105.70693721 399.41140096 -103.79109339 400.09297927 -101.9375 400.91796875 C-83.46608901 409.06161447 -64.24477665 408.46119016 -45.375 401.875 C-27.09196322 394.37311513 -13.73286621 380.026567 -6.14364624 361.9234314 C-1.4143092 349.83412274 -1.54188557 338.05925836 -1.5234375 325.2734375 C-1.50925242 322.99454461 -1.49378989 320.7156594 -1.47718811 318.43678284 C-1.43483315 312.09452668 -1.41104444 305.7523123 -1.39014816 299.40995407 C-1.36855133 293.27847268 -1.33030188 287.14708381 -1.29401958 281.01567543 C-1.21534475 267.60799612 -1.15289604 254.20027276 -1.09716797 240.79248047 C-1.02752436 224.04407224 -0.94987442 207.29571459 -0.86767578 190.54736328 C-0.85579741 188.12310156 -0.84391972 185.69883983 -0.83204269 183.27457809 C-0.81391452 179.57582955 -0.79578168 175.87708102 -0.77763486 172.17833257 C-0.49625829 114.78564885 -0.24257205 57.39285943 0 0 Z " fill="#000000" transform="translate(255,1)"/>
<path d="M0 0 C7.66901513 0.63908459 15.33600664 1.30327333 23 2 C23 28.07 23 54.14 23 81 C-0.37972509 81 -0.37972509 81 -9.25 79.4375 C-10.28737305 79.26114014 -11.32474609 79.08478027 -12.39355469 78.90307617 C-40.85503849 73.77028969 -68.03693885 62.88252004 -91.77929688 46.328125 C-92.37917419 45.91127441 -92.97905151 45.49442383 -93.59710693 45.06494141 C-95.06547692 44.04435664 -96.53284105 43.02232494 -98 42 C-97.99723462 42.93923656 -97.99446924 43.87847311 -97.99162006 44.84617138 C-97.92477951 67.78612949 -97.87560857 90.72607484 -97.84456348 113.66611004 C-97.82914814 124.76010809 -97.80816162 135.85404151 -97.77368164 146.94799805 C-97.74361492 156.62666983 -97.72438633 166.30529475 -97.71773452 175.98401195 C-97.71385128 181.1004761 -97.70483875 186.21680629 -97.68280983 191.33322716 C-97.66217054 196.16689048 -97.65622047 201.000367 -97.66067696 205.83407021 C-97.65986383 207.59101 -97.65406393 209.34795725 -97.64238358 211.1048584 C-97.54049496 227.2472354 -98.6986269 243.87330665 -103.75 259.3125 C-104.00604004 260.12605957 -104.26208008 260.93961914 -104.52587891 261.77783203 C-117.36260539 301.3867548 -145.25735382 332.78594093 -182.00341797 351.99951172 C-192.77398583 357.39664881 -204.34052889 361.07112805 -216 364 C-216.97718994 364.24991699 -216.97718994 364.24991699 -217.97412109 364.50488281 C-238.77536724 369.55235927 -264.27717376 369.16287894 -285 364 C-285.79132324 363.81727539 -286.58264648 363.63455078 -287.39794922 363.44628906 C-318.76713857 356.08875534 -347.30779836 338.74305593 -368 314 C-364.39078979 314 -363.7940966 314.70957514 -361 316.875 C-342.23141278 330.26181653 -319.76902037 338.65649094 -297 342 C-295.79859375 342.18175781 -294.5971875 342.36351562 -293.359375 342.55078125 C-276.68975585 344.55694128 -259.39157687 343.42739159 -243 340 C-242.22140625 339.83902832 -241.4428125 339.67805664 -240.640625 339.51220703 C-201.72253413 331.1277425 -168.20283576 307.19587898 -146.65576172 273.92431641 C-140.57179263 264.33418173 -135.80706807 254.70062352 -132 244 C-131.62230469 242.98550781 -131.24460937 241.97101563 -130.85546875 240.92578125 C-128.06814875 233.1066701 -126.45154225 225.15452398 -125 217 C-124.82561433 216.10572485 -124.65122866 215.2114497 -124.47155857 214.2900753 C-123.9260277 210.48389348 -123.84686947 206.74907441 -123.84178162 202.91348267 C-123.83684364 202.11614696 -123.83190566 201.31881125 -123.82681805 200.49731386 C-123.81150288 197.83496256 -123.8030987 195.17263526 -123.79467773 192.51025391 C-123.78509451 190.59806102 -123.77508416 188.68587023 -123.76467896 186.77368164 C-123.73767204 181.58826535 -123.71663967 176.40284 -123.69667697 171.21739244 C-123.67479142 165.79614649 -123.6474153 160.37492834 -123.62062073 154.95370483 C-123.57072858 144.69037255 -123.52577685 134.4270248 -123.48259836 124.16366231 C-123.43319626 112.47811649 -123.37828916 100.79259857 -123.32291877 89.10707974 C-123.20915212 65.07141253 -123.10230151 41.03571855 -123 17 C-120.2080977 18.37535956 -117.59159903 19.84329822 -114.98046875 21.5390625 C-78.59480083 44.98063801 -43.34516988 54.66575616 0 58 C0 38.86 0 19.72 0 0 Z " fill="#EE0043" transform="translate(457,144)"/>
<path d="M0 0 C26.07 0 52.14 0 79 0 C79.99 7.59 80.98 15.18 82 23 C62.86 23 43.72 23 24 23 C24.00999275 29.39906235 24.00999275 29.39906235 24.02018738 35.92739868 C24.07992406 75.07612374 24.12469051 114.2248434 24.15319599 153.3736041 C24.15694797 158.50785855 24.16083095 163.64211289 24.16479492 168.77636719 C24.16558185 169.79847571 24.16636878 170.82058423 24.16717956 171.87366574 C24.18022232 188.40883242 24.20386994 204.94396772 24.23145839 221.4791158 C24.25954403 238.45422772 24.27618294 255.42932324 24.28226548 272.40445745 C24.28637537 282.87331221 24.29934149 293.34207824 24.3237494 303.81090568 C24.3396456 310.99635328 24.34439158 318.18175521 24.34050413 325.36721911 C24.33858862 329.50865924 24.34145989 333.64994464 24.35761642 337.79135704 C24.37233323 341.5917063 24.37287699 345.39179837 24.36269668 349.19216006 C24.36085078 351.1999503 24.37368347 353.20773801 24.38724393 355.21548331 C24.28319455 376.51398121 17.32786318 395.18044843 2.8125 410.75 C-13.20495379 425.87759525 -33.0376738 431.74351976 -54.703125 431.3046875 C-72.82089609 430.52229981 -89.74781039 421.45965382 -102.31640625 408.63671875 C-105.40773378 405.25782587 -108.10782525 402.20062795 -110 398 C-107.26048695 398.86510939 -104.56409167 399.74893647 -101.9375 400.91796875 C-83.46608901 409.06161447 -64.24477665 408.46119016 -45.375 401.875 C-27.09196322 394.37311513 -13.73286621 380.026567 -6.14364624 361.9234314 C-1.4143092 349.83412274 -1.54188557 338.05925836 -1.5234375 325.2734375 C-1.50925242 322.99454461 -1.49378989 320.7156594 -1.47718811 318.43678284 C-1.43483315 312.09452668 -1.41104444 305.7523123 -1.39014816 299.40995407 C-1.36855133 293.27847268 -1.33030188 287.14708381 -1.29401958 281.01567543 C-1.21534475 267.60799612 -1.15289604 254.20027276 -1.09716797 240.79248047 C-1.02752436 224.04407224 -0.94987442 207.29571459 -0.86767578 190.54736328 C-0.85579741 188.12310156 -0.84391972 185.69883983 -0.83204269 183.27457809 C-0.81391452 179.57582955 -0.79578168 175.87708102 -0.77763486 172.17833257 C-0.49625829 114.78564885 -0.24257205 57.39285943 0 0 Z " fill="#07FEF8" transform="translate(255,1)"/>
<path d="M0 0 C0 7.26 0 14.52 0 22 C-3.526875 22.226875 -7.05375 22.45375 -10.6875 22.6875 C-47.243617 25.54364152 -79.73199062 40.67013381 -106 66 C-106.77859375 66.71542969 -107.5571875 67.43085938 -108.359375 68.16796875 C-127.84822975 86.58562759 -140.09230513 112.43716392 -147 138 C-147.18079102 138.65564941 -147.36158203 139.31129883 -147.54785156 139.98681641 C-152.84882968 160.23697435 -151.91429614 185.74143124 -147 206 C-146.81195801 206.78665039 -146.62391602 207.57330078 -146.43017578 208.38378906 C-141.90166008 226.59152047 -134.1192842 243.86199446 -123 259 C-121.99971336 260.41646429 -120.99967016 261.83310056 -120 263.25 C-119.34 264.1575 -118.68 265.065 -118 266 C-122.29968651 266 -124.17050333 263.44263177 -127.125 260.625 C-127.70757568 260.07481201 -128.29015137 259.52462402 -128.89038086 258.95776367 C-157.91775055 231.26783935 -174.72286631 193.90608119 -176.19140625 153.73828125 C-176.67487986 131.17877892 -172.39132723 108.54492252 -163 88 C-162.57726807 87.05229736 -162.57726807 87.05229736 -162.14599609 86.08544922 C-154.57440308 69.26572603 -143.84834368 55.13093188 -131 42 C-130.38898438 41.33871094 -129.77796875 40.67742187 -129.1484375 39.99609375 C-96.90963505 5.77214337 -45.05638686 -6.32370342 0 0 Z " fill="#07FEF8" transform="translate(205,188)"/>
<path d="M0 0 C20 1 20 1 24 2 C24 28.73 24 55.46 24 83 C16 82 16 82 13.0234375 81.45703125 C-5.60474379 78.64114338 -24.2324364 82.70417121 -40 93 C-44.38046268 96.28957993 -48.20860792 100.05910508 -52 104 C-52.59039062 104.57105469 -53.18078125 105.14210938 -53.7890625 105.73046875 C-66.0234891 118.45558091 -70.6630004 136.84356345 -70.47314453 153.98754883 C-70.03797459 165.52660909 -66.69538475 175.62159783 -61.07421875 185.70703125 C-60.71972656 186.46371094 -60.36523438 187.22039062 -60 188 C-60.33 188.66 -60.66 189.32 -61 190 C-78.6111902 177.14060959 -91.07855931 162.12250157 -95 140 C-96.54443692 119.11100193 -94.28569962 101.17946875 -80.8671875 84.3203125 C-78.65740107 81.7871427 -76.37264571 79.38071593 -74 77 C-73.32453125 76.30132812 -72.6490625 75.60265625 -71.953125 74.8828125 C-58.57827639 61.96049636 -41.53926237 56.71209676 -23.3125 56.5625 C-21.74459717 56.54703125 -21.74459717 56.54703125 -20.14501953 56.53125 C-18.61337158 56.54865234 -18.61337158 56.54865234 -17.05078125 56.56640625 C-15.69980347 56.58102905 -15.69980347 56.58102905 -14.3215332 56.59594727 C-9.45059853 57.18847919 -4.73394367 58.70892445 0 60 C0 40.2 0 20.4 0 0 Z " fill="#EF0043" transform="translate(205,209)"/>
<path d="M0 0 C4.01958762 1.44292889 7.31093979 3.41023528 10.875 5.75 C29.54458787 17.5673518 51.24940369 21.80271947 73 23 C73 30.26 73 37.52 73 45 C44.83669891 40.97667127 20.68771545 24.89470025 2 4 C0.640625 1.62109375 0.640625 1.62109375 0 0 Z " fill="#07FDF7" transform="translate(384,99)"/>
<path d="M0 0 C6.93 0 13.86 0 21 0 C21.17015625 1.48628906 21.3403125 2.97257812 21.515625 4.50390625 C24.34443083 28.24915323 29.90135257 51.78778918 45 71 C44.67 71.66 44.34 72.32 44 73 C40.63789195 70.03095677 37.31010273 67.02691021 34 64 C33.23558594 63.30390625 32.47117187 62.6078125 31.68359375 61.890625 C18.22561467 49.08267353 9.19425909 32.79408294 3 15.4375 C2.69682861 14.5923584 2.39365723 13.7472168 2.08129883 12.87646484 C1.80697021 12.07031738 1.5326416 11.26416992 1.25 10.43359375 C1.00765625 9.72259521 0.7653125 9.01159668 0.515625 8.27905273 C0 6 0 6 0 0 Z " fill="#EE0043" transform="translate(337,24)"/>
</svg>
