<?xml version="1.0" encoding="UTF-8"?>
<svg version="1.1" xmlns="http://www.w3.org/2000/svg" width="512" height="512">
<path d="M0 0 C1.09162414 -0.00872064 1.09162414 -0.00872064 2.20530128 -0.01761746 C4.64518032 -0.03222159 7.084054 -0.01833099 9.52392578 -0.00457001 C11.29024775 -0.00917877 13.05656588 -0.01553152 14.82287598 -0.02347898 C19.677714 -0.04019879 24.53223808 -0.03191387 29.38707733 -0.01953411 C34.62233116 -0.01049681 39.8575304 -0.02444679 45.09277344 -0.0354538 C55.34904982 -0.0532577 65.60520924 -0.04939069 75.86149025 -0.03780323 C84.19559312 -0.02877655 92.52966317 -0.0275416 100.86376953 -0.0318985 C102.04907887 -0.03251143 103.2343882 -0.03312436 104.455616 -0.03375587 C106.86340842 -0.03503475 109.27120083 -0.0363316 111.67899323 -0.03764623 C134.26678696 -0.04905752 156.8545158 -0.03592972 179.44229889 -0.01444477 C198.83151952 0.00342669 218.22064437 0.00032274 237.60986328 -0.01811981 C260.11579974 -0.03951683 282.6216793 -0.04795883 305.12762451 -0.03567076 C307.52665201 -0.03439654 309.92567952 -0.03313905 312.32470703 -0.0318985 C314.09534452 -0.03097285 314.09534452 -0.03097285 315.90175247 -0.03002849 C324.22764703 -0.02657209 332.55350555 -0.0324102 340.87939453 -0.04181671 C351.02330232 -0.05302508 361.16708627 -0.05002109 371.31097984 -0.02869374 C376.48841545 -0.01816771 381.66564445 -0.01408797 386.84307861 -0.02729034 C391.58038077 -0.03918786 396.3172843 -0.03269532 401.05455017 -0.01138014 C402.77047836 -0.00690286 404.48644006 -0.0092055 406.2023468 -0.01888329 C408.53153822 -0.03101482 410.85935721 -0.01860661 413.18847656 0 C414.48310822 0.00064941 415.77773987 0.00129882 417.11160278 0.00196791 C422.35121449 0.75631725 425.38911078 3.2348093 428.96923828 7.00336456 C431.36727404 12.16836465 431.34805364 16.90359336 430.59423828 22.50336456 C428.28896935 27.46855919 425.35349854 29.89426158 420.59423828 32.50336456 C417.61392981 33.02105495 414.71320797 32.97183511 411.69580078 32.89398956 C410.86084076 32.88832977 410.02588074 32.88266998 409.1656189 32.87683868 C406.51622562 32.85456679 403.86821813 32.8043898 401.21923828 32.75336456 C399.41587249 32.73328759 397.61248536 32.71503891 395.80908203 32.69867706 C391.40360559 32.65473242 386.99915635 32.58577057 382.59423828 32.50336456 C382.59575716 33.21362594 382.59727604 33.92388732 382.59884095 34.65567178 C382.68840445 76.77613372 382.75701038 118.89658458 382.7984996 161.01712264 C382.80350227 166.07755956 382.80867957 171.13799629 382.81396484 176.19843292 C382.81501409 177.20585068 382.81606333 178.21326844 382.81714436 179.25121401 C382.8345371 195.55104142 382.86606856 211.85081224 382.90284947 228.15060612 C382.94029037 244.88275898 382.96248079 261.61488225 382.97059226 278.34707528 C382.9760735 288.66702309 382.99336909 298.98681095 383.02590415 309.30670951 C383.04709092 316.3889027 383.05342891 323.47101352 383.04824379 330.55323609 C383.04568848 334.63586842 383.04953262 338.71822175 383.07106018 342.80080414 C383.09066485 346.54627084 383.09141931 350.29127351 383.07783386 354.03676251 C383.07536933 356.01746844 383.09249614 357.9981697 383.11056352 359.97879475 C383.00715004 375.60303358 377.70455483 389.27439109 367.03173828 400.75336456 C355.28496677 411.83960333 341.56732404 416.99059323 325.48831177 416.89104462 C324.42636184 416.89643015 323.3644119 416.90181569 322.27028167 416.90736443 C318.74159044 416.92157617 315.21327794 416.91455693 311.68457031 416.9074173 C309.1424937 416.9131244 306.60041965 416.92008998 304.05834961 416.92821503 C297.8878533 416.94426699 291.71749491 416.94625465 285.54698409 416.94100212 C280.52780146 416.93694868 275.50864883 416.93841787 270.48946762 416.94375038 C269.77311749 416.9444988 269.05676735 416.94524723 268.31870963 416.94601833 C266.86310101 416.94754992 265.40749239 416.94908827 263.95188378 416.95063329 C250.32372717 416.96433828 236.69562808 416.95893482 223.0674728 416.94744808 C210.62236729 416.9375184 198.17741052 416.95045532 185.73232795 416.97438227 C172.92773098 416.99881337 160.12320317 417.00837128 147.31858337 417.00172955 C140.14016193 416.99824614 132.96185479 417.00041103 125.78345108 417.01798058 C119.03145602 417.03430267 112.27978924 417.02945879 105.52778625 417.01067543 C103.05634998 417.00699831 100.58489256 417.01007227 98.1134758 417.02056122 C78.04656075 417.09919512 61.74858986 415.26338382 46.34423828 400.94086456 C34.18761169 388.0599301 30.114612 373.80168872 30.23347473 356.34877777 C30.232164 354.94509986 30.22953267 353.54142268 30.22570723 352.13774937 C30.21904279 348.30877458 30.23093865 344.48005458 30.24604142 340.6511122 C30.25905635 336.51152639 30.25460848 332.37195373 30.25233459 328.23235321 C30.2507653 321.06957181 30.26013849 313.90687271 30.27704811 306.74411201 C30.30148025 296.38811098 30.30924769 286.03214954 30.31301209 275.67612281 C30.31956997 258.87217631 30.33951311 242.06827362 30.36791992 225.26435089 C30.39547768 208.94566822 30.41670285 192.62699746 30.42944336 176.3082962 C30.43023153 175.30158166 30.4310197 174.29486711 30.43183175 173.25764606 C30.43574701 168.20700703 30.4395381 163.15636792 30.44326746 158.10572875 C30.47434271 116.23824355 30.52716042 74.37080657 30.59423828 32.50336456 C29.47452637 32.52431183 28.35481445 32.54525909 27.20117188 32.56684113 C23.03040451 32.63946882 18.8596926 32.68524667 14.68847656 32.72309113 C12.88629747 32.74315489 11.08418307 32.77041269 9.28222656 32.80512238 C6.68554692 32.85387285 4.08973099 32.87638538 1.49267578 32.89398956 C0.29232193 32.92495728 0.29232193 32.92495728 -0.93228149 32.9565506 C-6.24492319 32.95866161 -9.16998797 31.98676788 -13.40576172 28.50336456 C-17.03409835 24.68406284 -17.7157663 21.6205745 -17.90576172 16.50336456 C-17.7157663 11.38615462 -17.03409835 8.32266628 -13.40576172 4.50336456 C-8.81485934 0.87110947 -5.8239109 0.00292137 0 0 Z M62.59423828 32.50336456 C62.53596954 90.37836166 62.53596954 90.37836166 62.49658203 148.25336456 C62.49266634 156.05675006 62.4886254 163.86013549 62.484375 171.66352081 C62.4838475 172.64153507 62.48332 173.61954932 62.48277652 174.62720037 C62.47408019 190.41220966 62.4583138 206.19720437 62.43993269 221.98220502 C62.42122329 238.18437019 62.41011935 254.38652774 62.40606129 270.58870327 C62.4033184 280.58462317 62.39465809 290.58050185 62.37840535 300.57640906 C62.36782564 307.43290145 62.3646399 314.28937256 62.36723553 321.14587252 C62.36851528 325.10045998 62.36656664 329.05497546 62.35582733 333.00955009 C62.3460554 336.63447318 62.34562881 340.25927626 62.35244049 343.884205 C62.35367829 345.80745832 62.34508792 347.73071034 62.33607566 349.65394294 C62.37476816 363.51825823 62.37476816 363.51825823 68.59423828 375.50336456 C76.9085805 383.73852257 85.03256537 384.65636055 96.36653137 384.63707733 C97.3453604 384.63934289 98.32418942 384.64160844 99.33267993 384.64394265 C102.6097381 384.65026837 105.88675476 384.6494542 109.16381836 384.64862823 C111.5146032 384.65162061 113.86538756 384.65502333 116.21617126 384.65880585 C122.6005168 384.667642 128.98484893 384.6699838 135.36919999 384.67062163 C140.02774917 384.67145161 144.68629537 384.6743512 149.3448435 384.67745811 C161.875443 384.68576056 174.40603541 384.68950067 186.93663756 384.68878838 C188.00332057 384.68872844 188.00332057 384.68872844 189.09155273 384.6886673 C189.80354648 384.68862642 190.51554022 384.68858554 191.24910953 384.68854342 C202.78541175 384.68813705 214.32168131 384.69770504 225.85797409 384.71180566 C237.71316992 384.72618134 249.56834983 384.73307519 261.4235546 384.73221189 C268.07539471 384.73188033 274.72720473 384.73480483 281.37903786 384.74538994 C287.63594281 384.75507473 293.89277549 384.75514741 300.149683 384.74787331 C302.44380295 384.74682795 304.73792742 384.74918745 307.03203964 384.75523376 C310.16844259 384.76296345 313.30459659 384.75830226 316.44099426 384.75060272 C317.34451356 384.75574629 318.24803286 384.76088985 319.17893153 384.76618928 C328.39756962 384.71632697 336.45985505 383.67468581 343.22314453 376.86273956 C351.39850057 367.80089913 350.74157188 357.88608871 350.7144928 346.24739838 C350.71492921 344.89254707 350.7158054 343.53769584 350.71708196 342.18284506 C350.7193132 338.47033501 350.71532442 334.75785393 350.7103039 331.04534757 C350.70597989 327.03793489 350.70744721 323.0305238 350.70820618 319.02310944 C350.70873017 312.08346483 350.70559633 305.14382963 350.69996834 298.20418739 C350.69183654 288.17066645 350.68923639 278.13715006 350.68798035 268.10362618 C350.68579247 251.82435346 350.67913954 235.54508574 350.66967773 219.26581573 C350.66049678 203.45331599 350.65343076 187.64081761 350.64916992 171.82831573 C350.64890192 170.84346823 350.64863393 169.85862072 350.64835781 168.84392935 C350.64627835 161.14161669 350.64432144 153.43930399 350.64240324 145.73699129 C350.63297192 107.99244444 350.61285305 70.24791015 350.59423828 32.50336456 C255.55423828 32.50336456 160.51423828 32.50336456 62.59423828 32.50336456 Z " fill="#000000" transform="translate(49.40576171875,79.49663543701172)"/>
<path d="M0 0 C4.93461319 2.29107041 7.35281968 5.29390165 10 10 C11.35564997 13.85263764 11.14512894 17.83539085 11.14044189 21.86810303 C11.14341302 22.66625246 11.14638414 23.4644019 11.1494453 24.28673768 C11.1581248 26.96428103 11.15963991 29.64177963 11.16113281 32.31933594 C11.16576153 34.2379567 11.17078626 36.15657654 11.17617798 38.07519531 C11.18929908 43.29020497 11.19574641 48.50520175 11.20018864 53.72022533 C11.2031199 56.97871003 11.20722482 60.23719121 11.21169281 63.49567413 C11.22536715 73.69171817 11.23503405 83.88775418 11.2388947 94.08380675 C11.24337506 105.85172275 11.26092223 117.61952258 11.2898953 129.38740325 C11.31151557 138.48477598 11.32159917 147.58211603 11.32293582 156.67951417 C11.32398362 162.11239478 11.32988621 167.54516617 11.34775543 172.97801971 C11.36424195 178.08994757 11.36638873 183.20168417 11.35761642 188.31362915 C11.35684636 190.18729413 11.36118475 192.06096942 11.37107468 193.93460846 C11.383809 196.49795311 11.37790946 199.06062191 11.36749268 201.6239624 C11.37554908 202.36055706 11.38360548 203.09715171 11.39190602 203.85606742 C11.33897629 209.44801379 10.477866 215.3230324 6.54806638 219.56859946 C1.28032045 224.04591895 -2.26870154 224.34997809 -9.015625 224.27734375 C-13.04015882 223.90333603 -15.08009163 222.77391295 -18 220 C-21.8426519 215.25782729 -22.57656348 211.51334176 -22.50793457 205.57421875 C-22.51417453 204.74028091 -22.5204145 203.90634308 -22.52684355 203.0471344 C-22.54276393 200.26029969 -22.53017317 197.47434079 -22.51757812 194.6875 C-22.52299967 192.68651826 -22.53012251 190.68554051 -22.53881836 188.68457031 C-22.55705072 183.25484425 -22.54998443 177.82542228 -22.53730202 172.39569092 C-22.52717397 166.71300437 -22.53656716 161.03034382 -22.54284668 155.34765625 C-22.55012363 145.80463996 -22.54053405 136.26174749 -22.52148438 126.71875 C-22.49971561 115.68622412 -22.50676694 104.65399393 -22.52879 93.62147522 C-22.54694256 84.14870167 -22.549503 74.67601713 -22.53903532 65.20323181 C-22.53279963 59.54575758 -22.53196693 53.88842233 -22.54518127 48.23095703 C-22.55673697 42.91209066 -22.5487189 37.59360547 -22.52560425 32.27478027 C-22.5203157 30.32288242 -22.52183342 28.37095247 -22.53065491 26.41906738 C-22.54158817 23.75420578 -22.52787389 21.09056509 -22.50793457 18.42578125 C-22.51685746 17.65359756 -22.52578034 16.88141388 -22.53497362 16.08583069 C-22.45981984 10.90655635 -21.24366202 8.00296616 -18 4 C-12.72867143 -1.00776214 -6.89190982 -0.92775709 0 0 Z " fill="#000000" transform="translate(315,176)"/>
<path d="M0 0 C4.96938909 2.30721636 7.36502559 5.25384111 10 10 C10.37853654 12.93846755 10.54180205 15.49490079 10.50793457 18.42578125 C10.51417453 19.25971909 10.5204145 20.09365692 10.52684355 20.9528656 C10.54276393 23.73970031 10.53017317 26.52565921 10.51757812 29.3125 C10.52299967 31.31348174 10.53012251 33.31445949 10.53881836 35.31542969 C10.55705072 40.74515575 10.54998443 46.17457772 10.53730202 51.60430908 C10.52717397 57.28699563 10.53656716 62.96965618 10.54284668 68.65234375 C10.55012363 78.19536004 10.54053405 87.73825251 10.52148438 97.28125 C10.49971561 108.31377588 10.50676694 119.34600607 10.52879 130.37852478 C10.54694256 139.85129833 10.549503 149.32398287 10.53903532 158.79676819 C10.53279963 164.45424242 10.53196693 170.11157767 10.54518127 175.76904297 C10.55673697 181.08790934 10.5487189 186.40639453 10.52560425 191.72521973 C10.5203157 193.67711758 10.52183342 195.62904753 10.53065491 197.58093262 C10.54158817 200.24579422 10.52787389 202.90943491 10.50793457 205.57421875 C10.51685746 206.34640244 10.52578034 207.11858612 10.53497362 207.91416931 C10.45981984 213.09344365 9.24366202 215.99703384 6 220 C2.18069828 223.62833663 -0.88279006 224.31000458 -6 224.5 C-11.11720994 224.31000458 -14.18069828 223.62833663 -18 220 C-22.64854295 213.96945779 -23.14908131 209.56520861 -23.14044189 202.13189697 C-23.14341302 201.33374754 -23.14638414 200.5355981 -23.1494453 199.71326232 C-23.1581248 197.03571897 -23.15963991 194.35822037 -23.16113281 191.68066406 C-23.16576153 189.7620433 -23.17078626 187.84342346 -23.17617798 185.92480469 C-23.18929908 180.70979503 -23.19574641 175.49479825 -23.20018864 170.27977467 C-23.2031199 167.02128997 -23.20722482 163.76280879 -23.21169281 160.50432587 C-23.22536715 150.30828183 -23.23503405 140.11224582 -23.2388947 129.91619325 C-23.24337506 118.14827725 -23.26092223 106.38047742 -23.2898953 94.61259675 C-23.31151557 85.51522402 -23.32159917 76.41788397 -23.32293582 67.32048583 C-23.32398362 61.88760522 -23.32988621 56.45483383 -23.34775543 51.02198029 C-23.36424195 45.91005243 -23.36638873 40.79831583 -23.35761642 35.68637085 C-23.35684636 33.81270587 -23.36118475 31.93903058 -23.37107468 30.06539154 C-23.383809 27.50204689 -23.37790946 24.93937809 -23.36749268 22.3760376 C-23.37554908 21.63944294 -23.38360548 20.90284829 -23.39190602 20.14393258 C-23.33897629 14.55198621 -22.477866 8.6769676 -18.54806638 4.43140054 C-12.60543433 -0.61953826 -7.59713682 -0.70601664 0 0 Z " fill="#000000" transform="translate(209,176)"/>
<path d="M0 0 C1.37045026 -0.00542487 2.74089468 -0.01254958 4.11132812 -0.02124023 C7.82214736 -0.03943355 11.53252041 -0.0324229 15.24334717 -0.01972389 C19.13229549 -0.00957537 23.02120638 -0.0189947 26.91015625 -0.02526855 C33.44017372 -0.03253959 39.97001005 -0.02297163 46.5 -0.00390625 C54.04255185 0.01786159 61.58467116 0.01080982 69.12721252 -0.01121187 C75.61063837 -0.02938147 82.09393423 -0.03191662 88.57737732 -0.0214572 C92.44635098 -0.01523078 96.31512153 -0.01436299 100.18408203 -0.02760315 C103.82206402 -0.03918392 107.45949 -0.03109613 111.09741211 -0.00802612 C113.06428265 -0.00024035 115.03120039 -0.01207597 116.99804688 -0.02453613 C127.73721866 0.0783295 127.73721866 0.0783295 132.5625 4.51757812 C136.19083663 8.33687985 136.87250458 11.40036819 137.0625 16.51757812 C136.87250458 21.63478806 136.19083663 24.6982764 132.5625 28.51757812 C126.80959292 33.81024048 120.62887603 33.08269404 113.125 33.03515625 C111.75454974 33.04058112 110.38410532 33.04770583 109.01367188 33.05639648 C105.30285264 33.0745898 101.59247959 33.06757915 97.88165283 33.05488014 C93.99270451 33.04473162 90.10379362 33.05415095 86.21484375 33.0604248 C79.68482628 33.06769584 73.15498995 33.05812788 66.625 33.0390625 C59.08244815 33.01729466 51.54032884 33.02434643 43.99778748 33.04636812 C37.51436163 33.06453772 31.03106577 33.06707287 24.54762268 33.05661345 C20.67864902 33.05038703 16.80987847 33.04951924 12.94091797 33.0627594 C9.30293598 33.07434017 5.66551 33.06625238 2.02758789 33.04318237 C0.06071735 33.0353966 -1.90620039 33.04723222 -3.87304688 33.05969238 C-14.61221866 32.95682675 -14.61221866 32.95682675 -19.4375 28.51757812 C-23.06583663 24.6982764 -23.74750458 21.63478806 -23.9375 16.51757812 C-23.74750458 11.40036819 -23.06583663 8.33687985 -19.4375 4.51757812 C-13.68459292 -0.77508423 -7.50387603 -0.04753779 0 0 Z " fill="#000000" transform="translate(199.4375,15.482421875)"/>
</svg>
