<?xml version="1.0" encoding="UTF-8"?>
<svg version="1.1" xmlns="http://www.w3.org/2000/svg" width="512" height="512">
<path d="M0 0 C5.44059657 2.47299844 7.5614785 5.74779984 10 11 C10 12.32 10 13.64 10 15 C33.1 15 56.2 15 80 15 C80.33 12.69 80.66 10.38 81 8 C83.06183899 4.22123932 86.01544778 1.61045728 90 0 C99.34518829 -1.68713571 106.15295175 1.95908466 114.125 6.4375 C115.259375 7.04916016 116.39375 7.66082031 117.5625 8.29101562 C125.71343586 12.71343586 125.71343586 12.71343586 127 14 C128.94155709 14.09611669 130.88371924 14.18503052 132.8269043 14.23901367 C164.83832316 15.18542729 192.07850414 26.21830621 214.3828125 49.41015625 C216.40772214 51.41391012 218.43796789 53.25520463 220.59912109 55.10131836 C225.28670779 59.18769812 229.65875881 63.55013595 234.03125 67.96875 C235.28427917 69.22745911 235.28427917 69.22745911 236.56262207 70.51159668 C240.10336129 74.0685452 243.63807324 77.6314612 247.17333984 81.19384766 C249.7697206 83.80840164 252.36916566 86.41988184 254.96875 89.03125 C255.75544067 89.82623901 256.54213135 90.62122803 257.35266113 91.44030762 C261.47961409 95.58533128 265.69233724 99.54144667 270.12518311 103.35671997 C273.07116402 105.93887699 275.84515196 108.68286392 278.6171875 111.44921875 C279.20041779 112.02912064 279.78364807 112.60902252 280.384552 113.20649719 C281.60076223 114.41769694 282.81567043 115.63020545 284.02929688 116.84399414 C285.88653777 118.69902403 287.75167204 120.54587418 289.6171875 122.39257812 C290.80517559 123.5776359 291.99269283 124.76316593 293.1796875 125.94921875 C293.73486053 126.49720627 294.29003357 127.04519379 294.86203003 127.60978699 C299.33853263 132.11305381 301.28601981 135.02181452 301.375 141.375 C301.40335938 142.29023438 301.43171875 143.20546875 301.4609375 144.1484375 C300.45380244 150.37901879 295.51231179 154.82458681 291.3125 159.25 C290.23646758 160.39926081 289.16095088 161.54900468 288.0859375 162.69921875 C287.29654785 163.54105713 287.29654785 163.54105713 286.49121094 164.39990234 C284.44493774 166.59559234 282.43908482 168.82607219 280.4375 171.0625 C274.87190472 177.26989365 269.22487133 183.40217451 263.58398438 189.54101562 C258.72854872 194.82625471 253.87889386 200.11660662 249.0625 205.4375 C248.02802734 206.58025391 248.02802734 206.58025391 246.97265625 207.74609375 C245.58116193 209.33597934 244.24279774 210.97313446 242.9453125 212.640625 C239.87586413 216.36340977 236.51613758 218.55911926 231.79296875 219.38671875 C223.38069256 219.80231672 217.62553435 214.93607373 211.375 209.875 C210.15674083 208.90303031 208.93797823 207.93169133 207.71875 206.9609375 C207.10515625 206.47077148 206.4915625 205.98060547 205.859375 205.47558594 C202.88913039 203.11842228 199.883736 200.80770483 196.875 198.5 C195.84117187 197.7059375 194.80734375 196.911875 193.7421875 196.09375 C191.50316872 194.3841858 189.25750513 192.68502775 187 191 C186.17141511 196.09288276 185.82918444 201.06424435 185.77258301 206.22595215 C185.76018349 207.02677105 185.74778398 207.82758996 185.73500872 208.65267611 C185.69474173 211.32244398 185.66085743 213.9922537 185.62695312 216.66210938 C185.59926487 218.58326783 185.57117314 220.50442051 185.54270935 222.42556763 C185.48228672 226.56093699 185.42467924 230.69633261 185.36924744 234.83177185 C185.28111776 241.40228067 185.18646911 247.97268597 185.09094238 254.54309082 C184.92290604 266.15737481 184.76030381 277.77173008 184.59893799 289.3861084 C184.35728458 306.77792218 184.11165347 324.16967852 183.86051702 341.56135798 C183.78205953 347.00659459 183.70487037 352.45184296 183.63075256 357.8971405 C183.46012865 370.42041176 183.27245079 382.94314584 183.04514694 395.46552658 C183.00095559 397.94635468 182.96003633 400.42722001 182.91958618 402.90811157 C182.85742601 406.61459398 182.77991218 410.32042364 182.68889713 414.02630711 C182.6443143 415.95797858 182.61323087 417.88994721 182.58269501 419.82189178 C182.29129038 430.2578733 182.29129038 430.2578733 179 435 C175.23527267 438.39743686 172.84613343 440.12247184 167.80385208 440.13422108 C166.9187877 440.13867892 166.03372332 440.14313676 165.12183881 440.14772969 C163.65426511 440.14745315 163.65426511 440.14745315 162.15704346 440.14717102 C161.1223457 440.15084771 160.08764795 440.1545244 159.02159572 440.1583125 C155.53164482 440.16938351 152.04172367 440.17319895 148.55175781 440.17700195 C146.05876571 440.18326399 143.56577455 440.18991056 141.07278442 440.19691467 C133.57482311 440.21616749 126.0768697 440.22674662 118.57889092 440.23564246 C115.04914202 440.24002406 111.51939462 440.24539122 107.98964691 440.25063133 C96.25781694 440.26764484 84.52598791 440.28213926 72.79414749 440.28938007 C69.74883269 440.29129001 66.7035179 440.29321034 63.65820312 440.29516602 C62.90129184 440.29564976 62.14438055 440.2961335 61.36453256 440.2966319 C49.10166571 440.30493309 36.83889638 440.33027093 24.57607213 440.36274669 C11.98989975 440.39580738 -0.59622305 440.41382795 -13.18243909 440.41702431 C-20.25068281 440.41919039 -27.31878434 440.42795302 -34.38698578 440.45348549 C-41.03536846 440.47744574 -47.68354101 440.48102438 -54.33197403 440.47072411 C-56.77410101 440.47022713 -59.21624033 440.47659488 -61.65832901 440.49028015 C-64.9888988 440.50790216 -68.31853939 440.50093993 -71.64910889 440.48774719 C-73.10329826 440.50420106 -73.10329826 440.50420106 -74.58686519 440.52098733 C-80.38027314 440.46547324 -83.54970528 439.78640277 -88 436 C-91.45923142 432.06363321 -92.12382639 428.7080667 -92.2911377 423.56164551 C-92.3293438 422.4145385 -92.3675499 421.26743149 -92.40691376 420.08556366 C-92.443433 418.81015968 -92.47995224 417.53475571 -92.51757812 416.22070312 C-92.53785851 415.55093476 -92.5581389 414.8811664 -92.57903385 414.19110203 C-93.17697102 394.36627336 -93.40431822 374.53285141 -93.67424965 354.7014904 C-93.74996813 349.20090003 -93.82962966 343.70036695 -93.90905762 338.1998291 C-94.16044238 320.74257365 -94.40582873 303.285235 -94.64837503 285.82785463 C-94.80875227 274.28666387 -94.97168781 262.74551561 -95.13948298 251.2044301 C-95.2341204 244.68084229 -95.3246729 238.15721481 -95.412117 231.6335268 C-95.46723157 227.59062406 -95.52608258 223.54778208 -95.58598137 219.50494766 C-95.61294465 217.6340922 -95.63836813 215.76321381 -95.66212654 213.89231491 C-95.69479658 211.33678115 -95.73301581 208.7813871 -95.77258301 206.22595215 C-95.78066089 205.48929809 -95.78873878 204.75264403 -95.79706144 203.99366713 C-95.87274951 199.5674296 -96.29094373 195.35820217 -97 191 C-97.45624756 191.35602295 -97.91249512 191.7120459 -98.38256836 192.07885742 C-103.06407525 195.73028097 -107.75060508 199.37517219 -112.44140625 203.01464844 C-114.11916522 204.31651256 -115.79627194 205.61921779 -117.47265625 206.92285156 C-119.79093624 208.72375931 -122.1135594 210.51890562 -124.4375 212.3125 C-125.15220459 212.86897217 -125.86690918 213.42544434 -126.60327148 213.9987793 C-127.26915283 214.51093994 -127.93503418 215.02310059 -128.62109375 215.55078125 C-129.2030249 216.00106689 -129.78495605 216.45135254 -130.38452148 216.9152832 C-134.50623361 219.68281637 -139.24000316 219.66562557 -144 219 C-149.53053428 216.82037875 -153.24176167 212.93006008 -156.9609375 208.4296875 C-159.50248429 205.40125436 -162.18171341 202.5182249 -164.875 199.625 C-168.44515632 195.77478818 -171.99647836 191.91120415 -175.5 188 C-178.96490497 184.13336692 -182.473362 180.31016179 -186 176.5 C-211.11586248 149.32571935 -211.11586248 149.32571935 -211.3125 141.75 C-211.34988281 140.81671875 -211.38726562 139.8834375 -211.42578125 138.921875 C-210.44541883 132.19425029 -204.74128883 127.45818637 -200.109375 122.87890625 C-199.44593079 122.21592026 -198.78248657 121.55293427 -198.09893799 120.86985779 C-196.69934991 119.47327889 -195.29734412 118.07911918 -193.89306641 116.68725586 C-191.76541581 114.57778409 -189.64579927 112.46049856 -187.52734375 110.34179688 C-186.15932322 108.97869576 -184.79084804 107.61605075 -183.421875 106.25390625 C-182.79762634 105.63077042 -182.17337769 105.00763458 -181.5302124 104.36561584 C-178.4700826 101.33764263 -175.3637342 98.41595146 -172.10058594 95.60717773 C-167.50381441 91.62953869 -163.24273623 87.35032001 -158.96875 83.03125 C-158.13339722 82.1921106 -157.29804443 81.35297119 -156.43737793 80.48840332 C-153.78912914 77.828031 -151.14415594 75.16443987 -148.5 72.5 C-145.01337399 68.98662727 -141.52335074 65.47668029 -138.03125 61.96875 C-137.24455933 61.17376099 -136.45786865 60.37877197 -135.64733887 59.55969238 C-131.48813195 55.38227352 -127.25592269 51.37445925 -122.76208496 47.55773926 C-120.94778005 45.9538359 -119.28610095 44.26095066 -117.625 42.5 C-113.51633465 38.34496145 -108.89604051 35.16305351 -104 32 C-103.09378906 31.41089844 -102.18757813 30.82179688 -101.25390625 30.21484375 C-85.78318019 20.66371707 -67.20810926 14.77345863 -48.94677734 14.98388672 C-36.48869958 15.07034656 -27.57508554 9.79484874 -17.17211914 3.31274414 C-11.34559273 -0.20858131 -6.80206032 -0.77991693 0 0 Z M-28 96 C-29.85884189 99.11577628 -30.25366667 101.41707789 -30.26742554 105.02754211 C-30.27595551 106.04103729 -30.28448547 107.05453247 -30.29327393 108.09873962 C-30.29236755 109.20480057 -30.29146118 110.31086151 -30.29052734 111.45043945 C-30.29724457 112.61996155 -30.30396179 113.78948364 -30.31088257 114.9944458 C-30.32990752 118.86743397 -30.33378915 122.74024924 -30.3359375 126.61328125 C-30.33878452 127.94917566 -30.34197633 129.28506937 -30.34550858 130.62096214 C-30.36400748 137.61866348 -30.37217956 144.61628869 -30.37060547 151.61401367 C-30.3694048 158.12721132 -30.39049255 164.64007719 -30.4220928 171.15319091 C-30.44828704 176.75250116 -30.45897142 182.35170328 -30.45769465 187.9510743 C-30.45718583 191.29204706 -30.4646738 194.63249062 -30.48405075 197.97344398 C-30.50365491 201.70303449 -30.49789331 205.4317726 -30.48583984 209.16137695 C-30.49707886 210.2613652 -30.50831787 211.36135345 -30.51989746 212.49467468 C-30.46741941 218.88760992 -29.79762405 222.79345627 -26 228 C-22.5255865 230.97806871 -18.51091366 232.35589079 -13.9375 232.125 C-9.32868421 231.23414409 -5.93842499 228.5896435 -3 225 C-1.36994702 221.51803701 -0.74744427 218.76059684 -0.73257446 214.9281311 C-0.72404449 213.93008957 -0.71551453 212.93204803 -0.70672607 211.90376282 C-0.70763245 210.81999863 -0.70853882 209.73623444 -0.70947266 208.61962891 C-0.70275543 207.46946793 -0.69603821 206.31930695 -0.68911743 205.1342926 C-0.67011755 201.33167197 -0.66621226 197.52922764 -0.6640625 193.7265625 C-0.65763625 191.08246793 -0.65090802 188.43837407 -0.64389038 185.79428101 C-0.63111025 180.25118869 -0.62812441 174.70814413 -0.62939453 169.16503906 C-0.63059572 162.76826578 -0.60949517 156.37183002 -0.5779072 149.97514212 C-0.54855208 143.80976534 -0.54141979 137.64454992 -0.54261398 131.4791069 C-0.5402543 128.86125688 -0.53141023 126.24340434 -0.51594925 123.62559891 C-0.49634319 119.96316807 -0.50210712 116.30160511 -0.51416016 112.63916016 C-0.49730164 111.01958656 -0.49730164 111.01958656 -0.48010254 109.36729431 C-0.53320524 103.01393512 -1.22722323 99.17176429 -5 94 C-8.47823822 90.77020737 -11.2910534 89.69228391 -15.9375 89.375 C-21.40825445 89.58953939 -24.60933945 91.80020454 -28 96 Z M44 99 C43.45214844 99.40605469 42.90429688 99.81210938 42.33984375 100.23046875 C33.79667395 106.93357121 29.05267519 115.72594263 26 126 C25.73549797 126.88474754 25.73549797 126.88474754 25.46565247 127.78736877 C24.89238804 130.51133753 24.84946795 133.06290059 24.82299805 135.84741211 C24.81016281 137.02641586 24.79732758 138.20541962 24.78410339 139.42015076 C24.77671646 140.69302444 24.76932953 141.96589813 24.76171875 143.27734375 C24.753647 144.59481094 24.74557526 145.91227814 24.73725891 147.26966858 C24.72224875 150.06299712 24.71240604 152.85630045 24.70483398 155.6496582 C24.69384122 159.19316157 24.65951974 162.73602449 24.61966228 166.27930355 C24.59324292 169.03262832 24.58511952 171.78580721 24.58155251 174.53924751 C24.57443262 176.46936699 24.54809535 178.39938573 24.52116394 180.32933044 C24.55518721 194.37063591 28.51631217 207.25279734 38.1875 217.6875 C48.54010413 227.3545012 60.94784239 232.48621666 75.09765625 232.2734375 C87.95043364 231.06254326 99.65419043 225.39381413 108.4453125 215.9296875 C117.76897373 204.35710296 120.62383742 192.08788892 120.53125 177.46875 C120.53395492 176.10217006 120.53784556 174.73559202 120.54284668 173.36901855 C120.54869503 170.52495743 120.54033228 167.68140376 120.52148438 164.83740234 C120.49869653 161.22664726 120.51184514 157.61708218 120.53577423 154.00637054 C120.55036038 151.19040265 120.54556843 148.37470807 120.53526306 145.55873108 C120.53136928 143.59151418 120.54332738 141.6242858 120.55578613 139.65710449 C120.41166166 125.69268642 116.17786563 113.87605392 106.7109375 103.48828125 C101.08512711 98.0857173 95.29647059 94.68760529 88 92 C87.08863281 91.63648437 86.17726563 91.27296875 85.23828125 90.8984375 C71.14624654 86.98870531 55.47352082 89.98509078 44 99 Z " fill="#000000" transform="translate(211,36)"/>
<path d="M0 0 C8.34569488 7.73503428 8.34569488 7.73503428 8.70967102 13.84587097 C8.72443733 15.31858208 8.72443733 15.31858208 8.73950195 16.82104492 C8.75875481 18.49374702 8.75875481 18.49374702 8.77839661 20.20024109 C8.78578354 21.40646622 8.79317047 22.61269135 8.80078125 23.85546875 C8.808853 25.09742508 8.81692474 26.33938141 8.82524109 27.61897278 C8.83908308 30.25098398 8.85009843 32.88286991 8.85766602 35.51489258 C8.86651206 38.20457714 8.88735271 40.89374272 8.91918945 43.58325195 C8.96189169 47.46581595 8.97804094 51.34769896 8.98828125 55.23046875 C9.00578934 56.42657272 9.02329742 57.6226767 9.04133606 58.85502625 C9.0215078 66.51975814 8.34802781 72.46494825 2.78125 78.21484375 C1.93046875 78.75818359 1.93046875 78.75818359 1.0625 79.3125 C0.4953125 79.69277344 -0.071875 80.07304687 -0.65625 80.46484375 C-4.80659886 82.58552639 -8.82838569 82.68748233 -13.4375 82.375 C-19.67537885 80.33155693 -23.37204908 77.40551559 -27.05102539 72.00756836 C-29.12731611 66.56767937 -28.88529535 61.34197571 -28.87109375 55.56640625 C-28.87895653 53.70628151 -28.87895653 53.70628151 -28.88697815 51.80857849 C-28.89502976 48.52156995 -28.88794995 45.23498064 -28.87664795 41.94799805 C-28.87500256 39.94062207 -28.88698262 37.93381239 -28.90405273 35.92651367 C-28.9347751 32.05620966 -28.93813215 28.18681287 -28.93359375 24.31640625 C-28.94482773 23.12455215 -28.95606171 21.93269806 -28.96763611 20.70472717 C-28.90384356 13.07971965 -28.11029934 8.38005747 -22.83984375 2.6328125 C-16.17685308 -2.51990028 -7.75372576 -3.66539763 0 0 Z " fill="#000000" transform="translate(293.4375,156.625)"/>
</svg>
