<?xml version="1.0" encoding="UTF-8"?>
<svg version="1.1" xmlns="http://www.w3.org/2000/svg" width="512" height="512">
<path d="M0 0 C5.44059657 2.47299844 7.5614785 5.74779984 10 11 C10 12.32 10 13.64 10 15 C33.1 15 56.2 15 80 15 C80.33 12.69 80.66 10.38 81 8 C83.06183899 4.22123932 86.01544778 1.61045728 90 0 C99.34518829 -1.68713571 106.15295175 1.95908466 114.125 6.4375 C115.259375 7.04916016 116.39375 7.66082031 117.5625 8.29101562 C125.71343586 12.71343586 125.71343586 12.71343586 127 14 C128.94155709 14.09611669 130.88371924 14.18503052 132.8269043 14.23901367 C164.83832316 15.18542729 192.07850414 26.21830621 214.3828125 49.41015625 C216.40772214 51.41391012 218.43796789 53.25520463 220.59912109 55.10131836 C225.28670779 59.18769812 229.65875881 63.55013595 234.03125 67.96875 C235.28427917 69.22745911 235.28427917 69.22745911 236.56262207 70.51159668 C240.10336129 74.0685452 243.63807324 77.6314612 247.17333984 81.19384766 C249.7697206 83.80840164 252.36916566 86.41988184 254.96875 89.03125 C255.75544067 89.82623901 256.54213135 90.62122803 257.35266113 91.44030762 C261.47961409 95.58533128 265.69233724 99.54144667 270.12518311 103.35671997 C273.07116402 105.93887699 275.84515196 108.68286392 278.6171875 111.44921875 C279.20041779 112.02912064 279.78364807 112.60902252 280.384552 113.20649719 C281.60076223 114.41769694 282.81567043 115.63020545 284.02929688 116.84399414 C285.88653777 118.69902403 287.75167204 120.54587418 289.6171875 122.39257812 C290.80517559 123.5776359 291.99269283 124.76316593 293.1796875 125.94921875 C293.73486053 126.49720627 294.29003357 127.04519379 294.86203003 127.60978699 C299.33853263 132.11305381 301.28601981 135.02181452 301.375 141.375 C301.40335938 142.29023438 301.43171875 143.20546875 301.4609375 144.1484375 C300.45380244 150.37901879 295.51231179 154.82458681 291.3125 159.25 C290.23646758 160.39926081 289.16095088 161.54900468 288.0859375 162.69921875 C287.29654785 163.54105713 287.29654785 163.54105713 286.49121094 164.39990234 C284.44493774 166.59559234 282.43908482 168.82607219 280.4375 171.0625 C274.87190472 177.26989365 269.22487133 183.40217451 263.58398438 189.54101562 C258.72854872 194.82625471 253.87889386 200.11660662 249.0625 205.4375 C248.02802734 206.58025391 248.02802734 206.58025391 246.97265625 207.74609375 C245.58116193 209.33597934 244.24279774 210.97313446 242.9453125 212.640625 C239.87586413 216.36340977 236.51613758 218.55911926 231.79296875 219.38671875 C223.38069256 219.80231672 217.62553435 214.93607373 211.375 209.875 C210.15674083 208.90303031 208.93797823 207.93169133 207.71875 206.9609375 C207.10515625 206.47077148 206.4915625 205.98060547 205.859375 205.47558594 C202.88913039 203.11842228 199.883736 200.80770483 196.875 198.5 C195.84117187 197.7059375 194.80734375 196.911875 193.7421875 196.09375 C191.50316872 194.3841858 189.25750513 192.68502775 187 191 C186.17141511 196.09288276 185.82918444 201.06424435 185.77258301 206.22595215 C185.76018349 207.02677105 185.74778398 207.82758996 185.73500872 208.65267611 C185.69474173 211.32244398 185.66085743 213.9922537 185.62695312 216.66210938 C185.59926487 218.58326783 185.57117314 220.50442051 185.54270935 222.42556763 C185.48228672 226.56093699 185.42467924 230.69633261 185.36924744 234.83177185 C185.28111776 241.40228067 185.18646911 247.97268597 185.09094238 254.54309082 C184.92290604 266.15737481 184.76030381 277.77173008 184.59893799 289.3861084 C184.35728458 306.77792218 184.11165347 324.16967852 183.86051702 341.56135798 C183.78205953 347.00659459 183.70487037 352.45184296 183.63075256 357.8971405 C183.46012865 370.42041176 183.27245079 382.94314584 183.04514694 395.46552658 C183.00095559 397.94635468 182.96003633 400.42722001 182.91958618 402.90811157 C182.85742601 406.61459398 182.77991218 410.32042364 182.68889713 414.02630711 C182.6443143 415.95797858 182.61323087 417.88994721 182.58269501 419.82189178 C182.29129038 430.2578733 182.29129038 430.2578733 179 435 C175.23527267 438.39743686 172.84613343 440.12247184 167.80385208 440.13422108 C166.9187877 440.13867892 166.03372332 440.14313676 165.12183881 440.14772969 C163.65426511 440.14745315 163.65426511 440.14745315 162.15704346 440.14717102 C161.1223457 440.15084771 160.08764795 440.1545244 159.02159572 440.1583125 C155.53164482 440.16938351 152.04172367 440.17319895 148.55175781 440.17700195 C146.05876571 440.18326399 143.56577455 440.18991056 141.07278442 440.19691467 C133.57482311 440.21616749 126.0768697 440.22674662 118.57889092 440.23564246 C115.04914202 440.24002406 111.51939462 440.24539122 107.98964691 440.25063133 C96.25781694 440.26764484 84.52598791 440.28213926 72.79414749 440.28938007 C69.74883269 440.29129001 66.7035179 440.29321034 63.65820312 440.29516602 C62.90129184 440.29564976 62.14438055 440.2961335 61.36453256 440.2966319 C49.10166571 440.30493309 36.83889638 440.33027093 24.57607213 440.36274669 C11.98989975 440.39580738 -0.59622305 440.41382795 -13.18243909 440.41702431 C-20.25068281 440.41919039 -27.31878434 440.42795302 -34.38698578 440.45348549 C-41.03536846 440.47744574 -47.68354101 440.48102438 -54.33197403 440.47072411 C-56.77410101 440.47022713 -59.21624033 440.47659488 -61.65832901 440.49028015 C-64.9888988 440.50790216 -68.31853939 440.50093993 -71.64910889 440.48774719 C-73.10329826 440.50420106 -73.10329826 440.50420106 -74.58686519 440.52098733 C-80.38027314 440.46547324 -83.54970528 439.78640277 -88 436 C-91.45923142 432.06363321 -92.12382639 428.7080667 -92.2911377 423.56164551 C-92.3293438 422.4145385 -92.3675499 421.26743149 -92.40691376 420.08556366 C-92.443433 418.81015968 -92.47995224 417.53475571 -92.51757812 416.22070312 C-92.53785851 415.55093476 -92.5581389 414.8811664 -92.57903385 414.19110203 C-93.17697102 394.36627336 -93.40431822 374.53285141 -93.67424965 354.7014904 C-93.74996813 349.20090003 -93.82962966 343.70036695 -93.90905762 338.1998291 C-94.16044238 320.74257365 -94.40582873 303.285235 -94.64837503 285.82785463 C-94.80875227 274.28666387 -94.97168781 262.74551561 -95.13948298 251.2044301 C-95.2341204 244.68084229 -95.3246729 238.15721481 -95.412117 231.6335268 C-95.46723157 227.59062406 -95.52608258 223.54778208 -95.58598137 219.50494766 C-95.61294465 217.6340922 -95.63836813 215.76321381 -95.66212654 213.89231491 C-95.69479658 211.33678115 -95.73301581 208.7813871 -95.77258301 206.22595215 C-95.78066089 205.48929809 -95.78873878 204.75264403 -95.79706144 203.99366713 C-95.87274951 199.5674296 -96.29094373 195.35820217 -97 191 C-97.45624756 191.35602295 -97.91249512 191.7120459 -98.38256836 192.07885742 C-103.06407525 195.73028097 -107.75060508 199.37517219 -112.44140625 203.01464844 C-114.11916522 204.31651256 -115.79627194 205.61921779 -117.47265625 206.92285156 C-119.79093624 208.72375931 -122.1135594 210.51890562 -124.4375 212.3125 C-125.15220459 212.86897217 -125.86690918 213.42544434 -126.60327148 213.9987793 C-127.26915283 214.51093994 -127.93503418 215.02310059 -128.62109375 215.55078125 C-129.2030249 216.00106689 -129.78495605 216.45135254 -130.38452148 216.9152832 C-134.50623361 219.68281637 -139.24000316 219.66562557 -144 219 C-149.53053428 216.82037875 -153.24176167 212.93006008 -156.9609375 208.4296875 C-159.50248429 205.40125436 -162.18171341 202.5182249 -164.875 199.625 C-168.44515632 195.77478818 -171.99647836 191.91120415 -175.5 188 C-178.96490497 184.13336692 -182.473362 180.31016179 -186 176.5 C-211.11586248 149.32571935 -211.11586248 149.32571935 -211.3125 141.75 C-211.34988281 140.81671875 -211.38726562 139.8834375 -211.42578125 138.921875 C-210.44541883 132.19425029 -204.74128883 127.45818637 -200.109375 122.87890625 C-199.44593079 122.21592026 -198.78248657 121.55293427 -198.09893799 120.86985779 C-196.69934991 119.47327889 -195.29734412 118.07911918 -193.89306641 116.68725586 C-191.76541581 114.57778409 -189.64579927 112.46049856 -187.52734375 110.34179688 C-186.15932322 108.97869576 -184.79084804 107.61605075 -183.421875 106.25390625 C-182.79762634 105.63077042 -182.17337769 105.00763458 -181.5302124 104.36561584 C-178.4700826 101.33764263 -175.3637342 98.41595146 -172.10058594 95.60717773 C-167.50381441 91.62953869 -163.24273623 87.35032001 -158.96875 83.03125 C-158.13339722 82.1921106 -157.29804443 81.35297119 -156.43737793 80.48840332 C-153.78912914 77.828031 -151.14415594 75.16443987 -148.5 72.5 C-145.01337399 68.98662727 -141.52335074 65.47668029 -138.03125 61.96875 C-137.24455933 61.17376099 -136.45786865 60.37877197 -135.64733887 59.55969238 C-131.48813195 55.38227352 -127.25592269 51.37445925 -122.76208496 47.55773926 C-120.94778005 45.9538359 -119.28610095 44.26095066 -117.625 42.5 C-113.51633465 38.34496145 -108.89604051 35.16305351 -104 32 C-103.09378906 31.41089844 -102.18757813 30.82179688 -101.25390625 30.21484375 C-85.78318019 20.66371707 -67.20810926 14.77345863 -48.94677734 14.98388672 C-36.48869958 15.07034656 -27.57508554 9.79484874 -17.17211914 3.31274414 C-11.34559273 -0.20858131 -6.80206032 -0.77991693 0 0 Z " fill="#FEE268" transform="translate(211,36)"/>
<path d="M0 0 C3.37026408 1.63808648 6.63836493 3.39181689 9.90527344 5.22705078 C11.03964844 5.83871094 12.17402344 6.45037109 13.34277344 7.08056641 C21.4937093 11.50298664 21.4937093 11.50298664 22.78027344 12.78955078 C24.72183053 12.88566747 26.66399267 12.9745813 28.60717773 13.02856445 C60.6185966 13.97497807 87.85877758 25.00785699 110.16308594 48.19970703 C112.18799558 50.2034609 114.21824133 52.04475541 116.37939453 53.89086914 C121.06698123 57.97724891 125.43903224 62.33968674 129.81152344 66.75830078 C131.06455261 68.01700989 131.06455261 68.01700989 132.34289551 69.30114746 C135.88363473 72.85809598 139.41834667 76.42101198 142.95361328 79.98339844 C145.54999404 82.59795243 148.14943909 85.20943263 150.74902344 87.82080078 C151.53571411 88.61578979 152.32240479 89.41077881 153.13293457 90.2298584 C157.25988753 94.37488206 161.47261067 98.33099745 165.90545654 102.14627075 C168.85143746 104.72842777 171.62542539 107.4724147 174.39746094 110.23876953 C175.27230637 111.10862236 175.27230637 111.10862236 176.16482544 111.99604797 C177.38103567 113.20724772 178.59594387 114.41975623 179.80957031 115.63354492 C181.66681121 117.48857481 183.53194548 119.33542496 185.39746094 121.18212891 C186.58544903 122.36718668 187.77296627 123.55271671 188.95996094 124.73876953 C189.51513397 125.28675705 190.07030701 125.83474457 190.64230347 126.39933777 C195.11880607 130.90260459 197.06629325 133.8113653 197.15527344 140.16455078 C197.18363281 141.07978516 197.21199219 141.99501953 197.24121094 142.93798828 C196.23407588 149.16856957 191.29258523 153.61413759 187.09277344 158.03955078 C186.01674102 159.18881159 184.94122431 160.33855546 183.86621094 161.48876953 C183.33995117 162.04999512 182.81369141 162.6112207 182.27148438 163.18945312 C180.22521118 165.38514312 178.21935826 167.61562297 176.21777344 169.85205078 C170.65217816 176.05944444 165.00514477 182.19172529 159.36425781 188.33056641 C154.50882216 193.6158055 149.6591673 198.9061574 144.84277344 204.22705078 C144.153125 204.98888672 143.46347656 205.75072266 142.75292969 206.53564453 C141.36143536 208.12553012 140.02307118 209.76268524 138.72558594 211.43017578 C135.65613756 215.15296056 132.29641102 217.34867004 127.57324219 218.17626953 C119.160966 218.5918675 113.40580779 213.72562451 107.15527344 208.66455078 C105.93701427 207.69258109 104.71825167 206.72124211 103.49902344 205.75048828 C102.88542969 205.26032227 102.27183594 204.77015625 101.63964844 204.26513672 C98.66940383 201.90797306 95.66400944 199.59725561 92.65527344 197.28955078 C91.62144531 196.49548828 90.58761719 195.70142578 89.52246094 194.88330078 C87.28344215 193.17373658 85.03777857 191.47457853 82.78027344 189.78955078 C81.95168855 194.88243355 81.60945788 199.85379513 81.55285645 205.01550293 C81.54045693 205.81632184 81.52805741 206.61714074 81.51528215 207.44222689 C81.47501517 210.11199476 81.44113086 212.78180448 81.40722656 215.45166016 C81.37953831 217.37281861 81.35144658 219.29397129 81.32298279 221.21511841 C81.26256016 225.35048777 81.20495268 229.48588339 81.14952087 233.62132263 C81.0613912 240.19183145 80.96674255 246.76223675 80.87121582 253.3326416 C80.70317948 264.94692559 80.54057725 276.56128086 80.37921143 288.17565918 C80.13755802 305.56747296 79.89192691 322.9592293 79.64079046 340.35090876 C79.56233297 345.79614537 79.48514381 351.24139374 79.411026 356.68669128 C79.24040209 369.20996254 79.05272423 381.73269663 78.82542038 394.25507736 C78.78122903 396.73590547 78.74030977 399.21677079 78.69985962 401.69766235 C78.63769945 405.40414476 78.56018562 409.10997442 78.46917057 412.81585789 C78.42458774 414.74752936 78.3935043 416.67949799 78.36296844 418.61144257 C78.07156382 429.04742408 78.07156382 429.04742408 74.78027344 433.78955078 C70.62395013 437.54037913 68.25520238 438.9152657 62.71835327 438.9098053 C61.64923895 438.91118279 60.58012463 438.91256029 59.4786129 438.91397953 C58.29602709 438.91038142 57.11344128 438.90678331 55.89501953 438.90307617 C54.63593088 438.90319671 53.37684223 438.90331724 52.07959938 438.90344143 C48.66732574 438.90281702 45.25511249 438.89786301 41.84284973 438.89083099 C38.64336237 438.88514486 35.44387658 438.88486835 32.24438477 438.88415527 C22.88134301 438.87890359 13.51830779 438.86494249 4.15527344 438.85205078 C-16.75847656 438.83142578 -37.67222656 438.81080078 -59.21972656 438.78955078 C-59.21972656 367.50955078 -59.21972656 296.22955078 -59.21972656 222.78955078 C-53.77472656 225.26455078 -53.77472656 225.26455078 -48.21972656 227.78955078 C-35.00257956 232.46442593 -20.99163305 230.4221583 -8.58300781 224.53955078 C1.75167184 218.96863617 9.96234495 209.38709827 13.62879944 198.20068359 C15.72562964 190.35541259 16.23346842 183.01271725 16.21386719 174.91455078 C16.21910904 173.62822754 16.22435089 172.3419043 16.22975159 171.01660156 C16.23860779 168.31386376 16.23634556 165.61142262 16.22631836 162.90869141 C16.21482282 159.47956198 16.23508602 156.05146159 16.2642355 152.62246704 C16.28719796 149.3031111 16.2801225 145.98398372 16.27636719 142.66455078 C16.28760117 141.4517041 16.29883514 140.23885742 16.31040955 138.98925781 C16.20058306 125.38987339 11.70058691 112.59839802 2.50683594 102.41455078 C-8.51494039 92.04111424 -21.48963775 88.17542929 -36.30175781 88.53564453 C-44.36965685 89.05848943 -50.39429785 91.66585426 -57.21972656 95.78955078 C-57.87972656 95.78955078 -58.53972656 95.78955078 -59.21972656 95.78955078 C-59.21972656 68.72955078 -59.21972656 41.66955078 -59.21972656 13.78955078 C-47.66972656 13.78955078 -36.11972656 13.78955078 -24.21972656 13.78955078 C-23.88972656 11.47955078 -23.55972656 9.16955078 -23.21972656 6.78955078 C-18.32680454 -2.17777471 -8.95354789 -3.36606691 0 0 Z " fill="#FECA47" transform="translate(315.2197265625,37.21044921875)"/>
<path d="M0 0 C10.49106057 7.55573792 17.40061141 19.34335764 20 32 C20.10556011 33.91124533 20.15843398 35.82567794 20.17700195 37.73974609 C20.19625481 39.47337906 20.19625481 39.47337906 20.21589661 41.24203491 C20.22328354 42.48989777 20.23067047 43.73776062 20.23828125 45.0234375 C20.246353 46.31633698 20.25442474 47.60923645 20.26274109 48.9413147 C20.27775229 51.68336859 20.28759383 54.42539681 20.29516602 57.16748047 C20.30614601 60.64138979 20.34045138 64.11464352 20.38033772 67.58832359 C20.41316549 70.94166494 20.41731527 74.29494817 20.42578125 77.6484375 C20.44328934 78.87605804 20.46079742 80.10367859 20.47883606 81.36849976 C20.44142256 96.55193948 16.0754782 109.59152355 5.6875 120.8125 C-4.77883538 130.53456264 -17.34955572 134.63597116 -31.41796875 134.47265625 C-37.8507196 134.221888 -43.23999737 132.95808747 -49 130 C-49.85980469 129.56429687 -50.71960938 129.12859375 -51.60546875 128.6796875 C-62.43376669 122.68398849 -70.98801862 113.47586387 -74.79168701 101.50930786 C-76.89593764 93.71651186 -77.45354016 86.46358539 -77.43359375 78.4140625 C-77.4388356 77.15467865 -77.44407745 75.8952948 -77.44947815 74.5977478 C-77.45586345 71.95025672 -77.45607413 69.30363996 -77.44604492 66.65625 C-77.43685428 63.97201367 -77.44378422 61.28864698 -77.46655273 58.60449219 C-77.49749871 54.68658721 -77.50061418 50.76957123 -77.49609375 46.8515625 C-77.50732773 45.67091217 -77.51856171 44.49026184 -77.53013611 43.27383423 C-77.41257437 28.96941689 -73.57251188 16.03639092 -63.640625 5.49609375 C-45.01291636 -12.0613894 -21.43605259 -13.6586542 0 0 Z " fill="#25A697" transform="translate(312,134)"/>
<path d="M0 0 C5.34740414 1.95385921 8.45618143 4.91236287 11 10 C11.09901529 11.60821034 11.1350568 13.2204795 11.14044189 14.83172607 C11.14900711 16.36263382 11.14900711 16.36263382 11.15774536 17.92446899 C11.15886322 19.04864227 11.15998108 20.17281555 11.16113281 21.33105469 C11.16609772 22.51164459 11.17106262 23.6922345 11.17617798 24.90859985 C11.18829998 28.15258832 11.19574861 31.39654071 11.20018864 34.64054775 C11.20311912 36.66781073 11.20722395 38.69506805 11.21169281 40.72232819 C11.22537146 47.06656072 11.2350355 53.41078032 11.2388947 59.75502658 C11.24337222 67.07549349 11.26090414 74.39577338 11.2898953 81.71618342 C11.3115295 87.37572255 11.32159996 93.03520914 11.32293582 98.69478917 C11.3239829 102.07421508 11.32986932 105.45346527 11.34775543 108.8328476 C11.36479501 112.60583173 11.36294029 116.37836026 11.35644531 120.15136719 C11.3656601 121.26744354 11.37487488 122.3835199 11.3843689 123.53341675 C11.35437829 129.09024824 11.23003756 133.24778719 8 138 C3.30107098 142.34650935 -0.4753557 143.3747913 -6.71875 143.2734375 C-10.37096829 142.83567161 -12.30413546 141.44508644 -15 139 C-19.50672698 132.84981176 -19.5727802 127.67103955 -19.51757812 120.19311523 C-19.5245874 119.02154877 -19.53159668 117.8499823 -19.53881836 116.64291382 C-19.55638302 112.78123071 -19.54478082 108.92028395 -19.53125 105.05859375 C-19.53214139 102.37011627 -19.53782189 99.6816518 -19.54284668 96.99317932 C-19.55011059 91.36361754 -19.54056759 85.73426612 -19.52148438 80.10473633 C-19.49970719 73.60562437 -19.50677774 67.10701424 -19.52879 60.60791439 C-19.54696744 55.01617477 -19.54949128 49.42458582 -19.53903532 43.8328262 C-19.53281441 40.49812477 -19.53350712 37.16384781 -19.54518127 33.82913017 C-19.55534074 30.11157168 -19.53985251 26.39497695 -19.51757812 22.67749023 C-19.52567505 21.57861984 -19.53377197 20.47974945 -19.54211426 19.34757996 C-19.47434893 13.24204465 -19.09403332 9.63749555 -15 5 C-10.02622141 0.61833791 -6.65326384 -0.68270431 0 0 Z " fill="#56D4B5" transform="translate(199,125)"/>
<path d="M0 0 C5.1784033 3.41303854 8.52322733 7.00944314 10.75 12.8125 C11.20220526 16.92428866 11.19417299 21.01498359 11.18359375 25.1484375 C11.1888356 26.3417569 11.19407745 27.53507629 11.19947815 28.76455688 C11.20589092 31.28443627 11.20457105 33.80434563 11.19604492 36.32421875 C11.18754487 40.16721291 11.21629391 44.00871541 11.24804688 47.8515625 C11.24965934 50.30468706 11.2490805 52.75781423 11.24609375 55.2109375 C11.25732773 56.35388275 11.26856171 57.496828 11.28013611 58.67440796 C11.22070222 65.52426713 10.42750776 69.98621713 6.75 75.8125 C2.30398072 80.14451879 -1.86361334 81.89518777 -8 82.3125 C-13.83621963 82.17312759 -18.21758669 80.01750688 -22.25 75.8125 C-26.53599571 68.94769762 -26.85125205 63.26698843 -26.81640625 55.28125 C-26.82260483 54.0907605 -26.82880341 52.900271 -26.83518982 51.67370605 C-26.84226907 49.16577977 -26.83914731 46.6578063 -26.82641602 44.14990234 C-26.81254284 40.32431209 -26.84666419 36.50116564 -26.88476562 32.67578125 C-26.88571684 30.23177024 -26.88385786 27.78775618 -26.87890625 25.34375 C-26.89216446 24.20707886 -26.90542267 23.07040771 -26.91908264 21.89929199 C-26.82729145 14.02818831 -25.31277442 8.88460052 -19.70118713 3.26013184 C-13.85144061 -1.88054592 -7.22446213 -2.63970732 0 0 Z " fill="#FACA48" transform="translate(291.25,156.1875)"/>
<path d="M0 0 C0 41.25 0 82.5 0 125 C-8.72455477 120.63772262 -14.08902743 112.79968827 -18 104 C-20.73124292 95.432664 -21.45577371 87.36495031 -21.43359375 78.4140625 C-21.4388356 77.15467865 -21.44407745 75.8952948 -21.44947815 74.5977478 C-21.45586345 71.95025672 -21.45607413 69.30363996 -21.44604492 66.65625 C-21.43685428 63.97201367 -21.44378422 61.28864698 -21.46655273 58.60449219 C-21.49749871 54.68658721 -21.50061418 50.76957123 -21.49609375 46.8515625 C-21.50732773 45.67091217 -21.51856171 44.49026184 -21.53013611 43.27383423 C-21.41378215 29.11637427 -17.69443287 15.81873712 -7.58203125 5.54296875 C-1.4760289 0 -1.4760289 0 0 0 Z " fill="#56D3B4" transform="translate(256,134)"/>
<path d="M0 0 C3.37208469 1.61944192 6.63829644 3.35884395 9.90527344 5.18066406 C11.60683594 6.08558594 11.60683594 6.08558594 13.34277344 7.00878906 C21.61301666 11.47115052 21.61301666 11.47115052 22.78027344 13.80566406 C7.27027344 13.80566406 -8.23972656 13.80566406 -24.21972656 13.80566406 C-23.15419964 6.34697557 -23.02704183 5.61297933 -18.21972656 0.80566406 C-12.53285017 -2.66558498 -6.09843044 -2.2621718 0 0 Z " fill="#23A698" transform="translate(315.2197265625,37.1943359375)"/>
<path d="M0 0 C3.16137924 3.00716562 4.72233191 5.47406104 6.5625 9.4375 C6.5625 10.7575 6.5625 12.0775 6.5625 13.4375 C-8.9475 13.4375 -24.4575 13.4375 -40.4375 13.4375 C-36.30585376 9.30585376 -31.56116151 6.99274188 -26.4375 4.25 C-25.44621094 3.69119141 -24.45492187 3.13238281 -23.43359375 2.55664062 C-15.66110063 -1.59308028 -8.35579895 -3.79809043 0 0 Z " fill="#55D4B6" transform="translate(214.4375,37.5625)"/>
</svg>
