<?xml version="1.0" encoding="UTF-8"?>
<svg version="1.1" xmlns="http://www.w3.org/2000/svg" width="512" height="512">
<path d="M0 0 C1.94087721 -0.01655678 3.88169351 -0.04384322 5.82226562 -0.08203125 C8.6218221 -0.13683574 11.41994983 -0.15867898 14.2199707 -0.17333984 C15.51708733 -0.2073439 15.51708733 -0.2073439 16.84040833 -0.24203491 C21.16590271 -0.2268905 23.06477764 -0.04267802 26.6628418 2.56518555 C28.76122649 5.57149981 29.20550171 6.82881823 29.0949707 10.43212891 C29.07885742 11.36347656 29.06274414 12.29482422 29.04614258 13.25439453 C29.00424805 14.21410156 28.96235352 15.17380859 28.91918945 16.16259766 C28.88535156 17.63116211 28.88535156 17.63116211 28.85083008 19.12939453 C28.79208672 21.5378722 28.71001074 23.94318843 28.60668945 26.35009766 C29.22189453 26.32915039 29.83709961 26.30820313 30.47094727 26.28662109 C33.26602754 26.20332749 36.0608466 26.15139753 38.85668945 26.10009766 C40.30881836 26.04982422 40.30881836 26.04982422 41.7902832 25.99853516 C48.95312959 25.89973727 48.95312959 25.89973727 52.2199707 28.15087891 C54.19063642 31.27618819 54.54213532 33.67051229 54.60668945 37.35009766 C53.37996355 40.41691242 52.48899103 41.87423059 49.5715332 43.44775391 C45.48785923 44.6906112 41.54160577 44.81418528 37.29418945 44.97509766 C36.04025391 45.03310547 36.04025391 45.03310547 34.76098633 45.09228516 C32.70989686 45.18604925 30.65832431 45.2691401 28.60668945 45.35009766 C28.6530957 46.18412109 28.69950195 47.01814453 28.74731445 47.87744141 C29.05583498 57.49667072 27.92425002 64.05746461 21.29418945 71.22509766 C17.99926616 74.29893302 14.84416907 75.87995167 10.60668945 77.35009766 C11.41493164 77.66462891 12.22317383 77.97916016 13.0559082 78.30322266 C14.12454102 78.73119141 15.19317383 79.15916016 16.29418945 79.60009766 C17.34993164 80.01775391 18.40567383 80.43541016 19.4934082 80.86572266 C27.26427706 84.57077933 32.12526638 91.0389816 35.7199707 98.73291016 C38.18249107 105.80536202 37.89477588 112.94520951 37.60668945 120.35009766 C38.53223633 120.31658203 39.4577832 120.28306641 40.41137695 120.24853516 C44.63530567 120.38279206 46.37265711 121.67850572 49.60668945 124.35009766 C52.11402816 127.5021806 53.55390285 130.19900206 54.8840332 134.00634766 C56.64526377 138.78378798 59.20935746 142.84996718 61.98168945 147.10009766 C62.77397949 148.33445557 62.77397949 148.33445557 63.58227539 149.59375 C65.24870778 152.1847234 66.92624684 154.76819312 68.60668945 157.35009766 C69.64578738 158.95163717 70.68485055 160.55319924 71.72387695 162.15478516 C73.3044588 164.58837549 74.88658084 167.02092418 76.47192383 169.45141602 C80.84817507 176.16334317 85.17033813 182.90883983 89.48168945 189.66259766 C95.24706587 198.69116058 101.06823007 207.68079829 106.93530273 216.64355469 C110.31541642 221.81445709 113.67193853 226.99935423 116.99731445 232.20556641 C117.36268311 232.77755768 117.72805176 233.34954895 118.10449219 233.93887329 C119.8782447 236.71738738 121.64909847 239.49769146 123.41723633 242.27978516 C124.05209961 243.27623047 124.68696289 244.27267578 125.34106445 245.29931641 C126.17976074 246.61935669 126.17976074 246.61935669 127.03540039 247.96606445 C128.56906117 250.36071088 128.56906117 250.36071088 130.31079102 252.54077148 C131.60668945 254.35009766 131.60668945 254.35009766 131.60668945 256.35009766 C139.34429636 256.30816474 147.08119927 256.23558321 154.81835938 256.14257812 C157.44557326 256.11450719 160.07286942 256.09322432 162.70019531 256.07910156 C166.49627388 256.0574797 170.29137745 256.01072924 174.0871582 255.95947266 C175.8239106 255.9576297 175.8239106 255.9576297 177.5957489 255.95574951 C190.45142949 255.72944987 202.042032 252.45536295 211.53637695 243.53759766 C220.38115327 234.12341514 222.61752233 224.13242255 224.0246582 211.63916016 C225.88550818 195.95712527 230.7506455 183.1757233 243.35668945 172.90869141 C255.66446809 164.38299058 269.8215006 160.41588727 284.67700195 162.85400391 C298.88451541 166.03343467 311.06029209 173.36929582 319.07543945 185.71337891 C324.78270599 195.54094246 329.29896545 206.75487325 327.60668945 218.35009766 C325.86108657 223.66239184 323.37947162 227.29062191 318.60668945 230.35009766 C313.48759571 232.05646224 307.7192479 232.25840932 302.50512695 230.73681641 C297.60274911 228.28562748 294.69977528 224.34194124 292.60668945 219.35009766 C291.98568478 216.54363424 291.54667412 213.74128155 291.1105957 210.90087891 C290.24402571 206.51428819 288.46564418 203.73272158 284.8840332 201.06884766 C280.37782249 198.41708151 276.77686652 197.90685756 271.64575195 198.81494141 C267.26967424 199.96345222 265.23535076 201.52168641 262.50366211 205.12133789 C259.46317081 210.64007666 260.04294529 216.74964335 260.06762695 222.88525391 C260.04959946 224.88911577 260.03156214 226.89297759 260.01297951 228.89683437 C259.99178685 231.69522651 259.98834836 234.49353036 259.98504639 237.29199219 C259.97734189 242.15899586 259.9498873 247.02584492 259.9100647 251.89268494 C259.89069335 254.47609347 259.88107111 257.05960134 259.88314819 259.64308167 C259.73852005 284.53324966 252.58942056 304.86374524 234.9440918 322.44482422 C231.71618307 325.53618858 228.36760813 327.97654009 224.60668945 330.35009766 C228.12973459 333.87314279 239.07360699 332.54008428 243.91918945 332.60009766 C261.79919904 332.5545375 278.85822251 328.5953161 295.98168945 323.78759766 C297.80168191 323.28708348 299.62199436 322.7877314 301.44262695 322.28955078 C307.474491 320.63420875 313.50123228 318.96347024 319.50683594 317.21508789 C324.60299927 315.79304279 329.43772834 315.13336338 334.16918945 317.78759766 C336.24990028 321.49669086 336.59970799 325.20278493 335.60668945 329.35009766 C332.29776881 334.32282585 326.67730022 335.12660541 321.23168945 336.60009766 C320.19109375 336.89166748 319.15049805 337.1832373 318.07836914 337.48364258 C314.59177799 338.45416079 311.09958377 339.40253238 307.60668945 340.35009766 C306.31647744 340.7051012 305.02644152 341.06074527 303.73657227 341.41699219 C300.42814882 342.33030042 297.11759302 343.23542145 293.80511475 344.13391113 C291.90719361 344.64889384 290.01010311 345.16693466 288.11303711 345.68505859 C256.02665153 354.25587165 225.76808122 352.14690363 193.95654297 343.86914062 C191.51954033 343.24225554 191.51954033 343.24225554 188.60668945 343.35009766 C189.26668945 344.34009766 189.92668945 345.33009766 190.60668945 346.35009766 C191.27237822 350.55322555 191.2682474 354.17079871 189.16918945 357.91259766 C185.28633014 360.09078703 181.93488703 360.43404206 177.60668945 359.35009766 C173.97539835 356.79346072 171.97524408 353.12339573 170.0949707 349.17822266 C168.2216852 345.59161761 166.63479943 343.05012544 163.60668945 340.35009766 C157.43303749 339.12332471 151.73579602 340.20506364 145.60668945 341.35009766 C144.14706787 341.61064941 144.14706787 341.61064941 142.65795898 341.87646484 C136.30252395 343.03163194 129.98347773 344.32969275 123.66918945 345.69042969 C93.51677281 352.18531408 66.42227999 352.9309222 36.29418945 345.85009766 C9.16069141 339.48509936 -14.15761166 339.7955329 -41.34692383 345.69042969 C-66.17744194 351.0672577 -66.17744194 351.0672577 -75.39331055 351.35009766 C-76.09939453 351.37587891 -76.80547852 351.40166016 -77.53295898 351.42822266 C-80.09057924 351.51096007 -82.64718806 351.55949584 -85.20581055 351.60009766 C-86.36777954 351.63248535 -86.36777954 351.63248535 -87.55322266 351.66552734 C-104.94461293 351.75438971 -122.01643359 347.82706278 -138.67480469 343.21655273 C-141.61430122 342.40333236 -144.55876203 341.61056505 -147.50463867 340.82080078 C-173.41210341 333.82190837 -173.41210341 333.82190837 -176.39331055 329.35009766 C-176.92998208 326.28259616 -176.91964504 323.41945881 -176.39331055 320.35009766 C-174.39331055 317.78759766 -174.39331055 317.78759766 -171.39331055 316.35009766 C-164.97626766 315.90556066 -159.65433638 317.09196275 -153.5144043 318.86962891 C-152.11980736 319.25848518 -152.11980736 319.25848518 -150.69703674 319.65519714 C-147.73880067 320.48129697 -144.78464013 321.32089035 -141.83081055 322.16259766 C-116.82999705 329.24087918 -92.54207675 335.08563569 -66.39331055 331.35009766 C-66.06331055 331.02009766 -65.73331055 330.69009766 -65.39331055 330.35009766 C-65.92698242 329.96080078 -66.4606543 329.57150391 -67.01049805 329.17041016 C-84.20562667 316.25918901 -96.19922612 299.50590107 -99.45288086 277.97851562 C-100.47330464 270.58709945 -100.67273943 263.33735574 -100.66674805 255.88525391 C-100.6818434 253.87210204 -100.69696182 251.85895005 -100.71343422 249.84580898 C-100.7508396 244.95430133 -100.76839816 240.06278229 -100.77416992 235.17114258 C-100.77822344 232.39975921 -100.79281281 229.6287954 -100.81851196 226.85752869 C-100.84182084 224.26661098 -100.84938154 221.67548951 -100.83895874 219.08448792 C-100.91547066 212.30307442 -101.24173201 207.82079281 -105.39331055 202.35009766 C-109.41291393 198.90472332 -114.19947607 198.07309315 -119.39331055 198.35009766 C-123.69114591 199.56075551 -126.60640767 201.54192713 -129.70581055 204.72509766 C-131.39673736 208.35745895 -132.07982601 211.43012345 -132.83081055 215.35009766 C-134.27653654 222.7264093 -135.86317103 225.82856943 -142.01831055 230.22509766 C-147.57886274 232.07861505 -153.14818843 232.51639779 -158.7409668 230.50634766 C-163.88700391 227.65919441 -166.76471877 223.99383393 -168.39331055 218.35009766 C-170.58187223 205.09294815 -164.05146994 192.30572742 -157.21362305 181.48291016 C-149.23590513 170.7100794 -135.20537298 164.549183 -122.39331055 162.35009766 C-108.47895924 161.01633859 -95.13782015 164.98312753 -83.8503418 173.20166016 C-73.08828352 182.25116309 -66.18545327 194.88473342 -64.90112305 208.90087891 C-64.77267854 210.48805071 -64.64509571 212.07529244 -64.51831055 213.66259766 C-63.18606142 227.61551618 -59.16335367 237.88940924 -48.20581055 247.10009766 C-44.66914118 249.68494253 -41.15157674 251.41736255 -37.0925293 253.05322266 C-36.02220459 253.48795898 -34.95187988 253.92269531 -33.84912109 254.37060547 C-33.03870361 254.69383789 -32.22828613 255.01707031 -31.39331055 255.35009766 C-31.38373193 240.91963551 -31.40891218 226.4895875 -31.47358894 212.05925941 C-31.5030157 205.35809202 -31.52068835 198.65729438 -31.51342773 191.95605469 C-31.50682428 185.48484403 -31.52937924 179.01432286 -31.57186508 172.54325485 C-31.58297791 170.07864207 -31.58371305 167.61395922 -31.57373428 165.14934158 C-31.56151889 161.6876705 -31.58672386 158.2280901 -31.62036133 154.76660156 C-31.60202995 153.24960663 -31.60202995 153.24960663 -31.58332825 151.70196533 C-31.69854987 145.09014566 -33.25043733 140.94912457 -36.97561455 135.47917747 C-40.82746964 129.69450506 -40.74868498 123.23231385 -40.70581055 116.53759766 C-40.70162109 115.65120605 -40.69743164 114.76481445 -40.69311523 113.8515625 C-40.53555204 104.74139244 -39.03839251 97.70581052 -33.39331055 90.35009766 C-32.85706055 89.52509766 -32.32081055 88.70009766 -31.76831055 87.85009766 C-25.3760148 81.12136529 -17.28181517 78.2765036 -8.39331055 76.35009766 C-8.91280273 75.99818359 -9.43229492 75.64626953 -9.9675293 75.28369141 C-17.14512152 70.20232759 -21.7115435 65.21759664 -23.39331055 56.35009766 C-23.66374187 52.09436258 -23.74948624 48.41862475 -22.39331055 44.35009766 C-23.70686523 44.38490234 -25.02041992 44.41970703 -26.3737793 44.45556641 C-28.10944356 44.48371231 -29.84512169 44.51101161 -31.58081055 44.53759766 C-32.87728516 44.57530273 -32.87728516 44.57530273 -34.19995117 44.61376953 C-39.11910441 44.67031152 -42.39635664 44.55542186 -46.39331055 41.35009766 C-48.78617939 38.95722882 -48.71381671 38.25562672 -48.76831055 34.97509766 C-48.79666992 34.20423828 -48.8250293 33.43337891 -48.85424805 32.63916016 C-48.39331055 30.35009766 -48.39331055 30.35009766 -47.04174805 28.07666016 C-42.81746673 25.32277764 -38.56196207 25.92981145 -33.64331055 26.10009766 C-32.16797852 26.12716797 -32.16797852 26.12716797 -30.6628418 26.15478516 C-28.23867272 26.2018564 -25.81648996 26.26759024 -23.39331055 26.35009766 C-23.41425781 25.77042236 -23.43520508 25.19074707 -23.45678711 24.59350586 C-23.54027862 21.95004842 -23.59207207 19.30686885 -23.64331055 16.66259766 C-23.67682617 15.75058594 -23.7103418 14.83857422 -23.74487305 13.89892578 C-23.80838615 9.53239971 -23.83053541 7.06284644 -21.50268555 3.26806641 C-16.06846828 -1.67304596 -7.00246444 0.04381351 0 0 Z M37.60668945 154.35009766 C37.60668945 188.01009766 37.60668945 221.67009766 37.60668945 256.35009766 C61.36668945 256.35009766 85.12668945 256.35009766 109.60668945 256.35009766 C108.16745286 252.75200618 107.0190643 250.21398538 104.9543457 247.08447266 C104.43122803 246.28630127 103.90811035 245.48812988 103.36914062 244.66577148 C102.80815674 243.81909912 102.24717285 242.97242676 101.66918945 242.10009766 C100.478918 240.28640534 99.28881628 238.47260164 98.09887695 236.65869141 C97.20894043 235.30686768 97.20894043 235.30686768 96.30102539 233.92773438 C93.94917593 230.34980547 91.6188119 226.75825581 89.29418945 223.16259766 C88.86033936 222.49236572 88.42648926 221.82213379 87.97949219 221.1315918 C83.87419189 214.78144564 79.80395238 208.40895928 75.73168945 202.03759766 C69.2293423 191.86765345 62.69956086 181.71660907 56.08959961 171.61621094 C55.09564505 170.09729651 54.10314658 168.57742831 53.11206055 167.05664062 C51.71946288 164.92194416 50.32050025 162.79158141 48.91918945 160.66259766 C48.50878418 160.03208496 48.09837891 159.40157227 47.67553711 158.75195312 C44.14784578 153.35885563 44.14784578 153.35885563 37.60668945 154.35009766 Z " fill="#CA8252" transform="translate(176.393310546875,54.64990234375)"/>
<path d="M0 0 C3.9242181 3.64095588 6.75128629 7.46349156 9.5 12.0625 C10.38108878 13.50365942 11.26398658 14.943714 12.1484375 16.3828125 C12.84404785 17.51638184 12.84404785 17.51638184 13.55371094 18.67285156 C16.01581461 22.63449441 18.57193496 26.53409863 21.125 30.4375 C26.08515906 38.03509842 30.99315631 45.66435681 35.875 53.3125 C41.64033501 62.34108908 47.46154093 71.3307011 53.32861328 80.29345703 C56.70872697 85.46435943 60.06524908 90.64925657 63.390625 95.85546875 C63.75599365 96.42746002 64.1213623 96.99945129 64.49780273 97.58877563 C66.27155525 100.36728973 68.04240902 103.14759381 69.81054688 105.9296875 C70.44541016 106.92613281 71.08027344 107.92257812 71.734375 108.94921875 C72.29350586 109.82924561 72.85263672 110.70927246 73.42871094 111.6159668 C74.96237172 114.01061322 74.96237172 114.01061322 76.70410156 116.19067383 C78 118 78 118 78 120 C85.73760691 119.95806709 93.47450982 119.88548555 101.21166992 119.79248047 C103.83888381 119.76440953 106.46617997 119.74312667 109.09350586 119.72900391 C112.88958442 119.70738204 116.684688 119.66063158 120.48046875 119.609375 C122.21722115 119.60753204 122.21722115 119.60753204 123.98905945 119.60565186 C136.84474003 119.37935221 148.43534255 116.1052653 157.9296875 107.1875 C166.77446381 97.77331749 169.01083288 87.7823249 170.41796875 75.2890625 C172.27881873 59.60702761 177.14395605 46.82562564 189.75 36.55859375 C202.05777864 28.03289292 216.21481114 24.06578962 231.0703125 26.50390625 C245.27782596 29.68333701 257.45360264 37.01919816 265.46875 49.36328125 C271.17601654 59.1908448 275.69227599 70.40477559 274 82 C272.25439711 87.31229419 269.77278217 90.94052425 265 94 C259.88090626 95.70636458 254.11255844 95.90831166 248.8984375 94.38671875 C243.99605965 91.93552983 241.09308583 87.99184359 239 83 C238.37899533 80.19353659 237.93998466 77.39118389 237.50390625 74.55078125 C236.63733626 70.16419053 234.85895472 67.38262392 231.27734375 64.71875 C226.77113304 62.06698385 223.17017707 61.5567599 218.0390625 62.46484375 C213.66298479 63.61335457 211.6286613 65.17158876 208.89697266 68.77124023 C205.85648136 74.28997901 206.43625584 80.39954569 206.4609375 86.53515625 C206.44291 88.53901811 206.42487268 90.54287993 206.40629005 92.54673672 C206.3850974 95.34512886 206.38165891 98.1434327 206.37835693 100.94189453 C206.37065243 105.8088982 206.34319784 110.67574726 206.30337524 115.54258728 C206.2840039 118.12599581 206.27438166 120.70950369 206.27645874 123.29298401 C206.1318306 148.183152 198.98273111 168.51364759 181.33740234 186.09472656 C178.10949362 189.18609093 174.76091867 191.62644244 171 194 C174.52304514 197.52304514 185.46691754 196.18998662 190.3125 196.25 C208.19250958 196.20443984 225.25153306 192.24521845 242.375 187.4375 C244.19499245 186.93698582 246.0153049 186.43763374 247.8359375 185.93945312 C253.86780155 184.28411109 259.89454283 182.61337258 265.90014648 180.86499023 C270.99630982 179.44294513 275.83103889 178.78326572 280.5625 181.4375 C282.64321082 185.14659321 282.99301854 188.85268728 282 193 C278.69107936 197.9727282 273.07061077 198.77650775 267.625 200.25 C266.5844043 200.54156982 265.54380859 200.83313965 264.47167969 201.13354492 C260.98508854 202.10406313 257.49289432 203.05243473 254 204 C252.70978799 204.35500354 251.41975206 204.71064761 250.12988281 205.06689453 C246.82145937 205.98020277 243.51090356 206.8853238 240.19842529 207.78381348 C238.30050416 208.29879618 236.40341365 208.816837 234.50634766 209.33496094 C202.41996207 217.90577399 172.16139177 215.79680598 140.34985352 207.51904297 C137.91285088 206.89215789 137.91285088 206.89215789 135 207 C135.66 207.99 136.32 208.98 137 210 C137.66568876 214.20312789 137.66155794 217.82070106 135.5625 221.5625 C131.67964068 223.74068937 128.32819757 224.0839444 124 223 C120.3687089 220.44336307 118.36855462 216.77329807 116.48828125 212.828125 C114.61499575 209.24151995 113.02810998 206.70002778 110 204 C103.82634803 202.77322705 98.12910657 203.85496598 92 205 C90.54037842 205.26055176 90.54037842 205.26055176 89.05126953 205.52636719 C82.6958345 206.68153428 76.37678828 207.97959509 70.0625 209.34033203 C39.91008336 215.83521642 12.81559054 216.58082455 -17.3125 209.5 C-44.44599804 203.13500171 -67.76430111 203.44543524 -94.95361328 209.34033203 C-119.78413139 214.71716004 -119.78413139 214.71716004 -129 215 C-130.05912598 215.03867187 -130.05912598 215.03867187 -131.13964844 215.078125 C-133.69726869 215.16086241 -136.25387751 215.20939819 -138.8125 215.25 C-139.587146 215.2715918 -140.36179199 215.29318359 -141.15991211 215.31542969 C-158.55130239 215.40429205 -175.62312305 211.47696512 -192.28149414 206.86645508 C-195.22099068 206.05323471 -198.16545149 205.2604674 -201.11132812 204.47070312 C-227.01879286 197.47181071 -227.01879286 197.47181071 -230 193 C-230.53667153 189.9324985 -230.52633449 187.06936115 -230 184 C-228 181.4375 -228 181.4375 -225 180 C-218.58295711 179.55546301 -213.26102583 180.74186509 -207.12109375 182.51953125 C-206.19136246 182.77876877 -205.26163116 183.03800629 -204.3037262 183.30509949 C-201.34549012 184.13119931 -198.39132958 184.97079269 -195.4375 185.8125 C-160.39246268 195.73452275 -130.04948941 198.69662438 -94.33618164 190.18652344 C-64.52050983 183.10187209 -35.03116256 185.29995892 -5.50976562 192.93017578 C14.91078837 198.18971032 38.53164251 198.05868327 59 193 C60.67308848 192.59728797 62.34627121 192.19496735 64.01953125 191.79296875 C66.68730549 191.15025543 69.35425253 190.50511597 72.01855469 189.84814453 C80.93189999 187.68488716 89.92298366 186.27596915 99 185 C98.44054687 184.17242187 97.88109375 183.34484375 97.3046875 182.4921875 C91.5343211 173.91581012 85.94207695 165.23595304 80.40820312 156.50537109 C76.26812808 149.9787838 72.08983022 143.47856209 67.875 137 C67.34285889 136.18184814 66.81071777 135.36369629 66.26245117 134.52075195 C65.76076416 133.75077881 65.25907715 132.98080566 64.7421875 132.1875 C64.03980957 131.10855469 64.03980957 131.10855469 63.32324219 130.0078125 C62.11588852 128.17584266 60.87758062 126.36910474 59.6328125 124.5625 C58 122 58 122 58 120 C57.34 120 56.68 120 56 120 C54.6940918 118.29785156 54.6940918 118.29785156 53.19921875 115.890625 C52.64121582 115.00141357 52.08321289 114.11220215 51.50830078 113.19604492 C50.90743652 112.2238501 50.30657227 111.25165527 49.6875 110.25 C48.40844739 108.20907406 47.12848107 106.16872048 45.84765625 104.12890625 C45.20070801 103.09523926 44.55375977 102.06157227 43.88720703 100.99658203 C41.17912271 96.69657854 38.40652889 92.44021836 35.625 88.1875 C30.70814149 80.65149351 25.84381249 73.08314746 21 65.5 C10.81738626 49.56596009 0.53876552 33.70109535 -10 18 C-9.22140625 17.24589844 -8.4428125 16.49179688 -7.640625 15.71484375 C-3.13890657 11.08659773 -0.63950887 6.55496588 0 0 Z " fill="#CE9769" transform="translate(230,191)"/>
<path d="M0 0 C1.94087721 -0.01655678 3.88169351 -0.04384322 5.82226562 -0.08203125 C8.6218221 -0.13683574 11.41994983 -0.15867898 14.2199707 -0.17333984 C15.51708733 -0.2073439 15.51708733 -0.2073439 16.84040833 -0.24203491 C21.16590271 -0.2268905 23.06477764 -0.04267802 26.6628418 2.56518555 C28.76122649 5.57149981 29.20550171 6.82881823 29.0949707 10.43212891 C29.07885742 11.36347656 29.06274414 12.29482422 29.04614258 13.25439453 C29.00424805 14.21410156 28.96235352 15.17380859 28.91918945 16.16259766 C28.89663086 17.14164063 28.87407227 18.12068359 28.85083008 19.12939453 C28.79208672 21.5378722 28.71001074 23.94318843 28.60668945 26.35009766 C29.22189453 26.32915039 29.83709961 26.30820313 30.47094727 26.28662109 C33.26602754 26.20332749 36.0608466 26.15139753 38.85668945 26.10009766 C39.82477539 26.06658203 40.79286133 26.03306641 41.7902832 25.99853516 C48.95312959 25.89973727 48.95312959 25.89973727 52.2199707 28.15087891 C54.19063642 31.27618819 54.54213532 33.67051229 54.60668945 37.35009766 C53.37996355 40.41691242 52.48899103 41.87423059 49.5715332 43.44775391 C45.48785923 44.6906112 41.54160577 44.81418528 37.29418945 44.97509766 C36.04025391 45.03310547 36.04025391 45.03310547 34.76098633 45.09228516 C32.70989686 45.18604925 30.65832431 45.2691401 28.60668945 45.35009766 C28.6530957 46.18412109 28.69950195 47.01814453 28.74731445 47.87744141 C29.05583498 57.49667072 27.92425002 64.05746461 21.29418945 71.22509766 C17.99926616 74.29893302 14.84416907 75.87995167 10.60668945 77.35009766 C11.81905273 77.82189453 11.81905273 77.82189453 13.0559082 78.30322266 C14.12454102 78.73119141 15.19317383 79.15916016 16.29418945 79.60009766 C17.34993164 80.01775391 18.40567383 80.43541016 19.4934082 80.86572266 C27.26427706 84.57077933 32.12526638 91.0389816 35.7199707 98.73291016 C38.18249107 105.80536202 37.89477588 112.94520951 37.60668945 120.35009766 C38.53223633 120.31658203 39.4577832 120.28306641 40.41137695 120.24853516 C44.63530567 120.38279206 46.37265711 121.67850572 49.60668945 124.35009766 C53.27874381 128.91535443 54.98312136 132.61938862 54.38793945 138.51806641 C53.20612909 145.30211241 50.66578773 149.05577395 45.10668945 153.22509766 C42.60668945 154.35009766 42.60668945 154.35009766 37.60668945 154.35009766 C37.60668945 168.54009766 37.60668945 182.73009766 37.60668945 197.35009766 C14.83668945 197.35009766 -7.93331055 197.35009766 -31.39331055 197.35009766 C-31.51831055 170.97509766 -31.51831055 170.97509766 -31.51098633 162.70800781 C-31.53453427 160.51836562 -31.56026967 158.3287454 -31.58862305 156.13916016 C-31.57951904 155.02436279 -31.57041504 153.90956543 -31.56103516 152.76098633 C-31.68686908 145.72205403 -32.95479544 141.24648801 -36.97673035 135.43092346 C-40.86909142 129.71340364 -40.74841366 123.18994839 -40.70581055 116.53759766 C-40.70162109 115.65120605 -40.69743164 114.76481445 -40.69311523 113.8515625 C-40.53555204 104.74139244 -39.03839251 97.70581052 -33.39331055 90.35009766 C-32.85706055 89.52509766 -32.32081055 88.70009766 -31.76831055 87.85009766 C-25.3760148 81.12136529 -17.28181517 78.2765036 -8.39331055 76.35009766 C-9.17254883 75.82222656 -9.17254883 75.82222656 -9.9675293 75.28369141 C-17.14512152 70.20232759 -21.7115435 65.21759664 -23.39331055 56.35009766 C-23.66374187 52.09436258 -23.74948624 48.41862475 -22.39331055 44.35009766 C-23.70686523 44.38490234 -25.02041992 44.41970703 -26.3737793 44.45556641 C-28.10944356 44.48371231 -29.84512169 44.51101161 -31.58081055 44.53759766 C-32.87728516 44.57530273 -32.87728516 44.57530273 -34.19995117 44.61376953 C-39.11910441 44.67031152 -42.39635664 44.55542186 -46.39331055 41.35009766 C-48.78617939 38.95722882 -48.71381671 38.25562672 -48.76831055 34.97509766 C-48.79666992 34.20423828 -48.8250293 33.43337891 -48.85424805 32.63916016 C-48.39331055 30.35009766 -48.39331055 30.35009766 -47.04174805 28.07666016 C-42.81746673 25.32277764 -38.56196207 25.92981145 -33.64331055 26.10009766 C-32.16797852 26.12716797 -32.16797852 26.12716797 -30.6628418 26.15478516 C-28.23867272 26.2018564 -25.81648996 26.26759024 -23.39331055 26.35009766 C-23.41425781 25.77042236 -23.43520508 25.19074707 -23.45678711 24.59350586 C-23.54027862 21.95004842 -23.59207207 19.30686885 -23.64331055 16.66259766 C-23.69358398 15.29458008 -23.69358398 15.29458008 -23.74487305 13.89892578 C-23.80838615 9.53239971 -23.83053541 7.06284644 -21.50268555 3.26806641 C-16.06846828 -1.67304596 -7.00246444 0.04381351 0 0 Z " fill="#E54B3B" transform="translate(176.393310546875,54.64990234375)"/>
<path d="M0 0 C11.27641 8.4360473 18.8434803 20.89245925 21.1171875 34.84375 C22.00293309 42.31798679 21.85878722 47.89597414 17.40234375 54.25 C12.3081794 59.09566853 7.9951504 59.61826632 1.19140625 59.51953125 C-3.78603108 59.0385184 -6.77947342 57.31060721 -10.0625 53.58984375 C-13.39507851 48.88559525 -14.23091144 44.42089189 -15.09375 38.80078125 C-15.96031999 34.41419053 -17.73870153 31.63262392 -21.3203125 28.96875 C-25.82652321 26.31698385 -29.42747918 25.8067599 -34.55859375 26.71484375 C-38.93467146 27.86335457 -40.96899495 29.42158876 -43.70068359 33.02124023 C-46.74117489 38.53997901 -46.16140041 44.64954569 -46.13671875 50.78515625 C-46.15474625 52.78901811 -46.17278357 54.79287993 -46.1913662 56.79673672 C-46.21255885 59.59512886 -46.21599734 62.3934327 -46.21929932 65.19189453 C-46.22700382 70.0588982 -46.25445841 74.92574726 -46.29428101 79.79258728 C-46.31365235 82.37599581 -46.32327459 84.95950369 -46.32119751 87.54298401 C-46.45874638 111.21482542 -52.84260929 131.8825043 -69.72265625 148.8125 C-80.31715303 159.02773467 -80.31715303 159.02773467 -85.5234375 159.53515625 C-92.29178425 159.35561508 -98.95157635 157.19692588 -105.4777832 155.55639648 C-112.93353242 153.70990018 -112.93353242 153.70990018 -120.5546875 152.9921875 C-126.24865565 152.82032064 -130.49947312 152.46787295 -134.58349609 148.15087891 C-138.91919989 142.49907408 -142.44971676 136.39445588 -145.92675781 130.18945312 C-148.23147523 126.1349824 -150.77257078 122.26081881 -153.34765625 118.375 C-154.22179285 117.02456271 -155.09420401 115.6730069 -155.96484375 114.3203125 C-157.81513821 111.45493562 -159.67614717 108.59682298 -161.54296875 105.7421875 C-162.03313477 104.99050293 -162.52330078 104.23881836 -163.02832031 103.46435547 C-163.9523276 102.04773171 -164.87854993 100.63254871 -165.80761719 99.21923828 C-168.09108095 95.71230402 -170.23340848 92.16548501 -172.25439453 88.5 C-172.69582794 87.70078125 -173.13726135 86.9015625 -173.59207153 86.078125 C-173.92391449 85.47484375 -174.25575745 84.8715625 -174.59765625 84.25 C-173.58859978 84.24453156 -173.58859978 84.24453156 -172.55915833 84.23895264 C-165.50109401 84.19685291 -158.44366345 84.12731778 -151.38598633 84.04248047 C-148.75877244 84.01440953 -146.13147628 83.99312667 -143.50415039 83.97900391 C-139.70807183 83.95738204 -135.91296825 83.91063158 -132.1171875 83.859375 C-130.3804351 83.85753204 -130.3804351 83.85753204 -128.6085968 83.85565186 C-115.75291622 83.62935221 -104.1623137 80.3552653 -94.66796875 71.4375 C-85.82319244 62.02331749 -83.58682337 52.0323249 -82.1796875 39.5390625 C-80.31883752 23.85702761 -75.4537002 11.07562564 -62.84765625 0.80859375 C-43.20256722 -12.79972313 -19.84024919 -13.36606261 0 0 Z " fill="#CB8251" transform="translate(482.59765625,226.75)"/>
<path d="M0 0 C3.55495966 0.74498472 7.0265453 1.73292917 10.515625 2.73828125 C12.59374143 3.31708806 14.67186673 3.89586303 16.75 4.47460938 C19.9819902 5.38652709 23.21295111 6.30197732 26.44335938 7.21948242 C43.73635414 12.1121411 60.89183036 16.65181482 79 16.375 C80.51170776 16.3608606 80.51170776 16.3608606 82.05395508 16.34643555 C96.17607212 16.06642517 109.63271623 13.32822983 123.27026367 9.80200195 C135.8267807 6.61538161 148.28421476 5.61952328 161.1875 5.6875 C162.27158142 5.69023422 162.27158142 5.69023422 163.37756348 5.69302368 C179.75615574 5.7623556 194.59175487 8.34818137 210.45043945 12.22216797 C236.8204287 18.60733097 262.37252523 16.49812932 288.40844727 9.80200195 C300.79407939 6.65180553 312.89327842 5.62303156 325.625 5.6875 C326.37389496 5.68932281 327.12278992 5.69114563 327.89437866 5.69302368 C344.45936312 5.76079625 359.41271772 8.3047404 375.45068359 12.22216797 C386.51837496 14.90231962 397.30855111 16.16397058 408.6875 16.3125 C409.92294556 16.33920776 409.92294556 16.33920776 411.18334961 16.36645508 C429.60083096 16.34378419 447.24983658 11.32096662 464.8125 6.3125 C468.02825348 5.39919992 471.24486206 4.48966935 474.46476746 3.59111023 C476.44618627 3.03793771 478.42530389 2.47642881 480.40156555 1.90510559 C492.16788348 -1.38592936 492.16788348 -1.38592936 497.9375 1.4375 C500.53139398 4.66021677 500.59400561 6.65532258 500.6640625 10.68359375 C499.68925287 14.08395909 497.83053751 16.01207155 495 18 C491.38349956 19.49847798 487.66013248 20.46436392 483.875 21.4453125 C482.77768555 21.74186737 481.68037109 22.03842224 480.54980469 22.34396362 C478.22191668 22.96880888 475.89175658 23.58524156 473.55957031 24.19384766 C470.06212141 25.10874959 466.57399837 26.05392203 463.0859375 27.00390625 C445.30013679 31.77522353 427.50876135 35.63897742 409 35.375 C407.90880859 35.36484863 406.81761719 35.35469727 405.69335938 35.34423828 C387.23377709 34.99711203 369.71061206 31.02985313 351.84814453 26.61669922 C343.61868356 24.83480153 335.50705499 24.75728831 327.125 24.75 C326.42892639 24.74932526 325.73285278 24.74865051 325.01568604 24.74795532 C314.36624023 24.76435323 304.36912385 25.41195183 294 28 C292.2931159 28.41466866 290.58607466 28.82869086 288.87890625 29.2421875 C287.98679443 29.45891113 287.09468262 29.67563477 286.17553711 29.89892578 C252.04370698 38.170911 220.61363013 34.95889967 186.84814453 26.61669922 C178.61868356 24.83480153 170.50705499 24.75728831 162.125 24.75 C161.42892639 24.74932526 160.73285278 24.74865051 160.01568604 24.74795532 C149.36624023 24.76435323 139.36912385 25.41195183 129 28 C127.2931159 28.41466866 125.58607466 28.82869086 123.87890625 29.2421875 C122.98679443 29.45891113 122.09468262 29.67563477 121.17553711 29.89892578 C107.11870783 33.30565445 93.80352059 35.15442385 79.3125 35.3125 C78.31065674 35.33030518 77.30881348 35.34811035 76.27661133 35.36645508 C58.35858361 35.34811523 41.15289744 31.36281096 24 26.5625 C22.23077305 26.07896334 20.46124153 25.59653966 18.69140625 25.11523438 C14.52929697 23.97863674 10.37610744 22.81348319 6.22705078 21.63018799 C4.14310771 21.04049515 2.05484151 20.46962774 -0.03515625 19.90185547 C-1.78119141 19.40709717 -1.78119141 19.40709717 -3.5625 18.90234375 C-4.55378906 18.62769287 -5.54507812 18.35304199 -6.56640625 18.07006836 C-9.43666379 16.80799585 -10.47679956 15.71959947 -12 13 C-12.62869315 8.04904141 -12.77903011 6.13313471 -9.9375 2 C-6.16706634 -0.56710377 -4.53794914 -0.33819933 0 0 Z " fill="#2EA8CC" transform="translate(12,422)"/>
<path d="M0 0 C0.92973129 0.25923752 1.85946259 0.51847504 2.81736755 0.78556824 C5.77560363 1.61166806 8.72976417 2.45126144 11.68359375 3.29296875 C46.72863107 13.2149915 77.07160434 16.17709313 112.78491211 7.66699219 C142.60058392 0.58234084 172.08993119 2.78042767 201.61132812 10.41064453 C222.03167647 15.6701261 245.65292232 15.53959174 266.12109375 10.48046875 C267.84106223 10.06605911 269.56111985 9.65201931 271.28125 9.23828125 C273.99922843 8.58261252 276.71663888 7.92520328 279.43188477 7.25830078 C286.94430821 5.44128427 294.41522489 4.14579506 302.12109375 3.48046875 C303.00667969 3.3721875 303.89226562 3.26390625 304.8046875 3.15234375 C307.12109375 3.48046875 307.12109375 3.48046875 309 5.421875 C309.55558594 6.28683594 310.11117188 7.15179688 310.68359375 8.04296875 C311.56917969 9.40228516 311.56917969 9.40228516 312.47265625 10.7890625 C314.43068824 13.98594411 316.33087049 17.18645794 318.12109375 20.48046875 C315.11894055 21.19182232 312.19961275 21.5777009 309.12890625 21.76953125 C297.95703099 22.50662543 287.30455909 24.40180814 276.43359375 26.98046875 C246.80986228 33.96389354 219.43239203 33.94277251 189.80859375 26.98046875 C162.67509571 20.61547046 139.35679264 20.92590399 112.16748047 26.82080078 C87.33696236 32.19762879 87.33696236 32.19762879 78.12109375 32.48046875 C77.06196777 32.51914062 77.06196777 32.51914062 75.98144531 32.55859375 C73.42382506 32.64133116 70.86721624 32.68986694 68.30859375 32.73046875 C67.53394775 32.75206055 66.75930176 32.77365234 65.96118164 32.79589844 C48.56979136 32.8847608 31.4979707 28.95743387 14.83959961 24.34692383 C11.90010307 23.53370346 8.95564226 22.74093615 6.00976562 21.95117188 C-19.89769911 14.95227946 -19.89769911 14.95227946 -22.87890625 10.48046875 C-23.41557778 7.41296725 -23.40524074 4.5498299 -22.87890625 1.48046875 C-17.22428441 -5.76451549 -7.52630799 -2.17905717 0 0 Z " fill="#2FA7CB" transform="translate(22.87890625,373.51953125)"/>
<path d="M0 0 C22.77 0 45.54 0 69 0 C69 19.47 69 38.94 69 59 C46.23 59 23.46 59 0 59 C0 39.53 0 20.06 0 0 Z " fill="#4381C1" transform="translate(145,252)"/>
<path d="M0 0 C1.94087721 -0.01655678 3.88169351 -0.04384322 5.82226562 -0.08203125 C8.6218221 -0.13683574 11.41994983 -0.15867898 14.2199707 -0.17333984 C15.51708733 -0.2073439 15.51708733 -0.2073439 16.84040833 -0.24203491 C21.16590271 -0.2268905 23.06477764 -0.04267802 26.6628418 2.56518555 C28.76122649 5.57149981 29.20550171 6.82881823 29.0949707 10.43212891 C29.07885742 11.36347656 29.06274414 12.29482422 29.04614258 13.25439453 C29.00424805 14.21410156 28.96235352 15.17380859 28.91918945 16.16259766 C28.89663086 17.14164063 28.87407227 18.12068359 28.85083008 19.12939453 C28.79208672 21.5378722 28.71001074 23.94318843 28.60668945 26.35009766 C29.22189453 26.32915039 29.83709961 26.30820313 30.47094727 26.28662109 C33.26602754 26.20332749 36.0608466 26.15139753 38.85668945 26.10009766 C39.82477539 26.06658203 40.79286133 26.03306641 41.7902832 25.99853516 C48.95312959 25.89973727 48.95312959 25.89973727 52.2199707 28.15087891 C54.19063642 31.27618819 54.54213532 33.67051229 54.60668945 37.35009766 C53.36805055 40.44669491 52.47099247 41.88528898 49.52490234 43.46965027 C45.68485388 44.62822257 42.01289382 44.63710392 38.0402832 44.62475586 C37.18927032 44.62986679 36.33825745 44.63497772 35.4614563 44.64024353 C32.65562865 44.65411453 29.85004726 44.65318487 27.04418945 44.65087891 C25.0903311 44.65476673 23.1364736 44.65910158 21.18261719 44.66386414 C17.09054828 44.67132063 12.99856566 44.67103884 8.90649414 44.66577148 C3.66406278 44.65997256 -1.57801578 44.67692088 -6.82038879 44.70011616 C-10.85414696 44.71484968 -14.88782003 44.7157258 -18.92160034 44.71260643 C-20.85448913 44.71311967 -22.78738268 44.71835784 -24.72024536 44.72841835 C-27.42269833 44.74076026 -30.12446229 44.73400501 -32.8269043 44.72241211 C-34.02245438 44.73387772 -34.02245438 44.73387772 -35.24215698 44.74557495 C-41.07557099 44.69028813 -44.30645568 43.43695252 -48.39331055 39.35009766 C-48.72924805 37.32666016 -48.72924805 37.32666016 -48.76831055 34.97509766 C-48.79666992 34.20423828 -48.8250293 33.43337891 -48.85424805 32.63916016 C-48.39331055 30.35009766 -48.39331055 30.35009766 -47.04174805 28.07666016 C-42.81746673 25.32277764 -38.56196207 25.92981145 -33.64331055 26.10009766 C-32.16797852 26.12716797 -32.16797852 26.12716797 -30.6628418 26.15478516 C-28.23867272 26.2018564 -25.81648996 26.26759024 -23.39331055 26.35009766 C-23.41425781 25.77042236 -23.43520508 25.19074707 -23.45678711 24.59350586 C-23.54027862 21.95004842 -23.59207207 19.30686885 -23.64331055 16.66259766 C-23.69358398 15.29458008 -23.69358398 15.29458008 -23.74487305 13.89892578 C-23.80838615 9.53239971 -23.83053541 7.06284644 -21.50268555 3.26806641 C-16.06846828 -1.67304596 -7.00246444 0.04381351 0 0 Z " fill="#C03A2B" transform="translate(176.393310546875,54.64990234375)"/>
<path d="M0 0 C3.63 2.31 7.26 4.62 11 7 C17.24310834 10.45070892 22.86618627 10.4704368 29.83984375 10.51171875 C30.96193741 10.52966995 32.08403107 10.54762115 33.24012756 10.56611633 C36.80588075 10.6200749 40.37150115 10.65406951 43.9375 10.6875 C46.36264862 10.72068573 48.78777976 10.75517655 51.21289062 10.79101562 C57.14194469 10.87823743 63.07040255 10.93843239 69 11 C69 25.19 69 39.38 69 54 C46.23 54 23.46 54 0 54 C0 36.18 0 18.36 0 0 Z " fill="#BF3A2B" transform="translate(145,198)"/>
<path d="M0 0 C2.08071082 3.70909321 2.43051854 7.41518728 1.4375 11.5625 C-1.87142064 16.5352282 -7.49188923 17.33900775 -12.9375 18.8125 C-14.49839355 19.24985474 -14.49839355 19.24985474 -16.09082031 19.69604492 C-19.57741146 20.66656313 -23.06960568 21.61493473 -26.5625 22.5625 C-27.85271201 22.91750354 -29.14274794 23.27314761 -30.43261719 23.62939453 C-33.74104063 24.54270277 -37.05159644 25.4478238 -40.36407471 26.34631348 C-42.26199584 26.86129618 -44.15908635 27.379337 -46.05615234 27.89746094 C-69.47830112 34.15391067 -93.61968836 35.4825242 -117.5625 31.5625 C-118.73329102 31.38428711 -119.90408203 31.20607422 -121.11035156 31.02246094 C-147.28014289 26.83240916 -147.28014289 26.83240916 -153.16015625 18.9050293 C-155.67927381 14.69553121 -157.61693673 10.41311676 -158.5625 5.5625 C-153.08137745 5.44015351 -147.96081871 5.80310495 -142.5625 6.8125 C-141.82757324 6.94454834 -141.09264648 7.07659668 -140.33544922 7.21264648 C-135.38453469 8.13319225 -130.54818752 9.31837673 -125.6875 10.625 C-96.27933025 18.36207122 -66.96912342 14.0809536 -38.1875 6 C-36.36750755 5.49948582 -34.5471951 5.00013374 -32.7265625 4.50195312 C-26.69469845 2.84661109 -20.66795717 1.17587258 -14.66235352 -0.57250977 C-9.56619018 -1.99455487 -4.73146111 -2.65423428 0 0 Z " fill="#2FA8CB" transform="translate(510.5625,372.4375)"/>
<path d="M0 0 C1.91783043 -0.02590714 1.91783043 -0.02590714 3.87440491 -0.05233765 C5.29955878 -0.06634306 6.7247145 -0.08016119 8.14987183 -0.09381104 C9.64455998 -0.11152973 11.13924481 -0.12953169 12.63392639 -0.14779663 C26.28896661 -0.30690964 39.94501606 -0.39116956 53.60078621 -0.45779037 C63.69444622 -0.50802473 73.78648082 -0.59394335 83.87940323 -0.72641158 C90.97671655 -0.81642402 98.07358406 -0.86423965 105.17144287 -0.88136888 C109.41025287 -0.89282964 113.64698452 -0.92310527 117.88516617 -0.99932098 C121.87668176 -1.07032894 125.86509646 -1.0889612 129.85715675 -1.06820297 C131.31814678 -1.06962738 132.77926287 -1.08975771 134.23968697 -1.13044357 C145.20384999 -1.42008332 145.20384999 -1.42008332 149.59627914 2.51714325 C153.02794458 7.10803494 155.48242449 12.06261905 158.00485229 17.1942749 C136.69100122 17.24096861 115.37715857 17.27625084 94.06326675 17.29789925 C84.16715028 17.30821756 74.27106557 17.32228849 64.37496948 17.34515381 C55.75084975 17.3650707 47.12675301 17.3779873 38.50261092 17.38245189 C33.93501295 17.38506215 29.36748078 17.39120893 24.79990387 17.40573502 C20.50228461 17.41929206 16.20475836 17.42350135 11.90711975 17.42049026 C10.32848862 17.42104127 8.74985443 17.4250299 7.17124176 17.43268585 C5.01802787 17.4426178 2.86516641 17.44025032 0.71194458 17.43478394 C-0.49376064 17.43662752 -1.69946587 17.43847111 -2.94170761 17.44037056 C-5.92319744 17.20007382 -7.5517694 16.8737051 -9.99514771 15.1942749 C-12.33683534 11.68174344 -12.49138448 10.32958135 -11.99514771 6.1942749 C-8.39533369 0.79455388 -6.30459867 0.07550111 0 0 Z " fill="#A56A43" transform="translate(156.99514770507813,336.80572509765625)"/>
<path d="M0 0 C11.22 0 22.44 0 34 0 C34 19.47 34 38.94 34 59 C22.78 59 11.56 59 0 59 C0 39.53 0 20.06 0 0 Z " fill="#28567F" transform="translate(145,252)"/>
<path d="M0 0 C16.17 0 32.34 0 49 0 C51.48643469 4.97286938 50.65708057 12.35188614 49.3515625 17.61328125 C46.62013807 24.37180581 42.23535039 29.33152824 35.765625 32.66796875 C31.7592753 34.08515262 28.26125664 34.50185647 24.0625 34.4375 C23.00591187 34.42396484 23.00591187 34.42396484 21.92797852 34.41015625 C13.92316626 34.14311282 9.65801183 31.97515791 4.1875 26.3125 C-0.81236769 20.14827956 -2.34359418 13.87773403 -2.30078125 6.04296875 C-2 4 -2 4 0 0 Z " fill="#FCD6AC" transform="translate(155,98)"/>
<path d="M0 0 C4.35716848 0.7780658 5.83459653 2.15189851 8.5 5.625 C8.5 6.615 8.5 7.605 8.5 8.625 C19.72 8.625 30.94 8.625 42.5 8.625 C43.68681726 12.18545177 43.59689832 15.06308337 43.5625 18.8125 C43.55347656 20.08480469 43.54445312 21.35710937 43.53515625 22.66796875 C43.52355469 23.64378906 43.51195312 24.61960938 43.5 25.625 C38.0740282 25.72428585 32.64859159 25.79666467 27.22192383 25.84472656 C25.37808006 25.86477361 23.53429932 25.8920188 21.69067383 25.92675781 C19.0319051 25.97558208 16.37398085 25.99803772 13.71484375 26.015625 C12.89789536 26.03627014 12.08094696 26.05691528 11.23924255 26.07818604 C5.49587242 26.08040986 2.23421862 24.90795405 -2.5 21.625 C-6.26950528 17.65173768 -8.14888064 14.03267564 -8.9375 8.625 C-8.5 5.625 -8.5 5.625 -6.4375 2.75 C-3.5 0.625 -3.5 0.625 0 0 Z " fill="#C03A2B" transform="translate(170.5,149.375)"/>
<path d="M0 0 C4.89295147 -0.07433779 9.78557183 -0.12869027 14.67895508 -0.16479492 C16.34242481 -0.17985114 18.00585505 -0.20030063 19.66918945 -0.22631836 C22.06471522 -0.26284207 24.45971467 -0.27975782 26.85546875 -0.29296875 C27.96513252 -0.31619453 27.96513252 -0.31619453 29.09721375 -0.33988953 C33.59366278 -0.34134432 36.445595 0.19609242 40 3 C42.34549674 6.51824511 42.57991403 7.85775694 42 12 C39.73382496 15.48242495 38.29927255 16.70001872 34.21899414 17.64208984 C14.44922555 19.90597323 14.44922555 19.90597323 7.76171875 15.53808594 C3.96336479 11.59866229 0 5.62797765 0 0 Z " fill="#A56A43" transform="translate(325,337)"/>
</svg>
