<?xml version="1.0" encoding="UTF-8"?>
<svg version="1.1" xmlns="http://www.w3.org/2000/svg" width="500" height="500">
<path d="M0 0 C0.54720703 0.34434082 1.09441406 0.68868164 1.65820312 1.04345703 C18.46971545 11.68795556 33.80322612 24.07592317 48 38 C48.60521484 38.59200195 49.21042969 39.18400391 49.83398438 39.79394531 C54.98178366 44.87869913 59.52906138 50.31469261 64 56 C64.51433594 56.65387695 65.02867187 57.30775391 65.55859375 57.98144531 C72.14407551 66.3914929 78.55711534 74.79101178 84 84 C84.62003906 85.01578125 85.24007813 86.0315625 85.87890625 87.078125 C91.36499304 96.3110695 95.76930754 105.93405385 100.03515625 115.78222656 C100.83006374 117.60938741 101.64651977 119.42715799 102.46875 121.2421875 C109.02438035 136.07640233 112.88383641 152.13142823 116 168 C116.14566406 168.70286133 116.29132813 169.40572266 116.44140625 170.12988281 C128.33294993 228.4895082 115.16023159 295.47946429 82.78125 345.30859375 C82.1934375 346.19675781 81.605625 347.08492188 81 348 C80.4534375 348.89847656 79.906875 349.79695313 79.34375 350.72265625 C72.49740418 361.94485046 64.15508609 372.01375474 55.19140625 381.59765625 C53.7016446 383.23081741 52.27126159 384.91972747 50.8984375 386.65234375 C48.56627157 389.53635964 45.86980794 391.65729964 43 394 C42.2575 394.7425 41.515 395.485 40.75 396.25 C34.75631753 402.24368247 28.47818809 407.85687701 21.59375 412.80859375 C19.85693828 414.04774448 19.85693828 414.04774448 18 416 C17.01 416 16.02 416 15 416 C15 416.66 15 417.32 15 418 C13.55737305 419.16992188 13.55737305 419.16992188 11.51171875 420.46875 C10.75286377 420.95230957 9.99400879 421.43586914 9.2121582 421.93408203 C8.379021 422.45083496 7.54588379 422.96758789 6.6875 423.5 C5.82664795 424.03608887 4.9657959 424.57217773 4.07885742 425.12451172 C-26.16447824 443.72943831 -58.05566508 455.07695683 -93 461 C-94.10472656 461.18836426 -95.20945312 461.37672852 -96.34765625 461.57080078 C-107.31157368 463.24318677 -118.17833404 463.39841983 -129.25 463.375 C-130.21877075 463.37445618 -131.1875415 463.37391235 -132.18566895 463.37335205 C-148.11371132 463.33234943 -163.38230567 462.36144969 -179 459 C-180.52778076 458.67854004 -180.52778076 458.67854004 -182.08642578 458.35058594 C-196.84876368 455.16086235 -210.97822733 450.58357043 -225 445 C-225.73154297 444.71012207 -226.46308594 444.42024414 -227.21679688 444.12158203 C-256.73505156 432.25191765 -282.68819318 413.67426248 -305.38037109 391.57714844 C-306.72985438 390.2630601 -308.09191311 388.96190137 -309.45703125 387.6640625 C-314.7920634 382.50791703 -319.41591547 376.82220791 -324 371 C-324.50225098 370.36884277 -325.00450195 369.73768555 -325.52197266 369.08740234 C-341.79003514 348.5895457 -355.04996355 325.64834318 -364 301 C-364.41378906 299.95070313 -364.82757813 298.90140625 -365.25390625 297.8203125 C-369.57648711 286.51927039 -372.43747264 274.80842735 -375 263 C-375.2160791 262.00468262 -375.4321582 261.00936523 -375.65478516 259.98388672 C-387.53983136 202.22010777 -376.3929391 134.44652423 -344 84.875 C-342.67008054 82.91434668 -341.33721869 80.95568234 -340 79 C-339.49855469 78.16082031 -338.99710937 77.32164063 -338.48046875 76.45703125 C-333.45411647 68.11514316 -327.13291374 60.54198243 -321 53 C-320.24332031 52.04480469 -319.48664063 51.08960937 -318.70703125 50.10546875 C-314.75050498 45.15484041 -310.95994404 40.92181622 -306 37 C-305.3915625 36.22011719 -304.783125 35.44023438 -304.15625 34.63671875 C-301.91204986 31.89245227 -299.59139629 29.88094339 -296.8125 27.6875 C-293.33267903 24.90547954 -289.95747264 22.08753087 -286.6875 19.0625 C-279.04341667 12.20066577 -270.46553076 6.02300608 -261.359375 1.25390625 C-258.43299463 -0.30133894 -255.6037619 -2.00270864 -252.75 -3.6875 C-227.40303024 -18.20113061 -200.28034273 -27.73972133 -171.48925781 -32.58007812 C-169.43331781 -32.92690206 -167.38356498 -33.31019009 -165.3359375 -33.703125 C-110.19401751 -43.6771157 -47.09685184 -29.91808211 0 0 Z M-249 117 C-249 117.66 -249 118.32 -249 119 C-249.66 119 -250.32 119 -251 119 C-251 119.66 -251 120.32 -251 121 C-251.66 121 -252.32 121 -253 121 C-253 121.66 -253 122.32 -253 123 C-253.66 123 -254.32 123 -255 123 C-256.81628776 124.94375954 -256.81628776 124.94375954 -258.625 127.375 C-259.25664062 128.18710938 -259.88828125 128.99921875 -260.5390625 129.8359375 C-262.18650808 131.84109879 -262.18650808 131.84109879 -262 134 C-262.66 134 -263.32 134 -264 134 C-272.8948422 149.79328649 -279.02484429 165.08485377 -282 183 C-282.17200928 183.87269531 -282.34401855 184.74539062 -282.52124023 185.64453125 C-283.10983931 189.76982736 -283.18135718 193.79527637 -283.203125 197.95703125 C-283.20882507 198.81826096 -283.21452515 199.67949066 -283.22039795 200.56681824 C-283.22981882 202.38982936 -283.23637031 204.2128573 -283.24023438 206.03588867 C-283.2498357 208.76578483 -283.28084251 211.49489291 -283.3125 214.22460938 C-283.48571866 242.99018267 -275.95524882 271.66742551 -257.3125 294.0625 C-256.83651367 294.63572998 -256.36052734 295.20895996 -255.87011719 295.79956055 C-253.62582209 298.41539354 -252.32917753 299.89027416 -249 301 C-249 301.66 -249 302.32 -249 303 C-246.99431176 304.66734265 -245.00188841 306.18764567 -242.875 307.6875 C-241.92862671 308.35579834 -241.92862671 308.35579834 -240.96313477 309.03759766 C-218.48910502 324.54096831 -194.99110501 326.33523658 -168.55859375 326.1953125 C-166.45296871 326.19157206 -164.3473419 326.18872997 -162.24171448 326.18673706 C-156.75919602 326.1791817 -151.27678729 326.15960498 -145.79431152 326.1373291 C-140.17604048 326.11669397 -134.55775132 326.10769796 -128.93945312 326.09765625 C-117.95958779 326.07634965 -106.9798031 326.04231434 -96 326 C-96 324.35 -96 322.7 -96 321 C-100.31735673 319.78306716 -104.48703674 319.93947144 -108.9375 320 C-120.34720806 320.06738206 -131.7507035 319.90610762 -143.1579895 319.68261719 C-145.1623852 319.6444963 -147.16684537 319.60961494 -149.1713562 319.578125 C-173.65060797 319.18727531 -198.97244649 315.95708037 -217.08203125 297.78515625 C-218.97150789 295.77901501 -218.97150789 295.77901501 -222 295 C-222.71301152 293.6908641 -223.37114147 292.35157655 -224 291 C-225.22864612 289.31752964 -226.48119571 287.65239628 -227.75 286 C-238.52223575 271.27339923 -243.04175525 254.70949221 -246 237 C-246.25801392 235.95791382 -246.25801392 235.95791382 -246.52124023 234.89477539 C-247.21918925 230.67469302 -247.20366211 226.49383683 -247.23828125 222.22265625 C-247.246353 221.26088974 -247.25442474 220.29912323 -247.26274109 219.30821228 C-247.27656319 217.26481919 -247.28729371 215.22140319 -247.29516602 213.17797852 C-247.30655306 211.13135797 -247.32678677 209.08476385 -247.35668945 207.03833008 C-247.71586478 182.40371844 -243.97345476 159.65353404 -232.35546875 137.73046875 C-230.85178369 135.2094987 -230.85178369 135.2094987 -231 133 C-230.34 133 -229.68 133 -229 133 C-227.71181224 131.33572064 -226.49433774 129.61641121 -225.3125 127.875 C-221.61140924 122.64358574 -217.85276121 117.92638061 -212 115 C-212 114.34 -212 113.68 -212 113 C-211.30777344 112.731875 -210.61554688 112.46375 -209.90234375 112.1875 C-205.61087972 110.43163854 -201.44582405 108.41715421 -197.25390625 106.4375 C-186.57233802 101.71863192 -176.35093862 100.70283149 -164.7734375 100.8046875 C-162.93019394 100.80893234 -162.93019394 100.80893234 -161.04971313 100.81326294 C-157.15803942 100.82438103 -153.26660315 100.84947024 -149.375 100.875 C-146.72265959 100.88504061 -144.07031555 100.89416456 -141.41796875 100.90234375 C-134.94523266 100.92429293 -128.4726333 100.95768643 -122 101 C-121.19733078 102.9232312 -120.39498382 104.8465969 -119.59277344 106.77001953 C-119.14593201 107.84107941 -118.69909058 108.91213928 -118.2387085 110.01565552 C-116.87934931 113.2906763 -115.55579425 116.57827254 -114.25 119.875 C-110.24474038 129.9482963 -106.11490118 139.97113095 -102 150 C-100.02 150 -98.04 150 -96 150 C-96 131.52 -96 113.04 -96 94 C-111.22558412 93.97084524 -111.22558412 93.97084524 -126.45117188 93.95117188 C-132.6740811 93.94522725 -138.8969754 93.93824592 -145.11987305 93.92456055 C-150.14494043 93.91358041 -155.1699918 93.90769161 -160.19507027 93.90512276 C-162.09849868 93.90329545 -164.00192636 93.89972824 -165.90534782 93.89426994 C-197.18343059 93.80826091 -223.84621921 96.83014652 -249 117 Z M-42 95 C-42 96.65 -42 98.3 -42 100 C-35.4 100 -28.8 100 -22 100 C-24.72416185 104.08624278 -27.33114539 107.7529934 -30.4375 111.5 C-31.21867188 112.44746094 -31.99984375 113.39492187 -32.8046875 114.37109375 C-34.54088989 116.45021156 -36.29649124 118.50888409 -38.0625 120.5625 C-40.20741471 122.74198614 -40.20741471 122.74198614 -40 125 C-40.66 125 -41.32 125 -42 125 C-44.01036785 127.13918622 -44.01036785 127.13918622 -46.0625 129.8125 C-46.77535156 130.70582031 -47.48820313 131.59914062 -48.22265625 132.51953125 C-50.14614892 134.94593373 -50.14614892 134.94593373 -51 138 C-51.66 138 -52.32 138 -53 138 C-53.66 139.65 -54.32 141.3 -55 143 C-55.66 143 -56.32 143 -57 143 C-58.78389065 145.11123759 -60.46362717 147.23291047 -62.125 149.4375 C-65.92449218 154.3825459 -69.8187708 159.1420354 -74.0078125 163.765625 C-76.39590684 166.44403669 -78.70556163 169.17845572 -81 171.9375 C-81.763125 172.85402344 -82.52625 173.77054687 -83.3125 174.71484375 C-85.19801434 176.79469387 -85.19801434 176.79469387 -85 179 C-85.66 179 -86.32 179 -87 179 C-88.60634015 180.73391951 -90.1375287 182.538091 -91.625 184.375 C-92.44226563 185.37273437 -93.25953125 186.37046875 -94.1015625 187.3984375 C-96.19648969 189.73249885 -96.19648969 189.73249885 -96 192 C-96.66 192 -97.32 192 -98 192 C-99.37482452 193.52952876 -100.67665897 195.12522906 -101.9375 196.75 C-102.62714844 197.63171875 -103.31679688 198.5134375 -104.02734375 199.421875 C-105.96698401 201.87370131 -105.96698401 201.87370131 -107.33235168 204.12701416 C-109 206 -109 206 -111.14506531 206.51898193 C-111.97335342 206.52786438 -112.80164154 206.53674683 -113.6550293 206.54589844 C-114.60889526 206.56571777 -115.56276123 206.58553711 -116.54553223 206.60595703 C-118.04473206 206.60764893 -118.04473206 206.60764893 -119.57421875 206.609375 C-120.95559021 206.63281982 -120.95559021 206.63281982 -122.36486816 206.65673828 C-125.80548369 206.70934665 -129.24655516 206.7276065 -132.6875 206.75 C-140.380625 206.8325 -148.07375 206.915 -156 207 C-156 176.31 -156 145.62 -156 114 C-173.88752236 113.30683123 -173.88752236 113.30683123 -191 118 C-191 178.06 -191 238.12 -191 300 C-181.72250951 303.4202909 -181.72250951 303.4202909 -172.375 305.75 C-170.59222656 306.11351562 -170.59222656 306.11351562 -168.7734375 306.484375 C-164.14856158 307.20308173 -164.14856158 307.20308173 -156 307 C-156 275.98 -156 244.96 -156 213 C-141.48 213 -126.96 213 -112 213 C-108.70289336 216.29710664 -106.77261978 218.72136565 -104.4375 222.625 C-103.73965549 223.78129355 -103.04173437 224.93754087 -102.34375 226.09375 C-101.96992188 226.71765625 -101.59609375 227.3415625 -101.2109375 227.984375 C-98.97275812 231.70986067 -96.70282065 235.41598163 -94.4375 239.125 C-94.00300537 239.83994629 -93.56851074 240.55489258 -93.12084961 241.29150391 C-89.49328227 247.24543862 -85.75703733 253.12709531 -82 259 C-74.85291414 270.17705619 -67.72016822 281.35444985 -60.8527832 292.70629883 C-58.74776543 296.17688244 -56.615223 299.62018595 -54.390625 303.015625 C-53.97659424 303.64791016 -53.56256348 304.28019531 -53.13598633 304.93164062 C-52.02302292 306.62024349 -50.90057047 308.30258164 -49.77734375 309.984375 C-48.03143379 312.94666618 -46.95175141 315.70585522 -46 319 C-47.27875 318.979375 -48.5575 318.95875 -49.875 318.9375 C-54.96207017 318.92941245 -59.9516147 319.40979211 -65 320 C-65 321.98 -65 323.96 -65 326 C-38.6 326 -12.2 326 15 326 C15 324.02 15 322.04 15 320 C11.37513341 319.66520515 7.75008583 319.33241184 4.125 319 C3.09246094 318.90460938 2.05992187 318.80921875 0.99609375 318.7109375 C-0.48310547 318.57558594 -0.48310547 318.57558594 -1.9921875 318.4375 C-2.90339355 318.35371094 -3.81459961 318.26992188 -4.75341797 318.18359375 C-6.95654726 317.97285005 -6.95654726 317.97285005 -9 318 C-9.12511963 317.4124292 -9.25023926 316.8248584 -9.37915039 316.21948242 C-9.9929551 314.02518491 -10.76539144 312.43403041 -11.93359375 310.48828125 C-12.33054443 309.82094971 -12.72749512 309.15361816 -13.13647461 308.46606445 C-13.56581299 307.75538818 -13.99515137 307.04471191 -14.4375 306.3125 C-15.34382271 304.79171 -16.25007047 303.27087532 -17.15625 301.75 C-17.62417969 300.96882812 -18.09210938 300.18765625 -18.57421875 299.3828125 C-20.87675123 295.53474451 -23.15833149 291.67443626 -25.4375 287.8125 C-25.84991943 287.11874268 -26.26233887 286.42498535 -26.68725586 285.71020508 C-28.95330432 281.87582116 -31.05893139 278.01320616 -33 274 C-33.66 274 -34.32 274 -35 274 C-35.11988281 273.42290283 -35.23976563 272.84580566 -35.36328125 272.2512207 C-36.0326045 269.88472159 -36.9457065 268.09910308 -38.1875 265.98046875 C-38.63440186 265.21299316 -39.08130371 264.44551758 -39.54174805 263.65478516 C-40.02297119 262.84058105 -40.50419434 262.02637695 -41 261.1875 C-41.4947583 260.3423584 -41.9895166 259.4972168 -42.49926758 258.62646484 C-43.99299066 256.08039503 -45.49466133 253.53921679 -47 251 C-47.62914307 249.93821533 -47.62914307 249.93821533 -48.27099609 248.85498047 C-51.51102855 243.39942644 -54.77675195 237.96025055 -58.125 232.5703125 C-62.31676949 225.82219873 -66.26001845 219.00743855 -70 212 C-71.12319463 209.93651628 -72.2481558 207.873993 -73.375 205.8125 C-74.25 204.20833333 -75.125 202.60416667 -76 201 C-76.66 201 -77.32 201 -78 201 C-78.0825 200.484375 -78.165 199.96875 -78.25 199.4375 C-78.95783227 197.13704512 -79.80850002 195.59194167 -81.0625 193.5625 C-82.83986197 190.55515203 -83.4933707 188.55226903 -83 185 C-82.505 183.515 -82.505 183.515 -82 182 C-81.34 182 -80.68 182 -80 182 C-78.27664364 179.97270072 -76.6618831 177.93466777 -75.0625 175.8125 C-71.25526367 170.85759154 -67.37671188 165.99669678 -63.3125 161.25 C-59.43409063 156.71033578 -55.64920694 152.11064383 -51.9375 147.43359375 C-45.97212881 139.94079889 -39.83666703 132.5818556 -33.75 125.1875 C-33.15944824 124.47005615 -32.56889648 123.7526123 -31.96044922 123.01342773 C-31.39084473 122.32192627 -30.82124023 121.6304248 -30.234375 120.91796875 C-29.68845703 120.2532959 -29.14253906 119.58862305 -28.58007812 118.90380859 C-27.55413501 117.66766761 -26.51691929 116.44076485 -25.46679688 115.22509766 C-22.82840799 112.50532871 -22.82840799 112.50532871 -22 109 C-21.34 109 -20.68 109 -20 109 C-19.1645448 107.70686705 -18.3659409 106.38981794 -17.5859375 105.0625 C-15.65350269 102.3982069 -14.63708284 101.18836766 -11.45019531 100.24609375 C-8.48439826 99.98987817 -5.6010606 99.94239883 -2.625 100 C-1.09166016 99.98259766 -1.09166016 99.98259766 0.47265625 99.96484375 C2.98381851 99.94137494 5.48930609 99.95413094 8 100 C8 98.35 8 96.7 8 95 C-8.5 95 -25 95 -42 95 Z " fill="#11100F" transform="translate(380,36)"/>
<path d="M0 0 C0 4.16067938 -0.9597973 7.98778958 -2 12 C-4.31 12.33 -6.62 12.66 -9 13 C-9 14.98 -9 16.96 -9 19 C-9.99 19 -10.98 19 -12 19 C-12.66 19.99 -13.32 20.98 -14 22 C-14.66 21.67 -15.32 21.34 -16 21 C-14.36194634 17.16253721 -11.8116116 14.1994911 -9.125 11.0625 C-6.0319646 7.41418673 -2.96973907 3.75015887 0 0 Z " fill="#454343" transform="translate(329,181)"/>
<path d="M0 0 C0.66 0.33 1.32 0.66 2 1 C0.51461988 5.7037037 0.51461988 5.7037037 -2.0625 7.1875 C-2.701875 7.455625 -3.34125 7.72375 -4 8 C-4.33 8.66 -4.66 9.32 -5 10 C-6.32 9.67 -7.64 9.34 -9 9 C-9 8.01 -9 7.02 -9 6 C-7.03125 4.39453125 -7.03125 4.39453125 -4.5 2.8125 C-3.6646875 2.28269531 -2.829375 1.75289062 -1.96875 1.20703125 C-0.99421875 0.60955078 -0.99421875 0.60955078 0 0 Z " fill="#2E2E2D" transform="translate(117,38)"/>
<path d="M0 0 C0.640625 1.84765625 0.640625 1.84765625 1 4 C-1.25 6.4375 -1.25 6.4375 -4 9 C-4.515625 9.9075 -5.03125 10.815 -5.5625 11.75 C-7 14 -7 14 -9.1875 14.8125 C-9.785625 14.874375 -10.38375 14.93625 -11 15 C-11.33 16.32 -11.66 17.64 -12 19 C-12.20086443 15.28400809 -12.1519437 14.22791555 -10 11 C-9.34 11 -8.68 11 -8 11 C-7.73445313 10.41734375 -7.46890625 9.8346875 -7.1953125 9.234375 C-5.96697004 6.93825772 -4.59685061 5.19643982 -2.875 3.25 C-2.33617187 2.63640625 -1.79734375 2.0228125 -1.2421875 1.390625 C-0.62730469 0.70226562 -0.62730469 0.70226562 0 0 Z " fill="#5B5A59" transform="translate(308,207)"/>
<path d="M0 0 C-0.33 1.32 -0.66 2.64 -1 4 C-1.66 4 -2.32 4 -3 4 C-3.66 5.65 -4.32 7.3 -5 9 C-5.66 9 -6.32 9 -7 9 C-7.66 10.32 -8.32 11.64 -9 13 C-9.66 11.68 -10.32 10.36 -11 9 C-10.01 9 -9.02 9 -8 9 C-7.690625 8.05125 -7.38125 7.1025 -7.0625 6.125 C-6 3 -6 3 -5 1 C-2 0 -2 0 0 0 Z " fill="#3A3939" transform="translate(330,170)"/>
<path d="M0 0 C0.66 0 1.32 0 2 0 C1.21302675 3.41021743 0.12880057 6.68885166 -1 10 C-3.97 9.505 -3.97 9.505 -7 9 C-7 8.34 -7 7.68 -7 7 C-5.01739574 5.31267723 -3.0167658 3.64633943 -1 2 C-0.67 1.34 -0.34 0.68 0 0 Z " fill="#302E2E" transform="translate(78,68)"/>
<path d="M0 0 C1.98 0 3.96 0 6 0 C4.38731308 2.71224618 2.75098126 5.37352812 1 8 C0.34 8 -0.32 8 -1 8 C-1.33 8.66 -1.66 9.32 -2 10 C-1.125 2.25 -1.125 2.25 0 0 Z " fill="#403F3E" transform="translate(339,153)"/>
<path d="M0 0 C1.485 0.99 1.485 0.99 3 2 C5.11280345 2.63292383 5.11280345 2.63292383 7 3 C6.01 4.98 5.02 6.96 4 9 C3.34 9 2.68 9 2 9 C0.4375 6.1875 0.4375 6.1875 -1 3 C-0.67 2.01 -0.34 1.02 0 0 Z " fill="#302F2E" transform="translate(114,161)"/>
<path d="M0 0 C1.07765625 0.00902344 2.1553125 0.01804688 3.265625 0.02734375 C4.08546875 0.03894531 4.9053125 0.05054687 5.75 0.0625 C3.03100232 1.54450313 1.34618647 2.11917558 -1.8125 2.5625 C-5.36295563 2.82785587 -5.36295563 2.82785587 -8.25 5.0625 C-8.25 4.4025 -8.25 3.7425 -8.25 3.0625 C-8.91 2.4025 -9.57 1.7425 -10.25 1.0625 C-6.78777385 -0.00473961 -3.60960734 -0.03923486 0 0 Z " fill="#090808" transform="translate(228.25,1.9375)"/>
<path d="M0 0 C1.43088528 2.86177057 0.59991697 4.93375773 0 8 C-0.99 8 -1.98 8 -3 8 C-3.99 9.485 -3.99 9.485 -5 11 C-5.66 10.67 -6.32 10.34 -7 10 C-5.33248852 6.05860922 -2.77289351 3.2107188 0 0 Z " fill="#4A4949" transform="translate(320,192)"/>
<path d="M0 0 C0.99 0.33 1.98 0.66 3 1 C3 1.66 3 2.32 3 3 C1.25 4.7265625 1.25 4.7265625 -1 6.625 C-1.7425 7.25664062 -2.485 7.88828125 -3.25 8.5390625 C-3.8275 9.02117187 -4.405 9.50328125 -5 10 C-5.33 8.68 -5.66 7.36 -6 6 C-5.195625 5.38125 -4.39125 4.7625 -3.5625 4.125 C-0.96125481 2.25835959 -0.96125481 2.25835959 0 0 Z " fill="#3F3E3D" transform="translate(419,429)"/>
<path d="M0 0 C0.66 0.33 1.32 0.66 2 1 C2 3.3125 2 3.3125 1 6 C-1.55518097 7.38293093 -4.20866129 8.21791649 -7 9 C-5.44499019 5.18315774 -2.96404505 2.80804268 0 0 Z " fill="#525150" transform="translate(163,153)"/>
<path d="M0 0 C0.66 1.32 1.32 2.64 2 4 C-3.14285714 9.57142857 -3.14285714 9.57142857 -7 10 C-4.75421558 6.59260295 -2.48862878 3.23521742 0 0 Z " fill="#393738" transform="translate(61,86)"/>
<path d="M0 0 C0.625 1.875 0.625 1.875 1 4 C0.34 4.66 -0.32 5.32 -1 6 C-1.66 5.67 -2.32 5.34 -3 5 C-3.33 6.32 -3.66 7.64 -4 9 C-5.32 8.67 -6.64 8.34 -8 8 C-7.04578192 6.85073734 -6.08647955 5.70569459 -5.125 4.5625 C-4.59132813 3.92441406 -4.05765625 3.28632812 -3.5078125 2.62890625 C-2 1 -2 1 0 0 Z " fill="#3D3C3A" transform="translate(70,77)"/>
<path d="M0 0 C0.99 0 1.98 0 3 0 C2.01 3.63 1.02 7.26 0 11 C-0.33 10.01 -0.66 9.02 -1 8 C-1.99 7.67 -2.98 7.34 -4 7 C-3.34 6.01 -2.68 5.02 -2 4 C-1.01 4 -0.02 4 1 4 C0.67 2.68 0.34 1.36 0 0 Z " fill="#464543" transform="translate(486,322)"/>
<path d="M0 0 C0.33 0 0.66 0 1 0 C1.33 2.64 1.66 5.28 2 8 C0.35 8.33 -1.3 8.66 -3 9 C-3.33 8.34 -3.66 7.68 -4 7 C-3.0625 4.875 -3.0625 4.875 -2 3 C-1.34 3.33 -0.68 3.66 0 4 C0 2.68 0 1.36 0 0 Z " fill="#302F2D" transform="translate(100,283)"/>
<path d="M0 0 C3.81538462 2.46153846 3.81538462 2.46153846 4.75 5.1875 C4.8325 5.785625 4.915 6.38375 5 7 C-0.75 5.25 -0.75 5.25 -3 3 C-2.34 3 -1.68 3 -1 3 C-0.67 2.01 -0.34 1.02 0 0 Z " fill="#292827" transform="translate(133,465)"/>
<path d="M0 0 C0.66 0.33 1.32 0.66 2 1 C1.67 2.65 1.34 4.3 1 6 C-0.32 6 -1.64 6 -3 6 C-3.33 5.01 -3.66 4.02 -4 3 C-3.34 3 -2.68 3 -2 3 C-1.67 2.34 -1.34 1.68 -1 1 C-0.67 0.67 -0.34 0.34 0 0 Z " fill="#22211F" transform="translate(316,249)"/>
<path d="M0 0 C2.64 1.65 5.28 3.3 8 5 C6.02 5.99 6.02 5.99 4 7 C1 5 1 5 0.3125 2.375 C0.209375 1.59125 0.10625 0.8075 0 0 Z " fill="#494546" transform="translate(137,343)"/>
<path d="M0 0 C0.8125 1.6875 0.8125 1.6875 1 4 C-1.1613627 6.51185394 -3.01962439 8.50981219 -6 10 C-5.49477778 5.62140745 -2.82172778 3.18348776 0 0 Z " fill="#474645" transform="translate(308,207)"/>
<path d="M0 0 C1.0625 1.875 1.0625 1.875 2 4 C1.67 4.66 1.34 5.32 1 6 C-1.97 5.505 -1.97 5.505 -5 5 C-4.1875 3.0625 -4.1875 3.0625 -3 1 C-2.01 0.67 -1.02 0.34 0 0 Z " fill="#353432" transform="translate(485,166)"/>
<path d="M0 0 C0.66 0.33 1.32 0.66 2 1 C2 2.65 2 4.3 2 6 C-0.97 6 -3.94 6 -7 6 C-7 5.67 -7 5.34 -7 5 C-5.02 5 -3.04 5 -1 5 C-0.67 3.35 -0.34 1.7 0 0 Z " fill="#555454" transform="translate(332,349)"/>
<path d="M0 0 C1.32 0.33 2.64 0.66 4 1 C2.35 2.65 0.7 4.3 -1 6 C-1.66 5.34 -2.32 4.68 -3 4 C-2.01 2.68 -1.02 1.36 0 0 Z " fill="#444342" transform="translate(296,207)"/>
<path d="M0 0 C0.99 0.33 1.98 0.66 3 1 C0.525 4.465 0.525 4.465 -2 8 C-2.66 7.67 -3.32 7.34 -4 7 C-2.68 4.69 -1.36 2.38 0 0 Z " fill="#424241" transform="translate(36,121)"/>
<path d="M0 0 C1.98 0.495 1.98 0.495 4 1 C4 2.98 4 4.96 4 7 C2.35 5.35 0.7 3.7 -1 2 C-0.67 1.34 -0.34 0.68 0 0 Z " fill="#373736" transform="translate(53,400)"/>
<path d="M0 0 C0.99 0.33 1.98 0.66 3 1 C4.1875 3.5625 4.1875 3.5625 5 6 C4.01 5.67 3.02 5.34 2 5 C1.01 5 0.02 5 -1 5 C-0.67 3.35 -0.34 1.7 0 0 Z " fill="#3C3B3A" transform="translate(268,249)"/>
<path d="M0 0 C0.66 1.32 1.32 2.64 2 4 C1.34 4 0.68 4 0 4 C-0.66 5.32 -1.32 6.64 -2 8 C-2.66 6.68 -3.32 5.36 -4 4 C-3.01 4 -2.02 4 -1 4 C-0.67 2.68 -0.34 1.36 0 0 Z " fill="#4F4D4E" transform="translate(323,175)"/>
<path d="M0 0 C2.4375 0.375 2.4375 0.375 5 1 C5.33 1.66 5.66 2.32 6 3 C4.35 3.66 2.7 4.32 1 5 C0.67 3.35 0.34 1.7 0 0 Z " fill="#3A3936" transform="translate(134,145)"/>
<path d="M0 0 C0.66 0.33 1.32 0.66 2 1 C-0.97 3.475 -0.97 3.475 -4 6 C-4 5.34 -4 4.68 -4 4 C-4.99 3.67 -5.98 3.34 -7 3 C-4.69631264 1.93347808 -2.35981813 0.93578995 0 0 Z " fill="#5D5B5C" transform="translate(186,140)"/>
<path d="M0 0 C2 3 2 3 1.625 5.1875 C1.41875 5.785625 1.2125 6.38375 1 7 C-0.32 7.33 -1.64 7.66 -3 8 C-1.125 2.25 -1.125 2.25 0 0 Z " fill="#4A484A" transform="translate(29,133)"/>
<path d="M0 0 C0.66 0.33 1.32 0.66 2 1 C1.34 2.65 0.68 4.3 0 6 C-1.32 5.67 -2.64 5.34 -4 5 C-2.68 3.35 -1.36 1.7 0 0 Z " fill="#262524" transform="translate(117,38)"/>
<path d="M0 0 C0.33 0.66 0.66 1.32 1 2 C1.66 2.33 2.32 2.66 3 3 C5 4 5 4 6 6 C4.33388095 6.042721 2.66617115 6.04063832 1 6 C0 5 0 5 -0.0625 2.4375 C-0.041875 1.633125 -0.02125 0.82875 0 0 Z " fill="#4A4A4A" transform="translate(130,337)"/>
<path d="M0 0 C0.6875 1.8125 0.6875 1.8125 1 4 C-0.4375 5.75 -0.4375 5.75 -2 7 C-2.99 6.67 -3.98 6.34 -5 6 C-3.35 4.02 -1.7 2.04 0 0 Z " fill="#565555" transform="translate(342,165)"/>
<path d="M0 0 C0.33 1.32 0.66 2.64 1 4 C-0.65 5.32 -2.3 6.64 -4 8 C-4 4.09161134 -2.49432124 2.88405893 0 0 Z " fill="#666464" transform="translate(350,155)"/>
</svg>
